<svg width="409" height="127" viewBox="0 0 409 127" fill="none" xmlns="http://www.w3.org/2000/svg">
<path d="M20 16C20 7.16345 27.1634 0 36 0H373C381.837 0 389 7.16344 389 16V91C389 99.8366 381.837 107 373 107H36C27.1634 107 20 99.8366 20 91V16Z" fill="#D0D9FB" fill-opacity="0.08"/>
<path d="M33.92 13.35H33.76L32.29 14.22V12.96L33.92 12H35.11V19H33.92V13.35ZM39.2132 13.73H40.3332V19H39.2132V13.73ZM39.1832 11.81H40.3632V12.99H39.1832V11.81ZM41.6937 13.73H42.8137V14.51L42.9637 14.57C43.097 14.2833 43.297 14.0567 43.5637 13.89C43.8303 13.7167 44.147 13.63 44.5137 13.63C45.087 13.63 45.5337 13.8067 45.8537 14.16C46.1803 14.5133 46.3437 15 46.3437 15.62V19H45.2237V15.88C45.2237 15.4733 45.127 15.17 44.9337 14.97C44.747 14.77 44.4803 14.67 44.1337 14.67C43.847 14.67 43.587 14.7433 43.3537 14.89C43.1203 15.0367 42.9403 15.23 42.8137 15.47V19H41.6937V13.73ZM53.3188 18.45H54.6688L55.6188 20.35H54.2888L53.3188 18.45ZM53.2588 19.1C52.6055 19.1 52.0222 18.9567 51.5088 18.67C51.0022 18.3767 50.6022 17.96 50.3088 17.42C50.0222 16.8733 49.8788 16.2333 49.8788 15.5C49.8788 14.7733 50.0222 14.14 50.3088 13.6C50.5955 13.0533 50.9955 12.6333 51.5088 12.34C52.0222 12.0467 52.6055 11.9 53.2588 11.9C53.9188 11.9 54.5022 12.0467 55.0088 12.34C55.5155 12.6333 55.9122 13.0533 56.1988 13.6C56.4855 14.14 56.6288 14.7733 56.6288 15.5C56.6288 16.2333 56.4855 16.8733 56.1988 17.42C55.9122 17.96 55.5155 18.3767 55.0088 18.67C54.5022 18.9567 53.9188 19.1 53.2588 19.1ZM53.2588 17.95C53.6922 17.95 54.0688 17.8567 54.3888 17.67C54.7155 17.4767 54.9688 17.1967 55.1488 16.83C55.3288 16.4633 55.4188 16.02 55.4188 15.5C55.4188 14.98 55.3288 14.5367 55.1488 14.17C54.9688 13.8033 54.7155 13.5267 54.3888 13.34C54.0688 13.1467 53.6922 13.05 53.2588 13.05C52.8255 13.05 52.4455 13.1467 52.1188 13.34C51.7922 13.5267 51.5388 13.8033 51.3588 14.17C51.1855 14.5367 51.0988 14.98 51.0988 15.5C51.0988 16.02 51.1855 16.4633 51.3588 16.83C51.5388 17.1967 51.7922 17.4767 52.1188 17.67C52.4455 17.8567 52.8255 17.95 53.2588 17.95ZM59.3509 19.1C58.8043 19.1 58.3743 18.9233 58.0609 18.57C57.7476 18.2167 57.5909 17.73 57.5909 17.11V13.73H58.7109V16.79C58.7109 17.23 58.8009 17.5533 58.9809 17.76C59.1609 17.96 59.4176 18.06 59.7509 18.06C60.0176 18.06 60.2643 17.9867 60.4909 17.84C60.7176 17.6933 60.8943 17.5 61.0209 17.26V13.73H62.1409V19H61.0209V18.22L60.8809 18.17C60.7276 18.4633 60.5243 18.6933 60.2709 18.86C60.0243 19.02 59.7176 19.1 59.3509 19.1ZM65.8103 19.1C65.277 19.1 64.8136 18.9867 64.4203 18.76C64.027 18.5333 63.7236 18.2167 63.5103 17.81C63.297 17.3967 63.1903 16.9167 63.1903 16.37C63.1903 15.8367 63.2936 15.3633 63.5003 14.95C63.7136 14.53 64.0103 14.2067 64.3903 13.98C64.7703 13.7467 65.2103 13.63 65.7103 13.63C66.4903 13.63 67.087 13.8767 67.5003 14.37C67.9136 14.8567 68.1203 15.51 68.1203 16.33V16.69H63.8203L64.2903 16.25C64.2903 16.87 64.4203 17.33 64.6803 17.63C64.9403 17.9233 65.317 18.07 65.8103 18.07C66.0836 18.07 66.3336 18.0267 66.5603 17.94C66.787 17.8467 67.0103 17.7033 67.2303 17.51L67.9203 18.33C67.647 18.5833 67.327 18.7767 66.9603 18.91C66.5936 19.0367 66.2103 19.1 65.8103 19.1ZM65.7203 14.61C65.3603 14.61 65.0636 14.71 64.8303 14.91C64.6036 15.1033 64.447 15.3833 64.3603 15.75H66.9903C66.9436 15.39 66.8103 15.11 66.5903 14.91C66.3703 14.71 66.0803 14.61 65.7203 14.61ZM70.8158 19.1C70.2691 19.1 69.8391 18.9233 69.5258 18.57C69.2124 18.2167 69.0558 17.73 69.0558 17.11V13.73H70.1758V16.79C70.1758 17.23 70.2658 17.5533 70.4458 17.76C70.6258 17.96 70.8824 18.06 71.2158 18.06C71.4824 18.06 71.7291 17.9867 71.9558 17.84C72.1824 17.6933 72.3591 17.5 72.4858 17.26V13.73H73.6058V19H72.4858V18.22L72.3458 18.17C72.1924 18.4633 71.9891 18.6933 71.7358 18.86C71.4891 19.02 71.1824 19.1 70.8158 19.1ZM77.2752 19.1C76.7418 19.1 76.2785 18.9867 75.8852 18.76C75.4918 18.5333 75.1885 18.2167 74.9752 17.81C74.7618 17.3967 74.6552 16.9167 74.6552 16.37C74.6552 15.8367 74.7585 15.3633 74.9652 14.95C75.1785 14.53 75.4752 14.2067 75.8552 13.98C76.2352 13.7467 76.6752 13.63 77.1752 13.63C77.9552 13.63 78.5518 13.8767 78.9652 14.37C79.3785 14.8567 79.5852 15.51 79.5852 16.33V16.69H75.2852L75.7552 16.25C75.7552 16.87 75.8852 17.33 76.1452 17.63C76.4052 17.9233 76.7818 18.07 77.2752 18.07C77.5485 18.07 77.7985 18.0267 78.0252 17.94C78.2518 17.8467 78.4752 17.7033 78.6952 17.51L79.3852 18.33C79.1118 18.5833 78.7918 18.7767 78.4252 18.91C78.0585 19.0367 77.6752 19.1 77.2752 19.1ZM77.1852 14.61C76.8252 14.61 76.5285 14.71 76.2952 14.91C76.0685 15.1033 75.9118 15.3833 75.8252 15.75H78.4552C78.4085 15.39 78.2752 15.11 78.0552 14.91C77.8352 14.71 77.5452 14.61 77.1852 14.61Z" fill="#BCBEC8"/>
<path d="M354.15 12H355.43L357.4 17.54H357.55L359.52 12H360.81L358.21 19H356.75L354.15 12ZM361.614 13.73H362.734V19H361.614V13.73ZM361.584 11.81H362.764V12.99H361.584V11.81ZM366.404 19.1C365.871 19.1 365.407 18.9867 365.014 18.76C364.621 18.5333 364.317 18.2167 364.104 17.81C363.891 17.3967 363.784 16.9167 363.784 16.37C363.784 15.8367 363.887 15.3633 364.094 14.95C364.307 14.53 364.604 14.2067 364.984 13.98C365.364 13.7467 365.804 13.63 366.304 13.63C367.084 13.63 367.681 13.8767 368.094 14.37C368.507 14.8567 368.714 15.51 368.714 16.33V16.69H364.414L364.884 16.25C364.884 16.87 365.014 17.33 365.274 17.63C365.534 17.9233 365.911 18.07 366.404 18.07C366.677 18.07 366.927 18.0267 367.154 17.94C367.381 17.8467 367.604 17.7033 367.824 17.51L368.514 18.33C368.241 18.5833 367.921 18.7767 367.554 18.91C367.187 19.0367 366.804 19.1 366.404 19.1ZM366.314 14.61C365.954 14.61 365.657 14.71 365.424 14.91C365.197 15.1033 365.041 15.3833 364.954 15.75H367.584C367.537 15.39 367.404 15.11 367.184 14.91C366.964 14.71 366.674 14.61 366.314 14.61ZM369.24 13.73H370.47L371.11 17.55H371.23L372.24 13.73H373.58L374.6 17.55H374.72L375.35 13.73H376.58L375.44 19H374.07L372.97 15.07H372.85L371.75 19H370.38L369.24 13.73Z" fill="#F7F7F8"/>
<g filter="url(#filter0_dd_509_47506)">
<path d="M20 46C20 37.1634 27.1634 30 36 30H373C381.837 30 389 37.1634 389 46V91C389 99.8366 381.837 107 373 107H36C27.1634 107 20 99.8366 20 91V46Z" fill="#191A1F"/>
<path d="M36 30.5H373C381.56 30.5 388.5 37.4396 388.5 46V91C388.5 99.5604 381.56 106.5 373 106.5H36C27.4396 106.5 20.5 99.5604 20.5 91V46C20.5 37.4396 27.4396 30.5 36 30.5Z" stroke="#D0D9FB" stroke-opacity="0.16"/>
<path d="M34.984 46.6H38.104C38.872 46.6 39.476 46.788 39.916 47.164C40.364 47.532 40.588 48.08 40.588 48.808C40.588 49.184 40.508 49.516 40.348 49.804C40.188 50.084 39.956 50.308 39.652 50.476V50.62C40.1 50.788 40.436 51.028 40.66 51.34C40.892 51.644 41.008 52.056 41.008 52.576C41.008 53.352 40.76 53.952 40.264 54.376C39.776 54.792 39.12 55 38.296 55H34.984V46.6ZM38.164 54.04C38.764 54.04 39.216 53.924 39.52 53.692C39.824 53.46 39.976 53.088 39.976 52.576C39.976 52.064 39.824 51.688 39.52 51.448C39.224 51.208 38.788 51.088 38.212 51.088H35.824V50.152H38.104C38.416 50.152 38.68 50.112 38.896 50.032C39.112 49.944 39.276 49.804 39.388 49.612C39.508 49.42 39.568 49.168 39.568 48.856C39.568 48.384 39.436 48.052 39.172 47.86C38.916 47.66 38.52 47.56 37.984 47.56H36.016V54.04H38.164ZM44.5592 55.12C43.8472 55.12 43.2992 54.912 42.9152 54.496C42.5392 54.08 42.3512 53.456 42.3512 52.624V48.712H43.3112V52.564C43.3112 53.116 43.4352 53.528 43.6832 53.8C43.9392 54.072 44.3072 54.208 44.7872 54.208C45.1792 54.208 45.5312 54.104 45.8432 53.896C46.1552 53.688 46.4192 53.4 46.6352 53.032V48.712H47.5952V55H46.6352V53.992L46.4912 53.944C46.3152 54.304 46.0592 54.592 45.7232 54.808C45.3872 55.016 44.9992 55.12 44.5592 55.12ZM49.3249 48.712H50.2849V55H49.3249V48.712ZM49.2889 46.48H50.3209V47.512H49.2889V46.48ZM52.0085 46.48H52.9685V55H52.0085V46.48ZM57.0561 55.12C56.5121 55.12 56.0321 55 55.6161 54.76C55.2081 54.512 54.8881 54.152 54.6561 53.68C54.4241 53.208 54.3081 52.64 54.3081 51.976C54.3081 51.24 54.4481 50.62 54.7281 50.116C55.0161 49.604 55.4001 49.224 55.8801 48.976C56.3681 48.72 56.9121 48.592 57.5121 48.592C57.7521 48.592 58.0001 48.62 58.2561 48.676C58.5121 48.724 58.7561 48.792 58.9881 48.88V46.48H59.9481V55H58.9881V54.172L58.8441 54.124C58.6361 54.468 58.3801 54.72 58.0761 54.88C57.7721 55.04 57.4321 55.12 57.0561 55.12ZM57.1281 54.184C57.5841 54.184 57.9481 54.1 58.2201 53.932C58.4921 53.764 58.7481 53.504 58.9881 53.152V49.816C58.7481 49.72 58.5081 49.648 58.2681 49.6C58.0361 49.552 57.7801 49.528 57.5001 49.528C57.0281 49.528 56.6241 49.628 56.2881 49.828C55.9601 50.02 55.7121 50.3 55.5441 50.668C55.3761 51.036 55.2921 51.472 55.2921 51.976C55.2921 52.392 55.3681 52.768 55.5201 53.104C55.6801 53.44 55.9001 53.704 56.1801 53.896C56.4601 54.088 56.7761 54.184 57.1281 54.184ZM64.2389 48.712H65.3189L66.2549 53.764H66.3989L67.7309 48.712H69.0029L70.3709 53.764H70.5149L71.4389 48.712H72.5189L71.1629 55H69.8549L68.4509 49.876H68.3069L66.9029 55H65.5949L64.2389 48.712ZM73.571 48.712H74.531V55H73.571V48.712ZM73.535 46.48H74.567V47.512H73.535V46.48ZM78.5346 55.12C77.9826 55.12 77.5306 54.992 77.1786 54.736C76.8266 54.48 76.6506 53.98 76.6506 53.236V49.6H75.5586V48.712H76.6506V47.248H77.6106V48.712H79.4106V49.6H77.6106V53.188C77.6106 53.588 77.7026 53.86 77.8866 54.004C78.0706 54.14 78.3386 54.208 78.6906 54.208C78.8426 54.208 78.9826 54.196 79.1106 54.172C79.2466 54.148 79.3906 54.112 79.5426 54.064V54.928C79.3906 54.984 79.2226 55.028 79.0386 55.06C78.8546 55.1 78.6866 55.12 78.5346 55.12ZM80.5906 46.48H81.5506V49.72L81.6946 49.768C81.8706 49.408 82.1306 49.124 82.4746 48.916C82.8186 48.7 83.2106 48.592 83.6506 48.592C84.3626 48.592 84.9226 48.796 85.3306 49.204C85.7466 49.612 85.9546 50.2 85.9546 50.968V55H84.9946V51.088C84.9946 50.544 84.8666 50.144 84.6106 49.888C84.3626 49.632 84.0026 49.504 83.5306 49.504C83.1146 49.504 82.7306 49.612 82.3786 49.828C82.0346 50.036 81.7586 50.32 81.5506 50.68V55H80.5906V46.48ZM93.1479 46.6H94.4199L97.4079 55H96.2799L93.8559 47.872H93.7119L91.2759 55H90.1479L93.1479 46.6ZM91.6599 51.736H95.8959V52.696H91.6599V51.736ZM100.359 55.12C99.8948 55.12 99.4508 55.036 99.0268 54.868C98.6108 54.692 98.2548 54.444 97.9588 54.124L98.5828 53.38C98.8228 53.644 99.0948 53.844 99.3988 53.98C99.7028 54.116 100.031 54.184 100.383 54.184C100.783 54.184 101.107 54.108 101.355 53.956C101.611 53.796 101.739 53.564 101.739 53.26C101.739 53.02 101.659 52.836 101.499 52.708C101.339 52.572 101.071 52.456 100.695 52.36L99.7708 52.132C99.2988 52.02 98.9268 51.828 98.6548 51.556C98.3828 51.284 98.2468 50.924 98.2468 50.476C98.2468 49.884 98.4428 49.424 98.8348 49.096C99.2348 48.76 99.7548 48.592 100.395 48.592C100.851 48.592 101.263 48.668 101.631 48.82C102.007 48.972 102.339 49.188 102.627 49.468L102.003 50.212C101.779 49.98 101.531 49.808 101.259 49.696C100.995 49.584 100.707 49.528 100.395 49.528C100.019 49.528 99.7308 49.608 99.5308 49.768C99.3308 49.92 99.2308 50.124 99.2308 50.38C99.2308 50.612 99.3068 50.796 99.4588 50.932C99.6188 51.06 99.8788 51.168 100.239 51.256L100.995 51.448C101.571 51.592 102.003 51.796 102.291 52.06C102.579 52.324 102.723 52.684 102.723 53.14C102.723 53.756 102.511 54.24 102.087 54.592C101.671 54.944 101.095 55.12 100.359 55.12ZM105.937 55.12C105.473 55.12 105.029 55.036 104.605 54.868C104.189 54.692 103.833 54.444 103.537 54.124L104.161 53.38C104.401 53.644 104.673 53.844 104.977 53.98C105.281 54.116 105.609 54.184 105.961 54.184C106.361 54.184 106.685 54.108 106.933 53.956C107.189 53.796 107.317 53.564 107.317 53.26C107.317 53.02 107.237 52.836 107.077 52.708C106.917 52.572 106.649 52.456 106.273 52.36L105.349 52.132C104.877 52.02 104.505 51.828 104.233 51.556C103.961 51.284 103.825 50.924 103.825 50.476C103.825 49.884 104.021 49.424 104.413 49.096C104.813 48.76 105.333 48.592 105.973 48.592C106.429 48.592 106.841 48.668 107.209 48.82C107.585 48.972 107.917 49.188 108.205 49.468L107.581 50.212C107.357 49.98 107.109 49.808 106.837 49.696C106.573 49.584 106.285 49.528 105.973 49.528C105.597 49.528 105.309 49.608 105.109 49.768C104.909 49.92 104.809 50.124 104.809 50.38C104.809 50.612 104.885 50.796 105.037 50.932C105.197 51.06 105.457 51.168 105.817 51.256L106.573 51.448C107.149 51.592 107.581 51.796 107.869 52.06C108.157 52.324 108.301 52.684 108.301 53.14C108.301 53.756 108.089 54.24 107.665 54.592C107.249 54.944 106.673 55.12 105.937 55.12ZM109.583 48.712H110.543V55H109.583V48.712ZM109.547 46.48H110.579V47.512H109.547V46.48ZM114.163 55.12C113.699 55.12 113.255 55.036 112.831 54.868C112.415 54.692 112.059 54.444 111.763 54.124L112.387 53.38C112.627 53.644 112.899 53.844 113.203 53.98C113.507 54.116 113.835 54.184 114.187 54.184C114.587 54.184 114.911 54.108 115.159 53.956C115.415 53.796 115.543 53.564 115.543 53.26C115.543 53.02 115.463 52.836 115.303 52.708C115.143 52.572 114.875 52.456 114.499 52.36L113.575 52.132C113.103 52.02 112.731 51.828 112.459 51.556C112.187 51.284 112.051 50.924 112.051 50.476C112.051 49.884 112.247 49.424 112.639 49.096C113.039 48.76 113.559 48.592 114.199 48.592C114.655 48.592 115.067 48.668 115.435 48.82C115.811 48.972 116.143 49.188 116.431 49.468L115.807 50.212C115.583 49.98 115.335 49.808 115.063 49.696C114.799 49.584 114.511 49.528 114.199 49.528C113.823 49.528 113.535 49.608 113.335 49.768C113.135 49.92 113.035 50.124 113.035 50.38C113.035 50.612 113.111 50.796 113.263 50.932C113.423 51.06 113.683 51.168 114.043 51.256L114.799 51.448C115.375 51.592 115.807 51.796 116.095 52.06C116.383 52.324 116.527 52.684 116.527 53.14C116.527 53.756 116.315 54.24 115.891 54.592C115.475 54.944 114.899 55.12 114.163 55.12ZM120.078 55.12C119.526 55.12 119.074 54.992 118.722 54.736C118.37 54.48 118.194 53.98 118.194 53.236V49.6H117.102V48.712H118.194V47.248H119.154V48.712H120.954V49.6H119.154V53.188C119.154 53.588 119.246 53.86 119.43 54.004C119.614 54.14 119.882 54.208 120.234 54.208C120.386 54.208 120.526 54.196 120.654 54.172C120.79 54.148 120.934 54.112 121.086 54.064V54.928C120.934 54.984 120.766 55.028 120.582 55.06C120.398 55.1 120.23 55.12 120.078 55.12ZM123.862 55.12C123.206 55.12 122.69 54.94 122.314 54.58C121.938 54.22 121.75 53.748 121.75 53.164C121.75 52.564 121.954 52.084 122.362 51.724C122.77 51.356 123.338 51.172 124.066 51.172H126.07V52.036H124.066C123.626 52.036 123.29 52.14 123.058 52.348C122.826 52.556 122.71 52.824 122.71 53.152C122.71 53.456 122.822 53.708 123.046 53.908C123.278 54.108 123.606 54.208 124.03 54.208C124.406 54.208 124.75 54.124 125.062 53.956C125.382 53.788 125.654 53.552 125.878 53.248V50.824C125.878 50.36 125.746 50.028 125.482 49.828C125.218 49.628 124.862 49.528 124.414 49.528C124.03 49.528 123.698 49.596 123.418 49.732C123.146 49.868 122.874 50.072 122.602 50.344L121.966 49.624C122.246 49.32 122.598 49.072 123.022 48.88C123.446 48.688 123.914 48.592 124.426 48.592C125.154 48.592 125.738 48.78 126.178 49.156C126.618 49.532 126.838 50.088 126.838 50.824V55H125.878V54.16L125.734 54.112C125.542 54.424 125.286 54.672 124.966 54.856C124.646 55.032 124.278 55.12 123.862 55.12ZM128.567 48.712H129.527V49.72L129.671 49.768C129.847 49.408 130.107 49.124 130.451 48.916C130.795 48.7 131.187 48.592 131.627 48.592C132.339 48.592 132.899 48.796 133.307 49.204C133.723 49.612 133.931 50.2 133.931 50.968V55H132.971V51.088C132.971 50.544 132.843 50.144 132.587 49.888C132.339 49.632 131.979 49.504 131.507 49.504C131.091 49.504 130.707 49.612 130.355 49.828C130.011 50.036 129.735 50.32 129.527 50.68V55H128.567V48.712ZM137.82 55.12C137.268 55.12 136.816 54.992 136.464 54.736C136.112 54.48 135.936 53.98 135.936 53.236V49.6H134.844V48.712H135.936V47.248H136.896V48.712H138.696V49.6H136.896V53.188C136.896 53.588 136.988 53.86 137.172 54.004C137.356 54.14 137.624 54.208 137.976 54.208C138.128 54.208 138.268 54.196 138.396 54.172C138.532 54.148 138.676 54.112 138.828 54.064V54.928C138.676 54.984 138.508 55.028 138.324 55.06C138.14 55.1 137.972 55.12 137.82 55.12Z" fill="#BCBEC8"/>
<path d="M32 83C32 76.3726 37.3726 71 44 71V71C50.6274 71 56 76.3726 56 83V83C56 89.6274 50.6274 95 44 95V95C37.3726 95 32 89.6274 32 83V83Z" fill="#D0D9FB" fill-opacity="0.12"/>
<mask id="mask0_509_47506" style="mask-type:alpha" maskUnits="userSpaceOnUse" x="36" y="75" width="16" height="16">
<path d="M44 77.5C44.2761 77.5 44.5 77.7239 44.5 78V82.5H49C49.2761 82.5 49.5 82.7239 49.5 83C49.5 83.2761 49.2761 83.5 49 83.5H44.5V88C44.5 88.2761 44.2761 88.5 44 88.5C43.7239 88.5 43.5 88.2761 43.5 88V83.5H39C38.7239 83.5 38.5 83.2761 38.5 83C38.5 82.7239 38.7239 82.5 39 82.5H43.5V78C43.5 77.7239 43.7239 77.5 44 77.5Z" fill="#F7F7F8"/>
</mask>
<g mask="url(#mask0_509_47506)">
<rect x="36" y="75" width="16" height="16" fill="#F7F7F8"/>
</g>
<mask id="mask1_509_47506" style="mask-type:alpha" maskUnits="userSpaceOnUse" x="64" y="75" width="16" height="16">
<path d="M74.5 80C75.0523 80 75.5 79.5523 75.5 79C75.5 78.4477 75.0523 78 74.5 78C73.9477 78 73.5 78.4477 73.5 79C73.5 79.5523 73.9477 80 74.5 80ZM74.5 77C75.4319 77 76.215 77.6374 76.437 78.5L78 78.5C78.2761 78.5 78.5 78.7239 78.5 79C78.5 79.2761 78.2761 79.5 78 79.5L76.437 79.5C76.215 80.3626 75.4319 81 74.5 81C73.5681 81 72.785 80.3626 72.563 79.5L66 79.5C65.7239 79.5 65.5 79.2761 65.5 79C65.5 78.7239 65.7239 78.5 66 78.5L72.563 78.5C72.785 77.6374 73.5681 77 74.5 77ZM69.5 84C70.0523 84 70.5 83.5523 70.5 83C70.5 82.4477 70.0523 82 69.5 82C68.9477 82 68.5 82.4477 68.5 83C68.5 83.5523 68.9477 84 69.5 84ZM69.5 81C70.4319 81 71.215 81.6374 71.437 82.5H78C78.2761 82.5 78.5 82.7239 78.5 83C78.5 83.2761 78.2761 83.5 78 83.5H71.437C71.215 84.3626 70.4319 85 69.5 85C68.5681 85 67.785 84.3626 67.563 83.5H66C65.7239 83.5 65.5 83.2761 65.5 83C65.5 82.7239 65.7239 82.5 66 82.5H67.563C67.785 81.6374 68.5681 81 69.5 81ZM75.5 87C75.5 87.5523 75.0523 88 74.5 88C73.9477 88 73.5 87.5523 73.5 87C73.5 86.4477 73.9477 86 74.5 86C75.0523 86 75.5 86.4477 75.5 87ZM72.563 87.5C72.785 88.3626 73.5681 89 74.5 89C75.4319 89 76.215 88.3626 76.437 87.5H78C78.2761 87.5 78.5 87.2761 78.5 87C78.5 86.7239 78.2761 86.5 78 86.5H76.437C76.215 85.6374 75.4319 85 74.5 85C73.5681 85 72.785 85.6374 72.563 86.5H66C65.7239 86.5 65.5 86.7239 65.5 87C65.5 87.2761 65.7239 87.5 66 87.5H72.563Z" fill="#F7F7F8"/>
</mask>
<g mask="url(#mask1_509_47506)">
<rect x="64" y="75" width="16" height="16" fill="#F7F7F8"/>
</g>
<g opacity="0.5">
<path d="M353 83C353 76.3726 358.373 71 365 71V71C371.627 71 377 76.3726 377 83V83C377 89.6274 371.627 95 365 95V95C358.373 95 353 89.6274 353 83V83Z" fill="#D0D9FB" fill-opacity="0.12"/>
<mask id="mask2_509_47506" style="mask-type:alpha" maskUnits="userSpaceOnUse" x="357" y="75" width="16" height="16">
<path d="M365 77.6667L365 88.3334M365 77.6667L359.667 83.0002M365 77.6667L370.333 83.0002" stroke="#F7F7F8" stroke-width="2" stroke-linecap="round" stroke-linejoin="round"/>
</mask>
<g mask="url(#mask2_509_47506)">
<rect x="357" y="75" width="16" height="16" fill="#F7F7F8"/>
</g>
</g>
</g>
<defs>
<filter id="filter0_dd_509_47506" x="0" y="10" width="409" height="117" filterUnits="userSpaceOnUse" color-interpolation-filters="sRGB">
<feFlood flood-opacity="0" result="BackgroundImageFix"/>
<feColorMatrix in="SourceAlpha" type="matrix" values="0 0 0 0 0 0 0 0 0 0 0 0 0 0 0 0 0 0 127 0" result="hardAlpha"/>
<feOffset/>
<feGaussianBlur stdDeviation="10"/>
<feColorMatrix type="matrix" values="0 0 0 0 0.0156863 0 0 0 0 0.0156863 0 0 0 0 0.0313726 0 0 0 0.25 0"/>
<feBlend mode="normal" in2="BackgroundImageFix" result="effect1_dropShadow_509_47506"/>
<feColorMatrix in="SourceAlpha" type="matrix" values="0 0 0 0 0 0 0 0 0 0 0 0 0 0 0 0 0 0 127 0" result="hardAlpha"/>
<feOffset/>
<feGaussianBlur stdDeviation="2"/>
<feColorMatrix type="matrix" values="0 0 0 0 0.0156863 0 0 0 0 0.0156863 0 0 0 0 0.0313726 0 0 0 0.25 0"/>
<feBlend mode="normal" in2="effect1_dropShadow_509_47506" result="effect2_dropShadow_509_47506"/>
<feBlend mode="normal" in="SourceGraphic" in2="effect2_dropShadow_509_47506" result="shape"/>
</filter>
</defs>
</svg>
