<svg width="111" height="375" viewBox="0 0 111 375" fill="none" xmlns="http://www.w3.org/2000/svg">
<g filter="url(#filter0_di_433_10915)">
<g clip-path="url(#clip0_433_10915)">
<rect x="32.5" y="24.5" width="46" height="310" rx="6" fill="#191A1F" shape-rendering="crispEdges"/>
<rect opacity="0.3" x="60.5" y="36" width="10" height="3" rx="1.5" transform="rotate(180 60.5 36)" fill="#BCBEC8"/>
<g clip-path="url(#clip1_433_10915)">
<path fill-rule="evenodd" clip-rule="evenodd" d="M51.105 74.2013C51.366 75.202 52.7253 75.35 53.1956 74.4289L56.6972 67.5698L64.0288 65.7549C65.0115 65.5117 65.198 64.1955 64.3214 63.6889L47.8622 54.1754C46.9974 53.6755 45.9586 54.4667 46.2106 55.4333L51.105 74.2013Z" fill="#494D5A"/>
<path fill-rule="evenodd" clip-rule="evenodd" d="M55.3612 66.8878C55.5588 66.5006 55.9147 66.2182 56.3367 66.1137L62.7659 64.5223L47.8886 55.9231L52.3077 72.869L55.3612 66.8878ZM53.1956 74.4289C52.7253 75.35 51.366 75.202 51.105 74.2013L46.2106 55.4333C45.9586 54.4667 46.9974 53.6755 47.8622 54.1754L64.3214 63.6889C65.198 64.1955 65.0115 65.5117 64.0288 65.7549L56.6972 67.5698L53.1956 74.4289Z" fill="#F7F7F8"/>
</g>
<g clip-path="url(#clip2_433_10915)">
<g clip-path="url(#clip3_433_10915)">
<mask id="path-8-inside-1_433_10915" fill="white">
<path d="M57.9377 99.1656C59.4204 99.8172 61.6883 101.419 62.5912 104.304L51.5019 115.393L45.6144 116.998C45.2411 117.1 44.8987 116.757 45.0005 116.384L46.606 110.497L57.9377 99.1656ZM65.731 97.6285C66.7073 98.6048 66.7073 100.188 65.731 101.164L63.7651 103.13C62.7009 100.487 60.6639 98.8743 59.0591 98.0442L60.8358 96.2688C61.8122 95.2925 63.3951 95.2925 64.3714 96.2688L65.731 97.6285Z"/>
</mask>
<path d="M57.9377 99.1656C59.4204 99.8172 61.6883 101.419 62.5912 104.304L51.5019 115.393L45.6144 116.998C45.2411 117.1 44.8987 116.757 45.0005 116.384L46.606 110.497L57.9377 99.1656ZM65.731 97.6285C66.7073 98.6048 66.7073 100.188 65.731 101.164L63.7651 103.13C62.7009 100.487 60.6639 98.8743 59.0591 98.0442L60.8358 96.2688C61.8122 95.2925 63.3951 95.2925 64.3714 96.2688L65.731 97.6285Z" fill="#494D5A"/>
<path d="M57.9377 99.1656L58.34 98.2501L57.714 97.975L57.2306 98.4585L57.9377 99.1656ZM62.5912 104.304L63.2983 105.011L63.7263 104.583L63.5455 104.005L62.5912 104.304ZM51.5019 115.393L51.7649 116.358L52.0212 116.288L52.209 116.1L51.5019 115.393ZM45.6144 116.998L45.3514 116.033L45.3513 116.033L45.6144 116.998ZM45.0005 116.384L44.0357 116.121L44.0357 116.121L45.0005 116.384ZM46.606 110.497L45.8989 109.79L45.7111 109.978L45.6412 110.234L46.606 110.497ZM65.731 97.6285L65.0239 98.3356L65.731 97.6285ZM65.731 101.164L65.0239 100.457L65.0239 100.457L65.731 101.164ZM63.7651 103.13L62.8375 103.503L63.4025 104.907L64.4722 103.837L63.7651 103.13ZM59.0591 98.0442L58.3523 97.3368L57.3845 98.3038L58.5997 98.9324L59.0591 98.0442ZM60.8358 96.2688L61.5427 96.9762L61.5429 96.9759L60.8358 96.2688ZM64.3714 96.2688L65.0785 95.5617L64.3714 96.2688ZM57.9377 99.1656L57.5354 100.081C58.8526 100.66 60.8479 102.082 61.6368 104.603L62.5912 104.304L63.5455 104.005C62.5286 100.756 59.9883 98.9744 58.34 98.2501L57.9377 99.1656ZM62.5912 104.304L61.8841 103.597L50.7948 114.686L51.5019 115.393L52.209 116.1L63.2983 105.011L62.5912 104.304ZM51.5019 115.393L51.2389 114.428L45.3514 116.033L45.6144 116.998L45.8774 117.963L51.7649 116.358L51.5019 115.393ZM45.6144 116.998L45.3513 116.033C45.7245 115.931 46.0671 116.274 45.9653 116.647L45.0005 116.384L44.0357 116.121C43.7304 117.241 44.7578 118.268 45.8775 117.963L45.6144 116.998ZM45.0005 116.384L45.9653 116.647L47.5708 110.76L46.606 110.497L45.6412 110.234L44.0357 116.121L45.0005 116.384ZM46.606 110.497L47.3131 111.204L58.6448 99.8727L57.9377 99.1656L57.2306 98.4585L45.8989 109.79L46.606 110.497ZM65.731 97.6285L65.0239 98.3356C65.6097 98.9213 65.6097 99.8711 65.0239 100.457L65.731 101.164L66.4381 101.871C67.805 100.504 67.805 98.2882 66.4381 96.9213L65.731 97.6285ZM65.731 101.164L65.0239 100.457L63.058 102.423L63.7651 103.13L64.4722 103.837L66.4381 101.871L65.731 101.164ZM63.7651 103.13L64.6927 102.756C63.5141 99.8296 61.2678 98.0608 59.5185 97.1559L59.0591 98.0442L58.5997 98.9324C60.06 99.6877 61.8877 101.145 62.8375 103.503L63.7651 103.13ZM59.0591 98.0442L59.7659 98.7515L61.5427 96.9762L60.8358 96.2688L60.129 95.5614L58.3523 97.3368L59.0591 98.0442ZM60.8358 96.2688L61.5429 96.9759C62.1287 96.3901 63.0785 96.3902 63.6643 96.9759L64.3714 96.2688L65.0785 95.5617C63.7116 94.1949 61.4956 94.1949 60.1287 95.5617L60.8358 96.2688ZM64.3714 96.2688L63.6643 96.9759L65.0239 98.3356L65.731 97.6285L66.4381 96.9213L65.0785 95.5617L64.3714 96.2688Z" fill="white" mask="url(#path-8-inside-1_433_10915)"/>
</g>
</g>
<path d="M60.9335 148.502C60.9335 151.502 58.5013 153.934 55.5009 153.934C52.5006 153.934 50.0684 151.502 50.0684 148.502C50.0684 145.502 52.5006 143.069 55.5009 143.069C58.5013 143.069 60.9335 145.502 60.9335 148.502Z" fill="#494D5A"/>
<path fill-rule="evenodd" clip-rule="evenodd" d="M55.5 151.72C55.9141 151.721 56.2499 152.056 56.25 152.47V156.605L57.8867 154.969C58.1796 154.676 58.6554 154.676 58.9483 154.969C59.2406 155.261 59.2407 155.736 58.9483 156.029L56.2959 158.68C55.8566 159.12 55.1444 159.12 54.7051 158.68L52.0537 156.029C51.761 155.736 51.761 155.261 52.0537 154.969C52.3466 154.676 52.8214 154.676 53.1143 154.969L54.75 156.603V152.47C54.7502 152.056 55.0859 151.72 55.5 151.72ZM47.9736 145.053C48.2665 144.76 48.7414 144.76 49.0342 145.053C49.3268 145.345 49.3267 145.82 49.0342 146.113L47.3975 147.75H51.376C51.7901 147.75 52.1258 148.086 52.126 148.5C52.1258 148.914 51.7901 149.25 51.376 149.25H47.3975L49.0342 150.886C49.327 151.178 49.327 151.654 49.0342 151.947C48.7414 152.24 48.2665 152.239 47.9736 151.947L45.3213 149.295C44.8827 148.855 44.8823 148.143 45.3213 147.704L47.9736 145.053ZM61.9092 145.053C62.202 144.76 62.6769 144.76 62.9697 145.053L65.6221 147.704C66.0611 148.143 66.0608 148.855 65.6221 149.295L62.9697 151.947C62.6769 152.239 62.202 152.24 61.9092 151.947C61.6165 151.654 61.6164 151.178 61.9092 150.886L63.5459 149.25H59.625C59.2109 149.25 58.8752 148.914 58.875 148.5C58.8753 148.086 59.211 147.75 59.625 147.75H63.5459L61.9092 146.113C61.6168 145.82 61.6166 145.345 61.9092 145.053ZM54.7051 138.319C55.1443 137.88 55.8566 137.88 56.2959 138.319L58.9483 140.971C59.2406 141.264 59.2408 141.739 58.9483 142.032C58.6554 142.325 58.1796 142.325 57.8867 142.032L56.249 140.393V144.471C56.2489 144.886 55.9131 145.221 55.499 145.221C55.0851 145.221 54.7491 144.885 54.749 144.471V140.397L53.1143 142.032C52.8214 142.325 52.3466 142.325 52.0537 142.032C51.7609 141.739 51.761 141.264 52.0537 140.971L54.7051 138.319Z" fill="#F7F7F8"/>
<path d="M57.375 148.5C57.375 149.535 56.5355 150.375 55.5 150.375C54.4645 150.375 53.625 149.535 53.625 148.5C53.625 147.464 54.4645 146.625 55.5 146.625C56.5355 146.625 57.375 147.464 57.375 148.5Z" fill="#F7F7F8"/>
<g clip-path="url(#clip4_433_10915)">
<path d="M45 191.25C45 190.007 46.0074 189 47.25 189H54.75C55.9926 189 57 190.007 57 191.25V198.75C57 199.993 55.9926 201 54.75 201H47.25C46.0074 201 45 199.993 45 198.75V191.25Z" fill="#494D5A"/>
<path fill-rule="evenodd" clip-rule="evenodd" d="M56.25 181.5C56.6642 181.5 57 181.164 57 180.75C57 180.336 56.6642 180 56.25 180H47.25C46.0074 180 45 181.007 45 182.25V198.75C45 199.993 46.0074 201 47.25 201H63.75C64.9926 201 66 199.993 66 198.75V189.75C66 189.336 65.6642 189 65.25 189C64.8358 189 64.5 189.336 64.5 189.75V198.75C64.5 199.164 64.1642 199.5 63.75 199.5H56.872C56.9549 199.265 57 199.013 57 198.75V191.25C57 190.007 55.9926 189 54.75 189H47.25C46.987 189 46.7346 189.045 46.5 189.128V182.25C46.5 181.836 46.8358 181.5 47.25 181.5H56.25ZM46.5 191.25V198.75C46.5 199.138 46.7951 199.458 47.1733 199.496C47.1985 199.499 47.2241 199.5 47.25 199.5H54.75C55.1642 199.5 55.5 199.164 55.5 198.75V191.25C55.5 190.836 55.1642 190.5 54.75 190.5H47.25C46.8358 190.5 46.5 190.836 46.5 191.25Z" fill="#F7F7F8"/>
<path d="M64.5132 184.886C64.5132 185.3 64.849 185.636 65.2632 185.636C65.6774 185.636 66.0132 185.3 66.0132 184.886V181.136C66.0132 180.515 65.5095 180.011 64.8882 180.011L61.1383 180.011C60.7241 180.011 60.3883 180.347 60.3883 180.761C60.3883 181.176 60.7241 181.511 61.1383 181.511H63.4466L57.9697 186.988C57.6768 187.281 57.6768 187.756 57.9697 188.049C58.2626 188.342 58.7374 188.342 59.0303 188.049L64.5132 182.566V184.886Z" fill="#F7F7F8"/>
</g>
<path d="M55.5 225.75C56.9744 225.75 58.338 226.223 59.4482 227.025C59.0948 227.366 58.875 227.845 58.875 228.375V229.125C58.875 230.16 59.7145 231 60.75 231H62.0811C62.1906 231.482 62.25 231.984 62.25 232.5C62.25 236.228 59.2279 239.25 55.5 239.25C51.7721 239.25 48.75 236.228 48.75 232.5C48.75 228.772 51.7721 225.75 55.5 225.75Z" fill="#494D5A"/>
<path d="M57.375 232.5C57.375 233.535 56.5355 234.375 55.5 234.375C54.4645 234.375 53.625 233.535 53.625 232.5C53.625 231.464 54.4645 230.625 55.5 230.625C56.5355 230.625 57.375 231.464 57.375 232.5Z" fill="#F7F7F8"/>
<path d="M55.5 222C59.2442 222 62.5297 223.96 64.3887 226.91V224.624C64.3887 224.21 64.7247 223.874 65.1387 223.874C65.5529 223.874 65.8886 224.21 65.8887 224.624V228.374C65.8886 228.995 65.385 229.499 64.7637 229.499H61.0146C60.6005 229.499 60.2647 229.163 60.2646 228.749C60.2646 228.335 60.6004 227.999 61.0146 227.999H63.2939C61.7376 225.31 58.8306 223.5 55.5 223.5C50.5294 223.5 46.5 227.529 46.5 232.5C46.5 237.218 50.1304 241.087 54.75 241.469C55.1628 241.503 55.5 241.836 55.5 242.25C55.5 242.664 55.1631 243.003 54.75 242.974C49.3011 242.589 45 238.047 45 232.5C45 226.701 49.701 222 55.5 222ZM59.3896 240.504C59.7612 240.321 60.2114 240.473 60.3945 240.845C60.5775 241.216 60.4248 241.665 60.0537 241.849C59.8504 241.949 59.6418 242.044 59.4297 242.132C59.2178 242.22 59.0043 242.3 58.79 242.373C58.3981 242.507 57.9718 242.298 57.8379 241.906C57.7041 241.514 57.9137 241.088 58.3057 240.954C58.4896 240.891 58.6732 240.822 58.8555 240.746C59.0375 240.67 59.2156 240.59 59.3896 240.504ZM62.873 237.445C63.1026 237.1 63.5683 237.007 63.9131 237.236C64.2579 237.466 64.3506 237.931 64.1211 238.276C63.869 238.655 63.5916 239.018 63.29 239.363C63.0175 239.675 62.5442 239.707 62.2324 239.434C61.9206 239.162 61.8885 238.688 62.1611 238.376C62.4193 238.081 62.6571 237.77 62.873 237.445ZM65.1592 232.352C65.5724 232.38 65.8852 232.736 65.8584 233.149C65.8284 233.606 65.7685 234.06 65.6797 234.506C65.5988 234.912 65.2041 235.176 64.7979 235.096C64.3918 235.015 64.1284 234.62 64.209 234.214C64.2851 233.832 64.3366 233.443 64.3623 233.052C64.3894 232.638 64.7459 232.325 65.1592 232.352Z" fill="#F7F7F8"/>
<path d="M58.1234 270H52.8825C52.3488 270 51.8885 270.375 51.7807 270.898L50.3879 277.648C50.2438 278.346 50.7769 279 51.4897 279H59.569C60.2851 279 60.819 278.34 60.669 277.639L59.2235 270.889C59.1124 270.371 58.6539 270 58.1234 270Z" fill="#494D5A"/>
<path fill-rule="evenodd" clip-rule="evenodd" d="M49.125 265.5C48.5037 265.5 48 266.004 48 266.625V268.875C48 269.448 48.4289 269.922 48.9834 269.991L46.9805 279H46.125C45.5037 279 45 279.504 45 280.125V282.375C45 282.996 45.5037 283.5 46.125 283.5H48.375C48.9963 283.5 49.5 282.996 49.5 282.375V282H61.5V282.375C61.5 282.996 62.0037 283.5 62.625 283.5H64.875C65.4963 283.5 66 282.996 66 282.375V280.125C66 279.504 65.4963 279 64.875 279H64.017L62.0161 269.991C62.5708 269.922 63 269.449 63 268.875V266.625C63 266.004 62.4963 265.5 61.875 265.5H59.625C59.0037 265.5 58.5 266.004 58.5 266.625V267H52.5V266.625C52.5 266.004 51.9963 265.5 51.375 265.5H49.125ZM52.5 268.5V268.875C52.5 269.496 51.9963 270 51.375 270H50.5181L48.5152 279.009C49.0703 279.078 49.5 279.551 49.5 280.125V280.5H61.5V280.125C61.5 279.552 61.9284 279.079 62.4825 279.009L60.4815 270H59.625C59.0037 270 58.5 269.496 58.5 268.875V268.5H52.5ZM58.5 267.757V267.743C58.5 267.745 58.5 267.748 58.5 267.75C58.5 267.752 58.5 267.755 58.5 267.757ZM61.5 281.243C61.5 281.245 61.5 281.248 61.5 281.25C61.5 281.252 61.5 281.255 61.5 281.257V281.243ZM49.5 267V268.5H51V267H49.5ZM46.5 280.5V282H48V280.5H46.5ZM61.5 267H60V268.5H61.5V267ZM63 280.5V282H64.5V280.5H63Z" fill="#F7F7F8"/>
<path d="M32.5 298.5H78.5" stroke="#D0D9FB" stroke-opacity="0.16"/>
<mask id="mask0_433_10915" style="mask-type:alpha" maskUnits="userSpaceOnUse" x="48" y="317" width="15" height="3">
<path d="M61.8214 319.608C61.7458 319.89 61.4559 320.057 61.1739 319.982L59.642 319.571C59.3599 319.496 59.1926 319.206 59.2681 318.924L59.6786 317.392C59.7542 317.11 60.0441 316.943 60.3261 317.018L61.858 317.429C62.1401 317.504 62.3074 317.794 62.2319 318.076L61.8214 319.608Z" fill="white"/>
<path d="M56.5714 319.608C56.4958 319.89 56.2059 320.057 55.9239 319.982L54.392 319.571C54.1099 319.496 53.9426 319.206 54.0181 318.924L54.4286 317.392C54.5042 317.11 54.7941 316.943 55.0761 317.018L56.608 317.429C56.8901 317.504 57.0574 317.794 56.9819 318.076L56.5714 319.608Z" fill="white"/>
<path d="M50.6739 319.982C50.9559 320.057 51.2458 319.89 51.3214 319.608L51.7319 318.076C51.8074 317.794 51.6401 317.504 51.358 317.429L49.8261 317.018C49.5441 316.943 49.2542 317.11 49.1786 317.392L48.7681 318.924C48.6926 319.206 48.8599 319.496 49.142 319.571L50.6739 319.982Z" fill="white"/>
</mask>
<g mask="url(#mask0_433_10915)">
<rect x="67.5" y="330.5" width="24" height="24" transform="rotate(180 67.5 330.5)" fill="#F7F7F8"/>
</g>
</g>
<rect x="32.25" y="24.25" width="46.5" height="310.5" rx="6.25" stroke="#D0D9FB" stroke-opacity="0.08" stroke-width="0.5" shape-rendering="crispEdges"/>
</g>
<defs>
<filter id="filter0_di_433_10915" x="0" y="0" width="111" height="375" filterUnits="userSpaceOnUse" color-interpolation-filters="sRGB">
<feFlood flood-opacity="0" result="BackgroundImageFix"/>
<feColorMatrix in="SourceAlpha" type="matrix" values="0 0 0 0 0 0 0 0 0 0 0 0 0 0 0 0 0 0 127 0" result="hardAlpha"/>
<feOffset dy="8"/>
<feGaussianBlur stdDeviation="16"/>
<feComposite in2="hardAlpha" operator="out"/>
<feColorMatrix type="matrix" values="0 0 0 0 0 0 0 0 0 0 0 0 0 0 0 0 0 0 0.14 0"/>
<feBlend mode="normal" in2="BackgroundImageFix" result="effect1_dropShadow_433_10915"/>
<feBlend mode="normal" in="SourceGraphic" in2="effect1_dropShadow_433_10915" result="shape"/>
<feColorMatrix in="SourceAlpha" type="matrix" values="0 0 0 0 0 0 0 0 0 0 0 0 0 0 0 0 0 0 127 0" result="hardAlpha"/>
<feMorphology radius="0.5" operator="erode" in="SourceAlpha" result="effect2_innerShadow_433_10915"/>
<feOffset/>
<feComposite in2="hardAlpha" operator="arithmetic" k2="-1" k3="1"/>
<feColorMatrix type="matrix" values="0 0 0 0 1 0 0 0 0 1 0 0 0 0 1 0 0 0 0.05 0"/>
<feBlend mode="normal" in2="shape" result="effect2_innerShadow_433_10915"/>
</filter>
<clipPath id="clip0_433_10915">
<rect x="32.5" y="24.5" width="46" height="310" rx="6" fill="white"/>
</clipPath>
<clipPath id="clip1_433_10915">
<rect width="24" height="24" fill="white" transform="translate(43.5 52.5)"/>
</clipPath>
<clipPath id="clip2_433_10915">
<rect width="24" height="24" fill="white" transform="translate(43.5 94.5)"/>
</clipPath>
<clipPath id="clip3_433_10915">
<rect width="24" height="24" fill="white" transform="translate(43.5 94.5)"/>
</clipPath>
<clipPath id="clip4_433_10915">
<rect width="24" height="24" fill="white" transform="translate(43.5 178.5)"/>
</clipPath>
</defs>
</svg>
