<svg width="125" height="24" viewBox="0 0 125 24" fill="none" xmlns="http://www.w3.org/2000/svg">
<path d="M0 4C0 1.79086 1.79086 0 4 0H121C123.209 0 125 1.79086 125 4V20C125 22.2091 123.209 24 121 24H4C1.79086 24 0 22.2091 0 20V4Z" fill="#D0D9FB" fill-opacity="0.12"/>
<path d="M11.8053 16.12C11.1893 16.12 10.6453 15.984 10.1733 15.712C9.70934 15.432 9.34934 15.048 9.09334 14.56C8.84534 14.064 8.72134 13.492 8.72134 12.844C8.72134 12.196 8.84534 11.624 9.09334 11.128C9.34934 10.632 9.70934 10.248 10.1733 9.976C10.6453 9.696 11.1893 9.556 11.8053 9.556C12.3093 9.556 12.7773 9.656 13.2093 9.856C13.6413 10.048 13.9933 10.32 14.2653 10.672L13.3533 11.584C13.1613 11.344 12.9253 11.156 12.6453 11.02C12.3733 10.884 12.0853 10.816 11.7813 10.816C11.4453 10.816 11.1493 10.9 10.8933 11.068C10.6373 11.228 10.4373 11.46 10.2933 11.764C10.1573 12.068 10.0893 12.428 10.0893 12.844C10.0893 13.26 10.1573 13.62 10.2933 13.924C10.4373 14.228 10.6373 14.46 10.8933 14.62C11.1493 14.78 11.4453 14.86 11.7813 14.86C12.0853 14.86 12.3733 14.796 12.6453 14.668C12.9253 14.532 13.1613 14.34 13.3533 14.092L14.2653 15.004C13.9933 15.356 13.6413 15.632 13.2093 15.832C12.7773 16.024 12.3093 16.12 11.8053 16.12ZM15.4332 9.676H16.7772V10.624L16.9572 10.696C17.1492 10.328 17.3852 10.048 17.6652 9.856C17.9452 9.656 18.2812 9.556 18.6732 9.556C18.8652 9.556 19.0412 9.576 19.2012 9.616V11.008C18.9532 10.928 18.6732 10.888 18.3612 10.888C18.0012 10.888 17.6812 10.988 17.4012 11.188C17.1292 11.38 16.9212 11.636 16.7772 11.956V16H15.4332V9.676ZM22.881 16.12C22.241 16.12 21.685 15.984 21.213 15.712C20.741 15.44 20.377 15.06 20.121 14.572C19.865 14.076 19.737 13.5 19.737 12.844C19.737 12.204 19.861 11.636 20.109 11.14C20.365 10.636 20.721 10.248 21.177 9.976C21.633 9.696 22.161 9.556 22.761 9.556C23.697 9.556 24.413 9.852 24.909 10.444C25.405 11.028 25.653 11.812 25.653 12.796V13.228H20.493L21.057 12.7C21.057 13.444 21.213 13.996 21.525 14.356C21.837 14.708 22.289 14.884 22.881 14.884C23.209 14.884 23.509 14.832 23.781 14.728C24.053 14.616 24.321 14.444 24.585 14.212L25.413 15.196C25.085 15.5 24.701 15.732 24.261 15.892C23.821 16.044 23.361 16.12 22.881 16.12ZM22.773 10.732C22.341 10.732 21.985 10.852 21.705 11.092C21.433 11.324 21.245 11.66 21.141 12.1H24.297C24.241 11.668 24.081 11.332 23.817 11.092C23.553 10.852 23.205 10.732 22.773 10.732ZM28.5035 16.12C27.9115 16.12 27.4235 15.944 27.0395 15.592C26.6555 15.24 26.4635 14.756 26.4635 14.14C26.4635 13.532 26.6795 13.048 27.1115 12.688C27.5435 12.328 28.1555 12.148 28.9475 12.148H30.7115V13.168H28.9235C28.5635 13.168 28.2875 13.248 28.0955 13.408C27.9035 13.568 27.8075 13.788 27.8075 14.068C27.8075 14.324 27.9035 14.532 28.0955 14.692C28.2955 14.852 28.5635 14.932 28.8995 14.932C29.2355 14.932 29.5435 14.852 29.8235 14.692C30.1115 14.532 30.3435 14.324 30.5195 14.068V11.884C30.5195 11.516 30.4035 11.252 30.1715 11.092C29.9475 10.924 29.6515 10.84 29.2835 10.84C28.9315 10.84 28.6035 10.908 28.2995 11.044C27.9955 11.172 27.6875 11.364 27.3755 11.62L26.6915 10.588C27.0435 10.268 27.4435 10.016 27.8915 9.832C28.3395 9.648 28.8235 9.556 29.3435 9.556C30.0795 9.556 30.6835 9.748 31.1555 10.132C31.6275 10.516 31.8635 11.104 31.8635 11.896V16H30.5195V15.244L30.3515 15.172C30.1435 15.484 29.8875 15.72 29.5835 15.88C29.2795 16.04 28.9195 16.12 28.5035 16.12ZM35.8469 16.12C35.1989 16.12 34.6869 15.96 34.3109 15.64C33.9429 15.312 33.7589 14.8 33.7589 14.104V10.852H32.7029V9.676H33.7589V8.164H35.1029V9.676H36.8909V10.852H35.1029V13.96C35.1029 14.272 35.1909 14.504 35.3669 14.656C35.5509 14.808 35.8069 14.884 36.1349 14.884C36.2789 14.884 36.4189 14.872 36.5549 14.848C36.6989 14.824 36.8549 14.788 37.0229 14.74V15.904C36.8549 15.968 36.6669 16.02 36.4589 16.06C36.2509 16.1 36.0469 16.12 35.8469 16.12ZM40.6818 16.12C40.0418 16.12 39.4858 15.984 39.0138 15.712C38.5418 15.44 38.1778 15.06 37.9218 14.572C37.6658 14.076 37.5378 13.5 37.5378 12.844C37.5378 12.204 37.6618 11.636 37.9098 11.14C38.1658 10.636 38.5218 10.248 38.9778 9.976C39.4338 9.696 39.9618 9.556 40.5618 9.556C41.4978 9.556 42.2138 9.852 42.7098 10.444C43.2058 11.028 43.4538 11.812 43.4538 12.796V13.228H38.2938L38.8577 12.7C38.8577 13.444 39.0138 13.996 39.3258 14.356C39.6378 14.708 40.0898 14.884 40.6818 14.884C41.0098 14.884 41.3098 14.832 41.5818 14.728C41.8538 14.616 42.1218 14.444 42.3858 14.212L43.2138 15.196C42.8858 15.5 42.5018 15.732 42.0618 15.892C41.6218 16.044 41.1618 16.12 40.6818 16.12ZM40.5738 10.732C40.1418 10.732 39.7858 10.852 39.5058 11.092C39.2338 11.324 39.0458 11.66 38.9418 12.1H42.0978C42.0418 11.668 41.8818 11.332 41.6178 11.092C41.3538 10.852 41.0058 10.732 40.5738 10.732ZM49.4332 16.12C48.8412 16.12 48.3532 15.944 47.9692 15.592C47.5852 15.24 47.3932 14.756 47.3932 14.14C47.3932 13.532 47.6092 13.048 48.0412 12.688C48.4732 12.328 49.0852 12.148 49.8772 12.148H51.6412V13.168H49.8532C49.4932 13.168 49.2172 13.248 49.0252 13.408C48.8332 13.568 48.7372 13.788 48.7372 14.068C48.7372 14.324 48.8332 14.532 49.0252 14.692C49.2252 14.852 49.4932 14.932 49.8292 14.932C50.1652 14.932 50.4732 14.852 50.7532 14.692C51.0412 14.532 51.2732 14.324 51.4492 14.068V11.884C51.4492 11.516 51.3332 11.252 51.1012 11.092C50.8772 10.924 50.5812 10.84 50.2132 10.84C49.8612 10.84 49.5332 10.908 49.2292 11.044C48.9252 11.172 48.6172 11.364 48.3052 11.62L47.6212 10.588C47.9732 10.268 48.3732 10.016 48.8212 9.832C49.2692 9.648 49.7532 9.556 50.2732 9.556C51.0092 9.556 51.6132 9.748 52.0852 10.132C52.5572 10.516 52.7932 11.104 52.7932 11.896V16H51.4492V15.244L51.2812 15.172C51.0732 15.484 50.8172 15.72 50.5132 15.88C50.2092 16.04 49.8492 16.12 49.4332 16.12ZM57.5152 9.676H58.8592V10.624L59.0392 10.696C59.2312 10.328 59.4672 10.048 59.7472 9.856C60.0272 9.656 60.3632 9.556 60.7552 9.556C60.9472 9.556 61.1232 9.576 61.2832 9.616V11.008C61.0352 10.928 60.7552 10.888 60.4432 10.888C60.0832 10.888 59.7632 10.988 59.4832 11.188C59.2112 11.38 59.0032 11.636 58.8592 11.956V16H57.5152V9.676ZM64.963 16.12C64.323 16.12 63.767 15.984 63.295 15.712C62.823 15.44 62.459 15.06 62.203 14.572C61.947 14.076 61.819 13.5 61.819 12.844C61.819 12.204 61.943 11.636 62.191 11.14C62.447 10.636 62.803 10.248 63.259 9.976C63.715 9.696 64.243 9.556 64.843 9.556C65.779 9.556 66.495 9.852 66.991 10.444C67.487 11.028 67.735 11.812 67.735 12.796V13.228H62.575L63.139 12.7C63.139 13.444 63.295 13.996 63.607 14.356C63.919 14.708 64.371 14.884 64.963 14.884C65.291 14.884 65.591 14.832 65.863 14.728C66.135 14.616 66.403 14.444 66.667 14.212L67.495 15.196C67.167 15.5 66.783 15.732 66.343 15.892C65.903 16.044 65.443 16.12 64.963 16.12ZM64.855 10.732C64.423 10.732 64.067 10.852 63.787 11.092C63.515 11.324 63.327 11.66 63.223 12.1H66.379C66.323 11.668 66.163 11.332 65.899 11.092C65.635 10.852 65.287 10.732 64.855 10.732ZM71.2216 16.12C70.7096 16.12 70.2496 15.996 69.8416 15.748C69.4416 15.5 69.1256 15.132 68.8936 14.644C68.6616 14.156 68.5456 13.568 68.5456 12.88C68.5456 12.168 68.6776 11.564 68.9416 11.068C69.2136 10.564 69.5856 10.188 70.0576 9.94C70.5296 9.684 71.0696 9.556 71.6776 9.556C71.9416 9.556 72.2056 9.588 72.4696 9.652C72.7336 9.708 72.9696 9.788 73.1776 9.892V7.48H74.5216V16H73.1776V15.136L72.9976 15.064C72.8136 15.424 72.5696 15.692 72.2656 15.868C71.9616 16.036 71.6136 16.12 71.2216 16.12ZM71.5336 14.86C71.9016 14.86 72.2216 14.784 72.4936 14.632C72.7736 14.48 73.0016 14.252 73.1776 13.948V11.128C72.9696 11.024 72.7496 10.948 72.5176 10.9C72.2856 10.844 72.0376 10.816 71.7736 10.816C71.4056 10.816 71.0816 10.896 70.8016 11.056C70.5216 11.208 70.3016 11.44 70.1416 11.752C69.9896 12.056 69.9136 12.432 69.9136 12.88C69.9136 13.28 69.9776 13.632 70.1056 13.936C70.2416 14.232 70.4296 14.46 70.6696 14.62C70.9096 14.78 71.1976 14.86 71.5336 14.86ZM81.3061 16.12C80.8101 16.12 80.3501 16.036 79.9261 15.868C79.5101 15.7 79.1261 15.456 78.7741 15.136L79.5301 14.152C79.7861 14.4 80.0621 14.592 80.3581 14.728C80.6621 14.864 80.9821 14.932 81.3181 14.932C81.6621 14.932 81.9341 14.872 82.1341 14.752C82.3341 14.624 82.4341 14.44 82.4341 14.2C82.4341 14 82.3661 13.848 82.2301 13.744C82.1021 13.64 81.8821 13.556 81.5701 13.492L80.7181 13.3C80.1901 13.18 79.7821 12.98 79.4941 12.7C79.2061 12.412 79.0621 12.024 79.0621 11.536C79.0621 10.928 79.2661 10.448 79.6741 10.096C80.0901 9.736 80.6461 9.556 81.3421 9.556C81.8061 9.556 82.2341 9.632 82.6261 9.784C83.0181 9.928 83.3701 10.144 83.6821 10.432L82.9021 11.392C82.6701 11.176 82.4221 11.016 82.1581 10.912C81.9021 10.808 81.6261 10.756 81.3301 10.756C81.0421 10.756 80.8101 10.812 80.6341 10.924C80.4661 11.028 80.3821 11.184 80.3821 11.392C80.3821 11.576 80.4461 11.724 80.5741 11.836C80.7101 11.94 80.9381 12.028 81.2581 12.1L82.0981 12.292C82.6341 12.42 83.0461 12.62 83.3341 12.892C83.6301 13.164 83.7781 13.544 83.7781 14.032C83.7781 14.68 83.5541 15.192 83.1061 15.568C82.6661 15.936 82.0661 16.12 81.3061 16.12ZM84.9488 9.676H86.2928V10.552L86.4728 10.624C86.6408 10.288 86.8688 10.028 87.1568 9.844C87.4528 9.652 87.8168 9.556 88.2488 9.556C88.7528 9.556 89.2048 9.68 89.6048 9.928C90.0048 10.176 90.3168 10.54 90.5408 11.02C90.7728 11.5 90.8888 12.076 90.8888 12.748C90.8888 13.444 90.7608 14.048 90.5048 14.56C90.2568 15.064 89.9088 15.452 89.4608 15.724C89.0128 15.988 88.4968 16.12 87.9128 16.12C87.6248 16.12 87.3448 16.084 87.0728 16.012C86.8088 15.94 86.5488 15.844 86.2928 15.724V18.292H84.9488V9.676ZM87.7928 14.86C88.1288 14.86 88.4248 14.78 88.6808 14.62C88.9448 14.46 89.1488 14.22 89.2928 13.9C89.4448 13.58 89.5208 13.2 89.5208 12.76C89.5208 12.328 89.4528 11.968 89.3168 11.68C89.1808 11.392 88.9888 11.176 88.7408 11.032C88.5008 10.888 88.2208 10.816 87.9008 10.816C87.5488 10.816 87.2368 10.896 86.9648 11.056C86.7008 11.216 86.4768 11.44 86.2928 11.728V14.428C86.4928 14.556 86.7208 14.66 86.9768 14.74C87.2408 14.82 87.5128 14.86 87.7928 14.86ZM92.1558 7.48H93.4998V10.612L93.6798 10.684C93.8398 10.34 94.0798 10.068 94.3998 9.868C94.7198 9.66 95.0998 9.556 95.5398 9.556C96.2358 9.556 96.7758 9.768 97.1598 10.192C97.5438 10.616 97.7358 11.2 97.7358 11.944V16H96.3918V12.256C96.3918 11.76 96.2758 11.396 96.0438 11.164C95.8198 10.924 95.4918 10.804 95.0598 10.804C94.7238 10.804 94.4158 10.896 94.1358 11.08C93.8558 11.264 93.6438 11.492 93.4998 11.764V16H92.1558V7.48ZM102.088 16.12C101.448 16.12 100.892 15.984 100.42 15.712C99.948 15.44 99.584 15.06 99.328 14.572C99.072 14.076 98.944 13.5 98.944 12.844C98.944 12.204 99.068 11.636 99.316 11.14C99.572 10.636 99.928 10.248 100.384 9.976C100.84 9.696 101.368 9.556 101.968 9.556C102.904 9.556 103.62 9.852 104.116 10.444C104.612 11.028 104.86 11.812 104.86 12.796V13.228H99.7L100.264 12.7C100.264 13.444 100.42 13.996 100.732 14.356C101.044 14.708 101.496 14.884 102.088 14.884C102.416 14.884 102.716 14.832 102.988 14.728C103.26 14.616 103.528 14.444 103.792 14.212L104.62 15.196C104.292 15.5 103.908 15.732 103.468 15.892C103.028 16.044 102.568 16.12 102.088 16.12ZM101.98 10.732C101.548 10.732 101.192 10.852 100.912 11.092C100.64 11.324 100.452 11.66 100.348 12.1H103.504C103.448 11.668 103.288 11.332 103.024 11.092C102.76 10.852 102.412 10.732 101.98 10.732ZM106.089 9.676H107.433V10.624L107.613 10.696C107.805 10.328 108.041 10.048 108.321 9.856C108.601 9.656 108.937 9.556 109.329 9.556C109.521 9.556 109.697 9.576 109.857 9.616V11.008C109.609 10.928 109.329 10.888 109.017 10.888C108.657 10.888 108.337 10.988 108.057 11.188C107.785 11.38 107.577 11.636 107.433 11.956V16H106.089V9.676ZM113.537 16.12C112.897 16.12 112.341 15.984 111.869 15.712C111.397 15.44 111.033 15.06 110.777 14.572C110.521 14.076 110.393 13.5 110.393 12.844C110.393 12.204 110.517 11.636 110.765 11.14C111.021 10.636 111.377 10.248 111.833 9.976C112.289 9.696 112.817 9.556 113.417 9.556C114.353 9.556 115.069 9.852 115.565 10.444C116.061 11.028 116.309 11.812 116.309 12.796V13.228H111.149L111.713 12.7C111.713 13.444 111.869 13.996 112.181 14.356C112.493 14.708 112.945 14.884 113.537 14.884C113.865 14.884 114.165 14.832 114.437 14.728C114.709 14.616 114.977 14.444 115.241 14.212L116.069 15.196C115.741 15.5 115.357 15.732 114.917 15.892C114.477 16.044 114.017 16.12 113.537 16.12ZM113.429 10.732C112.997 10.732 112.641 10.852 112.361 11.092C112.089 11.324 111.901 11.66 111.797 12.1H114.953C114.897 11.668 114.737 11.332 114.473 11.092C114.209 10.852 113.861 10.732 113.429 10.732Z" fill="#F7F7F8"/>
</svg>
