<svg width="16" height="16" viewBox="0 0 16 16" fill="none" xmlns="http://www.w3.org/2000/svg">
<g clip-path="url(#clip0_3011_16613)">
<path fill-rule="evenodd" clip-rule="evenodd" d="M11.8 13.0034L11.5707 14.881C11.9147 14.9448 12.4453 15.0034 13.2305 15.0034C14.0156 15.0034 14.5463 14.9448 14.8902 14.881L14.6609 13.0034H11.8ZM10.4805 15.559C10.4805 15.559 11.0005 16.0034 13.2305 16.0034C15.4605 16.0034 15.9805 15.559 15.9805 15.559L15.6444 12.8071C15.5884 12.3483 15.1988 12.0034 14.7366 12.0034H11.7243C11.2621 12.0034 10.8726 12.3483 10.8165 12.8071L10.4805 15.559Z" fill="#F87935"/>
<path d="M9.34393 16.0019C9.19773 16.0029 9.05605 16.0034 8.98047 16.0034C6.75048 16.0034 6.23047 15.559 6.23047 15.559L6.56653 12.8071C6.62256 12.3483 7.01211 12.0034 7.47432 12.0034H9.3974C9.72401 12.0034 9.96293 12.3115 9.88167 12.6278C9.82489 12.8489 9.62563 13.0034 9.39739 13.0034H7.54999L7.32069 14.881C7.66466 14.9448 8.19529 15.0034 8.98047 15.0034C9.057 15.0034 9.17783 15.0029 9.30797 15.0018C9.60825 14.9993 9.85082 15.2577 9.82425 15.5568C9.80196 15.8076 9.59573 16.0002 9.34393 16.0019Z" fill="#F87935"/>
<path fill-rule="evenodd" clip-rule="evenodd" d="M12.7305 9.65861V10.3482C12.7305 10.4339 12.8 10.5034 12.8857 10.5034H13.5753C13.661 10.5034 13.7305 10.4339 13.7305 10.3482V9.65861C13.7305 9.5729 13.661 9.50342 13.5753 9.50342H12.8857C12.8 9.50342 12.7305 9.5729 12.7305 9.65861ZM12.8857 8.50342C12.2477 8.50342 11.7305 9.02062 11.7305 9.65861V10.3482C11.7305 10.9862 12.2477 11.5034 12.8857 11.5034H13.5753C14.2133 11.5034 14.7305 10.9862 14.7305 10.3482V9.65861C14.7305 9.02062 14.2133 8.50342 13.5753 8.50342H12.8857Z" fill="#F87935"/>
<path fill-rule="evenodd" clip-rule="evenodd" d="M8.48047 9.65861V10.3482C8.48047 10.4339 8.54995 10.5034 8.63566 10.5034H9.32528C9.41099 10.5034 9.48047 10.4339 9.48047 10.3482V9.65861C9.48047 9.5729 9.41099 9.50342 9.32528 9.50342H8.63566C8.54995 9.50342 8.48047 9.5729 8.48047 9.65861ZM8.63566 8.50342C7.99767 8.50342 7.48047 9.02062 7.48047 9.65861V10.3482C7.48047 10.9862 7.99767 11.5034 8.63566 11.5034H9.32528C9.96327 11.5034 10.4805 10.9862 10.4805 10.3482V9.65861C10.4805 9.02062 9.96327 8.50342 9.32528 8.50342H8.63566Z" fill="#F87935"/>
<path d="M6.61902 4.99951H1V3.99951C1 2.89494 1.89543 1.99951 3 1.99951H6.17375C6.61264 1.99951 7.02951 2.19173 7.31449 2.52549L8.17007 3.52752L7.43825 4.57297C7.25112 4.8403 6.94533 4.99951 6.61902 4.99951Z" fill="#FADC7F"/>
<path d="M6.61902 5.99951C7.27164 5.99951 7.88322 5.68109 8.25748 5.14644L9.06033 3.99951H13.5C14.3284 3.99951 15 4.67108 15 5.49951V7.58794C14.9659 7.56355 14.9314 7.54011 14.8964 7.51759C14.3147 7.14304 13.6465 7.04289 13.1909 7.06112C12.2049 7.02949 11.5169 7.39696 11.0691 7.85829C10.4156 7.19308 9.48458 7.03968 8.94097 7.06112C7.10443 7.002 6.32608 8.30908 6.15803 9.05034C6.02384 9.39958 6.01328 9.86687 6.02763 10.2457C6.03784 10.515 6.06346 10.7861 6.09228 11.0222C6.01504 11.0666 5.93979 11.117 5.86841 11.1758C5.67849 11.3323 5.54223 11.5256 5.43908 11.7661C5.25186 12.2025 5.15285 12.8589 5.02597 13.8558L5.02582 13.8569L5.00702 13.9995H2.5C1.67157 13.9995 1 13.3279 1 12.4995V5.99951H6.61902Z" fill="#FADC7F"/>
</g>
<defs>
<clipPath id="clip0_3011_16613">
<rect width="16" height="16" fill="white"/>
</clipPath>
</defs>
</svg>
