<svg width="24" height="24" viewBox="0 0 24 24" fill="none" xmlns="http://www.w3.org/2000/svg">
<g opacity="0.5">
<path d="M0 12C0 5.37258 5.37258 0 12 0V0C18.6274 0 24 5.37258 24 12V12C24 18.6274 18.6274 24 12 24V24C5.37258 24 0 18.6274 0 12V12Z" fill="#D0D9FB" fill-opacity="0.12"/>
<mask id="mask0_553_2581" style="mask-type:alpha" maskUnits="userSpaceOnUse" x="4" y="4" width="16" height="16">
<path d="M12 13.6666C13.1067 13.6666 14 12.7733 14 11.6666V7.66663C14 6.55996 13.1067 5.66663 12 5.66663C10.8933 5.66663 10 6.55996 10 7.66663V11.6666C10 12.7733 10.8933 13.6666 12 13.6666Z" fill="black"/>
<path d="M15.3333 11.6666C15.3333 13.5066 13.84 15 12 15C10.16 15 8.66668 13.5066 8.66668 11.6666H7.33334C7.33334 14.02 9.07334 15.9533 11.3333 16.28V18.3333H12.6667V16.28C14.9267 15.9533 16.6667 14.02 16.6667 11.6666H15.3333Z" fill="black"/>
</mask>
<g mask="url(#mask0_553_2581)">
<rect x="4" y="4" width="16" height="16" fill="#F7F7F8"/>
</g>
</g>
</svg>
