<svg width="24" height="24" viewBox="0 0 24 24" fill="none" xmlns="http://www.w3.org/2000/svg">
<g clip-path="url(#clip0_433_11085)">
<g clip-path="url(#clip1_433_11085)">
<mask id="path-1-inside-1_433_11085" fill="white">
<path d="M14.4377 4.66558C15.9204 5.31716 18.1883 6.91878 19.0912 9.80384L8.00188 20.8931L2.11439 22.4979C1.74114 22.5997 1.39871 22.2573 1.5005 21.884L3.106 15.9972L14.4377 4.66558ZM22.231 3.12845C23.2073 4.10477 23.2073 5.68768 22.231 6.66399L20.2651 8.62994C19.2009 5.98735 17.1639 4.37425 15.5591 3.54415L17.3358 1.76879C18.3122 0.792546 19.8951 0.792508 20.8714 1.76879L22.231 3.12845Z"/>
</mask>
<path d="M14.4377 4.66558C15.9204 5.31716 18.1883 6.91878 19.0912 9.80384L8.00188 20.8931L2.11439 22.4979C1.74114 22.5997 1.39871 22.2573 1.5005 21.884L3.106 15.9972L14.4377 4.66558ZM22.231 3.12845C23.2073 4.10477 23.2073 5.68768 22.231 6.66399L20.2651 8.62994C19.2009 5.98735 17.1639 4.37425 15.5591 3.54415L17.3358 1.76879C18.3122 0.792546 19.8951 0.792508 20.8714 1.76879L22.231 3.12845Z" fill="#494D5A"/>
<path d="M14.4377 4.66558L14.84 3.75008L14.214 3.47501L13.7306 3.95847L14.4377 4.66558ZM19.0912 9.80384L19.7983 10.511L20.2263 10.0829L20.0455 9.50517L19.0912 9.80384ZM8.00188 20.8931L8.26486 21.8579L8.52115 21.7881L8.70899 21.6002L8.00188 20.8931ZM2.11439 22.4979L1.85141 21.5331L1.85128 21.5332L2.11439 22.4979ZM1.5005 21.884L0.53574 21.6209L0.53574 21.6209L1.5005 21.884ZM3.106 15.9972L2.39889 15.2901L2.21111 15.4779L2.14123 15.7341L3.106 15.9972ZM22.231 3.12845L21.5239 3.83556L22.231 3.12845ZM22.231 6.66399L21.5239 5.95688L21.5239 5.95688L22.231 6.66399ZM20.2651 8.62994L19.3375 9.00348L19.9025 10.4067L20.9722 9.33704L20.2651 8.62994ZM15.5591 3.54415L14.8523 2.83677L13.8845 3.80382L15.0997 4.43237L15.5591 3.54415ZM17.3358 1.76879L18.0427 2.47617L18.0429 2.47593L17.3358 1.76879ZM20.8714 1.76879L21.5785 1.06168L20.8714 1.76879ZM14.4377 4.66558L14.0354 5.58109C15.3526 6.15992 17.3479 7.5818 18.1368 10.1025L19.0912 9.80384L20.0455 9.50517C19.0286 6.25577 16.4883 4.47441 14.84 3.75008L14.4377 4.66558ZM19.0912 9.80384L18.3841 9.09674L7.29477 20.186L8.00188 20.8931L8.70899 21.6002L19.7983 10.511L19.0912 9.80384ZM8.00188 20.8931L7.7389 19.9283L1.85141 21.5331L2.11439 22.4979L2.37737 23.4627L8.26486 21.8579L8.00188 20.8931ZM2.11439 22.4979L1.85128 21.5332C2.22451 21.4314 2.56707 21.7739 2.46527 22.1472L1.5005 21.884L0.53574 21.6209C0.230351 22.7407 1.25777 23.7681 2.3775 23.4627L2.11439 22.4979ZM1.5005 21.884L2.46527 22.1472L4.07076 16.2604L3.106 15.9972L2.14123 15.7341L0.53574 21.6209L1.5005 21.884ZM3.106 15.9972L3.8131 16.7044L15.1448 5.37269L14.4377 4.66558L13.7306 3.95847L2.39889 15.2901L3.106 15.9972ZM22.231 3.12845L21.5239 3.83556C22.1097 4.42135 22.1097 5.3711 21.5239 5.95688L22.231 6.66399L22.9381 7.3711C24.305 6.00427 24.305 3.78819 22.9381 2.42135L22.231 3.12845ZM22.231 6.66399L21.5239 5.95688L19.558 7.92283L20.2651 8.62994L20.9722 9.33704L22.9381 7.37109L22.231 6.66399ZM20.2651 8.62994L21.1927 8.25639C20.0141 5.32964 17.7678 3.56077 16.0185 2.65594L15.5591 3.54415L15.0997 4.43237C16.56 5.18774 18.3877 6.64507 19.3375 9.00348L20.2651 8.62994ZM15.5591 3.54415L16.2659 4.25154L18.0427 2.47617L17.3358 1.76879L16.629 1.06141L14.8523 2.83677L15.5591 3.54415ZM17.3358 1.76879L18.0429 2.47593C18.6287 1.89014 19.5785 1.89016 20.1643 2.4759L20.8714 1.76879L21.5785 1.06168C20.2116 -0.305149 17.9956 -0.30505 16.6287 1.06166L17.3358 1.76879ZM20.8714 1.76879L20.1643 2.4759L21.5239 3.83556L22.231 3.12845L22.9381 2.42135L21.5785 1.06168L20.8714 1.76879Z" fill="white" mask="url(#path-1-inside-1_433_11085)"/>
</g>
</g>
<defs>
<clipPath id="clip0_433_11085">
<rect width="24" height="24" fill="white"/>
</clipPath>
<clipPath id="clip1_433_11085">
<rect width="24" height="24" fill="white"/>
</clipPath>
</defs>
</svg>
