<svg width="18" height="18" viewBox="0 0 18 18" fill="none" xmlns="http://www.w3.org/2000/svg">
<circle cx="9" cy="9" r="8" stroke="#D0D9FB" stroke-opacity="0.08" stroke-width="2"/>
<path d="M9.00001 2C9.55229 2 10 1.55229 10 1C10 0.447716 9.55229 5.36442e-07 9.00001 0L9.00001 1L9.00001 2ZM1 9H2C2 8.08075 2.18106 7.17049 2.53284 6.32121L1.60896 5.93853L0.685085 5.55585C0.232792 6.64778 1.19209e-07 7.8181 0 9H1ZM1.60896 5.93853L2.53284 6.32121C2.88463 5.47193 3.40024 4.70026 4.05026 4.05025L3.34315 3.34314L2.63604 2.63604C1.80031 3.47176 1.13738 4.46392 0.685085 5.55585L1.60896 5.93853ZM3.34315 3.34314L4.05026 4.05025C4.70027 3.40024 5.47194 2.88462 6.32122 2.53284L5.93854 1.60896L5.55586 0.685082C4.46392 1.13737 3.47177 1.80031 2.63604 2.63604L3.34315 3.34314ZM5.93854 1.60896L6.32122 2.53284C7.1705 2.18106 8.08075 2 9.00001 2L9.00001 1L9.00001 0C7.81811 -1.19209e-06 6.64779 0.23279 5.55586 0.685082L5.93854 1.60896Z" fill="#F7F7F8"/>
<path d="M16 9.00001C16 9.55229 16.4477 10 17 10C17.5523 10 18 9.55229 18 9.00001L17 9.00001L16 9.00001ZM9 1L9 2C9.91925 2 10.8295 2.18106 11.6788 2.53284L12.0615 1.60896L12.4442 0.685085C11.3522 0.232792 10.1819 -1.78819e-07 9 -3.49691e-07L9 1ZM12.0615 1.60896L11.6788 2.53284C12.5281 2.88463 13.2997 3.40024 13.9497 4.05026L14.6569 3.34315L15.364 2.63604C14.5282 1.80031 13.5361 1.13738 12.4442 0.685085L12.0615 1.60896ZM14.6569 3.34315L13.9497 4.05026C14.5998 4.70027 15.1154 5.47194 15.4672 6.32122L16.391 5.93854L17.3149 5.55586C16.8626 4.46392 16.1997 3.47177 15.364 2.63604L14.6569 3.34315ZM16.391 5.93854L15.4672 6.32122C15.8189 7.1705 16 8.08075 16 9.00001L17 9.00001L18 9.00001C18 7.81811 17.7672 6.64779 17.3149 5.55586L16.391 5.93854Z" fill="#F7F7F8"/>
<path d="M8.99999 16C8.44771 16 7.99999 16.4477 7.99999 17C7.99999 17.5523 8.44771 18 8.99999 18L8.99999 17L8.99999 16ZM17 9L16 9C16 9.91925 15.8189 10.8295 15.4672 11.6788L16.391 12.0615L17.3149 12.4442C17.7672 11.3522 18 10.1819 18 9L17 9ZM16.391 12.0615L15.4672 11.6788C15.1154 12.5281 14.5998 13.2997 13.9497 13.9497L14.6569 14.6569L15.364 15.364C16.1997 14.5282 16.8626 13.5361 17.3149 12.4442L16.391 12.0615ZM14.6569 14.6569L13.9497 13.9497C13.2997 14.5998 12.5281 15.1154 11.6788 15.4672L12.0615 16.391L12.4441 17.3149C13.5361 16.8626 14.5282 16.1997 15.364 15.364L14.6569 14.6569ZM12.0615 16.391L11.6788 15.4672C10.8295 15.8189 9.91925 16 8.99999 16L8.99999 17L8.99999 18C10.1819 18 11.3522 17.7672 12.4441 17.3149L12.0615 16.391Z" fill="#F7F7F8"/>
<path d="M2 8.99999C2 8.44771 1.55229 7.99999 1 7.99999C0.447716 7.99999 1.62609e-07 8.44771 -3.49692e-07 8.99999L1 8.99999L2 8.99999ZM9 17L9 16C8.08075 16 7.17049 15.8189 6.32121 15.4672L5.93853 16.391L5.55585 17.3149C6.64778 17.7672 7.8181 18 9 18L9 17ZM5.93853 16.391L6.32121 15.4672C5.47193 15.1154 4.70026 14.5998 4.05025 13.9497L3.34314 14.6569L2.63604 15.364C3.47176 16.1997 4.46392 16.8626 5.55585 17.3149L5.93853 16.391ZM3.34314 14.6569L4.05025 13.9497C3.40024 13.2997 2.88462 12.5281 2.53284 11.6788L1.60896 12.0615L0.685081 12.4441C1.13737 13.5361 1.80031 14.5282 2.63604 15.364L3.34314 14.6569ZM1.60896 12.0615L2.53284 11.6788C2.18106 10.8295 2 9.91925 2 8.99999L1 8.99999L-3.49692e-07 8.99999C-1.49012e-06 10.1819 0.23279 11.3522 0.685081 12.4441L1.60896 12.0615Z" fill="#F7F7F8"/>
</svg>
