<svg width="24" height="24" viewBox="0 0 24 24" fill="none" xmlns="http://www.w3.org/2000/svg">
<path d="M12 5.24988C13.4744 5.24988 14.838 5.72314 15.9482 6.52527C15.5948 6.86628 15.375 7.34494 15.375 7.87488V8.62488C15.375 9.66041 16.2145 10.4999 17.25 10.4999H18.5811C18.6906 10.9824 18.75 11.4842 18.75 11.9999C18.75 15.7278 15.7279 18.7499 12 18.7499C8.27208 18.7499 5.25 15.7278 5.25 11.9999C5.25 8.27196 8.27208 5.24988 12 5.24988Z" fill="#494D5A"/>
<path d="M13.875 11.9999C13.875 13.0354 13.0355 13.8749 12 13.8749C10.9645 13.8749 10.125 13.0354 10.125 11.9999C10.125 10.9643 10.9645 10.1249 12 10.1249C13.0355 10.1249 13.875 10.9643 13.875 11.9999Z" fill="#F7F7F8"/>
<path d="M12 1.49988C15.7442 1.49988 19.0297 3.46028 20.8887 6.41003V4.1239C20.8887 3.70984 21.2247 3.37412 21.6387 3.3739C22.0529 3.3739 22.3886 3.70971 22.3887 4.1239V7.8739C22.3886 8.49518 21.885 8.9989 21.2637 8.9989H17.5146C17.1005 8.9989 16.7647 8.66308 16.7646 8.2489C16.7646 7.83469 17.1004 7.4989 17.5146 7.4989H19.7939C18.2376 4.80968 15.3306 2.99988 12 2.99988C7.02944 2.99988 3 7.02931 3 11.9999C3 16.7179 6.63037 20.5875 11.25 20.9686C11.6628 21.0027 12 21.3357 12 21.7499C12 22.1641 11.6631 22.5026 11.25 22.4735C5.80109 22.0889 1.5 17.5467 1.5 11.9999C1.5 6.20089 6.20101 1.49988 12 1.49988ZM15.8896 20.0038C16.2612 19.8206 16.7114 19.9731 16.8945 20.3446C17.0775 20.7159 16.9248 21.1652 16.5537 21.3485C16.3504 21.4487 16.1418 21.5437 15.9297 21.6317C15.7178 21.7197 15.5043 21.7998 15.29 21.8729C14.8981 22.0067 14.4718 21.7979 14.3379 21.4061C14.2041 21.0141 14.4137 20.5878 14.8057 20.454C14.9896 20.3912 15.1732 20.3216 15.3555 20.246C15.5375 20.1704 15.7156 20.0896 15.8896 20.0038ZM19.373 16.9452C19.6026 16.6004 20.0683 16.5067 20.4131 16.7362C20.7579 16.9658 20.8506 17.4315 20.6211 17.7762C20.369 18.1548 20.0916 18.5182 19.79 18.8632C19.5175 19.1747 19.0442 19.2068 18.7324 18.9344C18.4206 18.6618 18.3885 18.1877 18.6611 17.8759C18.9193 17.5806 19.1571 17.2696 19.373 16.9452ZM21.6592 11.8524C22.0724 11.8795 22.3852 12.2362 22.3584 12.6493C22.3284 13.1064 22.2685 13.5598 22.1797 14.0057C22.0988 14.412 21.7041 14.6765 21.2979 14.5956C20.8918 14.5147 20.6284 14.1198 20.709 13.7137C20.7851 13.3315 20.8366 12.943 20.8623 12.5516C20.8894 12.1384 21.2459 11.8254 21.6592 11.8524Z" fill="#F7F7F8"/>
</svg>
