<svg xmlns="http://www.w3.org/2000/svg" width="100%" height="100%" viewBox="0 0 16 16" fill="currentColor" fill-rule="evenodd" aria-hidden="true">
  <!-- SF Symbol arrow.up.left.and.arrow.down.right; glyph uni10014A.medium; U+10014A (alias of person.crop.rectangle.stack in symbolist). -->
  <path d="M1.436 6.895C1.84 6.895 2.13 6.59 2.13 6.186V5.545L1.978 2.885L3.982 4.996L6.33 7.36C6.46 7.497 6.628 7.558 6.811 7.558C7.245 7.558 7.565 7.276 7.565 6.849C7.565 6.643 7.497 6.46 7.36 6.323L5.004 3.975L2.892 1.97L5.561 2.122H6.193C6.597 2.122 6.91 1.84 6.91 1.429C6.91 1.017 6.605 0.727 6.193 0.727H1.962C1.185 0.727 0.735 1.177 0.735 1.955V6.186C0.735 6.582 1.032 6.895 1.436 6.895ZM9.799 15.273H14.03C14.808 15.273 15.265 14.823 15.265 14.045V9.814C15.265 9.418 14.968 9.105 14.556 9.105C14.16 9.105 13.862 9.41 13.862 9.814V10.455L14.022 13.115L12.01 11.004L9.67 8.64C9.54 8.503 9.365 8.442 9.182 8.442C8.755 8.442 8.427 8.724 8.427 9.151C8.427 9.357 8.503 9.54 8.64 9.677L10.988 12.025L13.108 14.03L10.439 13.878H9.799C9.395 13.878 9.083 14.16 9.083 14.571C9.083 14.983 9.395 15.273 9.799 15.273Z"/>
</svg>
