<svg xmlns="http://www.w3.org/2000/svg" width="100%" height="100%" viewBox="0 0 16 16" fill="currentColor" fill-rule="evenodd" aria-hidden="true">
  <!-- SF Symbol bubble.left.and.bubble.right; glyph uni1004A4.medium; U+1004A4 (alias of person.crop.rectangle.stack in symbolist). -->
  <path d="M6.921 10.725 6.673 9.909H6.288C6.005 9.909 5.863 9.955 5.67 10.152L4.05 11.758V10.294C4.05 10.016 3.943 9.909 3.67 9.909H3.047C2.024 9.909 1.543 9.393 1.543 8.405V4.531C1.543 3.543 2.024 3.022 3.047 3.022H9.57C10.588 3.022 11.074 3.543 11.074 4.531V5.356H11.89V4.526C11.89 3.042 11.079 2.206 9.57 2.206H3.047C1.538 2.206 0.727 3.042 0.727 4.526V8.41C0.727 9.894 1.538 10.725 3.047 10.725H3.29V12.047C3.29 12.437 3.487 12.685 3.842 12.685C4.09 12.685 4.262 12.553 4.571 12.285L6.319 10.725ZM8.344 11.945H9.985L11.677 13.394C11.986 13.657 12.153 13.794 12.396 13.794C12.746 13.794 12.943 13.546 12.943 13.161V11.945H13.049C14.508 11.945 15.273 11.16 15.273 9.727V6.987C15.273 5.549 14.508 4.764 13.049 4.764H8.344C6.886 4.764 6.121 5.549 6.121 6.987V9.727C6.121 11.165 6.886 11.945 8.344 11.945ZM8.36 11.13C7.367 11.13 6.942 10.664 6.942 9.717V6.997C6.942 6.05 7.367 5.579 8.36 5.579H13.039C14.027 5.579 14.457 6.05 14.457 6.997V9.712C14.457 10.664 14.027 11.13 13.039 11.13H12.573C12.356 11.13 12.183 11.262 12.183 11.545V12.872L10.472 11.343C10.304 11.186 10.163 11.13 9.955 11.13Z"/>
</svg>
