<svg xmlns="http://www.w3.org/2000/svg" width="100%" height="100%" viewBox="0 0 16 16" fill="currentColor" fill-rule="evenodd" aria-hidden="true">
  <!-- SF Symbol camera.viewfinder; glyph uni1003BC.medium; U+1003BC via symbolist + SFSymbolsFallback.otf. -->
  <path d="M0.727 4.847C0.727 5.173 0.995 5.441 1.322 5.441C1.656 5.441 1.923 5.173 1.923 4.847V3.442C1.923 2.499 2.488 1.927 3.439 1.927H4.873C5.199 1.927 5.474 1.652 5.474 1.325C5.474 0.998 5.199 0.731 4.873 0.731H3.439C1.752 0.731 0.727 1.764 0.727 3.442ZM15.273 4.847V3.442C15.273 1.764 14.248 0.731 12.561 0.731H11.12C10.793 0.731 10.526 0.998 10.526 1.325C10.526 1.652 10.793 1.927 11.12 1.927H12.561C13.512 1.927 14.077 2.499 14.077 3.442V4.847C14.077 5.173 14.344 5.441 14.671 5.441C14.998 5.441 15.273 5.173 15.273 4.847ZM0.727 11.153V12.558C0.727 14.236 1.752 15.269 3.439 15.269H4.873C5.199 15.269 5.474 15.002 5.474 14.675C5.474 14.348 5.199 14.073 4.873 14.073H3.439C2.488 14.073 1.923 13.501 1.923 12.558V11.153C1.923 10.827 1.656 10.552 1.322 10.552C0.995 10.552 0.727 10.827 0.727 11.153ZM15.273 11.153C15.273 10.827 14.998 10.552 14.671 10.552C14.344 10.552 14.077 10.827 14.077 11.153V12.558C14.077 13.501 13.512 14.073 12.561 14.073H11.12C10.793 14.073 10.526 14.348 10.526 14.675C10.526 15.002 10.793 15.269 11.12 15.269H12.561C14.248 15.269 15.273 14.236 15.273 12.558ZM4.687 11.354H11.321C12.101 11.354 12.502 10.968 12.502 10.195V6.265C12.502 5.485 12.101 5.099 11.321 5.099H10.355C10.065 5.099 9.976 5.04 9.805 4.854L9.501 4.512C9.315 4.312 9.122 4.2 8.743 4.2H7.242C6.856 4.2 6.663 4.312 6.477 4.512L6.173 4.854C6.002 5.032 5.913 5.099 5.623 5.099H4.687C3.899 5.099 3.506 5.485 3.506 6.265V10.195C3.506 10.968 3.899 11.354 4.687 11.354ZM8.015 10.418C6.774 10.418 5.779 9.43 5.779 8.189C5.779 6.956 6.774 5.968 8.015 5.968C9.241 5.968 10.229 6.956 10.229 8.189C10.229 9.452 9.241 10.418 8.015 10.418ZM8.007 9.779C8.877 9.779 9.59 9.073 9.59 8.189C9.59 7.313 8.877 6.607 8.007 6.607C7.131 6.607 6.418 7.313 6.418 8.189C6.418 9.073 7.131 9.779 8.007 9.779ZM11.113 7.016C10.838 7.016 10.615 6.785 10.615 6.511C10.615 6.236 10.838 6.005 11.113 6.005C11.395 6.005 11.618 6.236 11.618 6.511C11.618 6.785 11.395 7.016 11.113 7.016Z"/>
</svg>
