<svg xmlns="http://www.w3.org/2000/svg" width="100%" height="100%" viewBox="0 0 16 16" fill="currentColor" fill-rule="evenodd" aria-hidden="true">
  <!-- SF Symbol chevron.right.2  two right chevrons (>>). Built from the
       canonical chevron.right path (assets/sf-symbols/chevron.right--monochrome--medium.svg)
       reused twice via <use>, each scaled to 0.6 and translated so the two
       glyphs sit side-by-side centered around the viewBox midline (centers
       at x=5 and x=11, both at y=8). Prefer a fresh Monochrome Medium export
       from /Applications/SF Symbols.app overwriting this file. -->
  <defs>
    <path id="ps-chevron-right-glyph" d="M12.097 8C12.097 7.791 12.013 7.598 11.854 7.447L5.218 0.945C5.067 0.803 4.883 0.727 4.665 0.727C4.238 0.727 3.903 1.054 3.903 1.49C3.903 1.699 3.987 1.892 4.121 2.034L10.22 8L4.121 13.966C3.987 14.108 3.903 14.292 3.903 14.51C3.903 14.946 4.238 15.273 4.665 15.273C4.883 15.273 5.067 15.197 5.218 15.047L11.854 8.553C12.013 8.394 12.097 8.209 12.097 8Z"/>
  </defs>
  <use href="#ps-chevron-right-glyph" transform="matrix(0.6 0 0 0.6 0.2 3.2)"/>
  <use href="#ps-chevron-right-glyph" transform="matrix(0.6 0 0 0.6 6.2 3.2)"/>
</svg>
