<svg xmlns="http://www.w3.org/2000/svg" width="100%" height="100%" viewBox="0 0 16 16" fill="currentColor" fill-rule="evenodd" aria-hidden="true">
  <!-- SF Symbol ellipsis.circle; glyph uni100361.medium; U+100361 (alias of person.crop.rectangle.stack in symbolist). -->
  <path d="M8 15.273C12.014 15.273 15.273 12.014 15.273 8C15.273 3.986 12.014 0.727 8 0.727C3.986 0.727 0.727 3.986 0.727 8C0.727 12.014 3.986 15.273 8 15.273ZM8 14.061C4.649 14.061 1.939 11.351 1.939 8C1.939 4.649 4.649 1.939 8 1.939C11.351 1.939 14.061 4.649 14.061 8C14.061 11.351 11.351 14.061 8 14.061ZM4.67 9.027C5.234 9.027 5.697 8.563 5.697 7.993C5.697 7.422 5.226 6.959 4.67 6.959C4.1 6.959 3.636 7.422 3.636 7.993C3.636 8.563 4.1 9.027 4.67 9.027ZM7.993 9.027C8.563 9.027 9.027 8.563 9.027 7.993C9.027 7.422 8.563 6.959 7.993 6.959C7.422 6.959 6.959 7.422 6.959 7.993C6.959 8.563 7.422 9.027 7.993 9.027ZM11.323 9.027C11.886 9.027 12.357 8.563 12.357 7.993C12.357 7.422 11.886 6.959 11.323 6.959C10.752 6.959 10.289 7.422 10.289 7.993C10.289 8.563 10.752 9.027 11.323 9.027Z"/>
</svg>
