<svg xmlns="http://www.w3.org/2000/svg" width="100%" height="100%" viewBox="0 0 16 16" fill="currentColor" fill-rule="evenodd" aria-hidden="true">
  <!-- SF Symbol heart; glyph uni1002B4.medium; U+1002B4 (alias of person.crop.rectangle.stack in symbolist). -->
  <path d="M0.727 5.7C0.727 8.82 3.342 11.889 7.473 14.526C7.626 14.621 7.846 14.723 8 14.723C8.154 14.723 8.374 14.621 8.535 14.526C12.658 11.889 15.273 8.82 15.273 5.7C15.273 3.108 13.493 1.277 11.12 1.277C9.765 1.277 8.666 1.921 8 2.91C7.348 1.928 6.235 1.277 4.88 1.277C2.507 1.277 0.727 3.108 0.727 5.7ZM1.906 5.7C1.906 3.752 3.166 2.456 4.865 2.456C6.242 2.456 7.033 3.313 7.502 4.045C7.7 4.338 7.824 4.419 8 4.419C8.176 4.419 8.286 4.331 8.498 4.045C9.003 3.327 9.765 2.456 11.135 2.456C12.834 2.456 14.094 3.752 14.094 5.7C14.094 8.425 11.215 11.362 8.154 13.398C8.081 13.449 8.029 13.486 8 13.486C7.971 13.486 7.919 13.449 7.854 13.398C4.785 11.362 1.906 8.425 1.906 5.7Z"/>
</svg>
