<svg xmlns="http://www.w3.org/2000/svg" width="100%" height="100%" viewBox="0 0 16 16" fill="currentColor" fill-rule="evenodd" aria-hidden="true">
  <!-- SF Symbol info.circle; glyph uni100174.medium; U+100174 (alias of person.crop.rectangle.stack in symbolist). -->
  <path d="M8 15.273C12.014 15.273 15.273 12.014 15.273 8C15.273 3.986 12.014 0.727 8 0.727C3.986 0.727 0.727 3.986 0.727 8C0.727 12.014 3.986 15.273 8 15.273ZM8 14.061C4.649 14.061 1.939 11.351 1.939 8C1.939 4.649 4.649 1.939 8 1.939C11.351 1.939 14.061 4.649 14.061 8C14.061 11.351 11.351 14.061 8 14.061ZM6.752 11.993H9.654C9.947 11.993 10.175 11.779 10.175 11.487C10.175 11.209 9.947 10.988 9.654 10.988H8.77V7.358C8.77 6.973 8.578 6.717 8.214 6.717H6.873C6.581 6.717 6.353 6.938 6.353 7.216C6.353 7.508 6.581 7.722 6.873 7.722H7.636V10.988H6.752C6.46 10.988 6.232 11.209 6.232 11.487C6.232 11.779 6.46 11.993 6.752 11.993ZM7.936 5.533C8.456 5.533 8.863 5.119 8.863 4.599C8.863 4.078 8.456 3.665 7.936 3.665C7.422 3.665 7.009 4.078 7.009 4.599C7.009 5.119 7.422 5.533 7.936 5.533Z"/>
</svg>
