<svg xmlns="http://www.w3.org/2000/svg" width="100%" height="100%" viewBox="0 0 16 16" fill="currentColor" fill-rule="evenodd" aria-hidden="true">
  <!-- SF Symbol line.3.horizontal.decrease; glyph uni100713.medium; U+100713 (alias of person.crop.rectangle.stack in symbolist). -->
  <path d="M4.294 12.282H11.742C12.066 12.282 12.325 12.03 12.325 11.706C12.325 11.383 12.066 11.124 11.742 11.124H4.294C3.97 11.124 3.718 11.383 3.718 11.706C3.718 12.03 3.97 12.282 4.294 12.282ZM2.82 8.579H13.224C13.547 8.579 13.799 8.327 13.799 8.004C13.799 7.68 13.547 7.421 13.224 7.421H2.82C2.496 7.421 2.237 7.68 2.237 8.004C2.237 8.327 2.496 8.579 2.82 8.579ZM1.302 4.876H14.698C15.021 4.876 15.273 4.624 15.273 4.301C15.273 3.977 15.021 3.718 14.698 3.718H1.302C0.979 3.718 0.727 3.977 0.727 4.301C0.727 4.624 0.979 4.876 1.302 4.876Z"/>
</svg>
