<svg xmlns="http://www.w3.org/2000/svg" width="100%" height="100%" viewBox="0 0 16 16" fill="currentColor" fill-rule="evenodd" aria-hidden="true">
  <!-- SF Symbol lock.fill; glyph uni1003A1.medium; U+1003A1 (alias of person.crop.rectangle.stack in symbolist). -->
  <path d="M4.608 15.273H11.392C12.482 15.273 13.06 14.68 13.06 13.508V8.4C13.06 7.229 12.482 6.643 11.392 6.643H4.608C3.518 6.643 2.94 7.229 2.94 8.4V13.508C2.94 14.68 3.518 15.273 4.608 15.273ZM4.238 7.214H5.416V4.708C5.416 2.84 6.61 1.847 7.996 1.847C9.383 1.847 10.591 2.84 10.591 4.708V7.214H11.762V4.871C11.762 2.084 9.939 0.727 7.996 0.727C6.061 0.727 4.238 2.084 4.238 4.871Z"/>
</svg>
