<svg xmlns="http://www.w3.org/2000/svg" width="100%" height="100%" viewBox="0 0 16 16" fill="currentColor" fill-rule="evenodd" aria-hidden="true">
  <!-- SF Symbol magnifyingglass; glyph uni1002AB.medium; U+1002AB (alias of person.crop.rectangle.stack in symbolist). -->
  <path d="M0.797 6.61C0.797 9.854 3.437 12.493 6.68 12.493C7.963 12.493 9.135 12.081 10.101 11.388L13.728 15.022C13.898 15.192 14.119 15.273 14.355 15.273C14.856 15.273 15.203 14.897 15.203 14.403C15.203 14.167 15.114 13.953 14.959 13.798L11.354 10.171C12.114 9.183 12.563 7.952 12.563 6.61C12.563 3.367 9.924 0.727 6.68 0.727C3.437 0.727 0.797 3.367 0.797 6.61ZM2.058 6.61C2.058 4.06 4.13 1.988 6.68 1.988C9.231 1.988 11.303 4.06 11.303 6.61C11.303 9.161 9.231 11.233 6.68 11.233C4.13 11.233 2.058 9.161 2.058 6.61Z"/>
</svg>
