<svg xmlns="http://www.w3.org/2000/svg" width="100%" height="100%" viewBox="0 0 16 16" fill="currentColor" fill-rule="evenodd" aria-hidden="true">
  <!-- SF Symbol map; glyph uni10064A.medium; U+10064A via symbolist + SFSymbolsFallback.otf. -->
  <path d="M1.517 14.626C1.692 14.626 1.874 14.563 2.098 14.437L5.657 12.521L9.524 14.689C9.776 14.829 10.049 14.899 10.308 14.899C10.552 14.899 10.797 14.836 11.007 14.717L14.664 12.64C15.084 12.409 15.273 12.073 15.273 11.605V2.185C15.273 1.668 14.986 1.381 14.483 1.381C14.308 1.381 14.126 1.437 13.895 1.563L10.189 3.626L6.392 1.297C6.175 1.171 5.93 1.101 5.685 1.101C5.434 1.101 5.182 1.171 4.965 1.297L1.329 3.367C0.916 3.605 0.727 3.941 0.727 4.409V13.815C0.727 14.332 1.014 14.626 1.517 14.626ZM5.203 11.409 2.049 13.143C2.014 13.157 1.979 13.178 1.944 13.178C1.888 13.178 1.853 13.136 1.853 13.066V4.682C1.853 4.514 1.916 4.395 2.084 4.297L4.951 2.619C5.042 2.57 5.119 2.528 5.203 2.479ZM6.329 11.521V2.626C6.399 2.668 6.483 2.71 6.552 2.752L9.671 4.654V13.395C9.573 13.339 9.469 13.29 9.364 13.234ZM10.797 13.521V4.584L13.951 2.864C13.986 2.843 14.021 2.829 14.049 2.829C14.112 2.829 14.147 2.871 14.147 2.941V11.325C14.147 11.5 14.077 11.619 13.916 11.717L11.112 13.346C11.007 13.409 10.902 13.472 10.797 13.521Z"/>
</svg>
