<svg xmlns="http://www.w3.org/2000/svg" width="100%" height="100%" viewBox="0 0 16 16" fill="currentColor" fill-rule="evenodd" aria-hidden="true">
  <!-- SF Symbol pencil.and.scribble; glyph uni100912.medium; U+100912 (alias of person.crop.rectangle.stack in symbolist). -->
  <path d="M8.388 11.04 14.051 5.382 13.12 4.445 7.456 10.103 6.951 11.285C6.898 11.412 7.031 11.561 7.164 11.508ZM14.52 4.924 15.057 4.397C15.329 4.126 15.345 3.833 15.1 3.588L14.919 3.407C14.674 3.167 14.381 3.189 14.115 3.455L13.572 3.987ZM0.84 11.391C1.314 12.945 3.667 13.195 6.168 12.04C6.626 11.833 6.312 11.247 5.881 11.455C3.794 12.445 1.793 12.306 1.463 11.205C0.622 8.453 6.541 8.144 5.86 5.829C5.519 4.69 2.89 4.876 1.011 6.143C0.633 6.388 0.995 6.931 1.367 6.675C2.73 5.77 5.056 5.414 5.237 6.01C5.37 6.457 4.997 6.787 3.528 7.607C2.097 8.4 0.25 9.448 0.84 11.391Z"/>
</svg>
