<svg xmlns="http://www.w3.org/2000/svg" width="100%" height="100%" viewBox="0 0 16 16" fill="currentColor" fill-rule="evenodd" aria-hidden="true">
  <!-- SF Symbol person.crop.rectangle; glyph uni1003CF.medium; U+1003CF (alias of person.crop.rectangle.stack in symbolist). -->
  <path d="M2.664 13.678H13.336C14.631 13.678 15.273 13.043 15.273 11.772V4.234C15.273 2.963 14.631 2.322 13.336 2.322H2.664C1.375 2.322 0.727 2.963 0.727 4.234V11.772C0.727 13.043 1.375 13.678 2.664 13.678ZM2.677 12.685C2.06 12.685 1.72 12.358 1.72 11.717V4.29C1.72 3.648 2.06 3.315 2.677 3.315H13.323C13.934 3.315 14.28 3.648 14.28 4.29V11.717C14.28 12.358 13.934 12.685 13.323 12.685ZM3.762 13.055H12.25C11.886 11.322 10.147 10.063 8.006 10.063C5.86 10.063 4.12 11.322 3.762 13.055ZM8.006 9.033C9.184 9.046 10.116 8.04 10.116 6.72C10.116 5.48 9.184 4.456 8.006 4.456C6.828 4.456 5.89 5.48 5.897 6.72C5.903 8.04 6.828 9.021 8.006 9.033Z"/>
</svg>
