<svg xmlns="http://www.w3.org/2000/svg" width="100%" height="100%" viewBox="0 0 16 16" fill="currentColor" fill-rule="evenodd" aria-hidden="true">
  <!-- SF Symbol person.2; glyph uni10026B.medium; U+10026B via symbolist + SFSymbolsFallback.otf. -->
  <path d="M7.428 12.836H13.988C14.86 12.836 15.273 12.575 15.273 12.001C15.273 10.632 13.544 8.653 10.708 8.653C7.877 8.653 6.149 10.632 6.149 12.001C6.149 12.575 6.561 12.836 7.428 12.836ZM7.177 12.048C7.042 12.048 6.989 12.011 6.989 11.901C6.989 11.04 8.316 9.441 10.708 9.441C13.105 9.441 14.432 11.04 14.432 11.901C14.432 12.011 14.374 12.048 14.239 12.048ZM10.713 8C11.956 8 12.969 6.898 12.969 5.551C12.969 4.213 11.961 3.164 10.713 3.164C9.47 3.164 8.457 4.234 8.457 5.561C8.457 6.903 9.47 8 10.713 8ZM10.713 7.211C9.951 7.211 9.298 6.485 9.298 5.561C9.298 4.652 9.935 3.952 10.713 3.952C11.491 3.952 12.129 4.637 12.129 5.551C12.129 6.475 11.481 7.211 10.713 7.211ZM1.787 12.836H5.887C5.637 12.695 5.449 12.382 5.485 12.063H1.662C1.552 12.063 1.505 12.022 1.505 11.917C1.505 10.622 2.984 9.415 4.691 9.415C5.344 9.415 5.94 9.572 6.446 9.87C6.608 9.661 6.801 9.478 7.036 9.311C6.363 8.872 5.553 8.642 4.691 8.642C2.503 8.642 0.727 10.23 0.727 11.964C0.727 12.549 1.082 12.836 1.787 12.836ZM4.697 8.047C5.772 8.047 6.655 7.081 6.655 5.895C6.655 4.736 5.783 3.801 4.697 3.801C3.621 3.801 2.738 4.751 2.738 5.906C2.738 7.086 3.621 8.047 4.697 8.047ZM4.697 7.269C4.054 7.269 3.516 6.658 3.516 5.906C3.516 5.169 4.049 4.579 4.697 4.579C5.355 4.579 5.882 5.159 5.882 5.895C5.882 6.658 5.339 7.269 4.697 7.269Z"/>
</svg>
