<svg xmlns="http://www.w3.org/2000/svg" width="100%" height="100%" viewBox="0 0 16 16" fill="currentColor" fill-rule="evenodd" aria-hidden="true">
  <!-- SF Symbol photo; glyph uni1003C5.medium; U+1003C5 via symbolist + SFSymbolsFallback.otf. -->
  <path d="M2.621 13.246H12.96C14.076 13.246 14.637 12.623 14.637 11.439L10.973 7.997C10.702 7.744 10.375 7.614 10.042 7.614C9.703 7.614 9.4 7.732 9.117 7.985L6.328 10.477L5.187 9.447C4.928 9.212 4.644 9.095 4.354 9.095C4.077 9.095 3.812 9.206 3.559 9.44L1.208 11.562C1.245 12.679 1.702 13.246 2.621 13.246ZM5.323 8.059C6.119 8.059 6.772 7.405 6.772 6.603C6.772 5.807 6.119 5.147 5.323 5.147C4.521 5.147 3.867 5.807 3.867 6.603C3.867 7.405 4.521 8.059 5.323 8.059ZM2.664 13.678H13.336C14.631 13.678 15.273 13.043 15.273 11.772V4.234C15.273 2.963 14.631 2.322 13.336 2.322H2.664C1.375 2.322 0.727 2.963 0.727 4.234V11.772C0.727 13.043 1.375 13.678 2.664 13.678ZM2.677 12.685C2.06 12.685 1.72 12.358 1.72 11.717V4.29C1.72 3.648 2.06 3.315 2.677 3.315H13.323C13.934 3.315 14.28 3.648 14.28 4.29V11.717C14.28 12.358 13.934 12.685 13.323 12.685Z"/>
</svg>
