<?xml version="1.0" encoding="UTF-8"?>
<svg xmlns="http://www.w3.org/2000/svg" viewBox="0 0 16 16" width="16" height="16">
  <!-- SF Symbol exported via system renderer (sfsym); hierarchical, medium weight, medium scale, 16×16 canvas; fill normalized to currentColor for CSS tinting -->
  <defs>
    <mask id="ps-photo-on-rectangle-angled-m0" maskUnits="userSpaceOnUse" x="0" y="0" width="16" height="16">
      <rect x="0" y="0" width="16" height="16" fill="white"/>
      <path fill="black" d="M5.9034 13.76 L12.7274 13.76 C13.8018 13.76 14.3669 13.2017 14.3669 12.1389 L14.3669 7.3864 C14.3669 6.3201 13.8018 5.7653 12.7274 5.7653 L5.9034 5.7653 C4.8211 5.7653 4.2638 6.3183 4.2638 7.3864 L4.2638 12.1389 C4.2638 13.208 4.8211 13.76 5.9034 13.76 Z"/>
    </mask>
  </defs>
  <path data-layer="hierarchical-1" fill="currentColor" fill-opacity="0.68" mask="url(#ps-photo-on-rectangle-angled-m0)" d="M4.1826 12.122 L10.9046 10.9419 C11.9642 10.752 12.4194 10.1054 12.2348 9.0564 L11.409 4.3795 C11.2244 3.3305 10.5774 2.8778 9.5124 3.0668 L2.7948 4.2513 C1.7317 4.4368 1.28 5.0815 1.4602 6.1324 L2.2904 10.8136 C2.4706 11.8636 3.1142 12.3109 4.1826 12.122 Z M4.0709 11.1469 C3.6141 11.2259 3.3213 11.0372 3.2369 10.5576 L2.4429 6.0469 C2.3552 5.5673 2.5647 5.2865 3.0246 5.2041 L9.6241 4.0418 C10.0781 3.9638 10.3738 4.156 10.4626 4.6312 L11.2574 9.1418 C11.3398 9.6215 11.1265 9.9032 10.6758 9.9847 Z"/>
  <path data-layer="hierarchical-0" fill="currentColor" d="M7.944 9.7225 C8.5246 9.7225 8.9955 9.2463 8.9955 8.6627 C8.9955 8.0908 8.5246 7.6137 7.944 7.6137 C7.3648 7.6137 6.8948 8.0908 6.8948 8.6627 C6.8948 9.2463 7.3648 9.7225 7.944 9.7225 Z M6.0268 13.3908 L12.5641 13.3908 C13.4298 13.3908 13.8743 12.9551 13.8743 12.0789 L13.8743 11.7998 L11.5571 9.618 C11.3697 9.4408 11.1386 9.3553 10.8992 9.3553 C10.6629 9.3553 10.4466 9.4355 10.2475 9.6127 L8.2761 11.3553 L7.4959 10.6468 C7.311 10.4789 7.1095 10.4016 6.8995 10.4016 C6.708 10.4016 6.5224 10.4824 6.3375 10.6404 L4.7132 12.0645 C4.7132 12.9561 5.155 13.3908 6.0268 13.3908 Z M5.9034 13.76 L12.7274 13.76 C13.8018 13.76 14.3669 13.2017 14.3669 12.1389 L14.3669 7.3864 C14.3669 6.3201 13.8018 5.7653 12.7274 5.7653 L5.9034 5.7653 C4.8211 5.7653 4.2638 6.3183 4.2638 7.3864 L4.2638 12.1389 C4.2638 13.208 4.8211 13.76 5.9034 13.76 Z M5.9624 12.7823 C5.4973 12.7823 5.2424 12.5395 5.2424 12.0535 L5.2424 7.4727 C5.2424 6.9858 5.4973 6.744 5.9624 6.744 L12.6683 6.744 C13.1253 6.744 13.3839 6.9858 13.3839 7.4727 L13.3839 12.0535 C13.3839 12.5395 13.1253 12.7823 12.6683 12.7823 Z"/>
</svg>
