<svg xmlns="http://www.w3.org/2000/svg" width="100%" height="100%" viewBox="0 0 16 16" fill="currentColor" fill-rule="evenodd" aria-hidden="true">
  <!-- SF Symbol plus; glyph uni10017C.medium; U+10017C. Generated by extracting
       the glyph outline from /Applications/SF Symbols.app/Contents/Resources/Fonts/SFSymbolsFallback.otf
       and scaling by the SAME factor (14.546 / 2040 ≈ 0.00713, anchored to
       info.circle's native bbox) used for the other medium-weight monochrome
       icons in this folder. This preserves cross-icon visual sizing: plus has
       a smaller native bbox (1650 units) than info.circle (2040), so it
       correctly renders smaller than full-bleed — about 10.5×10.5 in the
       16×16 viewBox with a ~1.28-unit stroke, matching how plus reads next
       to info.circle in macOS Photos.app's zoom + actions toolbar. Prefer a
       fresh Monochrome Medium SVG export from /Applications/SF Symbols.app
       overwriting this file. -->
  <path d="M8.642 13.248L8.642 2.752C8.642 2.410 8.349 2.117 8.000 2.117C7.651 2.117 7.365 2.410 7.365 2.752L7.365 13.248C7.365 13.590 7.651 13.883 8.000 13.883C8.349 13.883 8.642 13.590 8.642 13.248ZM2.752 8.635L13.248 8.635C13.590 8.635 13.883 8.349 13.883 8.000C13.883 7.651 13.590 7.358 13.248 7.358L2.752 7.358C2.410 7.358 2.117 7.651 2.117 8.000C2.117 8.349 2.410 8.635 2.752 8.635Z"/>
</svg>
