<svg xmlns="http://www.w3.org/2000/svg" width="100%" height="100%" viewBox="0 0 16 16" fill="currentColor" aria-hidden="true">
  <!-- SF Symbol rectangle.stack — monochrome rebuild from the canonical hierarchical export.
       Front card is outlined (outer + inner hollow, even-odd fill); two back-card slivers
       are masked to show only the visible edges above the front card. All paths use
       currentColor so the icon tints from the parent. -->
  <defs>
    <mask id="ps-rectangle-stack-mono-m0" maskUnits="userSpaceOnUse" x="0" y="0" width="16" height="16">
      <rect x="0" y="0" width="16" height="16" fill="white"/>
      <path fill="black" d="M4.0345 11.0239 L11.2777 11.0239 C12.4312 11.0239 13.2066 10.2596 13.2066 9.111 L13.2066 3.7982 C13.2066 2.6436 12.4312 1.8842 11.2777 1.8842 L4.0345 1.8842 C2.8759 1.8842 2.1056 2.6436 2.1056 3.7982 L2.1056 9.111 C2.1056 10.2596 2.8759 11.0239 4.0345 11.0239 Z"/>
      <path fill="black" d="M3.5184 14.9091 L11.7937 14.9091 C13.53 14.9091 14.5799 13.8671 14.5799 12.1379 L14.5799 6.2956 C14.5799 4.5703 13.53 3.5282 11.7937 3.5282 L3.5184 3.5282 C1.7771 3.5282 0.7273 4.5681 0.7273 6.2956 L0.7273 12.1379 C0.7273 13.8692 1.7771 14.9091 3.5184 14.9091 Z"/>
    </mask>
    <mask id="ps-rectangle-stack-mono-m1" maskUnits="userSpaceOnUse" x="0" y="0" width="16" height="16">
      <rect x="0" y="0" width="16" height="16" fill="white"/>
      <path fill="black" d="M3.5184 14.9091 L11.7937 14.9091 C13.53 14.9091 14.5799 13.8671 14.5799 12.1379 L14.5799 6.2956 C14.5799 4.5703 13.53 3.5282 11.7937 3.5282 L3.5184 3.5282 C1.7771 3.5282 0.7273 4.5681 0.7273 6.2956 L0.7273 12.1379 C0.7273 13.8692 1.7771 14.9091 3.5184 14.9091 Z"/>
    </mask>
  </defs>
  <path mask="url(#ps-rectangle-stack-mono-m0)" d="M4.8852 6.8279 L10.4219 6.8279 C10.9445 6.8279 11.2526 6.5247 11.2526 6.0082 L11.2526 1.936 C11.2526 1.4183 10.9445 1.1152 10.4219 1.1152 L4.8852 1.1152 C4.3626 1.1152 4.0545 1.4183 4.0545 1.936 L4.0545 6.0082 C4.0545 6.5247 4.3626 6.8279 4.8852 6.8279 Z"/>
  <path mask="url(#ps-rectangle-stack-mono-m1)" d="M3.9797 10.2279 L11.3274 10.2279 C12.0136 10.2279 12.4105 9.837 12.4105 9.1608 L12.4105 3.7473 C12.4105 3.0662 12.0136 2.6753 11.3274 2.6753 L3.9797 2.6753 C3.2936 2.6753 2.8966 3.0662 2.8966 3.7473 L2.8966 9.1608 C2.8966 9.837 3.2936 10.2279 3.9797 10.2279 Z"/>
  <path fill-rule="evenodd" d="M3.5184 13.98 L11.7937 13.98 C13.0186 13.98 13.6557 13.3495 13.6557 12.1379 L13.6557 6.2956 C13.6557 5.0867 13.0186 4.4524 11.7937 4.4524 L3.5184 4.4524 C2.2886 4.4524 1.6564 5.0796 1.6564 6.2956 L1.6564 12.1379 C1.6564 13.3517 2.2886 13.98 3.5184 13.98 Z M3.5855 12.8679 C3.058 12.8679 2.7674 12.5931 2.7674 12.0398 L2.7674 6.3915 C2.7674 5.8393 3.058 5.5644 3.5855 5.5644 L11.7266 5.5644 C12.2498 5.5644 12.5437 5.8393 12.5437 6.3915 L12.5437 12.0398 C12.5437 12.5931 12.2498 12.8679 11.7266 12.8679 Z"/>
</svg>
