<svg xmlns="http://www.w3.org/2000/svg" width="100%" height="100%" viewBox="0 0 16 16" fill="currentColor" fill-rule="evenodd" aria-hidden="true">
  <!-- SF Symbol rectangle.stack.person.crop; glyph uni1003FB.medium; U+1003FB (alias of person.crop.rectangle.stack in symbolist). -->
  <path d="M3.181 15.273H12.819C14.185 15.273 14.882 14.589 14.882 13.236V6.489C14.882 5.136 14.185 4.452 12.819 4.452H3.181C1.801 4.452 1.118 5.136 1.118 6.489V13.236C1.118 14.589 1.801 15.273 3.181 15.273ZM3.194 14.215C2.537 14.215 2.176 13.86 2.176 13.177V6.548C2.176 5.865 2.537 5.51 3.194 5.51H12.799C13.45 5.51 13.824 5.865 13.824 6.548V13.177C13.824 13.86 13.45 14.215 12.799 14.215ZM2.504 3.395H13.502C13.404 2.797 13.121 2.468 12.464 2.468H3.542C2.885 2.468 2.603 2.797 2.504 3.395ZM3.858 1.575H12.149C12.109 1.016 11.794 0.727 11.183 0.727H4.817C4.213 0.727 3.897 1.016 3.858 1.575ZM3.904 14.741H12.103C11.755 13.065 10.073 11.85 8.003 11.85C5.934 11.85 4.245 13.065 3.904 14.741ZM8.003 10.851C9.14 10.864 10.04 9.899 10.04 8.624C10.04 7.422 9.14 6.436 8.003 6.436C6.86 6.436 5.96 7.422 5.967 8.624C5.973 9.899 6.86 10.838 8.003 10.851Z"/>
</svg>
