<svg xmlns="http://www.w3.org/2000/svg" width="100%" height="100%" viewBox="0 0 16 16" fill="currentColor" fill-rule="evenodd" aria-hidden="true">
  <!-- SF Symbol sidebar.left; glyph uni1003DA.medium; U+1003DA (alias of person.crop.rectangle.stack in symbolist). -->
  <path d="M5.428 12.882H6.396V3.136H5.428ZM3.33 13.678H12.824C14.378 13.678 15.273 12.741 15.273 11.075V4.931C15.273 3.266 14.378 2.322 12.824 2.322H3.33C1.671 2.322 0.727 3.266 0.727 4.931V11.075C0.727 12.741 1.671 13.678 3.33 13.678ZM3.337 12.685C2.313 12.685 1.72 12.099 1.72 11.075V4.931C1.72 3.907 2.313 3.315 3.337 3.315H12.663C13.687 3.315 14.28 3.907 14.28 4.931V11.075C14.28 12.099 13.687 12.685 12.663 12.685ZM4.243 5.61C4.428 5.61 4.595 5.443 4.595 5.264C4.595 5.079 4.428 4.919 4.243 4.919H2.917C2.732 4.919 2.572 5.079 2.572 5.264C2.572 5.443 2.732 5.61 2.917 5.61ZM4.243 7.207C4.428 7.207 4.595 7.041 4.595 6.856C4.595 6.671 4.428 6.516 4.243 6.516H2.917C2.732 6.516 2.572 6.671 2.572 6.856C2.572 7.041 2.732 7.207 2.917 7.207ZM4.243 8.799C4.428 8.799 4.595 8.645 4.595 8.46C4.595 8.275 4.428 8.114 4.243 8.114H2.917C2.732 8.114 2.572 8.275 2.572 8.46C2.572 8.645 2.732 8.799 2.917 8.799Z"/>
</svg>
