<svg xmlns="http://www.w3.org/2000/svg" width="100%" height="100%" viewBox="0 0 16 16" fill="currentColor" fill-rule="evenodd" aria-hidden="true">
  <!-- SF Symbol square.stack; glyph uni10040B.medium; U+10040B via symbolist + SFSymbolsFallback.otf. -->
  <path d="M4.472 15.273H11.716C12.838 15.273 13.496 14.621 13.496 13.33V6.223C13.496 4.932 12.832 4.281 11.528 4.281H4.472C3.162 4.281 2.504 4.926 2.504 6.223V13.33C2.504 14.621 3.162 15.273 4.472 15.273ZM4.484 14.264C3.858 14.264 3.513 13.925 3.513 13.274V6.273C3.513 5.628 3.858 5.29 4.484 5.29H11.509C12.13 5.29 12.487 5.628 12.487 6.273V13.274C12.487 13.925 12.13 14.264 11.697 14.264ZM3.87 3.272H12.124C12.03 2.701 11.76 2.388 11.133 2.388H4.86C4.234 2.388 3.964 2.701 3.87 3.272ZM4.961 1.536H11.039C11.002 1.003 10.695 0.727 10.118 0.727H5.876C5.299 0.727 4.998 1.003 4.961 1.536Z"/>
</svg>
