<svg xmlns="http://www.w3.org/2000/svg" width="100%" height="100%" viewBox="0 0 16 16" fill="currentColor" fill-rule="evenodd" aria-hidden="true">
  <!-- SF Symbol square.and.arrow.up; glyph uni100202.medium; U+100202 (alias of person.crop.rectangle.stack in symbolist). -->
  <path d="M5.801 3.752C5.924 3.752 6.067 3.7 6.158 3.596L7.161 2.528L7.997 1.64L8.839 2.528L9.836 3.596C9.927 3.7 10.063 3.752 10.186 3.752C10.458 3.752 10.658 3.564 10.658 3.298C10.658 3.156 10.607 3.052 10.51 2.955L8.372 0.896C8.243 0.766 8.133 0.727 7.997 0.727C7.867 0.727 7.757 0.766 7.621 0.896L5.49 2.955C5.393 3.052 5.335 3.156 5.335 3.298C5.335 3.564 5.529 3.752 5.801 3.752ZM7.997 10.202C8.275 10.202 8.515 9.975 8.515 9.703V3.117L8.437 1.368C8.424 1.135 8.236 0.935 7.997 0.935C7.764 0.935 7.576 1.135 7.563 1.368L7.485 3.117V9.703C7.485 9.975 7.718 10.202 7.997 10.202ZM4.959 15.273H11.034C12.776 15.273 13.748 14.308 13.748 12.566V7.579C13.748 5.843 12.776 4.872 11.034 4.872H9.726V5.915H11.034C12.103 5.915 12.705 6.517 12.705 7.579V12.566C12.705 13.634 12.103 14.23 11.034 14.23H4.959C3.897 14.23 3.295 13.634 3.295 12.566V7.579C3.295 6.517 3.897 5.915 4.959 5.915H6.268V4.872H4.959C3.217 4.872 2.252 5.843 2.252 7.579V12.566C2.252 14.308 3.217 15.273 4.959 15.273Z"/>
</svg>
