<?xml version="1.0" encoding="UTF-8"?>
<svg xmlns="http://www.w3.org/2000/svg" viewBox="0 0 16 16" width="16" height="16">
  <!-- SF Symbol exported via system renderer (sfsym); hierarchical, medium weight, medium scale, 16×16 canvas; fill normalized to currentColor for CSS tinting -->
  <defs>
    <mask id="ps-square-and-arrow-down-m0" maskUnits="userSpaceOnUse" x="0" y="0" width="16" height="16">
      <rect x="0" y="0" width="16" height="16" fill="white"/>
      <path fill="black" d="M9.2732 3.1606 C9.2732 2.2921 8.5556 1.5747 7.6762 1.5747 C6.8017 1.5747 6.0802 2.2921 6.0802 3.1606 L6.0802 10.3758 C6.0802 11.2443 6.8017 11.9606 7.6762 11.9606 C8.5556 11.9606 9.2732 11.2443 9.2732 10.3758 Z"/>
    </mask>
  </defs>
  <path data-layer="hierarchical-1" fill="currentColor" fill-opacity="0.68" mask="url(#ps-square-and-arrow-down-m0)" d="M4.9827 14.9091 L10.3725 14.9091 C11.9363 14.9091 12.8108 14.0336 12.8108 12.4708 L12.8108 8.0916 C12.8108 6.5288 11.9363 5.6604 10.3725 5.6604 L4.9827 5.6604 C3.4199 5.6604 2.5455 6.5288 2.5455 8.0916 L2.5455 12.4708 C2.5455 14.0336 3.4199 14.9091 4.9827 14.9091 Z M5.0114 13.7949 C4.1461 13.7949 3.6586 13.3062 3.6586 12.4409 L3.6586 8.1215 C3.6586 7.2622 4.1461 6.7724 5.0114 6.7724 L10.3438 6.7724 C11.2102 6.7724 11.6976 7.2622 11.6976 8.1215 L11.6976 12.4409 C11.6976 13.3062 11.2102 13.7949 10.3438 13.7949 Z"/>
  <path data-layer="hierarchical-0" fill="currentColor" d="M7.6762 2.6476 C7.3904 2.6476 7.152 2.8797 7.152 3.1606 L7.152 8.8363 L7.2475 10.4691 C7.2645 10.7064 7.4428 10.9028 7.6762 10.9028 C7.9145 10.9028 8.0939 10.7064 8.1099 10.4691 L8.2064 8.8363 L8.2064 3.1606 C8.2064 2.8797 7.9669 2.6476 7.6762 2.6476 Z M5.7278 8.3028 C5.4697 8.3028 5.2634 8.4908 5.2634 8.7524 C5.2634 8.8893 5.3146 8.9945 5.4126 9.0863 L7.2842 10.885 C7.4175 11.0233 7.5394 11.0647 7.6762 11.0647 C7.8179 11.0647 7.9398 11.0233 8.0742 10.885 L9.9437 9.0863 C10.0377 8.9945 10.0928 8.8893 10.0928 8.7524 C10.0928 8.4908 9.8805 8.3028 9.6246 8.3028 C9.4914 8.3028 9.3631 8.3514 9.2701 8.4566 L8.4595 9.3218 L7.6762 10.2642 L6.8967 9.3218 L6.0822 8.4566 C5.9932 8.3514 5.8598 8.3028 5.7278 8.3028 Z"/>
</svg>
