<svg xmlns="http://www.w3.org/2000/svg" width="100%" height="100%" viewBox="0 0 16 16" fill="currentColor" fill-rule="evenodd" aria-hidden="true">
  <!-- SF Symbol square.and.arrow.down; glyph uni100204.medium; U+100204 (alias of person.crop.rectangle.stack in symbolist). -->
  <path d="M4.806 15.273H11.187C13.017 15.273 14.038 14.259 14.038 12.429V7.19C14.038 5.367 13.017 4.347 11.187 4.347H9.813V5.442H11.187C12.31 5.442 12.943 6.075 12.943 7.19V12.429C12.943 13.551 12.31 14.177 11.187 14.177H4.806C3.69 14.177 3.057 13.551 3.057 12.429V7.19C3.057 6.075 3.69 5.442 4.806 5.442H6.18V4.347H4.806C2.976 4.347 1.962 5.367 1.962 7.19V12.429C1.962 14.259 2.976 15.273 4.806 15.273ZM8.003 0.727C7.711 0.727 7.459 0.965 7.459 1.251V8.177L7.541 10.007C7.554 10.259 7.752 10.463 8.003 10.463C8.248 10.463 8.446 10.259 8.459 10.007L8.541 8.177V1.251C8.541 0.965 8.296 0.727 8.003 0.727ZM5.69 7.503C5.405 7.503 5.2 7.707 5.2 7.98C5.2 8.129 5.262 8.238 5.364 8.34L7.609 10.504C7.745 10.64 7.861 10.687 8.003 10.687C8.139 10.687 8.255 10.64 8.391 10.504L10.636 8.34C10.738 8.238 10.8 8.129 10.8 7.98C10.8 7.707 10.582 7.503 10.303 7.503C10.167 7.503 10.031 7.558 9.936 7.667L8.881 8.789L8.003 9.728L7.119 8.789L6.064 7.667C5.969 7.558 5.826 7.503 5.69 7.503Z"/>
</svg>
