<svg xmlns="http://www.w3.org/2000/svg" width="100%" height="100%" viewBox="0 0 16 16" fill="currentColor" fill-rule="evenodd" aria-hidden="true">
  <!-- SF Symbol square.and.arrow.up.on.square; glyph uni100206.medium; U+100206 (alias of person.crop.rectangle.stack in symbolist). -->
  <path d="M5.197 12.467H4.32V12.996C4.32 14.456 5.132 15.273 6.597 15.273H11.707C13.173 15.273 13.984 14.456 13.984 12.996V8.801C13.984 7.335 13.173 6.524 11.707 6.524H11.26V7.401H11.707C12.606 7.401 13.107 7.907 13.107 8.801V12.996C13.107 13.889 12.606 14.396 11.707 14.396H6.597C5.704 14.396 5.197 13.889 5.197 12.996ZM5.001 3.277C5.105 3.277 5.224 3.233 5.301 3.146L6.145 2.247L6.848 1.495L7.556 2.247L8.395 3.146C8.471 3.233 8.586 3.277 8.689 3.277C8.918 3.277 9.087 3.113 9.087 2.89C9.087 2.776 9.043 2.688 8.962 2.607L7.164 0.874C7.055 0.765 6.962 0.727 6.848 0.727C6.739 0.727 6.646 0.765 6.532 0.874L4.74 2.607C4.658 2.688 4.609 2.776 4.609 2.89C4.609 3.113 4.772 3.277 5.001 3.277ZM6.848 8.703C7.082 8.703 7.284 8.512 7.284 8.283V2.737L7.218 1.272C7.207 1.07 7.049 0.907 6.848 0.907C6.652 0.907 6.494 1.07 6.483 1.272L6.417 2.737V8.283C6.417 8.512 6.614 8.703 6.848 8.703ZM4.293 12.968H9.403C10.868 12.968 11.685 12.151 11.685 10.686V6.496C11.685 5.031 10.868 4.219 9.403 4.219H8.302V5.096H9.403C10.302 5.096 10.808 5.598 10.808 6.496V10.691C10.808 11.585 10.302 12.091 9.403 12.091H4.293C3.399 12.091 2.893 11.585 2.893 10.691V6.496C2.893 5.598 3.399 5.096 4.293 5.096H5.393V4.219H4.293C2.827 4.219 2.016 5.031 2.016 6.496V10.686C2.016 12.151 2.827 12.968 4.293 12.968Z"/>
</svg>
