<svg xmlns="http://www.w3.org/2000/svg" width="100%" height="100%" viewBox="0 0 16 16" fill="currentColor" fill-rule="evenodd" aria-hidden="true">
  <!-- SF Symbol square.grid.2x2; glyph uni1001F7.medium; U+1001F7 (alias of person.crop.rectangle.stack in symbolist). -->
  <path d="M2.236 7.348H5.839C6.843 7.348 7.348 6.85 7.348 5.808V2.268C7.348 1.233 6.843 0.727 5.839 0.727H2.236C1.233 0.727 0.727 1.233 0.727 2.268V5.808C0.727 6.85 1.233 7.348 2.236 7.348ZM2.252 6.234C1.976 6.234 1.841 6.092 1.841 5.8V2.268C1.841 1.984 1.976 1.841 2.252 1.841H5.815C6.092 1.841 6.234 1.984 6.234 2.268V5.8C6.234 6.092 6.092 6.234 5.815 6.234ZM10.169 7.348H13.764C14.767 7.348 15.273 6.85 15.273 5.808V2.268C15.273 1.233 14.767 0.727 13.764 0.727H10.169C9.157 0.727 8.652 1.233 8.652 2.268V5.808C8.652 6.85 9.157 7.348 10.169 7.348ZM10.185 6.234C9.9 6.234 9.766 6.092 9.766 5.8V2.268C9.766 1.984 9.9 1.841 10.185 1.841H13.748C14.024 1.841 14.159 1.984 14.159 2.268V5.8C14.159 6.092 14.024 6.234 13.748 6.234ZM2.236 15.273H5.839C6.843 15.273 7.348 14.775 7.348 13.732V10.2C7.348 9.157 6.843 8.66 5.839 8.66H2.236C1.233 8.66 0.727 9.157 0.727 10.2V13.732C0.727 14.775 1.233 15.273 2.236 15.273ZM2.252 14.159C1.976 14.159 1.841 14.016 1.841 13.74V10.2C1.841 9.916 1.976 9.774 2.252 9.774H5.815C6.092 9.774 6.234 9.916 6.234 10.2V13.74C6.234 14.016 6.092 14.159 5.815 14.159ZM10.169 15.273H13.764C14.767 15.273 15.273 14.775 15.273 13.732V10.2C15.273 9.157 14.767 8.66 13.764 8.66H10.169C9.157 8.66 8.652 9.157 8.652 10.2V13.732C8.652 14.775 9.157 15.273 10.169 15.273ZM10.185 14.159C9.9 14.159 9.766 14.016 9.766 13.74V10.2C9.766 9.916 9.9 9.774 10.185 9.774H13.748C14.024 9.774 14.159 9.916 14.159 10.2V13.74C14.159 14.016 14.024 14.159 13.748 14.159Z"/>
</svg>
