<svg xmlns="http://www.w3.org/2000/svg" width="100%" height="100%" viewBox="0 0 16 16" fill="currentColor" fill-rule="evenodd" aria-hidden="true">
  <!-- SF Symbol trash; glyph uni100211.medium; U+100211 via symbolist + SFSymbolsFallback.otf. -->
  <path d="M6.067 13.17C6.315 13.17 6.478 13.013 6.472 12.784L6.269 5.796C6.263 5.567 6.099 5.417 5.864 5.417C5.616 5.417 5.453 5.574 5.459 5.802L5.655 12.784C5.662 13.019 5.825 13.17 6.067 13.17ZM8 13.17C8.248 13.17 8.425 13.013 8.425 12.784V5.802C8.425 5.574 8.248 5.417 8 5.417C7.752 5.417 7.582 5.574 7.582 5.802V12.784C7.582 13.013 7.752 13.17 8 13.17ZM9.94 13.17C10.175 13.17 10.338 13.019 10.345 12.784L10.541 5.802C10.547 5.574 10.384 5.417 10.136 5.417C9.901 5.417 9.737 5.567 9.731 5.802L9.535 12.784C9.528 13.013 9.692 13.17 9.94 13.17ZM5.133 3.712H6.171V2.314C6.171 1.942 6.432 1.7 6.824 1.7H9.163C9.554 1.7 9.816 1.942 9.816 2.314V3.712H10.854V2.249C10.854 1.302 10.24 0.727 9.234 0.727H6.753C5.747 0.727 5.133 1.302 5.133 2.249ZM2.167 4.235H13.839C14.107 4.235 14.322 4.006 14.322 3.738C14.322 3.47 14.107 3.248 13.839 3.248H2.167C1.906 3.248 1.678 3.47 1.678 3.738C1.678 4.013 1.906 4.235 2.167 4.235ZM5.009 15.273H10.998C11.932 15.273 12.559 14.665 12.605 13.731L13.062 4.111H12.01L11.573 13.62C11.56 14.012 11.279 14.286 10.893 14.286H5.1C4.728 14.286 4.447 14.006 4.427 13.62L3.964 4.111H2.938L3.402 13.738C3.448 14.672 4.062 15.273 5.009 15.273Z"/>
</svg>
