<svg xmlns="http://www.w3.org/2000/svg" width="100%" height="100%" viewBox="0 0 16 16" fill="currentColor" fill-rule="evenodd" aria-hidden="true">
  <!-- SF Symbol tray.and.arrow.down; glyph uni100227.medium; U+100227 via symbolist + SFSymbolsFallback.otf. -->
  <path d="M9.647 4.561V5.431H10.727C11.177 5.431 11.522 5.579 11.825 5.961L14.119 8.854C14.218 8.984 14.181 9.157 13.977 9.157H9.906C9.585 9.157 9.437 9.403 9.437 9.656V9.681C9.437 10.396 8.876 11.149 8 11.149C7.13 11.149 6.569 10.396 6.569 9.681V9.656C6.569 9.403 6.415 9.157 6.094 9.157H2.029C1.825 9.157 1.782 8.984 1.887 8.854L4.175 5.961C4.478 5.579 4.823 5.431 5.273 5.431H6.353V4.561H5.348C4.25 4.561 3.935 4.832 3.213 5.721L1.079 8.361C0.807 8.694 0.727 8.972 0.727 9.533V13.185C0.727 14.455 1.375 15.097 2.664 15.097H13.336C14.631 15.097 15.273 14.455 15.273 13.185V9.533C15.273 8.972 15.199 8.694 14.921 8.361L12.793 5.721C12.071 4.832 11.75 4.561 10.652 4.561ZM2.677 14.104C2.06 14.104 1.72 13.771 1.72 13.129V10.063H5.631C5.779 11.217 6.748 12.068 8 12.068C9.252 12.068 10.221 11.211 10.369 10.063H14.28V13.129C14.28 13.771 13.934 14.104 13.323 14.104ZM5.909 6.264C5.65 6.264 5.465 6.449 5.465 6.695C5.465 6.831 5.514 6.93 5.607 7.022L7.642 8.984C7.766 9.107 7.877 9.144 8 9.144C8.13 9.144 8.234 9.107 8.358 8.984L10.393 7.022C10.486 6.93 10.535 6.831 10.535 6.695C10.535 6.449 10.344 6.264 10.085 6.264C9.968 6.264 9.838 6.313 9.752 6.412L8.802 7.429L8 8.281L7.198 7.429L6.248 6.412C6.162 6.313 6.026 6.264 5.909 6.264ZM8 0.903C7.735 0.903 7.513 1.125 7.513 1.384V6.868L7.587 8.534C7.599 8.762 7.772 8.947 8 8.947C8.228 8.947 8.401 8.762 8.413 8.534L8.493 6.868V1.384C8.493 1.125 8.265 0.903 8 0.903Z"/>
</svg>
