<svg xmlns="http://www.w3.org/2000/svg" width="100%" height="100%" viewBox="0 0 16 16" fill="currentColor" fill-rule="evenodd" aria-hidden="true">
  <!-- SF Symbol video; glyph uni100349.medium; U+100349 via symbolist + SFSymbolsFallback.otf. -->
  <path d="M3.02 12.833H9.164C10.599 12.833 11.457 11.998 11.457 10.563V5.431C11.457 4.002 10.599 3.167 9.164 3.167H3.02C1.65 3.167 0.727 4.002 0.727 5.431V10.563C0.727 11.998 1.586 12.833 3.02 12.833ZM3.185 11.945C2.221 11.945 1.674 11.445 1.674 10.428V5.572C1.674 4.549 2.221 4.049 3.185 4.049H8.999C9.958 4.049 10.51 4.549 10.51 5.572V10.428C10.51 11.445 9.958 11.945 8.999 11.945ZM11.322 6.354V7.471L14.12 5.16C14.173 5.119 14.209 5.09 14.261 5.09C14.332 5.09 14.361 5.149 14.361 5.231V10.769C14.361 10.851 14.332 10.904 14.261 10.904C14.209 10.904 14.173 10.875 14.12 10.84L11.322 8.529V9.64L13.679 11.639C13.915 11.833 14.173 11.969 14.414 11.969C14.932 11.969 15.273 11.586 15.273 11.04V4.96C15.273 4.414 14.932 4.031 14.414 4.031C14.173 4.031 13.915 4.167 13.679 4.361Z"/>
</svg>
