<?xml version="1.0" encoding="UTF-8"?>
<svg xmlns="http://www.w3.org/2000/svg" viewBox="0 0 16 16" width="16" height="16">
  <!-- SF Symbol exported via system renderer (sfsym); hierarchical, medium weight, medium scale, 16×16 canvas; fill normalized to currentColor for CSS tinting -->
  <path data-layer="hierarchical-0" fill="currentColor" d="M3.5788 12.5217 L9.3023 12.5217 C10.4666 12.5217 11.142 11.8642 11.142 10.7194 L11.142 5.3751 C11.142 4.2302 10.5105 3.5728 9.3509 3.5728 L3.5788 3.5728 C2.4574 3.5728 1.7391 4.2302 1.7391 5.3763 L1.7391 10.7503 C1.7391 11.8951 2.4135 12.5217 3.5788 12.5217 Z M11.9308 9.7823 L13.8004 11.3922 C14.0218 11.5829 14.2596 11.7053 14.4846 11.7053 C14.9247 11.7053 15.223 11.3913 15.223 10.9198 L15.223 5.1998 C15.223 4.7284 14.9247 4.4144 14.4846 4.4144 C14.2585 4.4144 14.023 4.5368 13.8004 4.7275 L11.9308 6.3353 Z"/>
</svg>
