<svg width="12" height="12" viewBox="0 0 12 12" fill="none" xmlns="http://www.w3.org/2000/svg">
<path d="M10.5 1.5C10.9142 1.5 11.25 1.83578 11.25 2.25V7.98958C11.25 8.35619 10.9852 8.6676 10.6216 8.71394C10.0719 8.78395 9.19158 8.87925 8.10132 8.94026L6.28491 10.757C6.12761 10.9143 5.87239 10.9143 5.71509 10.757L3.89832 8.94026C2.80822 8.87925 1.92804 8.78394 1.37842 8.71394C1.01476 8.6676 0.75 8.35619 0.75 7.98958V2.25C0.75 1.83578 1.08579 1.5 1.5 1.5H10.5ZM1.5 7.97274C1.96868 8.03195 2.67689 8.10975 3.54895 8.16756L3.94006 8.19136L4.22607 8.20748L5.99963 9.98102L7.77356 8.20748L8.05957 8.19136C9.11157 8.13249 9.96303 8.04058 10.5 7.97274V2.25H1.5V7.97274ZM5.53967 7.00851C5.58955 6.82246 5.78098 6.7122 5.96704 6.76205L6.30396 6.85214C6.49 6.90202 6.60027 7.09344 6.55042 7.2795L6.46033 7.61642C6.41045 7.80246 6.21902 7.91273 6.03296 7.86287L5.69604 7.77279C5.51 7.72291 5.39973 7.53148 5.44958 7.34542L5.53967 7.00851ZM6.375 3.37499C6.48094 3.37499 6.58186 3.41986 6.65295 3.4984C6.72405 3.57696 6.75871 3.68192 6.74817 3.78734L6.56067 5.66233C6.54148 5.85401 6.38014 5.99997 6.1875 5.99997H5.8125C5.61986 5.99997 5.45852 5.85401 5.43933 5.66233L5.25183 3.78734C5.24129 3.68192 5.27595 3.57696 5.34705 3.4984C5.41814 3.41986 5.51906 3.37499 5.625 3.37499H6.375Z" fill="#F7F7F8"/>
</svg>
