<svg width="16" height="16" viewBox="0 0 16 16" fill="none" xmlns="http://www.w3.org/2000/svg">
<path fill-rule="evenodd" clip-rule="evenodd" d="M9.72682 7.18755C10.4937 6.68216 10.9998 5.81323 10.9998 4.82609C10.9998 3.26528 9.73455 2 8.17374 2C6.99483 2 5.98452 2.72186 5.5607 3.74768C5.08281 3.20906 4.38539 2.86963 3.6087 2.86963C2.16795 2.86963 1 4.03758 1 5.47832C1 6.15762 1.25964 6.77627 1.68509 7.24046C1.27278 7.50777 1 7.97203 1 8.5V12.5C1 13.3284 1.67157 14 2.5 14H9C9.82843 14 10.5 13.3284 10.5 12.5V8.35777L10.4937 8.36116C10.4472 7.85536 10.1497 7.42223 9.72682 7.18755ZM9.49983 4.82609C9.49983 5.55846 8.90612 6.15217 8.17374 6.15217C7.44137 6.15217 6.84766 5.55846 6.84766 4.82609C6.84766 4.09371 7.44137 3.5 8.17374 3.5C8.90612 3.5 9.49983 4.09371 9.49983 4.82609ZM3.6087 6.58702C4.22101 6.58702 4.71739 6.09064 4.71739 5.47832C4.71739 4.86601 4.22101 4.36963 3.6087 4.36963C2.99638 4.36963 2.5 4.86601 2.5 5.47832C2.5 6.09064 2.99638 6.58702 3.6087 6.58702Z" fill="#F9F9F9"/>
<path d="M11.5 7.82381V12.598L13.7501 13.8705C13.9003 13.9554 14.0699 14 14.2424 14H15V6.5H14.2295C14.0652 6.5 13.9034 6.54049 13.7585 6.61788L11.5 7.82381Z" fill="#F9F9F9"/>
</svg>
