<svg width="16" height="16" viewBox="0 0 16 16" fill="none" xmlns="http://www.w3.org/2000/svg">
<mask id="mask0_3035_27767" style="mask-type:alpha" maskUnits="userSpaceOnUse" x="0" y="0" width="16" height="16">
<path d="M6 4.00016C6 3.72402 6.20664 3.50016 6.46154 3.50016H13.5385C13.7934 3.50016 14 3.72402 14 4.00016C14 4.27631 13.7934 4.50016 13.5385 4.50016H6.46154C6.20664 4.50016 6 4.27631 6 4.00016Z" fill="#F7F7F8"/>
<path d="M6 8.00016C6 7.72402 6.20664 7.50016 6.46154 7.50016H13.5385C13.7934 7.50016 14 7.72402 14 8.00016C14 8.27631 13.7934 8.50016 13.5385 8.50016H6.46154C6.20664 8.50016 6 8.27631 6 8.00016Z" fill="#F7F7F8"/>
<path d="M6 12.0002C6 11.724 6.20664 11.5002 6.46154 11.5002H13.5385C13.7934 11.5002 14 11.724 14 12.0002C14 12.2763 13.7934 12.5002 13.5385 12.5002H6.46154C6.20664 12.5002 6 12.2763 6 12.0002Z" fill="#F7F7F8"/>
<path d="M3.33333 4.00016C3.33333 4.36835 3.03486 4.66683 2.66667 4.66683C2.29848 4.66683 2 4.36835 2 4.00016C2 3.63197 2.29848 3.3335 2.66667 3.3335C3.03486 3.3335 3.33333 3.63197 3.33333 4.00016Z" fill="#F7F7F8"/>
<path d="M3.33333 8.00016C3.33333 8.36835 3.03486 8.66683 2.66667 8.66683C2.29848 8.66683 2 8.36835 2 8.00016C2 7.63197 2.29848 7.3335 2.66667 7.3335C3.03486 7.3335 3.33333 7.63197 3.33333 8.00016Z" fill="#F7F7F8"/>
<path d="M3.33333 12.0002C3.33333 12.3684 3.03486 12.6668 2.66667 12.6668C2.29848 12.6668 2 12.3684 2 12.0002C2 11.632 2.29848 11.3335 2.66667 11.3335C3.03486 11.3335 3.33333 11.632 3.33333 12.0002Z" fill="#F7F7F8"/>
</mask>
<g mask="url(#mask0_3035_27767)">
<rect width="16" height="16" fill="#F7F7F8"/>
</g>
</svg>
