<svg width="16" height="16" viewBox="0 0 16 16" fill="none" xmlns="http://www.w3.org/2000/svg">
<path d="M3.03125 2.75C3.03125 2.47386 3.25511 2.25 3.53125 2.25H5.53125C5.80739 2.25 6.03125 2.47386 6.03125 2.75V13.75C6.03125 14.0261 5.80739 14.25 5.53125 14.25H3.53125C3.25511 14.25 3.03125 14.0261 3.03125 13.75V2.75Z" fill="#F9F9F9"/>
<path d="M10 2.75C10 2.47386 10.2239 2.25 10.5 2.25H12.4375C12.7136 2.25 12.9375 2.47386 12.9375 2.75V13.75C12.9375 14.0261 12.7136 14.25 12.4375 14.25H10.5C10.2239 14.25 10 14.0261 10 13.75V2.75Z" fill="#F9F9F9"/>
</svg>
