<svg width="16" height="16" viewBox="0 0 16 16" fill="none" xmlns="http://www.w3.org/2000/svg">
<path d="M13.5 1C14.3284 1 15 1.67157 15 2.5V13.5C15 14.3284 14.3284 15 13.5 15H2.5C1.67178 14.9998 1 14.3283 1 13.5V9.25293C1.00007 8.00703 2.01284 6.99818 3.25879 7.00293L7.39648 7.01855L5.88574 5.22559C5.79682 5.12006 5.80961 4.96204 5.91504 4.87305L6.67969 4.22852C6.78525 4.13956 6.94324 4.15327 7.03223 4.25879L9.91504 7.67969L7.03223 11.0996C6.94324 11.2051 6.78524 11.2188 6.67969 11.1299L5.91504 10.4854C5.80948 10.3964 5.79675 10.2384 5.88574 10.1328L7.24609 8.51855L3.25293 8.50293C2.83765 8.50135 2.50008 8.83767 2.5 9.25293V13.5H13.5V2.5H2.5V5.05762C2.5 5.19569 2.38807 5.30762 2.25 5.30762H1.25C1.11214 5.30737 1 5.19554 1 5.05762V2.5C1 1.67173 1.67178 1.00025 2.5 1H13.5Z" fill="#F9F9F9"/>
</svg>
