<svg width="16" height="16" viewBox="0 0 16 16" fill="none" xmlns="http://www.w3.org/2000/svg">
<g clip-path="url(#clip0_3035_33611)">
<path fill-rule="evenodd" clip-rule="evenodd" d="M11.7744 15.1478C11.9696 15.3431 11.9696 15.6597 11.7744 15.8549C11.5791 16.0502 11.2625 16.0502 11.0673 15.8549L9.2431 14.0308C8.95022 13.7379 8.95022 13.263 9.2431 12.9701L11.0673 11.146C11.2625 10.9507 11.5791 10.9507 11.7744 11.146C11.9696 11.3412 11.9696 11.6578 11.7744 11.853L10.6309 12.9965L15.4928 12.9965C15.7689 12.9965 15.9928 13.2204 15.9928 13.4965C15.9928 13.7727 15.7689 13.9965 15.4928 13.9965L10.6231 13.9965L11.7744 15.1478Z" fill="#F9F9F9"/>
<path fill-rule="evenodd" clip-rule="evenodd" d="M14.9997 7.99986C14.9997 4.13394 11.8658 1 7.99986 1C4.13394 1 1 4.13394 1 7.99986C1 11.74 4.04884 14.7972 7.74798 14.9921C7.99409 15.0051 8.13311 15.0263 8.0529 14.7933C7.90051 14.3506 7.53264 13.8254 7.17966 13.5178C6.90179 13.2756 6.61114 12.9417 6.39668 12.507C6.15094 12.009 5.94364 11.4096 5.79046 10.7336C8.67948 11.2982 11.3334 10.8351 13.8474 9.34906C13.7733 9.67158 14.0122 9.99982 14.3431 9.99982C14.5585 9.99982 14.7537 9.85867 14.8043 9.64929C14.932 9.12037 14.9997 8.56802 14.9997 7.99986ZM5.49991 7.99986C5.49991 8.58322 5.53645 9.14317 5.60397 9.67094C7.17856 10.0395 8.82013 10.0396 10.3958 9.67051C10.4633 9.14286 10.4998 8.58306 10.4998 7.99986C10.4998 7.44746 10.467 6.91605 10.4062 6.41307C8.82245 6.77407 7.17641 6.77393 5.59345 6.41331C5.53266 6.91622 5.49991 7.44754 5.49991 7.99986ZM13.9714 8.08446C13.9806 8.07831 13.9899 8.0725 13.9994 8.06704C13.9996 8.04467 13.9997 8.02228 13.9997 7.99986C13.9997 7.01748 13.7636 6.09026 13.3451 5.27182C12.7136 5.63046 12.0551 5.92074 11.3799 6.1427C11.4583 6.73414 11.4998 7.35687 11.4998 7.99986C11.4998 8.46862 11.4777 8.92663 11.4354 9.36959C12.2732 9.07941 13.0827 8.67985 13.8426 8.17075L13.9714 8.08446ZM2.03404 8.08838C2.82883 8.63707 3.68067 9.06443 4.56437 9.37028C4.52201 8.9271 4.49993 8.46887 4.49993 7.99986C4.49993 7.357 4.54141 6.73438 4.61976 6.14305C3.9443 5.92109 3.28572 5.63083 2.65436 5.27231C2.23598 6.09063 1.99998 7.01768 1.99998 7.99986C1.99998 8.02228 2.0001 8.04467 2.00035 8.06703C2.01176 8.07365 2.023 8.08076 2.03404 8.08838ZM4.71608 10.4693C3.82984 10.2055 2.96852 9.83249 2.1526 9.35044C2.60485 11.3164 4.02308 12.9134 5.88081 13.6148C5.35192 12.8212 4.94682 11.7323 4.71608 10.4693ZM10.2438 5.42425C8.76801 5.77037 7.23086 5.77024 5.75587 5.42449C5.91177 4.68354 6.13191 4.02928 6.39668 3.49267C6.96297 2.3449 7.57758 1.99998 7.99986 1.99998C8.42213 1.99998 9.03675 2.3449 9.60304 3.49267C9.86777 4.02923 10.0879 4.6834 10.2438 5.42425ZM12.8166 4.42187C12.2976 4.71387 11.7587 4.95516 11.2068 5.14578C10.9681 4.04625 10.5933 3.09674 10.1189 2.38491C11.2025 2.79405 12.1365 3.50787 12.8166 4.42187ZM4.79279 5.14614C5.0315 4.04646 5.40634 3.09682 5.88081 2.38491C4.79705 2.79412 3.86286 3.5081 3.18278 4.42232C3.70173 4.71423 4.24071 4.95552 4.79279 5.14614Z" fill="#F9F9F9"/>
</g>
<defs>
<clipPath id="clip0_3035_33611">
<rect width="16" height="16" fill="white"/>
</clipPath>
</defs>
</svg>
