<svg width="16" height="16" viewBox="0 0 16 16" fill="none" xmlns="http://www.w3.org/2000/svg">
<mask id="mask0_599_24758" style="mask-type:alpha" maskUnits="userSpaceOnUse" x="0" y="0" width="16" height="16">
<path fill-rule="evenodd" clip-rule="evenodd" d="M13.5 3H6C5.72386 3 5.5 3.22386 5.5 3.5V7.5C5.5 7.77614 5.72386 8 6 8H13.5C13.7761 8 14 7.77614 14 7.5V3.5C14 3.22386 13.7761 3 13.5 3ZM6 2C5.17157 2 4.5 2.67157 4.5 3.5V7.5C4.5 8.32843 5.17157 9 6 9H13.5C14.3284 9 15 8.32843 15 7.5V3.5C15 2.67157 14.3284 2 13.5 2H6Z" fill="#F9F9F9"/>
<path d="M3.5 8C3.5 9.10449 4.39552 9.99997 5.5 10H11.5V12.501C11.4998 13.3291 10.8282 14 10 14H2.5C1.67178 14 1.00025 13.3291 1 12.501V8.5C1.00018 7.67178 1.67174 7 2.5 7H3.5V8Z" fill="#F9F9F9"/>
</mask>
<g mask="url(#mask0_599_24758)">
<rect width="16" height="16" fill="#F7F7F8"/>
</g>
</svg>
