<svg width="24" height="24" viewBox="0 0 24 24" fill="none" xmlns="http://www.w3.org/2000/svg">
<path d="M0 12C0 5.37258 5.37258 0 12 0V0C18.6274 0 24 5.37258 24 12V12C24 18.6274 18.6274 24 12 24V24C5.37258 24 0 18.6274 0 12V12Z" fill="#D0D9FB" fill-opacity="0.12"/>
<mask id="mask0_553_2531" style="mask-type:alpha" maskUnits="userSpaceOnUse" x="4" y="4" width="16" height="16">
<path d="M12 6.5C12.2761 6.5 12.5 6.72386 12.5 7V11.5H17C17.2761 11.5 17.5 11.7239 17.5 12C17.5 12.2761 17.2761 12.5 17 12.5H12.5V17C12.5 17.2761 12.2761 17.5 12 17.5C11.7239 17.5 11.5 17.2761 11.5 17V12.5H7C6.72386 12.5 6.5 12.2761 6.5 12C6.5 11.7239 6.72386 11.5 7 11.5H11.5V7C11.5 6.72386 11.7239 6.5 12 6.5Z" fill="#F7F7F8"/>
</mask>
<g mask="url(#mask0_553_2531)">
<rect x="4" y="4" width="16" height="16" fill="#F7F7F8"/>
</g>
</svg>
