<svg width="48" height="48" viewBox="63 63 18 18" fill="none" xmlns="http://www.w3.org/2000/svg">
<path d="M73.353 66.6317C75.3727 65.4354 77.1403 65.0824 77.957 65.8871C79.2652 67.1772 77.6367 70.9508 74.3193 74.3148L74.0068 74.6253C73.6072 75.0149 73.2016 75.3789 72.7968 75.7167C73.5746 76.2622 74.3234 76.6888 75.0009 76.9813C75.6963 77.2815 76.2672 77.4197 76.6875 77.4344C77.106 77.4491 77.2687 77.3421 77.3286 77.2816C77.3883 77.2209 77.4931 77.0564 77.4726 76.638C77.452 76.218 77.3059 75.6489 76.9961 74.9579C76.8461 74.6234 76.6627 74.2717 76.4482 73.9081C76.3372 73.7196 76.3525 73.4808 76.4926 73.3128C76.7098 73.0529 77.117 73.0764 77.29 73.3675C78.492 75.3923 78.8475 77.1655 78.041 77.9837C76.7508 79.2919 72.9777 77.6629 69.6137 74.3456L69.3027 74.0331C69.0108 73.7336 68.7331 73.431 68.4702 73.1278L68.2119 72.8241C67.6657 73.6025 67.2385 74.352 66.9458 75.0301C66.6455 75.7256 66.5074 76.2968 66.4926 76.7171C66.4781 77.135 66.5844 77.2977 66.645 77.3578C66.7055 77.4174 66.8702 77.5223 67.289 77.5018C67.7091 77.4812 68.2781 77.3356 68.9692 77.0257C69.3021 76.8765 69.6519 76.6937 70.0136 76.4803C70.2018 76.3694 70.4402 76.3849 70.6079 76.5248C70.8679 76.7417 70.8444 77.1488 70.5532 77.3216C68.5306 78.5213 66.7602 78.8762 65.9428 78.0702L65.8842 78.0077C64.6868 76.6619 66.3165 72.9543 69.582 69.6429C70.083 69.1349 70.5936 68.6648 71.1045 68.2381C70.3258 67.6918 69.5761 67.2648 68.8979 66.972C68.2893 66.7093 67.7759 66.571 67.3755 66.5306L67.2109 66.5189C66.7927 66.5043 66.6302 66.6112 66.5703 66.6717C66.5106 66.7323 66.4063 66.8964 66.4267 67.3148C66.4473 67.7348 66.593 68.3038 66.9028 68.995C67.069 69.3656 67.2764 69.7574 67.5219 70.1629C67.6614 70.3934 67.6044 70.6943 67.3842 70.8495C67.153 71.0124 66.832 70.952 66.685 70.7103C65.4228 68.6335 65.035 66.8045 65.8584 65.9696L65.9204 65.911C67.266 64.7132 70.9746 66.3421 74.2861 69.6078C74.7941 70.1088 75.2633 70.6202 75.6899 71.1312C76.2355 70.3534 76.6625 69.6047 76.9551 68.9271C77.2552 68.2318 77.3929 67.6608 77.4077 67.2406C77.4223 66.8217 77.3153 66.6591 77.2549 66.5995C77.1941 66.5398 77.0304 66.4355 76.6123 66.4559C76.1922 66.4765 75.6234 66.6226 74.9321 66.9325C74.6009 67.081 74.2525 67.2617 73.8926 67.4735C73.7042 67.5843 73.4657 67.5691 73.2978 67.4291C73.0377 67.2118 73.0614 66.8045 73.353 66.6317ZM71.9287 68.8544C71.3847 69.2975 70.8347 69.7962 70.2934 70.3451C69.7526 70.8935 69.2628 71.4503 68.8276 71.9999C69.27 72.5434 69.7677 73.093 70.3159 73.6336C70.8651 74.1752 71.4228 74.6653 71.9731 75.1009C72.5165 74.6582 73.0662 74.1609 73.6069 73.6127C74.1482 73.0637 74.6382 72.506 75.0737 71.9559C74.6306 71.4119 74.1324 70.8615 73.5835 70.3202C73.0351 69.7794 72.4783 69.2896 71.9287 68.8544Z" fill="#F7F7F8"/>
</svg>
