<svg width="16" height="16" viewBox="0 0 16 16" fill="none" xmlns="http://www.w3.org/2000/svg">
<path d="M12.4193 12.4193C12.1264 12.1264 12.1312 11.6541 12.3818 11.3243C13.0834 10.4009 13.4999 9.24902 13.4999 7.99983C13.4999 6.75072 13.0835 5.59887 12.3819 4.67551C12.1313 4.34571 12.1266 3.87348 12.4195 3.58059C12.7124 3.2877 13.1908 3.28544 13.4509 3.60783C14.4198 4.80882 14.9999 6.33658 14.9999 7.99983C14.9999 9.66318 14.4197 11.191 13.4507 12.3921C13.1906 12.7144 12.7122 12.7122 12.4193 12.4193Z" fill="#5581FC"/>
<path d="M7.97204 14.9997L8.02732 14.9997L7.99996 14.9998L7.97204 14.9997Z" fill="#5581FC"/>
<path d="M8.0467 1.00003L7.95328 1.00003L7.99996 0.999878L8.0467 1.00003Z" fill="#5581FC"/>
<path d="M11.6338 10.6561C11.368 11.019 10.8407 10.9774 10.5628 10.6237C10.3252 10.3214 10.3587 9.89435 10.5598 9.56663C10.8396 9.11062 11.001 8.57407 11.001 7.99985C11.001 7.42554 10.8396 6.88893 10.5597 6.43288C10.3586 6.10516 10.3251 5.67807 10.5626 5.37572C10.8405 5.02204 11.3678 4.98048 11.6336 5.34333C12.1789 6.08784 12.501 7.00623 12.501 7.99985C12.501 8.99334 12.179 9.91164 11.6338 10.6561Z" fill="#5581FC"/>
<path d="M4 5.49988L8.23717 2.21001C8.41259 2.07381 8.62836 1.99988 8.85045 1.99988H9.50781V13.9999H8.85045C8.62836 13.9999 8.41259 13.9259 8.23717 13.7897L4 10.4999V5.49988Z" fill="#5581FC"/>
<path d="M2 5.49988H3V6.99988H2.5V8.99988H3V10.4999H2C1.44772 10.4999 1 10.0522 1 9.49988V6.49988C1 5.94759 1.44772 5.49988 2 5.49988Z" fill="#5581FC"/>
</svg>
