<svg width="16" height="16" viewBox="0 0 16 16" fill="none" xmlns="http://www.w3.org/2000/svg">
<g clip-path="url(#clip0_659_30801)">
<path d="M11.1208 6.00066L14.1751 6.00066C14.5893 6.00066 14.9251 6.33642 14.9251 6.75061C14.9251 7.1648 14.5893 7.50057 14.1751 7.50057L9.56027 7.50057C9.00802 7.50057 8.56033 7.05288 8.56033 6.50063L8.56033 1.88577C8.56033 1.47158 8.8961 1.13582 9.31029 1.13582C9.72448 1.13582 10.0602 1.47158 10.0602 1.88577L10.0602 4.93997L14.0306 0.969656C14.3234 0.676781 14.7983 0.676782 15.0912 0.969657C15.384 1.26253 15.384 1.73738 15.0912 2.03026L11.1208 6.00066Z" fill="#F9F9F9"/>
<path d="M6.06253 11.0607L2.09275 15.0305C1.79988 15.3234 1.32503 15.3234 1.03216 15.0305C0.739281 14.7376 0.739281 14.2628 1.03216 13.9699L5.00203 10H1.94765C1.53346 10 1.19769 9.66426 1.19769 9.25008C1.19769 8.83589 1.53346 8.50012 1.94765 8.50012H6.5625C7.11476 8.50012 7.56244 8.94781 7.56244 9.50006V14.1149C7.56244 14.5291 7.22668 14.8649 6.81249 14.8649C6.3983 14.8649 6.06253 14.5291 6.06253 14.1149V11.0607Z" fill="#F9F9F9"/>
</g>
<defs>
<clipPath id="clip0_659_30801">
<rect width="16" height="16" fill="white"/>
</clipPath>
</defs>
</svg>
