<svg width="16" height="16" viewBox="0 0 16 16" fill="none" xmlns="http://www.w3.org/2000/svg">
<mask id="mask0_3035_29302" style="mask-type:alpha" maskUnits="userSpaceOnUse" x="0" y="0" width="16" height="16">
<path d="M9.5 11.5C9.77614 11.5 10 11.7239 10 12C10 12.2761 9.77614 12.5 9.5 12.5H6.5C6.22386 12.5 6 12.2761 6 12C6 11.7239 6.22386 11.5 6.5 11.5H9.5ZM12.0513 7.50244C12.3033 7.52811 12.5 7.74116 12.5 8C12.5 8.25884 12.3033 8.47189 12.0513 8.49756L12 8.5H4C3.72386 8.5 3.5 8.27614 3.5 8C3.5 7.72386 3.72386 7.5 4 7.5H12L12.0513 7.50244ZM14.5513 3.50244C14.8033 3.52811 15 3.74116 15 4C15 4.25884 14.8033 4.47189 14.5513 4.49756L14.5 4.5H1.5C1.22386 4.5 1 4.27614 1 4C1 3.72386 1.22386 3.5 1.5 3.5H14.5L14.5513 3.50244Z" fill="#F7F7F8"/>
</mask>
<g mask="url(#mask0_3035_29302)">
<rect width="16" height="16" fill="#F7F7F8"/>
</g>
</svg>
