<svg width="54" height="24" viewBox="0 0 54 24" fill="none" xmlns="http://www.w3.org/2000/svg">
<path d="M0 4C0 1.79086 1.79086 0 4 0H50C52.2091 0 54 1.79086 54 4V20C54 22.2091 52.2091 24 50 24H4C1.79086 24 0 22.2091 0 20V4Z" fill="#D0D9FB" fill-opacity="0.12"/>
<path d="M9.09727 7.6H10.5373V16H9.09727V7.6ZM12.2476 9.676H13.5916V10.588L13.7716 10.648C13.9236 10.312 14.1396 10.048 14.4196 9.856C14.6996 9.656 15.0396 9.556 15.4396 9.556C15.8476 9.556 16.1876 9.648 16.4596 9.832C16.7396 10.016 16.9516 10.276 17.0956 10.612H17.2756C17.5316 10.268 17.8036 10.008 18.0916 9.832C18.3796 9.648 18.7476 9.556 19.1956 9.556C19.8196 9.556 20.3036 9.76 20.6476 10.168C20.9916 10.568 21.1636 11.116 21.1636 11.812V16H19.8196V12.004C19.8196 11.612 19.7276 11.316 19.5436 11.116C19.3676 10.908 19.1036 10.804 18.7516 10.804C18.4476 10.804 18.1716 10.884 17.9236 11.044C17.6756 11.204 17.4956 11.424 17.3836 11.704V16H16.0396V12.004C16.0396 11.612 15.9476 11.316 15.7636 11.116C15.5796 10.908 15.3196 10.804 14.9836 10.804C14.6716 10.804 14.3956 10.884 14.1556 11.044C13.9156 11.196 13.7276 11.416 13.5916 11.704V16H12.2476V9.676ZM22.7476 9.676H24.0916V10.552L24.2716 10.624C24.4396 10.288 24.6676 10.028 24.9556 9.844C25.2516 9.652 25.6156 9.556 26.0476 9.556C26.5516 9.556 27.0036 9.68 27.4036 9.928C27.8036 10.176 28.1156 10.54 28.3396 11.02C28.5716 11.5 28.6876 12.076 28.6876 12.748C28.6876 13.444 28.5596 14.048 28.3036 14.56C28.0556 15.064 27.7076 15.452 27.2596 15.724C26.8116 15.988 26.2956 16.12 25.7116 16.12C25.4236 16.12 25.1436 16.084 24.8716 16.012C24.6076 15.94 24.3476 15.844 24.0916 15.724V18.292H22.7476V9.676ZM25.5916 14.86C25.9276 14.86 26.2236 14.78 26.4796 14.62C26.7436 14.46 26.9476 14.22 27.0916 13.9C27.2436 13.58 27.3196 13.2 27.3196 12.76C27.3196 12.328 27.2516 11.968 27.1156 11.68C26.9796 11.392 26.7876 11.176 26.5396 11.032C26.2996 10.888 26.0196 10.816 25.6996 10.816C25.3476 10.816 25.0356 10.896 24.7636 11.056C24.4996 11.216 24.2756 11.44 24.0916 11.728V14.428C24.2916 14.556 24.5196 14.66 24.7756 14.74C25.0396 14.82 25.3116 14.86 25.5916 14.86ZM32.6427 16.12C32.0187 16.12 31.4747 15.984 31.0107 15.712C30.5467 15.432 30.1907 15.048 29.9427 14.56C29.7027 14.064 29.5827 13.492 29.5827 12.844C29.5827 12.196 29.7027 11.624 29.9427 11.128C30.1907 10.632 30.5467 10.248 31.0107 9.976C31.4747 9.696 32.0187 9.556 32.6427 9.556C33.2667 9.556 33.8107 9.696 34.2747 9.976C34.7387 10.248 35.0907 10.632 35.3307 11.128C35.5787 11.624 35.7027 12.196 35.7027 12.844C35.7027 13.492 35.5787 14.064 35.3307 14.56C35.0907 15.048 34.7387 15.432 34.2747 15.712C33.8107 15.984 33.2667 16.12 32.6427 16.12ZM32.6547 14.86C32.9907 14.86 33.2867 14.78 33.5427 14.62C33.7987 14.46 33.9947 14.228 34.1307 13.924C34.2667 13.62 34.3347 13.26 34.3347 12.844C34.3347 12.428 34.2667 12.068 34.1307 11.764C33.9947 11.46 33.7987 11.228 33.5427 11.068C33.2867 10.9 32.9907 10.816 32.6547 10.816C32.3107 10.816 32.0107 10.9 31.7547 11.068C31.4987 11.228 31.2987 11.46 31.1547 11.764C31.0187 12.068 30.9507 12.428 30.9507 12.844C30.9507 13.26 31.0187 13.62 31.1547 13.924C31.2987 14.228 31.4987 14.46 31.7547 14.62C32.0107 14.78 32.3107 14.86 32.6547 14.86ZM36.9625 9.676H38.3065V10.624L38.4865 10.696C38.6785 10.328 38.9145 10.048 39.1945 9.856C39.4745 9.656 39.8105 9.556 40.2025 9.556C40.3945 9.556 40.5705 9.576 40.7305 9.616V11.008C40.4825 10.928 40.2025 10.888 39.8905 10.888C39.5305 10.888 39.2105 10.988 38.9305 11.188C38.6585 11.38 38.4505 11.636 38.3065 11.956V16H36.9625V9.676ZM44.4504 16.12C43.8024 16.12 43.2904 15.96 42.9144 15.64C42.5464 15.312 42.3624 14.8 42.3624 14.104V10.852H41.3064V9.676H42.3624V8.164H43.7064V9.676H45.4944V10.852H43.7064V13.96C43.7064 14.272 43.7944 14.504 43.9704 14.656C44.1544 14.808 44.4104 14.884 44.7384 14.884C44.8824 14.884 45.0224 14.872 45.1584 14.848C45.3024 14.824 45.4584 14.788 45.6264 14.74V15.904C45.4584 15.968 45.2704 16.02 45.0624 16.06C44.8544 16.1 44.6504 16.12 44.4504 16.12Z" fill="#F7F7F8"/>
</svg>
