<svg width="24" height="24" viewBox="0 0 24 24" fill="none" xmlns="http://www.w3.org/2000/svg">
<path d="M17.4335 12.0019C17.4335 15.0022 15.0013 17.4345 12.0009 17.4345C9.00061 17.4345 6.56836 15.0022 6.56836 12.0019C6.56836 9.00158 9.00061 6.56934 12.0009 6.56934C15.0013 6.56934 17.4335 9.00158 17.4335 12.0019Z" fill="#494D5A"/>
<path fill-rule="evenodd" clip-rule="evenodd" d="M12 15.2205C12.4141 15.2206 12.7499 15.5565 12.75 15.9705V20.1052L14.3867 18.4685C14.6796 18.1759 15.1554 18.1758 15.4483 18.4685C15.7406 18.7613 15.7407 19.2363 15.4483 19.5291L12.7959 22.1804C12.3566 22.6196 11.6444 22.6197 11.2051 22.1804L8.55373 19.5291C8.26097 19.2362 8.26103 18.7614 8.55373 18.4685C8.84661 18.1759 9.32145 18.1758 9.61427 18.4685L11.25 20.1033V15.9705C11.2502 15.5564 11.5859 15.2205 12 15.2205ZM4.47365 8.55251C4.76647 8.26 5.24138 8.26 5.5342 8.55251C5.82683 8.84532 5.82675 9.32019 5.5342 9.61306L3.89748 11.2498H7.87599C8.29007 11.2498 8.62577 11.5858 8.62599 11.9998C8.62583 12.4138 8.29011 12.7498 7.87599 12.7498H3.89748L5.5342 14.3855C5.82705 14.6784 5.82696 15.1541 5.5342 15.447C5.24144 15.7397 4.76654 15.7395 4.47365 15.447L1.82131 12.7947C1.38265 12.3553 1.38231 11.643 1.82131 11.2039L4.47365 8.55251ZM18.4092 8.55251C18.702 8.25998 19.1769 8.26009 19.4697 8.55251L22.1221 11.2039C22.5611 11.643 22.5608 12.3554 22.1221 12.7947L19.4697 15.447C19.1769 15.7395 18.702 15.7397 18.4092 15.447C18.1165 15.1541 18.1164 14.6783 18.4092 14.3855L20.0459 12.7498H16.125C15.7109 12.7498 15.3752 12.4138 15.375 11.9998C15.3753 11.5858 15.711 11.2498 16.125 11.2498H20.0459L18.4092 9.61306C18.1168 9.32018 18.1166 8.84528 18.4092 8.55251ZM11.2051 1.81911C11.6443 1.38017 12.3566 1.38023 12.7959 1.81911L15.4483 4.47145C15.7406 4.7643 15.7408 5.23923 15.4483 5.532C15.1554 5.82489 14.6796 5.82489 14.3867 5.532L12.749 3.89333V7.97145C12.7489 8.38554 12.4131 8.72138 11.999 8.72145C11.5851 8.72121 11.2491 8.38544 11.249 7.97145V3.89724L9.61427 5.532C9.32142 5.82468 8.84658 5.82468 8.55373 5.532C8.2609 5.23916 8.261 4.76436 8.55373 4.47145L11.2051 1.81911Z" fill="#F7F7F8"/>
<path d="M13.875 11.9999C13.875 13.0355 13.0355 13.8749 12 13.8749C10.9645 13.8749 10.125 13.0355 10.125 11.9999C10.125 10.9644 10.9645 10.1249 12 10.1249C13.0355 10.1249 13.875 10.9644 13.875 11.9999Z" fill="#F7F7F8"/>
</svg>
