<svg width="32" height="32" viewBox="0 0 32 32" fill="none" xmlns="http://www.w3.org/2000/svg">
<path d="M0 16C0 7.16344 7.16344 0 16 0C24.8366 0 32 7.16344 32 16C32 24.8366 24.8366 32 16 32H0V16Z" fill="#202227"/>
<path d="M17.353 10.6317C19.3727 9.43536 21.1403 9.08245 21.957 9.88706C23.2652 11.1772 21.6367 14.9508 18.3193 18.3148L18.0068 18.6253C17.6072 19.0149 17.2016 19.3789 16.7968 19.7167C17.5746 20.2622 18.3234 20.6888 19.0009 20.9813C19.6963 21.2815 20.2672 21.4197 20.6875 21.4344C21.106 21.4491 21.2687 21.3421 21.3286 21.2816C21.3883 21.2209 21.4931 21.0564 21.4726 20.638C21.452 20.218 21.3059 19.6489 20.9961 18.9579C20.8461 18.6234 20.6627 18.2717 20.4482 17.9081C20.3372 17.7196 20.3525 17.4808 20.4926 17.3128C20.7098 17.0529 21.117 17.0764 21.29 17.3675C22.492 19.3923 22.8475 21.1655 22.041 21.9837C20.7508 23.2919 16.9777 21.6629 13.6137 18.3456L13.3027 18.0331C13.0108 17.7336 12.7331 17.431 12.4702 17.1278L12.2119 16.8241C11.6657 17.6025 11.2385 18.352 10.9458 19.0301C10.6455 19.7256 10.5074 20.2968 10.4926 20.7171C10.4781 21.135 10.5844 21.2977 10.645 21.3578C10.7055 21.4174 10.8702 21.5223 11.289 21.5018C11.7091 21.4812 12.2781 21.3356 12.9692 21.0257C13.3021 20.8765 13.6519 20.6937 14.0136 20.4803C14.2018 20.3694 14.4402 20.3849 14.6079 20.5248C14.8679 20.7417 14.8444 21.1488 14.5532 21.3216C12.5306 22.5213 10.7602 22.8762 9.94284 22.0702L9.88425 22.0077C8.68677 20.6619 10.3165 16.9543 13.582 13.6429C14.083 13.1349 14.5936 12.6648 15.1045 12.2381C14.3258 11.6918 13.5761 11.2648 12.8979 10.972C12.2893 10.7093 11.7759 10.571 11.3755 10.5306L11.2109 10.5189C10.7927 10.5043 10.6302 10.6112 10.5703 10.6717C10.5106 10.7323 10.4063 10.8964 10.4267 11.3148C10.4473 11.7348 10.593 12.3038 10.9028 12.995C11.069 13.3656 11.2764 13.7574 11.5219 14.1629C11.6614 14.3934 11.6044 14.6943 11.3842 14.8495C11.153 15.0124 10.832 14.952 10.685 14.7103C9.42279 12.6335 9.03503 10.8045 9.85837 9.96958L9.92038 9.91099C11.266 8.71316 14.9746 10.3421 18.2861 13.6078C18.7941 14.1088 19.2633 14.6202 19.6899 15.1312C20.2355 14.3534 20.6625 13.6047 20.9551 12.9271C21.2552 12.2318 21.3929 11.6608 21.4077 11.2406C21.4223 10.8217 21.3153 10.6591 21.2549 10.5995C21.1941 10.5398 21.0304 10.4355 20.6123 10.4559C20.1922 10.4765 19.6234 10.6226 18.9321 10.9325C18.6009 11.081 18.2525 11.2617 17.8926 11.4735C17.7042 11.5843 17.4657 11.5691 17.2978 11.4291C17.0377 11.2118 17.0614 10.8045 17.353 10.6317ZM15.9287 12.8544C15.3847 13.2975 14.8347 13.7962 14.2934 14.3451C13.7526 14.8935 13.2628 15.4503 12.8276 15.9999C13.27 16.5434 13.7677 17.093 14.3159 17.6336C14.8651 18.1752 15.4228 18.6653 15.9731 19.1009C16.5165 18.6582 17.0662 18.1609 17.6069 17.6127C18.1482 17.0637 18.6382 16.506 19.0737 15.9559C18.6306 15.4119 18.1324 14.8615 17.5835 14.3202C17.0351 13.7794 16.4783 13.2896 15.9287 12.8544Z" fill="#F7F7F8"/>
</svg>
