<svg width="16" height="16" viewBox="0 0 16 16" fill="none" xmlns="http://www.w3.org/2000/svg">
<path fill-rule="evenodd" clip-rule="evenodd" d="M1 4.5V3.5C1 2.67157 1.67157 2 2.5 2H5.88197C6.45012 2 6.96952 2.321 7.22361 2.82918L7.80902 4H12.5C13.3284 4 14 4.67157 14 5.5V6.01318C13.947 6.00451 13.8925 6 13.8368 6H13V5.5C13 5.22386 12.7761 5 12.5 5H7.5H7.19098H2V12.5C2 12.7761 2.22386 13 2.5 13H3.60714V14H2.5C1.67157 14 1 13.3284 1 12.5V4.5ZM13.9627 12.8338C13.9786 12.7638 13.9896 12.692 13.9954 12.6187L13.9627 12.8338Z" fill="#E1E1E1"/>
<path fill-rule="evenodd" clip-rule="evenodd" d="M7.80902 4H12.5C13.1537 4 13.7097 4.41813 13.9152 5.00152C13.9701 5.15748 14 5.32525 14 5.5V6.01318C13.947 6.00451 13.8925 6 13.8368 6H13V5.5C13 5.22386 12.7761 5 12.5 5H2V12.5C2 12.7761 2.22386 13 2.5 13H3.60714V14H2.5C1.67157 14 1 13.3284 1 12.5V3.5C1 2.67157 1.67157 2 2.5 2H5.88197C6.45012 2 6.96952 2.321 7.22361 2.82918L7.80902 4ZM2 4V3.5C2 3.22386 2.22386 3 2.5 3H5.88197C6.07135 3 6.24448 3.107 6.32918 3.27639L6.69098 4H2ZM13.9954 12.6187L13.9627 12.8338C13.9786 12.7638 13.9896 12.692 13.9954 12.6187Z" fill="#E1E1E1"/>
<path fill-rule="evenodd" clip-rule="evenodd" d="M14.081 8H5.20477L3.41906 13H12.2953L14.081 8ZM5.20477 7C4.78216 7 4.40517 7.26567 4.26303 7.66366L2.47732 12.6637C2.24473 13.3149 2.72753 14 3.41906 14H12.2953C12.7179 14 13.0949 13.7343 13.2371 13.3363L15.0228 8.33634C15.2554 7.68509 14.7726 7 14.081 7H5.20477Z" fill="#E1E1E1"/>
</svg>
