<svg width="16" height="16" viewBox="0 0 16 16" fill="none" xmlns="http://www.w3.org/2000/svg">
<mask id="mask0_3035_26295" style="mask-type:alpha" maskUnits="userSpaceOnUse" x="0" y="0" width="16" height="16">
<path d="M2.34111 5.99996C3.16502 3.6689 5.38817 2 7.99983 2C10.4207 2 12.5077 3.43393 13.4559 5.5H11.5C11.2239 5.5 11 5.72386 11 6C11 6.27614 11.2239 6.5 11.5 6.5H14.5C14.7761 6.5 15 6.27614 15 6V3C15 2.72386 14.7761 2.5 14.5 2.5C14.2239 2.5 14 2.72386 14 3V4.39295C12.7754 2.3602 10.5469 1 7.99983 1C4.9512 1 2.35898 2.9486 1.39827 5.66671C1.30625 5.92707 1.44271 6.21273 1.70307 6.30475C1.96342 6.39678 2.24909 6.26031 2.34111 5.99996Z" fill="#F7F7F8"/>
<path d="M2 11.6076V13C2 13.2761 1.77614 13.5 1.5 13.5C1.22386 13.5 1 13.2761 1 13V10C1 9.72386 1.22386 9.5 1.5 9.5H4.5C4.77614 9.5 5 9.72386 5 10C5 10.2761 4.77614 10.5 4.5 10.5H2.54372C3.49196 12.5661 5.57899 14 7.99983 14C10.6115 14 12.8346 12.3311 13.6585 10C13.7506 9.73969 14.0362 9.60322 14.2966 9.69525C14.5569 9.78727 14.6934 10.0729 14.6014 10.3333C13.6407 13.0514 11.0485 15 7.99983 15C5.45298 15 3.22466 13.6401 2 11.6076Z" fill="#F7F7F8"/>
</mask>
<g mask="url(#mask0_3035_26295)">
<rect width="16" height="16" fill="#F7F7F8"/>
</g>
</svg>
