<svg width="16" height="16" viewBox="0 0 16 16" fill="none" xmlns="http://www.w3.org/2000/svg">
<path d="M5 3.25L2.75 3.25C1.92157 3.25 1.25 3.92157 1.25 4.75V11.25C1.25 12.0784 1.92157 12.75 2.75 12.75H5V11.25H2.75V4.75H5V3.25Z" fill="#284DE2"/>
<path d="M9 4.75C9 4.88807 8.88807 5 8.75 5H7.75C7.61193 5 7.5 4.88807 7.5 4.75V3.75C7.5 3.61193 7.61193 3.5 7.75 3.5H8.75C8.88807 3.5 9 3.61193 9 3.75V4.75Z" fill="#5581FC"/>
<path fill-rule="evenodd" clip-rule="evenodd" d="M14.25 7.5C14.6642 7.5 15 7.16421 15 6.75V1.75C15 1.33579 14.6642 1 14.25 1H5.75C5.33579 1 5 1.33579 5 1.75V6.75C5 7.16421 5.33579 7.5 5.75 7.5H14.25ZM13.5 6V2.5H6.5V6H13.5Z" fill="#5581FC"/>
<path fill-rule="evenodd" clip-rule="evenodd" d="M5 9.25V14.2498C5 14.664 5.33579 15 5.75 15H14.25C14.6642 15 15 14.6642 15 14.25V9.25C15 8.83579 14.6642 8.5 14.25 8.5H5.75C5.33579 8.5 5 8.83579 5 9.25ZM8.75 12.5C8.88807 12.5 9 12.3881 9 12.25V11.25C9 11.1119 8.88807 11 8.75 11H7.75C7.61193 11 7.5 11.1119 7.5 11.25V12.25C7.5 12.3881 7.61193 12.5 7.75 12.5H8.75Z" fill="#5581FC"/>
</svg>
