<svg width="28" height="24" viewBox="0 0 28 24" fill="none" xmlns="http://www.w3.org/2000/svg">
<path d="M4 0C1.79086 0 0 1.79086 0 4V20C0 22.2091 1.79086 24 4 24H24C26.2091 24 28 22.2091 28 20V4C28 1.79086 26.2091 0 24 0H4ZM16 22H4C2.89543 22 2 21.1046 2 20V4C2 2.89543 2.89543 2 4 2H16V22ZM24 12C24.5523 12 25 12.4477 25 13C25 13.5523 24.5523 14 24 14H20C19.4477 14 19 13.5523 19 13C19 12.4477 19.4477 12 20 12H24ZM24 8C24.5523 8 25 8.44772 25 9C25 9.55228 24.5523 10 24 10H20C19.4477 10 19 9.55228 19 9C19 8.44772 19.4477 8 20 8H24ZM24 4C24.5523 4 25 4.44772 25 5C25 5.55228 24.5523 6 24 6H20C19.4477 6 19 5.55228 19 5C19 4.44772 19.4477 4 20 4H24Z" fill="#F7F7F8"/>
</svg>
