<svg width="12" height="12" viewBox="0 0 12 12" fill="none" xmlns="http://www.w3.org/2000/svg">
<path d="M10.125 5.25C10.5498 5.25 10.8536 5.59344 10.875 6V9.75C10.8532 10.1639 10.5455 10.4779 10.125 10.5H1.875C1.46079 10.5 1.125 10.1642 1.125 9.75V6C1.125 5.58579 1.46079 5.25 1.875 5.25H10.125ZM1.875 9.75H10.125V6H1.875V9.75Z" fill="#202227"/>
<path d="M9.75 3.375C9.95711 3.375 10.125 3.54289 10.125 3.75C10.125 3.95711 9.95711 4.125 9.75 4.125H2.25C2.04289 4.125 1.875 3.95711 1.875 3.75C1.875 3.54289 2.04289 3.375 2.25 3.375H9.75Z" fill="#202227"/>
<path d="M8.625 1.5C8.83211 1.5 9 1.66789 9 1.875C9 2.08211 8.83211 2.25 8.625 2.25H3.375C3.16789 2.25 3 2.08211 3 1.875C3 1.66789 3.16789 1.5 3.375 1.5H8.625Z" fill="#202227"/>
</svg>
