<svg width="16" height="16" viewBox="0 0 16 16" fill="none" xmlns="http://www.w3.org/2000/svg">
<path fill-rule="evenodd" clip-rule="evenodd" d="M2.5 1C1.67157 1 1 1.67157 1 2.5V13.5C1 14.3284 1.67157 15 2.5 15H13.5C14.3284 15 15 14.3284 15 13.5V2.5C15 1.67157 14.3284 1 13.5 1H2.5ZM13.3536 5.06359C13.5488 4.86833 13.5488 4.55175 13.3536 4.35648L12.6464 3.64938C12.4512 3.45411 12.1346 3.45411 11.9393 3.64938L6.5 9.08872L4.31066 6.89938C4.1154 6.70411 3.79882 6.70411 3.60355 6.89938L2.89645 7.60648C2.70118 7.80174 2.70118 8.11833 2.89645 8.31359L6.5 11.9171L13.3536 5.06359Z" fill="#F9F9F9"/>
</svg>
