<svg width="16" height="16" viewBox="0 0 16 16" fill="none" xmlns="http://www.w3.org/2000/svg">
<path fill-rule="evenodd" clip-rule="evenodd" d="M3 2.5C3 3.05228 2.55228 3.5 2 3.5C1.44772 3.5 1 3.05228 1 2.5C1 1.94772 1.44772 1.5 2 1.5C2.55228 1.5 3 1.94772 3 2.5ZM5.07812 2C4.80198 2 4.57812 2.22386 4.57812 2.5C4.57812 2.77614 4.80198 3 5.07812 3H14.4934C14.7696 3 14.9934 2.77614 14.9934 2.5C14.9934 2.22386 14.7696 2 14.4934 2H5.07812ZM5.07812 12.5C4.80198 12.5 4.57812 12.7239 4.57812 13C4.57812 13.2761 4.80198 13.5 5.07812 13.5H14.4934C14.7696 13.5 14.9934 13.2761 14.9934 13C14.9934 12.7239 14.7696 12.5 14.4934 12.5H5.07812ZM4.57812 6C4.57812 5.72386 4.80198 5.5 5.07812 5.5H14.4934C14.7696 5.5 14.9934 5.72386 14.9934 6C14.9934 6.27614 14.7696 6.5 14.4934 6.5H5.07812C4.80198 6.5 4.57812 6.27614 4.57812 6ZM5.07812 9C4.80198 9 4.57812 9.22386 4.57812 9.5C4.57812 9.77614 4.80198 10 5.07812 10H14.4934C14.7696 10 14.9934 9.77614 14.9934 9.5C14.9934 9.22386 14.7696 9 14.4934 9H5.07812ZM2 7C2.55228 7 3 6.55228 3 6C3 5.44772 2.55228 5 2 5C1.44772 5 1 5.44772 1 6C1 6.55228 1.44772 7 2 7ZM3 9.5C3 10.0523 2.55228 10.5 2 10.5C1.44772 10.5 1 10.0523 1 9.5C1 8.94772 1.44772 8.5 2 8.5C2.55228 8.5 3 8.94772 3 9.5ZM2 14C2.55228 14 3 13.5523 3 13C3 12.4477 2.55228 12 2 12C1.44772 12 1 12.4477 1 13C1 13.5523 1.44772 14 2 14Z" fill="#F9F9F9"/>
</svg>
