<svg width="28" height="24" viewBox="0 0 28 24" fill="none" xmlns="http://www.w3.org/2000/svg">
<path d="M24 0C26.2091 0 28 1.79086 28 4V20C28 22.2091 26.2091 24 24 24H4C1.79086 24 0 22.2091 0 20V4C2.57702e-07 1.79086 1.79086 0 4 0H24ZM12 22H24C25.1046 22 26 21.1046 26 20V4C26 2.89543 25.1046 2 24 2H12V22ZM4 12C3.44772 12 3 12.4477 3 13C3 13.5523 3.44772 14 4 14H8C8.55228 14 9 13.5523 9 13C9 12.4477 8.55228 12 8 12H4ZM4 8C3.44772 8 3 8.44772 3 9C3 9.55228 3.44772 10 4 10H8C8.55228 10 9 9.55228 9 9C9 8.44772 8.55228 8 8 8H4ZM4 4C3.44772 4 3 4.44772 3 5C3 5.55228 3.44772 6 4 6H8C8.55228 6 9 5.55228 9 5C9 4.44772 8.55228 4 8 4H4Z" fill="currentColor"/>
</svg>
