<svg width="24" height="24" viewBox="0 0 24 24" fill="none" xmlns="http://www.w3.org/2000/svg">
<g clip-path="url(#clip0_3015_35827)">
<path d="M21 24H24V21L21 24Z" fill="#BCBEC8"/>
<path d="M8.5 7.75C8.5 7.61193 8.61193 7.5 8.75 7.5H9.75C9.88807 7.5 10 7.61193 10 7.75V8.75C10 8.88807 9.88807 9 9.75 9H8.75C8.61193 9 8.5 8.88807 8.5 8.75V7.75Z" fill="#F7F7F8"/>
<path d="M8.5 12.75C8.5 12.6119 8.61193 12.5 8.75 12.5H9.75C9.88807 12.5 10 12.6119 10 12.75V13.75C10 13.8881 9.88807 14 9.75 14H8.75C8.61193 14 8.5 13.8881 8.5 13.75V12.75Z" fill="#F7F7F8"/>
<path fill-rule="evenodd" clip-rule="evenodd" d="M7.5 5C6.67157 5 6 5.67157 6 6.5V17.5C6 18.3284 6.67157 19 7.5 19H16.5C17.3284 19 18 18.3284 18 17.5V6.5C18 5.67157 17.3284 5 16.5 5H7.5ZM16.5 6.5H7.5V10H16.5V6.5ZM7.5 15V11.5H16.5V15H7.5Z" fill="#F7F7F8"/>
</g>
<defs>
<clipPath id="clip0_3015_35827">
<path d="M0 4C0 1.79086 1.79086 0 4 0H20C22.2091 0 24 1.79086 24 4V24H4C1.79086 24 0 22.2091 0 20V4Z" fill="white"/>
</clipPath>
</defs>
</svg>
