<svg width="16" height="16" viewBox="0 0 16 16" fill="none" xmlns="http://www.w3.org/2000/svg">
<path fill-rule="evenodd" clip-rule="evenodd" d="M6.33875 1.39439C6.53511 1.0298 6.99072 0.893525 7.35535 1.0897C7.71974 1.28623 7.85638 1.74175 7.66004 2.1063L6.89539 3.52329C7.25508 3.43291 7.63168 3.38463 8.01941 3.38462C8.04575 3.38463 8.07228 3.38613 8.09852 3.38657H13.537C13.9511 3.38664 14.2868 3.72253 14.287 4.13657C14.2869 4.55068 13.9511 4.88651 13.537 4.88657H11.4179C11.6732 5.1667 11.8947 5.47838 12.0751 5.81529L14.8973 10.6209C15.1063 10.9779 14.9864 11.4367 14.6298 11.6463C14.2727 11.856 13.8132 11.7367 13.6034 11.3797L12.411 9.34849C12.2963 9.71761 12.1361 10.0667 11.9374 10.3895L9.66004 14.6063C9.4632 14.9705 9.00777 15.1066 8.64344 14.91C8.2792 14.7132 8.14312 14.2578 8.33973 13.8934L9.12098 12.4461C8.76802 12.5329 8.39915 12.5809 8.01941 12.5809C7.9855 12.5809 7.95159 12.5787 7.91785 12.578H2.50281C2.08865 12.578 1.75289 12.2421 1.75281 11.828C1.75296 11.4139 2.08869 11.078 2.50281 11.078H4.62C4.38045 10.815 4.17088 10.5241 3.99695 10.2108L1.10633 5.3856C0.893718 5.03039 1.01006 4.57016 1.36512 4.35728C1.72025 4.14478 2.18052 4.25925 2.39344 4.61411L3.61609 6.65611C3.70864 6.34849 3.83175 6.05395 3.98328 5.7772C3.99296 5.75378 4.00424 5.73067 4.01649 5.70786L6.33875 1.39439ZM7.11024 4.99986C6.75302 4.99986 6.42267 5.19053 6.24402 5.49986L5.13367 7.42271C4.95505 7.73209 4.95506 8.11331 5.13367 8.42271L6.24402 10.3456C6.42267 10.6549 6.75299 10.8456 7.11024 10.8456H9.32996C9.68723 10.8456 10.0175 10.655 10.1962 10.3456L11.3065 8.42271C11.4851 8.11334 11.4851 7.73206 11.3065 7.42271L10.1962 5.49986C10.0175 5.19049 9.68721 4.99986 9.32996 4.99986H7.11024Z" fill="#F9F9F9"/>
<path fill-rule="evenodd" clip-rule="evenodd" d="M10.2963 7.67284C10.3856 7.82754 10.3856 8.01814 10.2963 8.17284L9.47479 9.59567C9.38547 9.75037 9.22041 9.84567 9.04177 9.84567H7.39883C7.22019 9.84567 7.05513 9.75037 6.96581 9.59567L6.14434 8.17284C6.05502 8.01814 6.05502 7.82754 6.14434 7.67284L6.96581 6.25C7.05513 6.0953 7.22019 6 7.39883 6H9.04177C9.22041 6 9.38547 6.0953 9.47479 6.25L10.2963 7.67284Z" fill="#5581FC"/>
</svg>
