<svg width="24" height="24" viewBox="0 0 24 24" fill="none" xmlns="http://www.w3.org/2000/svg">
<g clip-path="url(#clip0_3015_35811)">
<path d="M21 24H24V21L21 24Z" fill="#BCBEC8"/>
<path fill-rule="evenodd" clip-rule="evenodd" d="M6.80618 8.4248L12.001 11.4291L17.1895 8.42311L12.2493 5.57089C12.0946 5.48157 11.904 5.48157 11.7493 5.57089L6.80618 8.4248ZM17.6927 9.28729L12.4997 12.2959V18.286L17.4427 15.4321C17.5974 15.3428 17.6927 15.1778 17.6927 14.9991V9.28729ZM11.4997 18.2864V12.2943L6.30591 9.29067V14.9991C6.30591 15.1778 6.40121 15.3428 6.55591 15.4321L11.4997 18.2864ZM12.7493 4.70486C12.2852 4.43692 11.7134 4.43692 11.2493 4.70486L6.05591 7.70327C5.59181 7.97122 5.30591 8.46641 5.30591 9.00231V14.9991C5.30591 15.535 5.59181 16.0302 6.05591 16.2982L11.2493 19.2966C11.7134 19.5645 12.2852 19.5645 12.7493 19.2966L17.9427 16.2982C18.4068 16.0302 18.6927 15.535 18.6927 14.9991V9.00231C18.6927 8.46641 18.4068 7.97122 17.9427 7.70327L12.7493 4.70486Z" fill="#F9F9F9"/>
</g>
<defs>
<clipPath id="clip0_3015_35811">
<path d="M0 4C0 1.79086 1.79086 0 4 0H20C22.2091 0 24 1.79086 24 4V24H4C1.79086 24 0 22.2091 0 20V4Z" fill="white"/>
</clipPath>
</defs>
</svg>
