<svg width="478" height="166" viewBox="0 0 478 166" fill="none" xmlns="http://www.w3.org/2000/svg">
<g filter="url(#filter0_dddd_359_10587)">
<path d="M54.5 39C54.5 25.7452 65.2452 15 78.5 15H399.5C412.755 15 423.5 25.7452 423.5 39V39C423.5 52.2548 412.755 63 399.5 63H78.5C65.2452 63 54.5 52.2548 54.5 39V39Z" fill="#191A1F" fill-opacity="0.92"/>
<path d="M78.5 15.5H399.5C412.479 15.5 423 26.0213 423 39C423 51.9787 412.479 62.5 399.5 62.5H78.5C65.5213 62.5 55 51.9787 55 39C55 26.0213 65.5213 15.5 78.5 15.5Z" stroke="#D0D9FB" stroke-opacity="0.4"/>
<mask id="mask0_359_10587" style="mask-type:alpha" maskUnits="userSpaceOnUse" x="70" y="31" width="17" height="16">
<path d="M79.8525 33.6314C81.8722 32.4351 83.6398 32.0822 84.4565 32.8868C85.7647 34.1769 84.1362 37.9505 80.8188 41.3146L80.5063 41.6251C80.1067 42.0147 79.7011 42.3786 79.2964 42.7164C80.0741 43.262 80.8229 43.6885 81.5005 43.9811C82.1959 44.2813 82.7667 44.4194 83.187 44.4342C83.6056 44.4488 83.7682 44.3419 83.8281 44.2814C83.8878 44.2206 83.9926 44.0562 83.9721 43.6378C83.9515 43.2178 83.8054 42.6487 83.4956 41.9576C83.3456 41.6232 83.1622 41.2715 82.9477 40.9078C82.8367 40.7194 82.852 40.4805 82.9922 40.3126C83.2093 40.0526 83.6165 40.0762 83.7895 40.3673C84.9915 42.3921 85.347 44.1653 84.5405 44.9835C83.2503 46.2916 79.4772 44.6627 76.1133 41.3453L75.8022 41.0328C75.5103 40.7333 75.2326 40.4308 74.9697 40.1275L74.7114 39.8238C74.1652 40.6023 73.7381 41.3518 73.4453 42.0299C73.145 42.7254 73.0069 43.2966 72.9922 43.7169C72.9776 44.1348 73.0839 44.2975 73.1445 44.3575C73.205 44.4172 73.3697 44.522 73.7885 44.5016C74.2086 44.4809 74.7776 44.3353 75.4687 44.0255C75.8017 43.8762 76.1514 43.6935 76.5132 43.4801C76.7013 43.3692 76.9397 43.3846 77.1074 43.5245C77.3674 43.7415 77.3439 44.1486 77.0527 44.3214C75.0301 45.521 73.2597 45.876 72.4424 45.0699L72.3838 45.0074C71.1863 43.6616 72.816 39.954 76.0815 36.6427C76.5825 36.1347 77.0931 35.6646 77.604 35.2379C76.8254 34.6916 76.0756 34.2646 75.3974 33.9718C74.7888 33.709 74.2754 33.5708 73.875 33.5304L73.7104 33.5187C73.2922 33.5041 73.1297 33.6109 73.0698 33.6715C73.0101 33.732 72.9058 33.8961 72.9262 34.3146C72.9468 34.7346 73.0925 35.3036 73.4023 35.9947C73.5685 36.3653 73.7759 36.7571 74.0215 37.1627C74.1609 37.3931 74.1039 37.694 73.8838 37.8492C73.6525 38.0122 73.3315 37.9518 73.1845 37.7101C71.9223 35.6333 71.5345 33.8042 72.3579 32.9693L72.4199 32.9107C73.7655 31.7129 77.4741 33.3419 80.7856 36.6075C81.2936 37.1085 81.7628 37.62 82.1894 38.131C82.735 37.3532 83.162 36.6044 83.4546 35.9269C83.7547 35.2315 83.8925 34.6606 83.9072 34.2403C83.9218 33.8215 83.8149 33.6589 83.7544 33.5992C83.6936 33.5395 83.5299 33.4352 83.1118 33.4557C82.6917 33.4762 82.1229 33.6223 81.4316 33.9322C81.1004 34.0807 80.752 34.2615 80.3921 34.4732C80.2037 34.5841 79.9652 34.5688 79.7973 34.4288C79.5372 34.2115 79.561 33.8043 79.8525 33.6314ZM78.4282 35.8541C77.8842 36.2973 77.3342 36.796 76.7929 37.3448C76.2521 37.8932 75.7623 38.45 75.3271 38.9996C75.7695 39.5431 76.2672 40.0928 76.8154 40.6334C77.3646 41.175 77.9223 41.665 78.4726 42.1007C79.016 41.658 79.5657 41.1607 80.1064 40.6124C80.6477 40.0635 81.1377 39.5057 81.5732 38.9557C81.1301 38.4116 80.6319 37.8613 80.083 37.3199C79.5346 36.7791 78.9778 36.2893 78.4282 35.8541Z" fill="#F7F7F8"/>
</mask>
<g mask="url(#mask0_359_10587)">
<rect x="70.5" y="31" width="16" height="16" fill="#F7F7F8"/>
</g>
</g>
<defs>
<filter id="filter0_dddd_359_10587" x="0" y="0" width="478" height="165.5" filterUnits="userSpaceOnUse" color-interpolation-filters="sRGB">
<feFlood flood-opacity="0" result="BackgroundImageFix"/>
<feColorMatrix in="SourceAlpha" type="matrix" values="0 0 0 0 0 0 0 0 0 0 0 0 0 0 0 0 0 0 127 0" result="hardAlpha"/>
<feMorphology radius="1.5" operator="erode" in="SourceAlpha" result="effect1_dropShadow_359_10587"/>
<feOffset dy="48"/>
<feGaussianBlur stdDeviation="28"/>
<feColorMatrix type="matrix" values="0 0 0 0 0.0156863 0 0 0 0 0.0156863 0 0 0 0 0.0313726 0 0 0 0.25 0"/>
<feBlend mode="normal" in2="BackgroundImageFix" result="effect1_dropShadow_359_10587"/>
<feColorMatrix in="SourceAlpha" type="matrix" values="0 0 0 0 0 0 0 0 0 0 0 0 0 0 0 0 0 0 127 0" result="hardAlpha"/>
<feMorphology radius="1" operator="erode" in="SourceAlpha" result="effect2_dropShadow_359_10587"/>
<feOffset dy="16"/>
<feGaussianBlur stdDeviation="16"/>
<feColorMatrix type="matrix" values="0 0 0 0 0.0156863 0 0 0 0 0.0156863 0 0 0 0 0.0313726 0 0 0 0.25 0"/>
<feBlend mode="normal" in2="effect1_dropShadow_359_10587" result="effect2_dropShadow_359_10587"/>
<feColorMatrix in="SourceAlpha" type="matrix" values="0 0 0 0 0 0 0 0 0 0 0 0 0 0 0 0 0 0 127 0" result="hardAlpha"/>
<feMorphology radius="0.75" operator="erode" in="SourceAlpha" result="effect3_dropShadow_359_10587"/>
<feOffset dy="10"/>
<feGaussianBlur stdDeviation="10"/>
<feColorMatrix type="matrix" values="0 0 0 0 0.0156863 0 0 0 0 0.0156863 0 0 0 0 0.0313726 0 0 0 0.25 0"/>
<feBlend mode="normal" in2="effect2_dropShadow_359_10587" result="effect3_dropShadow_359_10587"/>
<feColorMatrix in="SourceAlpha" type="matrix" values="0 0 0 0 0 0 0 0 0 0 0 0 0 0 0 0 0 0 127 0" result="hardAlpha"/>
<feMorphology radius="0.5" operator="erode" in="SourceAlpha" result="effect4_dropShadow_359_10587"/>
<feOffset dy="2"/>
<feGaussianBlur stdDeviation="2"/>
<feColorMatrix type="matrix" values="0 0 0 0 0.0156863 0 0 0 0 0.0156863 0 0 0 0 0.0313726 0 0 0 0.25 0"/>
<feBlend mode="normal" in2="effect3_dropShadow_359_10587" result="effect4_dropShadow_359_10587"/>
<feBlend mode="normal" in="SourceGraphic" in2="effect4_dropShadow_359_10587" result="shape"/>
</filter>
</defs>
</svg>
