<svg preserveAspectRatio="none" width="100%" height="100%" overflow="visible" style="display: block;" viewBox="0 0 1108 330" fill="none" xmlns="http://www.w3.org/2000/svg">
<g id="12:36">
<path d="M103.802 324.474C92.7563 324.474 83.802 315.52 83.802 304.474V60.9122C83.802 60.3529 83.3486 59.8995 82.7893 59.8995C82.5848 59.8995 82.3851 59.9615 82.2164 60.0772L15.6573 105.742C9.02148 110.294 0 105.543 0 97.4957V74.4896C0 67.9759 3.17203 61.8703 8.50159 58.1254L78.1854 9.1616C81.5529 6.79546 85.5682 5.52579 89.6838 5.52579H119.744C130.789 5.52579 139.744 14.4801 139.744 25.5258V304.474C139.744 315.52 130.789 324.474 119.744 324.474H103.802Z" fill="var(--fill-0, white)" fill-opacity="0.3"/>
<path d="M234.701 324.474C223.656 324.474 214.701 315.52 214.701 304.474V294.011C214.701 288.616 216.881 283.449 220.746 279.685L327.469 175.72C369.26 134.829 378.325 118.694 378.325 95.0435V94.6015C378.104 66.0884 356.656 45.7535 325.921 45.7535C290.846 45.7535 266.203 69.0007 265.137 99.3397C265.12 99.8487 264.947 100.345 264.636 100.748C264.185 101.332 263.488 101.674 262.75 101.674H225.28C217.728 101.674 211.606 95.5522 211.606 88C211.606 29.6477 260.693 0 325.479 0C389.381 0 434.046 38.6805 434.046 91.286V91.7281C434.046 129.303 416.578 154.722 360.415 208.654L290.631 274.902C290.293 275.223 290.101 275.669 290.101 276.136C290.101 277.075 290.862 277.837 291.802 277.837H418.91C429.956 277.837 438.91 286.791 438.91 297.837V304.474C438.91 315.52 429.956 324.474 418.91 324.474H234.701Z" fill="var(--fill-0, white)" fill-opacity="0.3"/>
<path d="M510.551 115.82C492.641 115.82 478.49 101.674 478.49 83.7709C478.49 65.8674 492.641 51.9424 510.551 51.9424C528.461 51.9424 542.392 65.8674 542.392 83.7709C542.392 101.674 528.461 115.82 510.551 115.82ZM510.551 278.058C492.641 278.058 478.49 263.912 478.49 246.008C478.49 228.104 492.641 214.18 510.551 214.18C528.461 214.18 542.392 228.104 542.392 246.008C542.392 263.912 528.461 278.058 510.551 278.058Z" fill="var(--fill-0, white)" fill-opacity="0.3"/>
<path d="M700.93 330C630.837 330 585.288 292.425 580.865 238.935C580.746 237.507 581.873 236.283 583.306 236.283H632.818C634.201 236.283 635.355 237.337 635.48 238.714C638.576 264.575 663.341 283.362 700.709 283.362C737.635 283.362 762.178 263.027 762.178 234.072V233.63C762.178 200.033 737.414 181.467 696.729 181.467H678.918C667.873 181.467 658.918 172.513 658.918 161.467V159.029C658.918 147.983 667.873 139.029 678.918 139.029H695.402C730.559 139.029 753.997 119.136 753.997 91.286V90.8439C753.997 62.1098 734.539 45.3115 700.267 45.3115C666.657 45.3115 643.662 62.7729 640.787 90.1808C640.662 91.4356 639.606 92.3912 638.345 92.3912H598.39C592.375 92.3912 587.499 87.515 587.499 81.5C592.142 27.5683 635.923 0 700.267 0C766.158 0 808.833 33.8178 808.833 83.3289V83.7709C808.833 123.159 780.345 149.403 742.348 157.488C742.051 157.551 741.836 157.813 741.836 158.117C741.836 158.448 742.092 158.725 742.422 158.757C789.191 163.353 820.11 191.155 820.11 235.178V235.62C820.11 291.098 771.465 330 700.93 330Z" fill="var(--fill-0, white)" fill-opacity="0.3"/>
<path d="M988.82 330C918.285 330 859.911 280.71 859.911 168.868V168.426C859.911 62.994 908.777 0 990.146 0C1048.97 0 1090.53 30.5911 1100.89 78.4742C1100.96 78.8216 1101 79.1791 1101 79.5345C1101 82.3625 1098.71 84.6551 1095.88 84.6551H1049.37C1048.05 84.6551 1046.85 83.8755 1046.31 82.6658C1037.91 60.7837 1018.23 46.6376 989.704 46.6376C938.406 46.6376 916.958 95.7066 914.747 156.048C914.54 159.154 914.527 162.261 914.526 165.549C914.526 165.917 914.824 166.216 915.193 166.216C915.459 166.216 915.699 166.058 915.806 165.814C928.527 136.837 960.274 114.936 1003.41 114.936C1064.88 114.936 1108 159.143 1108 219.042V219.484C1108 283.804 1057.59 330 988.82 330ZM924.255 220.368C924.255 255.733 952.336 283.362 987.935 283.362C1023.53 283.362 1051.84 255.954 1051.84 221.474V221.031C1051.84 184.782 1025.08 158.922 988.599 158.922C952.115 158.922 924.255 184.561 924.255 220.147V220.368Z" fill="var(--fill-0, white)" fill-opacity="0.3"/>
</g>
</svg>
