<svg preserveAspectRatio="none" width="100%" height="100%" overflow="visible" style="display: block;" viewBox="0 0 291.688 93.3125" fill="none" xmlns="http://www.w3.org/2000/svg">
<path id="Union" d="M257.812 0C276.438 0 288.5 9.5625 288.5 23.5625V23.6875C288.5 34.825 280.447 42.2459 269.707 44.532C269.623 44.5499 269.562 44.6241 269.562 44.7099C269.562 44.8035 269.635 44.8818 269.728 44.8909C282.948 46.1905 291.688 54.0519 291.688 66.5V66.625C291.688 82.3125 277.938 93.3125 258 93.3125C238.188 93.3125 225.312 82.6875 224.062 67.5625C224.029 67.1588 224.347 66.8125 224.753 66.8125H238.747C239.138 66.8125 239.465 67.1106 239.5 67.5C240.375 74.8125 247.375 80.125 257.938 80.125C268.375 80.125 275.312 74.375 275.312 66.1875V66.0625C275.312 56.5625 268.312 51.3125 256.812 51.3125H250.125C247.916 51.3125 246.125 49.5216 246.125 47.3125V43.3125C246.125 41.1034 247.916 39.3125 250.125 39.3125H256.438C266.375 39.3125 273 33.6875 273 25.8125V25.6875C273 17.5625 267.5 12.8125 257.812 12.8125C248.312 12.8125 241.812 17.75 241 25.5C240.965 25.8548 240.666 26.125 240.309 26.125H226.69C226.285 26.125 225.966 25.7787 226 25.375C227.312 10.125 239.625 0 257.812 0ZM39.5 87.75C39.5 89.9591 37.7091 91.75 35.5 91.75H27.6875C25.4784 91.75 23.6875 89.9591 23.6875 87.75V17.2237C23.6875 17.0656 23.5594 16.9375 23.4013 16.9375C23.3434 16.9375 23.287 16.955 23.2393 16.9877L6.26348 28.6387C3.60922 30.4604 0 28.56 0 25.3407V20.2027C0 18.9002 0.634167 17.6792 1.69975 16.9302L22.5274 2.29006C23.201 1.81658 24.0043 1.5625 24.8277 1.5625H35.5C37.7091 1.5625 39.5 3.35336 39.5 5.5625V87.75ZM99.25 87.75C99.25 89.9591 97.4591 91.75 95.25 91.75H87.4375C85.2284 91.75 83.4375 89.9591 83.4375 87.75V17.2237C83.4375 17.0656 83.3094 16.9375 83.1513 16.9375C83.0934 16.9375 83.037 16.955 82.9893 16.9877L66.0135 28.6387C63.3592 30.4604 59.75 28.56 59.75 25.3407V20.2027C59.75 18.9002 60.3842 17.6792 61.4497 16.9302L82.2774 2.29006C82.951 1.81658 83.7543 1.5625 84.5777 1.5625H95.25C97.4591 1.5625 99.25 3.35336 99.25 5.5625V87.75ZM181.375 0C199.438 0 212.062 10.9375 212.062 25.8125V25.9375C212.062 36.5625 207.125 43.75 191.25 59L171.525 77.7328C171.429 77.8236 171.375 77.9497 171.375 78.0815C171.375 78.3472 171.59 78.5625 171.856 78.5625H209.437C211.647 78.5625 213.438 80.3534 213.438 82.5625V87.75C213.438 89.9591 211.647 91.75 209.437 91.75H154.063C151.853 91.75 150.062 89.9591 150.062 87.75V82.4372C150.062 81.3584 150.498 80.3254 151.271 79.5725L181.938 49.6875C193.75 38.125 196.312 33.5625 196.312 26.875V26.75C196.25 18.6875 190.188 12.9375 181.5 12.9375C171.5 12.9375 164.5 19.625 164.312 28.3125C164.312 28.5541 164.117 28.75 163.875 28.75H149.625C149.383 28.75 149.188 28.5541 149.188 28.3125C149.188 11.8125 163.062 0 181.375 0ZM128.562 60.5625C133.625 60.5625 137.562 64.5 137.562 69.5625C137.562 74.625 133.625 78.625 128.562 78.625C123.5 78.625 119.5 74.625 119.5 69.5625C119.5 64.5 123.5 60.5625 128.562 60.5625ZM128.562 14.6875C133.625 14.6875 137.562 18.625 137.562 23.6875C137.562 28.75 133.625 32.75 128.562 32.75C123.5 32.75 119.5 28.75 119.5 23.6875C119.5 18.625 123.5 14.6875 128.562 14.6875Z" fill="var(--fill-0, white)" fill-opacity="0.4"/>
</svg>
