<svg width="24" height="24" viewBox="0 0 24 24" fill="none" xmlns="http://www.w3.org/2000/svg">
<g clip-path="url(#clip0_3446_4278)">
<path fill-rule="evenodd" clip-rule="evenodd" d="M12.0314 4.68735C12.4456 4.68735 12.7814 5.02313 12.7814 5.43735V21.2948C12.7814 21.709 12.4456 22.0448 12.0314 22.0448C11.6172 22.0448 11.2814 21.709 11.2814 21.2948V5.43735C11.2814 5.02313 11.6172 4.68735 12.0314 4.68735Z" fill="#F9F9F9"/>
<path fill-rule="evenodd" clip-rule="evenodd" d="M21.0264 13.3664C21.4281 13.4675 21.6718 13.8751 21.5707 14.2768L21.3471 15.1655C20.274 19.4304 16.4391 22.4199 12.0413 22.4199C7.60176 22.4199 3.74182 19.3745 2.70886 15.0568L2.52022 14.2683C2.42384 13.8654 2.67229 13.4607 3.07513 13.3643C3.47798 13.268 3.88268 13.5164 3.97905 13.9192L4.1677 14.7078C5.03919 18.3506 8.29574 20.9199 12.0413 20.9199C15.7517 20.9199 18.9871 18.3977 19.8924 14.7995L20.1161 13.9107C20.2171 13.5091 20.6247 13.2653 21.0264 13.3664Z" fill="#F9F9F9"/>
<path fill-rule="evenodd" clip-rule="evenodd" d="M1.36731 16.3566C1.00859 16.1495 0.885687 15.6908 1.09279 15.3321L2.25667 13.3162C2.56733 12.7781 3.25537 12.5938 3.79345 12.9044L5.80934 14.0683C6.16806 14.2754 6.29096 14.7341 6.08386 15.0928C5.87675 15.4516 5.41806 15.5745 5.05934 15.3674L3.36821 14.391L2.39183 16.0821C2.18473 16.4408 1.72603 16.5637 1.36731 16.3566Z" fill="#F9F9F9"/>
<path fill-rule="evenodd" clip-rule="evenodd" d="M18.2549 15.1347C18.0478 14.776 18.1707 14.3173 18.5294 14.1102L20.3492 13.0596C20.8872 12.7489 21.5753 12.9333 21.8859 13.4714L22.9366 15.2911C23.1437 15.6498 23.0208 16.1085 22.662 16.3156C22.3033 16.5227 21.8446 16.3998 21.6375 16.0411L20.7744 14.5461L19.2794 15.4092C18.9207 15.6164 18.462 15.4934 18.2549 15.1347Z" fill="#F9F9F9"/>
<path fill-rule="evenodd" clip-rule="evenodd" d="M8.24915 11.2498C8.24915 10.8356 8.58493 10.4998 8.99915 10.4998H14.9991C15.4134 10.4998 15.7491 10.8356 15.7491 11.2498C15.7491 11.664 15.4134 11.9998 14.9991 11.9998H8.99915C8.58493 11.9998 8.24915 11.664 8.24915 11.2498Z" fill="#F9F9F9"/>
<path fill-rule="evenodd" clip-rule="evenodd" d="M12.0314 4.68735C12.4456 4.68735 12.7814 5.02313 12.7814 5.43735V21.2948C12.7814 21.709 12.4456 22.0448 12.0314 22.0448C11.6172 22.0448 11.2814 21.709 11.2814 21.2948V5.43735C11.2814 5.02313 11.6172 4.68735 12.0314 4.68735Z" fill="#F9F9F9"/>
<path fill-rule="evenodd" clip-rule="evenodd" d="M12.796 3.04892H11.296V4.54892H12.796V3.04892ZM11.296 1.54892C10.4676 1.54892 9.79602 2.22049 9.79602 3.04892V4.54892C9.79602 5.37735 10.4676 6.04892 11.296 6.04892H12.796C13.6245 6.04892 14.296 5.37735 14.296 4.54892V3.04892C14.296 2.22049 13.6245 1.54892 12.796 1.54892H11.296Z" fill="#F9F9F9"/>
</g>
<defs>
<clipPath id="clip0_3446_4278">
<rect width="24" height="24" fill="white"/>
</clipPath>
</defs>
</svg>
