<svg width="24" height="24" viewBox="0 0 24 24" fill="none" xmlns="http://www.w3.org/2000/svg">
<path d="M6 15.75H2.25V2.25H8.25L10.5 4.5H18V8.25H15.75L13.5 10.5H6V15.75Z" fill="#7986A5"/>
<path d="M17.25 7.5V5.25H11.002C10.97 5.30499 10.9328 5.35817 10.8857 5.40527L10.2002 6.09082C9.77824 6.51275 9.2061 6.75 8.60938 6.75H3V15H5.25V11.25C5.25 10.4216 5.92157 9.75 6.75 9.75H13.1162L14.792 7.97168C15.0754 7.6709 15.4705 7.5 15.8838 7.5H17.25ZM6.75 21H21V12.75H15.3906C14.794 12.75 14.2217 12.5127 13.7998 12.0908L12.9697 11.2607C12.9663 11.2573 12.9633 11.2535 12.96 11.25H6.75V21ZM14.4014 10.5713L14.8604 11.0303C15.001 11.1708 15.1918 11.25 15.3906 11.25H21V9H15.8838L14.4014 10.5713ZM3 5.25H8.60938C8.80827 5.25 8.999 5.1709 9.13965 5.03027L9.59766 4.57129L8.11621 3H3V5.25ZM21 7.5C21.8284 7.5 22.5 8.17157 22.5 9V21C22.5 21.8284 21.8284 22.5 21 22.5H6.75C5.92157 22.5 5.25 21.8284 5.25 21V16.5H3C2.17157 16.5 1.5 15.8284 1.5 15V3C1.5 2.17157 2.17157 1.5 3 1.5H8.11621C8.52949 1.5 8.92458 1.6709 9.20801 1.97168L10.8838 3.75H17.25C18.0784 3.75 18.75 4.42157 18.75 5.25V7.5H21Z" fill="#F7F7F8"/>
</svg>
