<svg width="85" height="20" viewBox="0 0 85 20" fill="none" xmlns="http://www.w3.org/2000/svg">
<g clip-path="url(#clip0_3324_5691)">
<path d="M0 4C0 1.79086 1.79086 0 4 0H81C83.2091 0 85 1.79086 85 4V16C85 18.2091 83.2091 20 81 20H4C1.79086 20 0 18.2091 0 16V4Z" fill="#D0D9FB" fill-opacity="0.08"/>
<path fill-rule="evenodd" clip-rule="evenodd" d="M9.99994 12.1483C10.2759 12.1486 10.4999 12.3723 10.4999 12.6483V15.4042L11.5908 14.3133C11.7859 14.1182 12.1025 14.1184 12.2978 14.3133C12.4931 14.5086 12.4931 14.8251 12.2978 15.0204L10.5302 16.788C10.2373 17.0805 9.76246 17.0807 9.46967 16.788L7.70209 15.0204C7.50713 14.8252 7.5072 14.5086 7.70209 14.3133C7.89729 14.1182 8.21384 14.1183 8.40912 14.3133L9.49994 15.4042V12.6483C9.49994 12.3723 9.72399 12.1485 9.99994 12.1483ZM4.98237 7.70202C5.17765 7.507 5.49422 7.50684 5.6894 7.70202C5.88441 7.89721 5.88436 8.21382 5.6894 8.40905L4.59858 9.49987H7.25092C7.52692 9.50004 7.75092 9.72383 7.75092 9.99987C7.75085 10.2759 7.52688 10.4997 7.25092 10.4999H4.59858L5.6894 11.5907C5.88452 11.786 5.8846 12.1035 5.6894 12.2987C5.49429 12.4937 5.17763 12.4934 4.98237 12.2987L3.21479 10.5301C2.92189 10.2373 2.92189 9.76249 3.21479 9.4696L4.98237 7.70202ZM14.2724 7.70202C14.4677 7.50677 14.7842 7.5068 14.9794 7.70202L16.748 9.4696C17.0405 9.76246 17.0406 10.2374 16.748 10.5301L14.9794 12.2977C14.7842 12.4928 14.4676 12.4929 14.2724 12.2977C14.0774 12.1025 14.0774 11.7859 14.2724 11.5907L15.3632 10.4999H12.7499C12.4738 10.4999 12.25 10.276 12.2499 9.99987C12.2499 9.72373 12.4738 9.49987 12.7499 9.49987H15.3632L14.2724 8.40905C14.0773 8.21391 14.0775 7.8973 14.2724 7.70202ZM9.46967 3.21374C9.76253 2.92092 10.2373 2.92096 10.5302 3.21374L12.2978 4.98132C12.493 5.17658 12.493 5.49311 12.2978 5.68835C12.1025 5.8833 11.7859 5.88344 11.5908 5.68835L10.499 4.59655V7.3153C10.4986 7.5911 10.2749 7.8153 9.99897 7.8153C9.72327 7.81507 9.49937 7.59096 9.49897 7.3153V4.5985L8.40912 5.68835C8.21386 5.8833 7.89726 5.88344 7.70209 5.68835C7.50701 5.49318 7.50715 5.17657 7.70209 4.98132L9.46967 3.21374Z" fill="#F9F9F9"/>
<path d="M11.25 10C11.25 10.6904 10.6904 11.25 10 11.25C9.30964 11.25 8.75 10.6904 8.75 10C8.75 9.30964 9.30964 8.75 10 8.75C10.6904 8.75 11.25 9.30964 11.25 10Z" fill="#F9F9F9"/>
<path d="M26.352 14V7.04H26.184L24.348 8.18V6.86L26.364 5.6H27.54V14H26.352ZM34.7201 14.12C34.2321 14.12 33.7761 14.036 33.3521 13.868C32.9361 13.692 32.5681 13.448 32.2481 13.136L32.9441 12.272C33.1841 12.52 33.4561 12.712 33.7601 12.848C34.0641 12.984 34.3881 13.052 34.7321 13.052C35.0921 13.052 35.3881 12.988 35.6201 12.86C35.8521 12.724 35.9681 12.516 35.9681 12.236C35.9681 12.004 35.8921 11.832 35.7401 11.72C35.5881 11.6 35.3481 11.504 35.0201 11.432L34.1321 11.228C33.6601 11.116 33.2761 10.924 32.9801 10.652C32.6841 10.38 32.5361 10.004 32.5361 9.524C32.5361 8.916 32.7401 8.444 33.1481 8.108C33.5561 7.764 34.0921 7.592 34.7561 7.592C35.2201 7.592 35.6441 7.668 36.0281 7.82C36.4121 7.964 36.7481 8.18 37.0361 8.468L36.3401 9.308C36.1161 9.084 35.8681 8.92 35.5961 8.816C35.3321 8.712 35.0481 8.66 34.7441 8.66C34.5281 8.66 34.3401 8.692 34.1801 8.756C34.0281 8.812 33.9081 8.896 33.8201 9.008C33.7321 9.12 33.6881 9.252 33.6881 9.404C33.6881 9.604 33.7601 9.764 33.9041 9.884C34.0561 10.004 34.3001 10.104 34.6361 10.184L35.4281 10.376C35.7801 10.456 36.0841 10.568 36.3401 10.712C36.5961 10.856 36.7921 11.04 36.9281 11.264C37.0641 11.48 37.1321 11.756 37.1321 12.092C37.1321 12.724 36.9161 13.22 36.4841 13.58C36.0521 13.94 35.4641 14.12 34.7201 14.12ZM40.8586 14.12C40.4826 14.12 40.1386 14.052 39.8266 13.916C39.5226 13.78 39.2786 13.556 39.0946 13.244C38.9106 12.924 38.8186 12.496 38.8186 11.96V6.188H39.9706V11.96C39.9706 12.36 40.0706 12.64 40.2706 12.8C40.4706 12.96 40.7186 13.04 41.0146 13.04C41.1826 13.04 41.3386 13.028 41.4826 13.004C41.6266 12.98 41.7666 12.944 41.9026 12.896V13.952C41.7426 14 41.5706 14.04 41.3866 14.072C41.2026 14.104 41.0266 14.12 40.8586 14.12ZM37.7506 8.744V7.712H41.7706V8.744H37.7506ZM45.0114 14.12C44.3234 14.12 43.7914 13.912 43.4154 13.496C43.0394 13.08 42.8514 12.476 42.8514 11.684V7.712H44.0034V11.456C44.0034 12.008 44.1194 12.412 44.3514 12.668C44.5914 12.916 44.9274 13.04 45.3594 13.04C45.7274 13.04 46.0554 12.94 46.3434 12.74C46.6394 12.54 46.8754 12.284 47.0514 11.972V7.712H48.2034V14H47.0514V13.028L46.8834 12.98C46.7714 13.204 46.6234 13.404 46.4394 13.58C46.2634 13.748 46.0554 13.88 45.8154 13.976C45.5834 14.072 45.3154 14.12 45.0114 14.12ZM52.2824 14.12C51.7624 14.12 51.2984 14 50.8904 13.76C50.4824 13.52 50.1584 13.164 49.9184 12.692C49.6864 12.212 49.5704 11.628 49.5704 10.94C49.5704 10.196 49.7104 9.576 49.9904 9.08C50.2784 8.584 50.6624 8.212 51.1424 7.964C51.6224 7.716 52.1544 7.592 52.7384 7.592C52.9864 7.592 53.2424 7.62 53.5064 7.676C53.7704 7.732 54.0104 7.808 54.2264 7.904V5.48H55.3784V14H54.2264V13.148L54.0584 13.1C53.8584 13.46 53.6064 13.72 53.3024 13.88C52.9984 14.04 52.6584 14.12 52.2824 14.12ZM52.4744 13.028C52.8984 13.028 53.2464 12.944 53.5184 12.776C53.7904 12.6 54.0264 12.36 54.2264 12.056V8.984C54.0184 8.888 53.7944 8.816 53.5544 8.768C53.3224 8.712 53.0624 8.684 52.7744 8.684C52.3504 8.684 51.9864 8.776 51.6824 8.96C51.3864 9.136 51.1544 9.392 50.9864 9.728C50.8264 10.056 50.7464 10.46 50.7464 10.94C50.7464 11.348 50.8144 11.708 50.9504 12.02C51.0944 12.332 51.2984 12.58 51.5624 12.764C51.8264 12.94 52.1304 13.028 52.4744 13.028Z" fill="#BCBEC8"/>
<path d="M77 16L74.6119 13.6402C74.3728 13.4039 74.5422 13 74.8803 13L79.1197 13C79.4578 13 79.6272 13.4039 79.3881 13.6402L77 16Z" fill="#BCBEC8"/>
<path d="M77 4L79.3881 6.35983C79.6272 6.59607 79.4578 7 79.1197 7H74.8803C74.5422 7 74.3728 6.59607 74.6119 6.35984L77 4Z" fill="#BCBEC8"/>
</g>
<defs>
<clipPath id="clip0_3324_5691">
<path d="M0 4C0 1.79086 1.79086 0 4 0H81C83.2091 0 85 1.79086 85 4V16C85 18.2091 83.2091 20 81 20H4C1.79086 20 0 18.2091 0 16V4Z" fill="white"/>
</clipPath>
</defs>
</svg>
