<svg width="85" height="20" viewBox="0 0 85 20" fill="none" xmlns="http://www.w3.org/2000/svg">
<g clip-path="url(#clip0_3324_5720)">
<path d="M0 4C0 1.79086 1.79086 0 4 0H81C83.2091 0 85 1.79086 85 4V16C85 18.2091 83.2091 20 81 20H4C1.79086 20 0 18.2091 0 16V4Z" fill="#D0D9FB" fill-opacity="0.08"/>
<g clip-path="url(#clip1_3324_5720)">
<path d="M11.25 10C11.25 10.6904 10.6904 11.25 10 11.25C9.30964 11.25 8.75 10.6904 8.75 10C8.75 9.30964 9.30964 8.75 10 8.75C10.6904 8.75 11.25 9.30964 11.25 10Z" fill="#F9F9F9"/>
<path d="M10 3C12.4959 3 14.6864 4.30635 15.9258 6.27246V4.74902C15.9258 4.47304 16.1498 4.24925 16.4258 4.24902C16.7019 4.24902 16.9258 4.4729 16.9258 4.74902V7.24902C16.9258 7.66321 16.59 7.99902 16.1758 7.99902H13.6768C13.4006 7.99902 13.1768 7.77514 13.1768 7.49902C13.1768 7.22288 13.4006 6.99902 13.6768 6.99902H15.1943C14.1566 5.20673 12.22 4 10 4C6.68629 4 4 6.68629 4 10C4 13.1453 6.42023 15.7254 9.5 15.9795C9.77521 16.0022 10 16.2239 10 16.5C10 16.7761 9.77542 17.0018 9.5 16.9824C5.8674 16.726 3 13.6979 3 10C3 6.13401 6.13401 3 10 3ZM12.5938 15.3359C12.8414 15.214 13.1406 15.3159 13.2627 15.5635C13.3848 15.8111 13.2837 16.1112 13.0361 16.2334C12.9006 16.3002 12.7615 16.3622 12.6201 16.4209C12.4787 16.4796 12.3364 16.5332 12.1934 16.582C11.932 16.6712 11.6478 16.5318 11.5586 16.2705C11.4696 16.0093 11.609 15.725 11.8701 15.6357C11.9928 15.5939 12.1158 15.5485 12.2373 15.498C12.3587 15.4476 12.4776 15.3932 12.5938 15.3359ZM14.915 13.2969C15.068 13.0671 15.3786 13.0053 15.6084 13.1582C15.8383 13.3112 15.9011 13.6217 15.748 13.8516C15.58 14.1039 15.3944 14.3462 15.1934 14.5762C15.0115 14.7836 14.696 14.8047 14.4883 14.623C14.2804 14.4413 14.2597 14.1259 14.4414 13.918C14.6135 13.7211 14.7711 13.5131 14.915 13.2969ZM16.4395 9.90137C16.715 9.91943 16.9243 10.158 16.9062 10.4336C16.8863 10.7384 16.8463 11.0405 16.7871 11.3379C16.7332 11.6085 16.4699 11.7841 16.1992 11.7305C15.9284 11.6766 15.7519 11.4133 15.8057 11.1426C15.8564 10.8878 15.8911 10.6291 15.9082 10.3682C15.9263 10.0927 16.164 9.88348 16.4395 9.90137Z" fill="#F9F9F9"/>
</g>
<path d="M25.848 10.916H30.684V12.044H24.504L24.348 10.892L28.416 5.6H29.604V14H28.416V7.568H28.236L25.812 10.748L25.848 10.916ZM34.4616 14.12C34.0296 14.12 33.6296 14.06 33.2616 13.94C32.8936 13.812 32.5696 13.636 32.2896 13.412C32.0176 13.188 31.8016 12.936 31.6416 12.656L32.5176 11.888C32.7656 12.232 33.0496 12.492 33.3696 12.668C33.6896 12.844 34.0576 12.932 34.4736 12.932C34.7536 12.932 35.0216 12.88 35.2776 12.776C35.5336 12.664 35.7416 12.484 35.9016 12.236C36.0616 11.988 36.1416 11.664 36.1416 11.264C36.1416 10.864 36.0616 10.544 35.9016 10.304C35.7496 10.064 35.5416 9.892 35.2776 9.788C35.0216 9.676 34.7336 9.62 34.4136 9.62C34.1336 9.62 33.8896 9.66 33.6816 9.74C33.4736 9.812 33.2816 9.9 33.1056 10.004L32.0976 9.848L32.4576 5.6H36.9696V6.716H33.4776L33.3096 8.612L33.3816 8.768C33.5576 8.656 33.7456 8.576 33.9456 8.528C34.1536 8.48 34.3736 8.456 34.6056 8.456C35.1256 8.456 35.5976 8.56 36.0216 8.768C36.4456 8.976 36.7816 9.284 37.0296 9.692C37.2856 10.1 37.4096 10.612 37.4016 11.228C37.4016 11.812 37.2816 12.324 37.0416 12.764C36.8096 13.196 36.4736 13.532 36.0336 13.772C35.5936 14.004 35.0696 14.12 34.4616 14.12ZM40.025 9.128C39.641 9.128 39.305 9.044 39.017 8.876C38.737 8.708 38.521 8.484 38.369 8.204C38.225 7.924 38.153 7.624 38.153 7.304C38.153 6.976 38.225 6.676 38.369 6.404C38.521 6.124 38.737 5.9 39.017 5.732C39.305 5.564 39.641 5.48 40.025 5.48C40.425 5.48 40.765 5.564 41.045 5.732C41.325 5.9 41.537 6.124 41.681 6.404C41.833 6.676 41.909 6.976 41.909 7.304C41.909 7.624 41.833 7.924 41.681 8.204C41.537 8.484 41.325 8.708 41.045 8.876C40.765 9.044 40.425 9.128 40.025 9.128ZM40.025 8.216C40.225 8.216 40.397 8.176 40.541 8.096C40.685 8.008 40.793 7.896 40.865 7.76C40.937 7.616 40.973 7.464 40.973 7.304C40.973 7.144 40.937 6.996 40.865 6.86C40.793 6.716 40.685 6.604 40.541 6.524C40.397 6.436 40.225 6.392 40.025 6.392C39.833 6.392 39.665 6.436 39.521 6.524C39.385 6.604 39.277 6.716 39.197 6.86C39.125 6.996 39.089 7.144 39.089 7.304C39.089 7.464 39.125 7.616 39.197 7.76C39.277 7.896 39.385 8.008 39.521 8.096C39.665 8.176 39.833 8.216 40.025 8.216Z" fill="#BCBEC8"/>
<path d="M77 16L74.6119 13.6402C74.3728 13.4039 74.5422 13 74.8803 13L79.1197 13C79.4578 13 79.6272 13.4039 79.3881 13.6402L77 16Z" fill="#BCBEC8"/>
<path d="M77 4L79.3881 6.35983C79.6272 6.59607 79.4578 7 79.1197 7H74.8803C74.5422 7 74.3728 6.59607 74.6119 6.35984L77 4Z" fill="#BCBEC8"/>
</g>
<defs>
<clipPath id="clip0_3324_5720">
<path d="M0 4C0 1.79086 1.79086 0 4 0H81C83.2091 0 85 1.79086 85 4V16C85 18.2091 83.2091 20 81 20H4C1.79086 20 0 18.2091 0 16V4Z" fill="white"/>
</clipPath>
<clipPath id="clip1_3324_5720">
<rect width="16" height="16" fill="white" transform="translate(2 2)"/>
</clipPath>
</defs>
</svg>
