<svg width="24" height="24" viewBox="0 0 24 24" fill="none" xmlns="http://www.w3.org/2000/svg">
<g clip-path="url(#clip0_3446_4177)">
<path d="M7.55092 4.59592C7.52935 5.9435 5.86407 7.18483 4.63477 7.54371L15.1118 7.42509C15.265 6.48969 15.7059 5.65306 16.3395 5.00724L5.3892 1.68182C6.33652 2.19881 7.5694 3.44196 7.55092 4.59592Z" fill="#F87935"/>
<path d="M11.25 17.6243C10.988 17.5446 9.38372 16.6618 9.0963 16.6572C7.43965 16.6307 6.07518 17.9521 6.04866 19.6088C6.04626 19.7589 6.05493 19.9066 6.07391 20.0511L2.94352 8.64892C3.42525 8.82967 3.94856 8.92894 4.49793 8.92876L5.7118 8.92837L10.2469 16.1829L11.25 17.6243Z" fill="#F87935"/>
<path d="M2.34961 6.48562L2.34994 6.48682C2.87978 7.06303 3.64062 7.42903 4.49745 7.42876C3.64016 7.42903 2.87948 7.06237 2.34961 6.48562Z" fill="#F87935"/>
<path d="M21.4647 10.4652C20.9792 10.7842 20.1303 11.1678 19.5057 11.1578C18.1308 11.1358 17.2822 7.94692 16.9479 6.67962L15.8449 8.92519L11.937 16.2059C12.6384 16.7937 13.1572 17.5908 13.3984 18.4994L21.4647 10.4652Z" fill="#F87935"/>
<path fill-rule="evenodd" clip-rule="evenodd" d="M7.55236 4.596C7.52584 6.25264 6.16137 7.57412 4.50473 7.5476C2.84809 7.52108 1.52661 6.15661 1.55313 4.49997C1.57964 2.84332 2.94412 1.52185 4.60076 1.54837C6.2574 1.57488 7.57888 2.93935 7.55236 4.596ZM6.05255 4.57199C6.03929 5.40031 5.35706 6.06105 4.52874 6.04779C3.70041 6.03453 3.03968 5.3523 3.05293 4.52397C3.06619 3.69565 3.74843 3.03491 4.57675 3.04817C5.40507 3.06143 6.06581 3.74367 6.05255 4.57199Z" fill="#F9F9F9"/>
<path fill-rule="evenodd" clip-rule="evenodd" d="M19.5055 11.1577C21.1621 11.1842 22.5266 9.86275 22.5531 8.2061C22.5796 6.54946 21.2581 5.18499 19.6015 5.15847C17.9448 5.13196 16.5804 6.45343 16.5539 8.11007C16.5273 9.76672 17.8488 11.1312 19.5055 11.1577ZM19.5295 9.6579C20.3578 9.67116 21.04 9.01042 21.0533 8.1821C21.0665 7.35378 20.4058 6.67154 19.5775 6.65828C18.7492 6.64502 18.0669 7.30576 18.0537 8.13408C18.0404 8.9624 18.7011 9.64464 19.5295 9.6579Z" fill="#F9F9F9"/>
<path fill-rule="evenodd" clip-rule="evenodd" d="M9.00029 22.6562C10.6569 22.6827 12.0214 21.3612 12.0479 19.7046C12.0744 18.0479 10.753 16.6835 9.09632 16.657C7.43968 16.6304 6.0752 17.9519 6.04869 19.6086C6.02217 21.2652 7.34365 22.6297 9.00029 22.6562ZM9.02429 21.1564C9.85262 21.1696 10.5349 20.5089 10.5481 19.6806C10.5614 18.8523 9.90063 18.17 9.07231 18.1568C8.24399 18.1435 7.56175 18.8042 7.54849 19.6326C7.53524 20.4609 8.19597 21.1431 9.02429 21.1564Z" fill="#F9F9F9"/>
</g>
<defs>
<clipPath id="clip0_3446_4177">
<rect width="24" height="24" fill="white"/>
</clipPath>
</defs>
</svg>
