<svg width="24" height="24" viewBox="0 0 24 24" fill="none" xmlns="http://www.w3.org/2000/svg">
<g clip-path="url(#clip0_3446_3919)">
<path fill-rule="evenodd" clip-rule="evenodd" d="M12 21C16.9706 21 21 16.9706 21 12C21 7.02944 16.9706 3 12 3C7.02944 3 3 7.02944 3 12C3 16.9706 7.02944 21 12 21ZM12 22.5C17.799 22.5 22.5 17.799 22.5 12C22.5 6.20101 17.799 1.5 12 1.5C6.20101 1.5 1.5 6.20101 1.5 12C1.5 17.799 6.20101 22.5 12 22.5Z" fill="#F9F9F9"/>
<path fill-rule="evenodd" clip-rule="evenodd" d="M5.4342 18.1555L12.0001 12L3 12C3 14.3809 3.92454 16.5459 5.4342 18.1555Z" fill="#7644FD"/>
<path d="M12.0003 21V12L5.43457 18.1554C7.07651 19.9061 9.41066 20.9999 12.0003 21Z" fill="#3C64FA"/>
<path d="M18.364 18.364C16.7353 19.9926 14.4853 21 12 21V12L18.364 18.364Z" fill="#42DAF5"/>
<path d="M21 12L12 12L18.364 18.364C19.9926 16.7353 21 14.4853 21 12Z" fill="#0FB369"/>
<path d="M18.364 5.63604L12 12H21C21 12 21 12 21 12C21 9.51473 19.9926 7.26472 18.364 5.63604Z" fill="#F5C73D"/>
<path d="M18.364 5.63604L12 12V3C14.4853 3 16.7353 4.00736 18.364 5.63604Z" fill="#F87935"/>
<path d="M5.43457 5.84464L12.0003 12L12.0003 3C9.41066 3.00008 7.07651 4.09387 5.43457 5.84464Z" fill="#E8457E"/>
<path d="M3 12L12 12L5.43413 5.84452C3.92451 7.45414 3 9.61913 3 12V12Z" fill="#E26CF4"/>
</g>
<defs>
<clipPath id="clip0_3446_3919">
<rect width="24" height="24" fill="white"/>
</clipPath>
</defs>
</svg>
