<svg width="24" height="24" viewBox="0 0 24 24" fill="none" xmlns="http://www.w3.org/2000/svg">
<g clip-path="url(#clip0_3446_4029)">
<rect x="2.47412" y="2.39062" width="5.67188" height="5.67188" fill="#5C6A88"/>
<path d="M7.875 1.5C8.49632 1.5 9 2.00368 9 2.625V7.875C9 8.45742 8.55742 8.93643 7.99023 8.99414L7.875 9H6V12.75H18V12.375C18 11.7537 18.5037 11.25 19.125 11.25H21.375C21.9963 11.25 22.5 11.7537 22.5 12.375V14.625C22.5 15.2463 21.9963 15.75 21.375 15.75H19.125C18.5037 15.75 18 15.2463 18 14.625V14.25H6V19.5H18V19.125C18 18.5037 18.5037 18 19.125 18H21.375C21.9963 18 22.5 18.5037 22.5 19.125V21.375C22.5 21.9963 21.9963 22.5 21.375 22.5H19.125C18.5037 22.5 18 21.9963 18 21.375V21H5.25C4.83579 21 4.5 20.6642 4.5 20.25V9H2.625L2.50977 8.99414C1.98047 8.94029 1.55971 8.51953 1.50586 7.99023L1.5 7.875V2.625C1.5 2.00368 2.00368 1.5 2.625 1.5H7.875ZM3 7.5H7.5V3H3V7.5ZM21.75 4.5C22.1642 4.5 22.5 4.83579 22.5 5.25C22.5 5.66421 22.1642 6 21.75 6H12C11.5858 6 11.25 5.66421 11.25 5.25C11.25 4.83579 11.5858 4.5 12 4.5H21.75Z" fill="#F9F9F9"/>
</g>
<defs>
<clipPath id="clip0_3446_4029">
<rect width="24" height="24" fill="white"/>
</clipPath>
</defs>
</svg>
