<svg width="16" height="16" viewBox="0 0 16 16" fill="none" xmlns="http://www.w3.org/2000/svg">
<path fill-rule="evenodd" clip-rule="evenodd" d="M5 15C3.89543 15 3 14.1046 3 13V3.19765C3 2.80822 3.11369 2.42727 3.32712 2.10154L3.45662 1.90389C3.82621 1.33983 4.45515 1 5.12951 1H9.52502C10.043 1 10.5407 1.20093 10.9135 1.5605L13.3885 3.94774C13.7793 4.32467 14 4.84429 14 5.38723V13C14 14.1046 13.1046 15 12 15H5ZM4 13C4 13.5523 4.44772 14 5 14H12C12.5523 14 13 13.5523 13 13V5.5H10.5C9.94772 5.5 9.5 5.05228 9.5 4.5V2H5.12951C4.79233 2 4.47786 2.16992 4.29306 2.45194L4.16356 2.64959C4.05684 2.81246 4 3.00294 4 3.19765V13ZM10.5 2.55104V4.5H12.5206L10.5 2.55104Z" fill="#F9F9F9"/>
</svg>
