<svg width="24" height="24" viewBox="0 0 24 24" fill="none" xmlns="http://www.w3.org/2000/svg">
<g clip-path="url(#clip0_3446_3897)">
<path fill-rule="evenodd" clip-rule="evenodd" d="M10.876 4.87476C11.5721 4.47306 12.43 4.47291 13.126 4.87476L17.626 7.47339L17.7529 7.55249C18.3737 7.96818 18.7509 8.66805 18.751 9.42163V14.6189L18.7461 14.7683C18.6963 15.5136 18.2785 16.1904 17.626 16.5671L13.126 19.1658L12.9932 19.2361C12.3676 19.5437 11.6334 19.5437 11.0078 19.2361L10.876 19.1658L6.375 16.5671C5.72245 16.1904 5.30465 15.5136 5.25488 14.7683L5.25 14.6189V9.42163C5.25005 8.61794 5.67904 7.87532 6.375 7.47339L10.876 4.87476ZM6.75 14.6189C6.7503 14.8865 6.8932 15.1345 7.125 15.2683L11.251 17.6492V12.4578L6.75 9.85425V14.6189ZM12.751 12.4597V17.6492L16.876 15.2683C17.1078 15.1345 17.2507 14.8865 17.251 14.6189V9.85229L12.751 12.4597ZM12.2861 6.12964C12.073 6.04185 11.8289 6.05664 11.626 6.17358L7.49805 8.55542L12.002 11.1599L16.498 8.55444L12.376 6.17358L12.2861 6.12964Z" fill="#F9F9F9"/>
<path d="M1.5 5.39197V2.06246C1.5 1.7518 1.75184 1.49996 2.0625 1.49996H5.392C5.89314 1.49996 6.14411 2.10585 5.78975 2.46021L2.46025 5.78971C2.10589 6.14407 1.5 5.8931 1.5 5.39197Z" fill="#F9F9F9"/>
<path d="M22.5 18.608V21.9375C22.5 22.2481 22.2482 22.5 21.9375 22.5H18.608C18.1069 22.5 17.8559 21.8941 18.2102 21.5397L21.5398 18.2102C21.8941 17.8559 22.5 18.1068 22.5 18.608Z" fill="#F9F9F9"/>
<path d="M18.608 1.49996L21.9375 1.49996C22.2482 1.49996 22.5 1.7518 22.5 2.06246V5.39197C22.5 5.8931 21.8941 6.14407 21.5398 5.78971L18.2102 2.46021C17.8559 2.10585 18.1069 1.49996 18.608 1.49996Z" fill="#F9F9F9"/>
<path d="M5.392 22.5H2.0625C1.75184 22.5 1.5 22.2481 1.5 21.9375L1.5 18.608C1.5 18.1068 2.10589 17.8559 2.46025 18.2102L5.78975 21.5397C6.14411 21.8941 5.89314 22.5 5.392 22.5Z" fill="#F9F9F9"/>
</g>
<defs>
<clipPath id="clip0_3446_3897">
<rect width="24" height="24" fill="white"/>
</clipPath>
</defs>
</svg>
