<svg width="24" height="24" viewBox="0 0 24 24" fill="none" xmlns="http://www.w3.org/2000/svg">
<g clip-path="url(#clip0_3446_4100)">
<path d="M1.39258 2.62524C1.39258 2.00392 1.89626 1.50024 2.51758 1.50024H4.01758C4.50741 1.50024 4.92412 1.8133 5.07856 2.25024H7.39453C7.80874 2.25024 8.14453 2.58603 8.14453 3.00024C8.14453 3.41446 7.80874 3.75024 7.39453 3.75024H5.14258V4.12524C5.14258 4.74656 4.6389 5.25024 4.01758 5.25024H3.64453V7.50024C3.64453 7.91446 3.30874 8.25024 2.89453 8.25024C2.48032 8.25024 2.14453 7.91446 2.14453 7.50024V5.18692C1.70656 5.03303 1.39258 4.61581 1.39258 4.12524V2.62524Z" fill="#F9F9F9"/>
<path d="M10.3945 3.75024C9.98032 3.75024 9.64453 3.41446 9.64453 3.00024C9.64453 2.58603 9.98032 2.25024 10.3945 2.25024H13.3945C13.8087 2.25024 14.1445 2.58603 14.1445 3.00024C14.1445 3.41446 13.8087 3.75024 13.3945 3.75024H10.3945Z" fill="#F9F9F9"/>
<path d="M20.8945 8.25024C20.4803 8.25024 20.1445 7.91446 20.1445 7.50024V5.25024H19.7676C19.1463 5.25024 18.6426 4.74656 18.6426 4.12524V3.75024H16.3945C15.9803 3.75024 15.6445 3.41446 15.6445 3.00024C15.6445 2.58603 15.9803 2.25024 16.3945 2.25024H18.7066C18.861 1.8133 19.2777 1.50024 19.7676 1.50024H21.2676C21.8889 1.50024 22.3926 2.00392 22.3926 2.62524V4.12524C22.3926 4.61435 22.0805 5.03055 21.6445 5.18554V7.50024C21.6445 7.91446 21.3087 8.25024 20.8945 8.25024Z" fill="#F9F9F9"/>
<path d="M20.8945 14.2502C20.4803 14.2502 20.1445 13.9145 20.1445 13.5002V10.5002C20.1445 10.086 20.4803 9.75025 20.8945 9.75025C21.3087 9.75025 21.6445 10.086 21.6445 10.5002V13.5002C21.6445 13.9145 21.3087 14.2502 20.8945 14.2502Z" fill="#F9F9F9"/>
<path d="M15.6445 21.0002C15.6445 20.586 15.9803 20.2502 16.3945 20.2502H18.6426V19.8752C18.6426 19.2539 19.1463 18.7502 19.7676 18.7502H20.1445V16.5002C20.1445 16.086 20.4803 15.7502 20.8945 15.7502C21.3087 15.7502 21.6445 16.086 21.6445 16.5002V18.815C22.0805 18.9699 22.3926 19.3861 22.3926 19.8752V21.3752C22.3926 21.9966 21.8889 22.5002 21.2676 22.5002H19.7676C19.2777 22.5002 18.861 22.1872 18.7066 21.7502H16.3945C15.9803 21.7502 15.6445 21.4145 15.6445 21.0002Z" fill="#F9F9F9"/>
<path d="M9.64453 21.0002C9.64453 20.586 9.98032 20.2502 10.3945 20.2502H13.3945C13.8087 20.2502 14.1445 20.586 14.1445 21.0002C14.1445 21.4145 13.8087 21.7502 13.3945 21.7502H10.3945C9.98032 21.7502 9.64453 21.4145 9.64453 21.0002Z" fill="#F9F9F9"/>
<path d="M2.89453 15.7502C3.30874 15.7502 3.64453 16.086 3.64453 16.5002V18.7502H4.01758C4.6389 18.7502 5.14258 19.2539 5.14258 19.8752V20.2502H7.39453C7.80874 20.2502 8.14453 20.586 8.14453 21.0002C8.14453 21.4145 7.80874 21.7502 7.39453 21.7502H5.07856C4.92412 22.1872 4.50741 22.5002 4.01758 22.5002H2.51758C1.89626 22.5002 1.39258 21.9966 1.39258 21.3752V19.8752C1.39258 19.3847 1.70656 18.9675 2.14453 18.8136V16.5002C2.14453 16.086 2.48032 15.7502 2.89453 15.7502Z" fill="#F9F9F9"/>
<path d="M2.89453 9.75024C3.30874 9.75024 3.64453 10.086 3.64453 10.5002V13.5002C3.64453 13.9145 3.30874 14.2502 2.89453 14.2502C2.48032 14.2502 2.14453 13.9145 2.14453 13.5002V10.5002C2.14453 10.086 2.48032 9.75024 2.89453 9.75024Z" fill="#F9F9F9"/>
<path d="M9.75 10.8752C9.75 10.2539 10.2537 9.75024 10.875 9.75024H16.875C17.4963 9.75024 18 10.2539 18 10.8752V16.8752C18 17.4966 17.4963 18.0002 16.875 18.0002H10.875C10.2537 18.0002 9.75 17.4966 9.75 16.8752V10.8752Z" fill="#F9F9F9"/>
<path d="M13.125 6C14.1605 6 15 6.83947 15 7.875V8.25H10.875C9.42525 8.25 8.25 9.42525 8.25 10.875V15H7.875C6.83947 15 6 14.1605 6 13.125V7.875C6 6.83947 6.83947 6 7.875 6H13.125Z" fill="#5C6A88"/>
</g>
<defs>
<clipPath id="clip0_3446_4100">
<rect width="24" height="24" fill="white"/>
</clipPath>
</defs>
</svg>
