<svg width="24" height="24" viewBox="0 0 24 24" fill="none" xmlns="http://www.w3.org/2000/svg">
<g clip-path="url(#clip0_3446_4206)">
<path d="M12 12L3.75 7.125L12 2.25L20.625 7.125L12 12Z" fill="#7986A5"/>
<path d="M18.4017 23.2108C18.6945 23.5037 19.1694 23.5037 19.4623 23.2108C19.7552 22.9179 19.7552 22.4431 19.4623 22.1502L17.5607 20.2485L23.2471 20.2485C23.6613 20.2485 23.9971 19.9127 23.9971 19.4985C23.9971 19.0843 23.6613 18.7485 23.2471 18.7485L17.5606 18.7485C17.5606 18.7485 17.5607 18.7485 17.5606 18.7485L19.4623 16.8469C19.7552 16.554 19.7552 16.0791 19.4623 15.7862C19.1694 15.4933 18.6945 15.4933 18.4017 15.7862L15.2197 18.9682C14.9268 19.2611 14.9268 19.7359 15.2197 20.0288L18.4017 23.2108Z" fill="#F7F7F8"/>
<path fill-rule="evenodd" clip-rule="evenodd" d="M11.9999 19.9653C12.414 19.9653 12.7497 20.3012 12.7499 20.7153V21.4917C12.7499 21.9059 12.4141 22.2417 11.9999 22.2417C11.5857 22.2417 11.2499 21.9059 11.2499 21.4917V20.7153C11.25 20.3012 11.5857 19.9653 11.9999 19.9653ZM11.9999 15.3012C12.4139 15.3012 12.7496 15.6373 12.7499 16.0512V17.6059C12.7499 18.0201 12.4141 18.3559 11.9999 18.3559C11.5857 18.3559 11.2499 18.0201 11.2499 17.6059V16.0512C11.2502 15.6373 11.5859 15.3012 11.9999 15.3012ZM3.03211 6.84616C3.23948 6.48801 3.69814 6.36481 4.05652 6.57175L12.0126 11.1723L19.8729 6.89499C20.2365 6.69739 20.6924 6.83144 20.8905 7.19479C21.0885 7.5585 20.9533 8.01425 20.5897 8.21237L12.7499 12.4799V12.9428C12.7498 13.357 12.414 13.6928 11.9999 13.6928C11.5857 13.6928 11.25 13.357 11.2499 12.9428V12.4633L3.30652 7.87057C2.94811 7.66328 2.82509 7.20466 3.03211 6.84616Z" fill="#F7F7F8"/>
<path d="M10.8757 1.85582C11.5719 1.4539 12.4296 1.4539 13.1257 1.85582L20.2456 5.96618L20.373 6.04601C20.9936 6.46175 21.3706 7.16164 21.3706 7.91515V12.7499C21.3706 13.1641 21.0348 13.4999 20.6206 13.4999C20.2064 13.4999 19.8706 13.1641 19.8706 12.7499V7.91515C19.8706 7.64723 19.7276 7.39948 19.4956 7.26549L12.3757 3.15441C12.1438 3.02051 11.8577 3.02056 11.6257 3.15441L4.50586 7.26549C4.27383 7.39947 4.13086 7.64721 4.13086 7.91515V16.1366C4.13096 16.4044 4.27389 16.6523 4.50586 16.7862L11.6257 20.8966C11.8578 21.0305 12.1437 21.0305 12.3757 20.8966C12.5423 20.8003 12.7507 20.9205 12.7507 21.113V21.8789C12.7507 22.1721 12.5665 22.4441 12.2755 22.4799C11.8465 22.5327 11.4056 22.4616 11.0083 22.2662L10.8757 22.1959L3.75586 18.0848C3.10316 17.708 2.68559 17.0315 2.63599 16.286L2.63086 16.1366V7.91515C2.63086 7.11132 3.05973 6.3681 3.75586 5.96618L10.8757 1.85582Z" fill="#F7F7F8"/>
</g>
<defs>
<clipPath id="clip0_3446_4206">
<rect width="24" height="24" fill="white"/>
</clipPath>
</defs>
</svg>
