<svg width="24" height="24" viewBox="0 0 24 24" fill="none" xmlns="http://www.w3.org/2000/svg">
<g clip-path="url(#clip0_3446_3948)">
<path fill-rule="evenodd" clip-rule="evenodd" d="M3 16.9976C3 15.9932 3.92322 15.2426 4.90652 15.4476L9.23622 16.3502C11.0551 16.7294 12.9326 16.729 14.7513 16.3492L19.0852 15.4441C20.0671 15.239 20.9898 15.9872 20.992 16.9903L20.9927 17.2828C20.9968 19.1401 19.6803 20.7382 17.8566 21.0897C13.9878 21.8353 10.0091 21.8348 6.14033 21.0891C4.31828 20.7379 3 19.143 3 17.2874V16.9976Z" fill="#5C6A88"/>
<path d="M12 14.2498C13.0355 14.2498 13.875 15.0892 13.875 16.1248C13.875 17.1603 13.0355 17.9998 12 17.9998C10.9645 17.9998 10.125 17.1603 10.125 16.1248C10.125 15.0892 10.9645 14.2498 12 14.2498Z" fill="#F9F9F9"/>
<path fill-rule="evenodd" clip-rule="evenodd" d="M13.5 1.49976C15.1569 1.49976 16.5 2.8429 16.5 4.49976V9.74292H18.7393C19.9812 9.74244 20.9888 10.749 20.9902 11.991L20.998 19.071C20.999 19.8714 20.5124 20.5915 19.7695 20.8894C14.7827 22.8893 9.21531 22.8892 4.22852 20.8894C3.4866 20.5917 3.00019 19.8724 3 19.073V11.9988C3 10.7565 4.00677 9.74932 5.24902 9.74878L7.5 9.74683V4.49976C7.5 2.8429 8.84315 1.49976 10.5 1.49976H13.5ZM5.25 11.2488C4.8359 11.2489 4.5 11.5847 4.5 11.9988V19.073C4.50019 19.2594 4.61379 19.4272 4.78711 19.4968C9.41551 21.3529 14.5827 21.3537 19.2109 19.4978C19.3844 19.4283 19.4982 19.2598 19.498 19.073L19.4902 11.9929C19.4898 11.579 19.1541 11.2429 18.7402 11.2429L5.25 11.2488ZM10.5 2.99976C9.67157 2.99976 9 3.67133 9 4.49976V9.74683L15 9.7439V4.49976C15 3.67133 14.3284 2.99976 13.5 2.99976H10.5Z" fill="#F9F9F9"/>
</g>
<defs>
<clipPath id="clip0_3446_3948">
<rect width="24" height="24" fill="white"/>
</clipPath>
</defs>
</svg>
