<svg width="24" height="24" viewBox="0 0 24 24" fill="none" xmlns="http://www.w3.org/2000/svg">
<g clip-path="url(#clip0_3446_4228)">
<path d="M16.6177 2.56934C20.102 4.27788 22.5005 7.86049 22.5005 12.0029C22.5005 17.8019 17.7995 22.5029 12.0005 22.5029C9.72566 22.5028 7.61935 21.7793 5.89995 20.5498L6.56304 19.4629C9.96693 20.3361 14.0957 18.2544 16.4087 14.248C16.7643 13.6321 17.0573 13.0011 17.2925 12.3662C17.0132 12.4752 16.6847 12.4115 16.4693 12.1777C16.272 11.9637 16.2262 11.9288 16.0054 11.7178C15.7061 11.4315 15.6958 10.9566 15.982 10.6572C16.2682 10.358 16.7432 10.3476 17.0425 10.6338C17.2853 10.8659 17.3526 10.9241 17.5718 11.1621C17.5987 11.1913 17.6227 11.222 17.6441 11.2539C18.4186 8.28995 17.9227 5.35204 16.2935 3.43457L16.6177 2.56934Z" fill="#5C6A88"/>
<path d="M12.8912 8.50293C13.1065 8.14911 13.5686 8.03756 13.9224 8.25293C14.061 8.33731 14.1995 8.4238 14.3375 8.5127C14.4756 8.60173 14.4932 8.63997 14.6275 8.73145C14.9697 8.96459 15.0578 9.43112 14.8248 9.77344C14.5916 10.1158 14.1251 10.2048 13.7828 9.97168C13.659 9.8874 13.6524 9.85556 13.525 9.77344C13.3977 9.69143 13.2699 9.61193 13.1421 9.53418C12.7883 9.31881 12.6758 8.85675 12.8912 8.50293Z" fill="#5C6A88"/>
<path d="M9.41167 7.06445C9.54134 6.67108 9.96556 6.45728 10.3589 6.58691C10.6664 6.68826 10.8116 6.7351 11.1236 6.86035C11.508 7.01465 11.6948 7.45156 11.5406 7.83594C11.3863 8.22022 10.9493 8.40699 10.565 8.25293C10.2815 8.13914 10.1658 8.10289 9.88921 8.01172C9.49596 7.88202 9.28215 7.45775 9.41167 7.06445Z" fill="#5C6A88"/>
<path d="M7.20464 5.97754C7.61776 6.00513 7.93028 6.36221 7.90288 6.77539C7.87533 7.18856 7.51824 7.50103 7.10503 7.47363C6.80675 7.45386 6.73167 7.45758 6.46636 7.47363C6.0529 7.49866 5.69744 7.18396 5.67242 6.77051C5.64739 6.35705 5.96208 6.00159 6.37554 5.97656C6.71 5.95632 6.84901 5.95396 7.20464 5.97754Z" fill="#5C6A88"/>
<path d="M16.4453 17.1309C16.7438 17.1507 16.8193 17.1469 17.085 17.1309C17.4984 17.1059 17.8539 17.4215 17.8789 17.835C17.9037 18.2482 17.589 18.6038 17.1758 18.6289C16.8412 18.6492 16.7023 18.6515 16.3467 18.6279C15.9334 18.6005 15.6201 18.2434 15.6475 17.8301C15.6749 17.4169 16.0322 17.1037 16.4453 17.1309Z" fill="#F9F9F9"/>
<path d="M12.0107 16.7695C12.165 16.3851 12.6019 16.1982 12.9863 16.3525C13.2696 16.4662 13.3847 16.5026 13.6611 16.5938C14.0545 16.7234 14.2683 17.1476 14.1387 17.541C14.0089 17.9343 13.5847 18.1482 13.1914 18.0186C12.8841 17.9173 12.7387 17.8703 12.4268 17.7451C12.0426 17.5908 11.8566 17.1538 12.0107 16.7695Z" fill="#F9F9F9"/>
<path d="M8.72559 14.8311C8.95873 14.4888 9.42526 14.4008 9.76758 14.6338C9.8913 14.718 9.89805 14.749 10.0254 14.8311C10.1528 14.9131 10.2804 14.9935 10.4082 15.0713C10.7619 15.2866 10.8743 15.7478 10.6592 16.1016C10.4439 16.4553 9.9827 16.5677 9.62891 16.3525C9.49014 16.2681 9.35104 16.1818 9.21289 16.0928C9.0747 16.0037 9.05815 15.9645 8.92383 15.873C8.58147 15.6399 8.49244 15.1734 8.72559 14.8311Z" fill="#F9F9F9"/>
<path d="M6.02148 12.3838C6.3261 12.1031 6.80134 12.1221 7.08203 12.4268C7.27933 12.6409 7.32416 12.6766 7.54492 12.8877C7.84432 13.1739 7.85557 13.6488 7.56934 13.9482C7.28313 14.2476 6.80819 14.2578 6.50879 13.9717C6.26575 13.7393 6.1979 13.6814 5.97852 13.4434C5.69798 13.1388 5.71715 12.6645 6.02148 12.3838Z" fill="#F9F9F9"/>
<path d="M4.09277 9.07324C4.47954 8.92529 4.91343 9.11911 5.06152 9.50586C5.15663 9.75417 5.22685 9.85961 5.36816 10.123C5.56396 10.4881 5.42654 10.9429 5.06152 11.1387C4.69651 11.3345 4.24169 11.197 4.0459 10.832C3.87748 10.5181 3.78001 10.355 3.66016 10.042C3.51207 9.65518 3.70596 9.22135 4.09277 9.07324Z" fill="#F9F9F9"/>
<path fill-rule="evenodd" clip-rule="evenodd" d="M12 1.5C17.799 1.5 22.5 6.20101 22.5 12L22.4863 12.54C22.2052 18.088 17.6178 22.5 12 22.5L11.46 22.4863C6.09083 22.2143 1.78572 17.9092 1.51367 12.54L1.5 12C1.5 6.20101 6.20101 1.5 12 1.5ZM12 3C7.02944 3 3 7.02944 3 12C3.00003 16.9705 7.02946 21 12 21C16.9705 21 21 16.9705 21 12C21 7.02944 16.9706 3 12 3Z" fill="#F9F9F9"/>
</g>
<defs>
<clipPath id="clip0_3446_4228">
<rect width="24" height="24" fill="white"/>
</clipPath>
</defs>
</svg>
