<svg width="24" height="24" viewBox="0 0 24 24" fill="none" xmlns="http://www.w3.org/2000/svg">
<g clip-path="url(#clip0_3446_4235)">
<path d="M17.8193 11.9999C17.8193 15.1065 15.2574 17.6249 12.0971 17.6249C8.93689 17.6249 6.375 15.1065 6.375 11.9999C6.375 8.89334 8.93689 6.37494 12.0971 6.37494C15.2574 6.37494 17.8193 8.89334 17.8193 11.9999Z" fill="#5C6A88"/>
<path d="M11.9983 15.1439C12.3864 15.144 12.7048 15.4388 12.7435 15.8167L12.7483 15.8939V19.9437L14.6497 18.0413C14.9425 17.7486 15.4173 17.7489 15.7103 18.0413C16.003 18.3342 16.0031 18.809 15.7103 19.1019L12.5286 22.2845C12.2358 22.5769 11.7609 22.5769 11.4681 22.2845L8.28545 19.1019C7.99329 18.8091 7.99312 18.334 8.28545 18.0413C8.57814 17.7486 9.05306 17.749 9.346 18.0413L11.2483 19.9437V15.8939L11.2522 15.8167C11.2908 15.4389 11.6104 15.1441 11.9983 15.1439Z" fill="#F9F9F9"/>
<path d="M4.89873 8.28742C5.19142 7.99473 5.66634 7.99514 5.95928 8.28742C6.25209 8.58032 6.25214 9.05511 5.95928 9.34797L4.05791 11.2503H8.10772L8.18487 11.2542C8.56277 11.2929 8.85764 11.6122 8.85772 12.0003C8.8574 12.3882 8.56261 12.7068 8.18487 12.7454L8.10772 12.7493H4.05791L5.95928 14.6517C6.25209 14.9446 6.25214 15.4194 5.95928 15.7122C5.66637 16.0046 5.19146 16.0049 4.89873 15.7122L1.71709 12.5306C1.42467 12.2378 1.42481 11.7629 1.71709 11.47L4.89873 8.28742Z" fill="#F9F9F9"/>
<path d="M18.2708 8.28742C18.5635 7.99473 19.0384 7.99501 19.3314 8.28742L22.514 11.47C22.8063 11.763 22.8066 12.2379 22.514 12.5306L19.3314 15.7122C19.0385 16.0047 18.5636 16.0049 18.2708 15.7122C17.9783 15.4194 17.9784 14.9445 18.2708 14.6517L20.1722 12.7493H16.1233L16.0462 12.7454C15.6686 12.7067 15.3737 12.3881 15.3733 12.0003C15.3734 11.6123 15.6684 11.293 16.0462 11.2542L16.1233 11.2503H20.1722L18.2708 9.34797C17.9785 9.05513 17.9783 8.58018 18.2708 8.28742Z" fill="#F9F9F9"/>
<path d="M12.0003 10.0003C13.1047 10.0005 14.0003 10.8958 14.0003 12.0003C14.0001 13.1046 13.1046 14.0002 12.0003 14.0003C10.8959 14.0003 10.0005 13.1047 10.0003 12.0003C10.0003 10.8957 10.8957 10.0003 12.0003 10.0003Z" fill="#F9F9F9"/>
<path d="M11.4681 1.73078C11.7609 1.43804 12.2357 1.4382 12.5286 1.73078L15.7103 4.91242C16.003 5.20531 16.0031 5.6801 15.7103 5.97297C15.4174 6.26557 14.9425 6.26569 14.6497 5.97297L12.7483 4.0716V8.12043L12.7435 8.19856C12.7046 8.57622 12.3862 8.87032 11.9983 8.87043C11.6105 8.87019 11.291 8.57617 11.2522 8.19856L11.2483 8.12043V4.0716L9.346 5.97297C9.0531 6.26547 8.57823 6.26566 8.28545 5.97297C7.99329 5.68015 7.99312 5.20514 8.28545 4.91242L11.4681 1.73078Z" fill="#F9F9F9"/>
</g>
<defs>
<clipPath id="clip0_3446_4235">
<rect width="24" height="24" fill="white"/>
</clipPath>
</defs>
</svg>
