<svg width="24" height="24" viewBox="0 0 24 24" fill="none" xmlns="http://www.w3.org/2000/svg">
<g clip-path="url(#clip0_3446_4044)">
<path fill-rule="evenodd" clip-rule="evenodd" d="M4.77169 6.38556C4.5218 6.52984 4.52167 6.89049 4.77146 7.03495L11.6263 10.9992C11.8588 11.1337 12.1454 11.1336 12.3778 10.9989L19.2236 7.03284C19.4731 6.88826 19.4729 6.52782 19.2231 6.38361L12.3741 2.42934C12.142 2.29536 11.8561 2.29536 11.6241 2.42934L4.77169 6.38556ZM20.5392 8.65484C20.5392 8.36592 20.2262 8.18553 19.9762 8.33036L13.1231 12.3007C12.8916 12.4348 12.7491 12.6821 12.7491 12.9496V20.8528C12.7491 21.1414 13.0616 21.3219 13.3116 21.1775L20.1642 17.2212C20.3962 17.0872 20.5392 16.8396 20.5392 16.5717V8.65484ZM10.6866 21.1776C10.9366 21.3219 11.2491 21.1415 11.2491 20.8528V12.9465C11.2491 12.6788 11.1064 12.4313 10.8746 12.2973L4.02172 8.33414C3.77172 8.18956 3.45898 8.36996 3.45898 8.65876V16.5717C3.45898 16.8396 3.60193 17.0872 3.83398 17.2212L10.6866 21.1776ZM13.1241 1.1303C12.4279 0.728376 11.5702 0.728377 10.8741 1.1303L3.08398 5.62791C2.38783 6.02983 1.95898 6.77262 1.95898 7.57647V16.5717C1.95898 17.3755 2.38783 18.1183 3.08398 18.5202L10.8741 23.0179C11.5702 23.4198 12.4279 23.4198 13.1241 23.0179L20.9142 18.5202C21.6103 18.1183 22.0392 17.3755 22.0392 16.5717V7.57647C22.0392 6.77262 21.6103 6.02983 20.9142 5.62791L13.1241 1.1303Z" fill="#F9F9F9"/>
<path d="M4.7732 7.03495C4.52341 6.89049 4.52354 6.52984 4.77344 6.38556L11.6258 2.42934C11.8579 2.29536 12.1438 2.29536 12.3758 2.42934L19.2248 6.38361C19.4746 6.52782 19.4749 6.88826 19.2253 7.03284L12.3795 10.9989C12.1471 11.1336 11.8605 11.1337 11.6281 10.9992L4.7732 7.03495Z" fill="#7644FD"/>
</g>
<defs>
<clipPath id="clip0_3446_4044">
<rect width="24" height="24" fill="white"/>
</clipPath>
</defs>
</svg>
