<svg width="24" height="24" viewBox="0 0 24 24" fill="none" xmlns="http://www.w3.org/2000/svg">
<g clip-path="url(#clip0_3446_4119)">
<path d="M2.68091 5.36719H5.74976L6.11835 18.8096H16.0627V21.5105H2.68091V5.36719Z" fill="#5C6A88"/>
<path d="M6 18H17.25V20.25C17.25 21.4926 16.2426 22.5 15 22.5H3.75C2.50736 22.5 1.5 21.4926 1.5 20.25V6.75C1.5 5.50736 2.50736 4.5 3.75 4.5H6V18Z" fill="#5C6A88"/>
<path d="M6 6H3.75C3.33579 6 3 6.33579 3 6.75V20.25C3 20.6642 3.33579 21 3.75 21H15C15.4142 21 15.75 20.6642 15.75 20.25V18H17.25V20.25C17.25 21.4148 16.3648 22.3729 15.2305 22.4883L15 22.5H3.75L3.51953 22.4883C2.38516 22.3729 1.5 21.4148 1.5 20.25V6.75C1.5 5.50736 2.50736 4.5 3.75 4.5H6V6Z" fill="#F9F9F9"/>
<path d="M20.4805 1.51172C21.6148 1.62714 22.5 2.58517 22.5 3.75V17.25C22.5 18.4926 21.4926 19.5 20.25 19.5H7.5C6.25736 19.5 5.25 18.4926 5.25 17.25V3.75C5.25 2.58517 6.13516 1.62714 7.26953 1.51172L7.5 1.5H20.25L20.4805 1.51172ZM7.5 3C7.08579 3 6.75 3.33579 6.75 3.75V17.25C6.75 17.6642 7.08579 18 7.5 18H20.25C20.6642 18 21 17.6642 21 17.25V3.75C21 3.33579 20.6642 3 20.25 3H7.5ZM10.125 11.25C10.7463 11.25 11.25 11.7537 11.25 12.375V13.125C11.25 13.7463 10.7463 14.25 10.125 14.25H9.375C8.75368 14.25 8.25 13.7463 8.25 13.125V12.375C8.25 11.7537 8.75368 11.25 9.375 11.25H10.125ZM18 12C18.4142 12 18.75 12.3358 18.75 12.75C18.75 13.1642 18.4142 13.5 18 13.5H13.5C13.0858 13.5 12.75 13.1642 12.75 12.75C12.75 12.3358 13.0858 12 13.5 12H18ZM10.125 6C10.7463 6 11.25 6.50368 11.25 7.125V7.875C11.25 8.49632 10.7463 9 10.125 9H9.375C8.75368 9 8.25 8.49632 8.25 7.875V7.125C8.25 6.50368 8.75368 6 9.375 6H10.125ZM18 6.75C18.4142 6.75 18.75 7.08579 18.75 7.5C18.75 7.91421 18.4142 8.25 18 8.25H13.5C13.0858 8.25 12.75 7.91421 12.75 7.5C12.75 7.08579 13.0858 6.75 13.5 6.75H18Z" fill="#F9F9F9"/>
</g>
<defs>
<clipPath id="clip0_3446_4119">
<rect width="24" height="24" fill="white"/>
</clipPath>
</defs>
</svg>
