<svg width="24" height="24" viewBox="0 0 24 24" fill="none" xmlns="http://www.w3.org/2000/svg">
<g clip-path="url(#clip0_3446_4078)">
<path d="M12 5.24988C13.4414 5.24988 14.7766 5.7028 15.873 6.47253C15.3425 6.88414 15 7.52643 15 8.24988C15 9.49252 16.0074 10.4999 17.25 10.4999H18.5811C18.6906 10.9824 18.75 11.4842 18.75 11.9999C18.75 15.7278 15.7279 18.7499 12 18.7499C8.27208 18.7499 5.25 15.7278 5.25 11.9999C5.25 8.27196 8.27208 5.24988 12 5.24988Z" fill="#5C6A88"/>
<path fill-rule="evenodd" clip-rule="evenodd" d="M21.7539 11.2818C22.1681 11.2836 22.5024 11.6209 22.5006 12.0351C22.4993 12.3379 22.4849 12.6431 22.457 12.9499C22.4292 13.2568 22.3883 13.5595 22.335 13.8576C22.2622 14.2654 21.8726 14.5369 21.4648 14.464C21.0571 14.3912 20.7856 14.0015 20.8584 13.5938C20.9041 13.3381 20.9392 13.0781 20.9632 12.8142C20.9872 12.5503 20.9995 12.2883 21.0006 12.0285C21.0025 11.6143 21.3397 11.28 21.7539 11.2818ZM20.8071 16.2562C21.165 16.4647 21.2861 16.9239 21.0775 17.2818C20.7682 17.8126 20.4143 18.3125 20.0213 18.7769C19.7537 19.0931 19.2805 19.1325 18.9643 18.8649C18.6481 18.5973 18.6087 18.1241 18.8763 17.8079C19.2133 17.4097 19.5166 16.9813 19.7815 16.5266C19.99 16.1687 20.4492 16.0477 20.8071 16.2562ZM17.4977 20.0872C17.7039 20.4465 17.5799 20.9048 17.2206 21.1111C16.693 21.4139 16.1375 21.672 15.5597 21.8806C15.17 22.0212 14.7402 21.8194 14.5996 21.4298C14.4589 21.0402 14.6608 20.6103 15.0504 20.4697C15.5453 20.291 16.0214 20.0699 16.4738 19.8102C16.8331 19.604 17.2915 19.728 17.4977 20.0872Z" fill="#F9F9F9"/>
<path d="M13.875 11.9999C13.875 13.0354 13.0355 13.8749 12 13.8749C10.9645 13.8749 10.125 13.0354 10.125 11.9999C10.125 10.9643 10.9645 10.1249 12 10.1249C13.0355 10.1249 13.875 10.9643 13.875 11.9999Z" fill="#F9F9F9"/>
<path d="M12 1.49988C15.8216 1.49988 19.1639 3.54241 21 6.5946V3.74988C21 3.33566 21.3358 2.99988 21.75 2.99988C22.1642 2.99988 22.5 3.33566 22.5 3.74988V8.24988C22.5 8.66409 22.1642 8.99988 21.75 8.99988H17.25C16.8358 8.99988 16.5 8.66409 16.5 8.24988C16.5 7.83566 16.8358 7.49988 17.25 7.49988H19.793C18.237 4.81026 15.3308 2.99988 12 2.99988C7.02944 2.99988 3 7.02931 3 11.9999C3 16.7179 6.63037 20.5875 11.25 20.9686C11.6628 21.0027 12 21.3357 12 21.7499C12 22.1641 11.6631 22.5026 11.25 22.4735C5.80109 22.0889 1.5 17.5467 1.5 11.9999C1.5 6.20089 6.20101 1.49988 12 1.49988Z" fill="#F9F9F9"/>
</g>
<defs>
<clipPath id="clip0_3446_4078">
<rect width="24" height="24" fill="white"/>
</clipPath>
</defs>
</svg>
