<svg width="24" height="24" viewBox="0 0 24 24" fill="none" xmlns="http://www.w3.org/2000/svg">
<g clip-path="url(#clip0_3446_4218)">
<path d="M2.25 12.75C2.25 11.9216 2.92157 11.25 3.75 11.25H11.25C12.0784 11.25 12.75 11.9216 12.75 12.75V20.25C12.75 21.0784 12.0784 21.75 11.25 21.75H3.75C2.92157 21.75 2.25 21.0784 2.25 20.25V12.75Z" fill="#5C6A88"/>
<path d="M13.5 2.25C13.9142 2.25 14.25 2.58579 14.25 3C14.25 3.41421 13.9142 3.75 13.5 3.75H3.75V20.25H20.25V10.5C20.25 10.0858 20.5858 9.75 21 9.75C21.4142 9.75 21.75 10.0858 21.75 10.5V20.25C21.75 21.0784 21.0784 21.75 20.25 21.75H3.75C2.92157 21.75 2.25 21.0784 2.25 20.25V3.75C2.25 2.92157 2.92157 2.25 3.75 2.25H13.5Z" fill="#F9F9F9"/>
<path d="M21 2.25C21.4142 2.25 21.75 2.58579 21.75 3V7.5C21.75 7.91421 21.4142 8.25 21 8.25C20.5858 8.25 20.25 7.91421 20.25 7.5V4.81055L15.5303 9.53027L15.4736 9.58203C15.1791 9.82234 14.7443 9.80488 14.4697 9.53027C14.1951 9.25567 14.1777 8.82095 14.418 8.52637L14.4697 8.46973L19.1895 3.75H16.5C16.0858 3.75 15.75 3.41421 15.75 3C15.75 2.58579 16.0858 2.25 16.5 2.25H21Z" fill="#F9F9F9"/>
<path d="M11.25 20.25V21.75H3.75V20.25H11.25ZM11.25 12.75H3.75V21.75L3.59668 21.7422C2.84028 21.6654 2.25 21.0267 2.25 20.25V12.75C2.25 11.9733 2.84028 11.3346 3.59668 11.2578L3.75 11.25H11.25C12.0784 11.25 12.75 11.9216 12.75 12.75V20.25C12.75 21.0784 12.0784 21.75 11.25 21.75V12.75Z" fill="#F9F9F9"/>
</g>
<defs>
<clipPath id="clip0_3446_4218">
<rect width="24" height="24" fill="white"/>
</clipPath>
</defs>
</svg>
