<svg width="24" height="24" viewBox="0 0 24 24" fill="none" xmlns="http://www.w3.org/2000/svg">
<g clip-path="url(#clip0_3446_3965)">
<path d="M9 3H4.5V21H9V3Z" fill="#0FB369"/>
<path d="M10.5771 13.5039C10.9551 13.5425 11.25 13.8618 11.25 14.25C11.2499 14.6381 10.9551 14.9575 10.5771 14.9961L10.5 15H7.5C7.08583 15 6.75007 14.6642 6.75 14.25C6.75 13.8358 7.08579 13.5 7.5 13.5H10.5L10.5771 13.5039Z" fill="#F9F9F9"/>
<path d="M14.3271 10.5039C14.7051 10.5425 15 10.8618 15 11.25C14.9999 11.6381 14.7051 11.9575 14.3271 11.9961L14.25 12H7.5C7.08583 12 6.75007 11.6642 6.75 11.25C6.75 10.8358 7.08579 10.5 7.5 10.5H14.25L14.3271 10.5039Z" fill="#F9F9F9"/>
<path d="M14.3271 7.50391C14.7051 7.54253 15 7.86184 15 8.25C14.9999 8.63811 14.7051 8.95748 14.3271 8.99609L14.25 9H7.5C7.08583 9 6.75007 8.66416 6.75 8.25C6.75 7.83579 7.08579 7.5 7.5 7.5H14.25L14.3271 7.50391Z" fill="#F9F9F9"/>
<path fill-rule="evenodd" clip-rule="evenodd" d="M19.874 1.50098C21.3067 1.52083 22.4619 2.68765 22.4619 4.125V6.75C22.4618 7.57837 21.7903 8.25 20.9619 8.25H18.75V19.5C18.7499 21.1568 17.4068 22.5 15.75 22.5H6C4.34319 22.5 3.00007 21.1568 3 19.5V4.72168C3 4.20073 3.1356 3.68795 3.39355 3.23535L3.51953 3.01465L3.625 2.84277C4.17799 2.00789 5.11571 1.50004 6.12598 1.5H19.875L19.874 1.50098ZM6.12598 3C5.65466 3.00004 5.21493 3.22112 4.93359 3.58984L4.82324 3.75684L4.69727 3.97852C4.5683 4.2048 4.5 4.46122 4.5 4.72168V19.5C4.50007 20.3284 5.17161 21 6 21H15.75C16.5784 21 17.2499 20.3284 17.25 19.5V3H6.12598ZM19.8369 3C19.315 3.00009 18.877 3.35579 18.75 3.83789V6.75H20.9619V4.125C20.9619 3.50368 20.4582 3 19.8369 3Z" fill="#F9F9F9"/>
</g>
<defs>
<clipPath id="clip0_3446_3965">
<rect width="24" height="24" fill="white"/>
</clipPath>
</defs>
</svg>
