<svg width="24" height="24" viewBox="0 0 24 24" fill="none" xmlns="http://www.w3.org/2000/svg">
<g clip-path="url(#clip0_3446_3885)">
<path fill-rule="evenodd" clip-rule="evenodd" d="M8.66408 21.763C8.99776 22.7127 10.3152 22.7797 10.7435 21.8689L14.3097 14.2857L21.7335 11.8372C22.7256 11.51 22.7748 10.125 21.8084 9.72812L3.82609 2.34369C2.9277 1.97477 2.0154 2.84104 2.33735 3.75731L8.66408 21.763Z" fill="#5C6A88"/>
<path d="M2.33737 3.75765C2.01542 2.84138 2.92814 1.97469 3.82653 2.34361L21.8084 9.72796C22.7747 10.1248 22.7254 11.5099 21.7333 11.8371L14.3094 14.2859L10.7437 21.8692C10.3152 22.7799 8.99744 22.7123 8.66378 21.7627L2.33737 3.75765ZM9.77452 20.4017L12.952 13.6469L13.0247 13.5119C13.209 13.2059 13.4979 12.974 13.8403 12.861L20.2991 10.7298L4.02862 4.04873L9.77452 20.4017Z" fill="#F9F9F9"/>
</g>
<defs>
<clipPath id="clip0_3446_3885">
<rect width="24" height="24" fill="white"/>
</clipPath>
</defs>
</svg>
