<svg width="24" height="24" viewBox="0 0 24 24" fill="none" xmlns="http://www.w3.org/2000/svg">
<path d="M3 21.4384V16.0893C3 15.3293 3.29722 14.5976 3.83162 14.0421L5.88196 11.9107C6.47897 11.2901 7.48731 11.2736 8.10557 11.8743L8.76714 12.5171C9.29356 13.0286 10.0079 13.316 10.7529 13.316C11.7311 13.316 12.6388 12.8217 13.1484 12.0114L14.9794 9.1002C15.9379 7.57623 18.256 7.69074 19.0501 9.30129L22.0189 14.2275C22.2182 14.6318 22.3217 15.0742 22.3217 15.5223L21.8016 20.9452C22.2314 20.5354 22.4993 19.9572 22.4993 19.3164V10.7761C22.4993 10.1039 22.3487 9.44026 22.0586 8.8339L19.9283 4.38155C18.644 1.6973 14.8949 1.50645 13.3446 4.0464L11.5678 6.95759C11.3456 7.3216 10.95 7.54366 10.5235 7.54366C10.1988 7.54366 9.88733 7.41455 9.65784 7.18477L9.01585 6.54196C7.81592 5.34051 5.8589 5.37353 4.7002 6.61478L2.71052 8.74619C1.93264 9.57949 1.5 10.677 1.5 11.8169V19.3164C1.5 20.2961 2.12611 21.1295 3 21.4384Z" fill="#0FB369"/>
<path fill-rule="evenodd" clip-rule="evenodd" d="M22.4993 19.3164C22.4993 20.5591 21.4919 21.5664 20.2493 21.5664H3.75C2.50736 21.5664 1.5 20.5591 1.5 19.3164V11.8169C1.5 10.677 1.93264 9.57949 2.71052 8.74619L4.7002 6.61478C5.8589 5.37353 7.81592 5.34051 9.01585 6.54196L9.65784 7.18477C9.88733 7.41455 10.1988 7.54366 10.5235 7.54366C10.95 7.54366 11.3456 7.3216 11.5678 6.95759L13.3446 4.0464C14.8949 1.50645 18.644 1.6973 19.9283 4.38155L22.0586 8.8339C22.3487 9.44026 22.4993 10.1039 22.4993 10.7761V19.3164ZM20.9993 19.3164V10.7761C20.9993 10.328 20.8989 9.88554 20.7055 9.4813L18.5752 5.02895C17.8046 3.4184 15.5551 3.30389 14.625 4.82786L12.8482 7.73905C12.3536 8.54935 11.4728 9.04366 10.5235 9.04366C9.8006 9.04366 9.10735 8.75625 8.59651 8.24475L7.95451 7.60194C7.35455 7.00122 6.37604 7.01773 5.79669 7.63835L3.80702 9.76977C3.28843 10.3253 3 11.0569 3 11.8169V19.3164C3 19.7307 3.33579 20.0664 3.75 20.0664H20.2493C20.6635 20.0664 20.9993 19.7307 20.9993 19.3164Z" fill="#F9F9F9"/>
</svg>
