<svg width="24" height="24" viewBox="0 0 24 24" fill="none" xmlns="http://www.w3.org/2000/svg">
<g clip-path="url(#clip0_3446_4137)">
<path fill-rule="evenodd" clip-rule="evenodd" d="M20.5176 16.4998H21.75L21.8271 16.5037C22.2051 16.5423 22.5 16.8617 22.5 17.2498V20.2498L22.4961 20.327C22.4601 20.6796 22.1798 20.9599 21.8271 20.9959L21.75 20.9998H18.75L18.6729 20.9959C18.3202 20.9599 18.0399 20.6796 18.0039 20.327L18 20.2498V19.4998H6V20.2498L5.99609 20.327C5.96006 20.6796 5.67975 20.9599 5.32715 20.9959L5.25 20.9998H2.25L2.17285 20.9959C1.82025 20.9599 1.53994 20.6796 1.50391 20.327L1.5 20.2498V17.2498C1.5 16.8617 1.79488 16.5423 2.17285 16.5037L2.25 16.4998H3.47949L5.48145 7.49982H5.25L5.17285 7.49591C4.82025 7.45988 4.53994 7.17957 4.50391 6.82697L4.5 6.74982V3.74982C4.5 3.36165 4.79488 3.04234 5.17285 3.00372L5.25 2.99982H8.25L8.32715 3.00372C8.70512 3.04234 9 3.36165 9 3.74982V4.49982H15V3.74982C15 3.36165 15.2949 3.04234 15.6729 3.00372L15.75 2.99982H18.75L18.8271 3.00372C19.2051 3.04234 19.5 3.36165 19.5 3.74982V6.74982L19.4961 6.82697C19.4601 7.17957 19.1798 7.45988 18.8271 7.49591L18.75 7.49982H18.5186L20.5176 16.4998ZM15.75 7.49982L15.6729 7.49591C15.3202 7.45988 15.0399 7.17957 15.0039 6.82697L15 6.74982V5.99982H9V6.74982L8.99609 6.82697C8.96006 7.17957 8.67975 7.45988 8.32715 7.49591L8.25 7.49982H7.01855L5.01758 16.4998H5.25L5.32715 16.5037C5.70512 16.5423 6 16.8617 6 17.2498V17.9998H18V17.2498C18 16.8617 18.2949 16.5423 18.6729 16.5037L18.75 16.4998H18.9805L16.9814 7.49982H15.75ZM3 19.4998H4.5V17.9998H3V19.4998ZM19.5 19.4998H21V17.9998H19.5V19.4998ZM6 5.99982H7.5V4.49982H6V5.99982ZM16.5 5.99982H18V4.49982H16.5V5.99982Z" fill="#F9F9F9"/>
<path d="M14.0044 8.99982H9.94458C9.41641 8.99982 8.95936 9.36724 8.84586 9.88306L7.80072 14.6331C7.64627 15.335 8.18068 15.9998 8.89944 15.9998H15.0891C15.8115 15.9998 16.3467 15.3286 16.1859 14.6244L15.1012 9.87436C14.9843 9.3627 14.5292 8.99982 14.0044 8.99982Z" fill="#5C6A88"/>
</g>
<defs>
<clipPath id="clip0_3446_4137">
<rect width="24" height="24" fill="white"/>
</clipPath>
</defs>
</svg>
