<svg width="24" height="24" viewBox="0 0 24 24" fill="none" xmlns="http://www.w3.org/2000/svg">
<g clip-path="url(#clip0_3446_4192)">
<rect x="16.5" y="5.25" width="5" height="14" fill="#D540F5"/>
<path d="M9.875 10.75C10.4963 10.75 11 11.2537 11 11.875V15.625C11 16.2463 10.4963 16.75 9.875 16.75H6.125C5.50368 16.75 5 16.2463 5 15.625V11.875C5 11.2537 5.50368 10.75 6.125 10.75H9.875Z" fill="#F9F9F9"/>
<path d="M19.627 14.5C19.8341 14.5 20.002 14.6679 20.002 14.875V15.625C20.002 15.8321 19.8341 16 19.627 16H12.9492C12.7421 16 12.5742 15.8321 12.5742 15.625V14.875C12.5742 14.6679 12.7421 14.5 12.9492 14.5H19.627Z" fill="#F9F9F9"/>
<path d="M19.626 11.5C19.833 11.5001 20.001 11.668 20.001 11.875V12.625C20.001 12.832 19.833 12.9999 19.626 13H12.9473C12.7402 13 12.5723 12.8321 12.5723 12.625V11.875C12.5723 11.6679 12.7402 11.5 12.9473 11.5H19.626Z" fill="#F9F9F9"/>
<path d="M6.125 6.625C6.53921 6.625 6.875 6.96079 6.875 7.375V7.75C6.875 8.16421 6.53921 8.5 6.125 8.5H5.75C5.33579 8.5 5 8.16421 5 7.75V7.375C5 6.96079 5.33579 6.625 5.75 6.625H6.125Z" fill="#F9F9F9"/>
<path d="M9.125 6.625C9.53921 6.625 9.875 6.96079 9.875 7.375V7.75C9.875 8.16421 9.53921 8.5 9.125 8.5H8.75C8.33579 8.5 8 8.16421 8 7.75V7.375C8 6.96079 8.33579 6.625 8.75 6.625H9.125Z" fill="#F9F9F9"/>
<path d="M12.125 6.625C12.5392 6.625 12.875 6.96079 12.875 7.375V7.75C12.875 8.16421 12.5392 8.5 12.125 8.5H11.75C11.3358 8.5 11 8.16421 11 7.75V7.375C11 6.96079 11.3358 6.625 11.75 6.625H12.125Z" fill="#F9F9F9"/>
<path fill-rule="evenodd" clip-rule="evenodd" d="M20.75 4C21.9926 4 23 5.00736 23 6.25V18.25C23 19.4926 21.9926 20.5 20.75 20.5H4.25C3.00736 20.5 2 19.4926 2 18.25V6.25C2 5.00736 3.00736 4 4.25 4H20.75ZM4.25 5.5C3.83579 5.5 3.5 5.83579 3.5 6.25V18.25C3.5 18.6642 3.83579 19 4.25 19H20.75C21.1642 19 21.5 18.6642 21.5 18.25V6.25C21.5 5.83579 21.1642 5.5 20.75 5.5H4.25Z" fill="#F9F9F9"/>
</g>
<defs>
<clipPath id="clip0_3446_4192">
<rect width="24" height="24" fill="white"/>
</clipPath>
</defs>
</svg>
