<svg width="24" height="24" viewBox="0 0 24 24" fill="none" xmlns="http://www.w3.org/2000/svg">
<g clip-path="url(#clip0_3446_4060)">
<path d="M3.25959 18.8736L3.74949 13.5H8.24949L8.73939 18.8736C8.87924 20.4076 7.61251 21.7266 5.99949 21.7266C4.38647 21.7266 3.11974 20.4076 3.25959 18.8736Z" fill="#5C6A88"/>
<mask id="path-2-inside-1_3446_4060" fill="white">
<path d="M18.6084 2.43263C18.6084 1.90422 19.1399 1.54152 19.6318 1.73439L22.0234 2.67189C22.3106 2.78451 22.4999 3.06172 22.5 3.37013V8.48537C22.4999 8.77694 22.3307 9.042 22.0664 9.16506L20.0576 10.0996V20.2529C20.0574 21.4954 19.0501 22.5029 17.8076 22.5029H17.4248C16.1823 22.5029 15.175 21.4954 15.1748 20.2529V10.0996L13.166 9.16506C12.9016 9.04205 12.7326 8.77694 12.7324 8.48537V3.37013C12.7325 3.06167 12.9218 2.78451 13.209 2.67189L15.6006 1.73439C16.0925 1.54158 16.624 1.90425 16.624 2.43263V5.63576L17.6162 6.04982L18.6084 5.63576V2.43263Z"/>
</mask>
<path d="M19.6318 1.73439L19.0843 3.13089L19.0844 3.13093L19.6318 1.73439ZM22.0234 2.67189L22.5711 1.27545L22.5709 1.27536L22.0234 2.67189ZM22.5 3.37013L24 3.37013V3.36958L22.5 3.37013ZM22.5 8.48537L24 8.48578V8.48537H22.5ZM22.0664 9.16506L22.6991 10.5251L22.6995 10.5249L22.0664 9.16506ZM20.0576 10.0996L19.4249 8.73961L18.5576 9.1431V10.0996H20.0576ZM20.0576 20.2529L21.5576 20.2532V20.2529H20.0576ZM15.1748 20.2529H13.6748V20.2532L15.1748 20.2529ZM15.1748 10.0996H16.6748V9.1431L15.8075 8.73961L15.1748 10.0996ZM13.166 9.16506L12.5332 10.5251L12.5333 10.5251L13.166 9.16506ZM12.7324 8.48537H11.2324L11.2324 8.48604L12.7324 8.48537ZM12.7324 3.37013L11.2324 3.36981V3.37013H12.7324ZM13.209 2.67189L12.6615 1.27536L12.6614 1.27543L13.209 2.67189ZM15.6006 1.73439L15.0532 0.337836L15.0531 0.337857L15.6006 1.73439ZM16.624 5.63576H15.124V6.63515L16.0463 7.02005L16.624 5.63576ZM17.6162 6.04982L17.0385 7.43411L17.6162 7.6752L18.1939 7.43411L17.6162 6.04982ZM18.6084 5.63576L19.1861 7.02005L20.1084 6.63515V5.63576H18.6084ZM18.6084 2.43263H20.1084C20.1084 2.96039 19.5769 3.32401 19.0843 3.13089L19.6318 1.73439L20.1794 0.337892C18.7029 -0.240969 17.1084 0.848056 17.1084 2.43263L18.6084 2.43263ZM19.6318 1.73439L19.0844 3.13093L21.476 4.06843L22.0234 2.67189L22.5709 1.27536L20.1793 0.337857L19.6318 1.73439ZM22.0234 2.67189L21.4758 4.06834C21.1892 3.95596 21.0001 3.67976 21 3.37069L22.5 3.37013L24 3.36958C23.9997 2.44368 23.4319 1.61305 22.5711 1.27545L22.0234 2.67189ZM22.5 3.37013H21V8.48537H22.5H24V3.37013L22.5 3.37013ZM22.5 8.48537L21 8.48496C21.0001 8.19286 21.1695 7.92802 21.4334 7.80519L22.0664 9.16506L22.6995 10.5249C23.492 10.156 23.9998 9.36103 24 8.48578L22.5 8.48537ZM22.0664 9.16506L21.4337 7.80504L19.4249 8.73961L20.0576 10.0996L20.6904 11.4596L22.6991 10.5251L22.0664 9.16506ZM20.0576 10.0996H18.5576V20.2529H20.0576H21.5576V10.0996H20.0576ZM20.0576 20.2529L18.5576 20.2527C18.5575 20.6672 18.2215 21.0029 17.8076 21.0029V22.5029V24.0029C19.8788 24.0029 21.5573 22.3236 21.5576 20.2532L20.0576 20.2529ZM17.8076 22.5029V21.0029H17.4248V22.5029V24.0029H17.8076V22.5029ZM17.4248 22.5029V21.0029C17.011 21.0029 16.6749 20.6672 16.6748 20.2527L15.1748 20.2529L13.6748 20.2532C13.6752 22.3236 15.3536 24.0029 17.4248 24.0029V22.5029ZM15.1748 20.2529H16.6748V10.0996H15.1748H13.6748L13.6748 20.2529H15.1748ZM15.1748 10.0996L15.8075 8.73961L13.7988 7.80504L13.166 9.16506L12.5333 10.5251L14.5421 11.4596L15.1748 10.0996ZM13.166 9.16506L13.7988 7.80506C14.0633 7.92812 14.2323 8.19323 14.2324 8.4847L12.7324 8.48537L11.2324 8.48604C11.2328 9.36065 11.74 10.156 12.5332 10.5251L13.166 9.16506ZM12.7324 8.48537H14.2324V3.37013H12.7324H11.2324V8.48537H12.7324ZM12.7324 3.37013L14.2324 3.37046C14.2324 3.6798 14.043 3.95605 13.7566 4.06835L13.209 2.67189L12.6614 1.27543C11.8006 1.61298 11.2326 2.44353 11.2324 3.36981L12.7324 3.37013ZM13.209 2.67189L13.7564 4.06843L16.148 3.13093L15.6006 1.73439L15.0531 0.337857L12.6615 1.27536L13.209 2.67189ZM15.6006 1.73439L16.148 3.13095C15.6557 3.32391 15.124 2.96061 15.124 2.43263H16.624L18.124 2.43263C18.124 0.847893 16.5293 -0.240743 15.0532 0.337836L15.6006 1.73439ZM16.624 2.43263H15.124V5.63576H16.624H18.124V2.43263L16.624 2.43263ZM16.624 5.63576L16.0463 7.02005L17.0385 7.43411L17.6162 6.04982L18.1939 4.66553L17.2017 4.25147L16.624 5.63576ZM17.6162 6.04982L18.1939 7.43411L19.1861 7.02005L18.6084 5.63576L18.0307 4.25147L17.0385 4.66553L17.6162 6.04982ZM18.6084 5.63576H20.1084V2.43263H18.6084L17.1084 2.43263V5.63576H18.6084Z" fill="#F9F9F9" mask="url(#path-2-inside-1_3446_4060)"/>
<path d="M6.56543 1.5C6.93317 1.50016 7.27451 1.6797 7.4834 1.97461L7.56445 2.1084L9.23828 5.34473C9.50943 5.86947 9.32763 6.51494 8.82324 6.82227L8.25 7.1709V12.75H9.75C10.1642 12.75 10.5 13.0858 10.5 13.5C10.5 13.9142 10.1642 14.25 9.75 14.25H9.07129L9.48633 18.8057C9.66949 20.8156 8.01608 22.4764 6 22.4766C3.98381 22.4766 2.32955 20.8157 2.5127 18.8057L2.92871 14.25H2.25C1.83579 14.25 1.5 13.9142 1.5 13.5C1.5 13.0858 1.83579 12.75 2.25 12.75H3.75V7.18164L3.12109 6.81836C2.62302 6.5301 2.42301 5.91237 2.65723 5.38672L4.0918 2.16699L4.16895 2.02148C4.37325 1.69991 4.73065 1.5 5.11914 1.5H6.56543ZM4.00684 18.9414C3.91091 19.9936 4.78432 20.9766 6 20.9766C7.21554 20.9764 8.08909 19.9936 7.99316 18.9414L7.56543 14.25H4.43457L4.00684 18.9414ZM4.16504 5.68848L4.68945 5.99219C5.03651 6.1933 5.24985 6.56469 5.25 6.96582V12.75H6.75V6.96094C6.75 6.56851 6.95495 6.2042 7.29004 6L7.74512 5.72266L6.33691 3H5.3623L4.16504 5.68848Z" fill="#F9F9F9"/>
</g>
<defs>
<clipPath id="clip0_3446_4060">
<rect width="24" height="24" fill="white"/>
</clipPath>
</defs>
</svg>
