<svg width="1400" height="72" viewBox="0 0 1400 72" fill="none" xmlns="http://www.w3.org/2000/svg">
<g filter="url(#filter0_d_106_433)">
<path d="M29.5085 11.2488C29.6199 11.2488 29.7924 11.2621 30.0258 11.2886C30.2646 11.3098 30.5352 11.3682 30.8376 11.4637C31.1401 11.5592 31.4478 11.7131 31.7609 11.9253C32.0739 12.1376 32.3631 12.4347 32.6284 12.8167C32.6019 12.8327 32.5011 12.9043 32.326 13.0316C32.1562 13.159 31.9625 13.3447 31.745 13.5888C31.5274 13.8275 31.3364 14.1326 31.1719 14.5041C31.0127 14.8702 30.9332 15.3079 30.9332 15.8173C30.9332 16.4009 31.034 16.8944 31.2356 17.2977C31.4425 17.7009 31.6813 18.0272 31.9519 18.2766C32.2278 18.526 32.4719 18.709 32.6841 18.8258C32.9017 18.9372 33.0184 18.9956 33.0343 19.0009C33.029 19.0221 32.9892 19.1415 32.9149 19.359C32.8407 19.5713 32.7239 19.8472 32.5647 20.1868C32.4109 20.521 32.2092 20.8712 31.9599 21.2374C31.7317 21.561 31.4956 21.8714 31.2515 22.1686C31.0127 22.4657 30.7501 22.7071 30.4636 22.8928C30.1824 23.0838 29.864 23.1793 29.5085 23.1793C29.2379 23.1793 29.0071 23.1475 28.8161 23.0838C28.625 23.0202 28.442 22.9459 28.2669 22.861C28.0971 22.7814 27.9087 22.7098 27.7018 22.6461C27.4949 22.5824 27.2375 22.5506 26.9298 22.5506C26.5265 22.5506 26.1896 22.601 25.919 22.7018C25.6537 22.8079 25.4017 22.914 25.1629 23.0202C24.9241 23.1263 24.6429 23.1793 24.3192 23.1793C23.8258 23.1793 23.3907 22.9857 23.014 22.5983C22.6425 22.211 22.2605 21.7441 21.8679 21.1976C21.5654 20.7625 21.2895 20.2611 21.0401 19.6933C20.7908 19.1256 20.5918 18.5233 20.4432 17.8866C20.2946 17.2499 20.2204 16.6132 20.2204 15.9765C20.2204 14.9577 20.414 14.0981 20.8014 13.3978C21.1887 12.6921 21.6848 12.1588 22.2897 11.798C22.8946 11.4319 23.5233 11.2488 24.176 11.2488C24.5209 11.2488 24.8445 11.3098 25.147 11.4319C25.4547 11.5539 25.7412 11.676 26.0065 11.798C26.2718 11.9147 26.5133 11.9731 26.7308 11.9731C26.9377 11.9731 27.1818 11.9147 27.463 11.798C27.7443 11.676 28.0547 11.5539 28.3942 11.4319C28.7391 11.3098 29.1105 11.2488 29.5085 11.2488ZM28.9514 9.95947C28.6861 10.2831 28.3518 10.5511 27.9485 10.7633C27.5506 10.9756 27.1739 11.0817 26.8184 11.0817C26.7441 11.0817 26.6724 11.0737 26.6035 11.0578C26.5982 11.0366 26.5902 10.9994 26.5796 10.9464C26.5743 10.8933 26.5716 10.835 26.5716 10.7713C26.5716 10.368 26.6592 9.97539 26.8343 9.59336C27.0094 9.21133 27.211 8.89297 27.4392 8.63828C27.7204 8.304 28.0759 8.02544 28.5057 7.80259C28.9408 7.57974 29.3573 7.46035 29.7552 7.44443C29.7711 7.53464 29.7791 7.6381 29.7791 7.75483C29.7791 8.1634 29.7022 8.56135 29.5483 8.94868C29.3944 9.33071 29.1954 9.66764 28.9514 9.95947Z" fill="white"/>
</g>
<g filter="url(#filter1_d_106_433)">
<path d="M54.8018 22L57.9819 12.8403H59.6133V14.6685H59.0547L56.814 22H54.8018ZM56.5029 19.7783L56.9727 18.3438H61.2065L61.6763 19.7783H56.5029ZM61.4033 22L59.1689 14.6685V12.8403H60.2354L63.4219 22H61.4033ZM64.793 24.3169V15.0112H66.6465V16.0903H66.7607C66.8835 15.8407 67.0443 15.627 67.2432 15.4492C67.4463 15.2715 67.6833 15.1361 67.9541 15.043C68.2249 14.9456 68.5254 14.897 68.8555 14.897C69.4395 14.897 69.943 15.043 70.3662 15.335C70.7894 15.627 71.1152 16.0417 71.3438 16.5791C71.5765 17.1123 71.6929 17.7513 71.6929 18.4961V18.5088C71.6929 19.2578 71.5786 19.901 71.3501 20.4385C71.1216 20.9759 70.7957 21.3885 70.3726 21.6763C69.9494 21.964 69.4437 22.1079 68.8555 22.1079C68.5339 22.1079 68.2355 22.0592 67.9604 21.9619C67.6896 21.8604 67.4505 21.7186 67.2432 21.5366C67.04 21.3547 66.8792 21.1367 66.7607 20.8828H66.6465V24.3169H64.793ZM68.2207 20.5718C68.5508 20.5718 68.8322 20.4893 69.0649 20.3242C69.3019 20.1592 69.4839 19.9222 69.6108 19.6133C69.742 19.3044 69.8076 18.9362 69.8076 18.5088V18.4961C69.8076 18.0687 69.742 17.7005 69.6108 17.3916C69.4839 17.0827 69.3019 16.8457 69.0649 16.6807C68.8322 16.5156 68.5508 16.4331 68.2207 16.4331C67.8949 16.4331 67.6113 16.5156 67.3701 16.6807C67.1331 16.8457 66.9491 17.0827 66.8179 17.3916C66.6909 17.6963 66.6274 18.0645 66.6274 18.4961V18.5088C66.6274 18.932 66.693 19.3001 66.8242 19.6133C66.9554 19.9222 67.1395 20.1592 67.3765 20.3242C67.6177 20.4893 67.8991 20.5718 68.2207 20.5718ZM73.21 24.3169V15.0112H75.0635V16.0903H75.1777C75.3005 15.8407 75.4613 15.627 75.6602 15.4492C75.8633 15.2715 76.1003 15.1361 76.3711 15.043C76.6419 14.9456 76.9424 14.897 77.2725 14.897C77.8564 14.897 78.36 15.043 78.7832 15.335C79.2064 15.627 79.5322 16.0417 79.7607 16.5791C79.9935 17.1123 80.1099 17.7513 80.1099 18.4961V18.5088C80.1099 19.2578 79.9956 19.901 79.7671 20.4385C79.5386 20.9759 79.2127 21.3885 78.7896 21.6763C78.3664 21.964 77.8607 22.1079 77.2725 22.1079C76.9508 22.1079 76.6525 22.0592 76.3774 21.9619C76.1066 21.8604 75.8675 21.7186 75.6602 21.5366C75.457 21.3547 75.2962 21.1367 75.1777 20.8828H75.0635V24.3169H73.21ZM76.6377 20.5718C76.9678 20.5718 77.2492 20.4893 77.4819 20.3242C77.7189 20.1592 77.9009 19.9222 78.0278 19.6133C78.159 19.3044 78.2246 18.9362 78.2246 18.5088V18.4961C78.2246 18.0687 78.159 17.7005 78.0278 17.3916C77.9009 17.0827 77.7189 16.8457 77.4819 16.6807C77.2492 16.5156 76.9678 16.4331 76.6377 16.4331C76.3118 16.4331 76.0283 16.5156 75.7871 16.6807C75.5501 16.8457 75.366 17.0827 75.2349 17.3916C75.1079 17.6963 75.0444 18.0645 75.0444 18.4961V18.5088C75.0444 18.932 75.11 19.3001 75.2412 19.6133C75.3724 19.9222 75.5565 20.1592 75.7935 20.3242C76.0347 20.4893 76.3161 20.5718 76.6377 20.5718ZM85.1626 22V12.8403H86.7622L91.4785 19.353L90.1392 18.6738H91.0913V12.8403H92.9258V22H91.3389L86.6099 15.4619L87.9556 16.1411H86.9971V22H85.1626ZM96.874 22.1079C96.4339 22.1079 96.0404 22.0233 95.6934 21.854C95.3506 21.6805 95.0819 21.4372 94.8872 21.124C94.6925 20.8066 94.5952 20.4364 94.5952 20.0132V20.0005C94.5952 19.5815 94.6989 19.2218 94.9062 18.9214C95.1178 18.6209 95.4246 18.3861 95.8267 18.2168C96.2329 18.0433 96.7259 17.9396 97.3057 17.9058L99.9082 17.7471V18.877L97.585 19.0293C97.1872 19.0505 96.891 19.1351 96.6963 19.2832C96.5016 19.4313 96.4043 19.6323 96.4043 19.8862V19.8989C96.4043 20.1655 96.5059 20.375 96.709 20.5273C96.9121 20.6797 97.1745 20.7559 97.4961 20.7559C97.7839 20.7559 98.0399 20.6987 98.2642 20.5845C98.4884 20.4702 98.6662 20.3158 98.7974 20.1211C98.9285 19.9222 98.9941 19.7 98.9941 19.4546V17.2266C98.9941 16.9219 98.8926 16.6891 98.6895 16.5283C98.4906 16.3633 98.2007 16.2808 97.8198 16.2808C97.4855 16.2808 97.2126 16.3379 97.001 16.4521C96.7936 16.5622 96.654 16.7209 96.582 16.9282L96.5693 16.9536H94.8555L94.8618 16.8965C94.9126 16.486 95.0671 16.1284 95.3252 15.8237C95.5876 15.519 95.9388 15.2821 96.3789 15.1128C96.8232 14.9435 97.3374 14.8589 97.9214 14.8589C98.5392 14.8589 99.064 14.9541 99.4956 15.1445C99.9272 15.3307 100.255 15.6016 100.479 15.957C100.708 16.3083 100.822 16.7314 100.822 17.2266V22H98.9941V21.0732H98.8799C98.7614 21.2891 98.6027 21.4753 98.4038 21.6318C98.2091 21.7842 97.9806 21.9027 97.7183 21.9873C97.4601 22.0677 97.1787 22.1079 96.874 22.1079ZM102.638 22V15.0112H104.491V16.103H104.605C104.754 15.7095 104.999 15.4048 105.342 15.189C105.685 14.9689 106.084 14.8589 106.542 14.8589C106.859 14.8589 107.147 14.9118 107.405 15.0176C107.663 15.1191 107.883 15.2651 108.065 15.4556C108.247 15.646 108.387 15.8766 108.484 16.1475H108.598C108.704 15.8893 108.861 15.665 109.068 15.4746C109.275 15.2799 109.519 15.1297 109.798 15.0239C110.077 14.9139 110.38 14.8589 110.706 14.8589C111.171 14.8589 111.571 14.9541 111.905 15.1445C112.244 15.335 112.504 15.6058 112.686 15.957C112.872 16.304 112.965 16.7188 112.965 17.2012V22H111.112V17.6646C111.112 17.381 111.069 17.1462 110.985 16.96C110.9 16.7738 110.771 16.6341 110.598 16.541C110.428 16.4437 110.215 16.395 109.957 16.395C109.707 16.395 109.489 16.4521 109.303 16.5664C109.121 16.6807 108.979 16.8351 108.877 17.0298C108.776 17.2244 108.725 17.4487 108.725 17.7026V22H106.872V17.582C106.872 17.3324 106.825 17.1187 106.732 16.9409C106.643 16.7632 106.512 16.6278 106.338 16.5347C106.169 16.4416 105.964 16.395 105.723 16.395C105.481 16.395 105.268 16.4564 105.082 16.5791C104.9 16.6976 104.756 16.8626 104.65 17.0742C104.544 17.2816 104.491 17.5186 104.491 17.7852V22H102.638ZM117.834 22.146C117.127 22.146 116.518 22 116.006 21.708C115.498 21.4118 115.107 20.9928 114.832 20.4512C114.556 19.9095 114.419 19.2642 114.419 18.5151V18.5088C114.419 17.7682 114.554 17.125 114.825 16.5791C115.1 16.0332 115.487 15.61 115.987 15.3096C116.49 15.0091 117.081 14.8589 117.758 14.8589C118.439 14.8589 119.027 15.0049 119.522 15.2969C120.018 15.5889 120.398 15.9972 120.665 16.522C120.932 17.0467 121.065 17.6624 121.065 18.3691V18.9468H115.346V17.7852H120.176L119.307 18.8833V18.1406C119.307 17.7217 119.241 17.3726 119.11 17.0933C118.983 16.814 118.805 16.6045 118.577 16.4648C118.352 16.321 118.09 16.249 117.79 16.249C117.493 16.249 117.229 16.3231 116.996 16.4712C116.768 16.6151 116.586 16.8288 116.45 17.1123C116.319 17.3916 116.253 17.7344 116.253 18.1406V18.8896C116.253 19.2832 116.319 19.6196 116.45 19.8989C116.581 20.1782 116.768 20.3919 117.009 20.54C117.25 20.6882 117.538 20.7622 117.872 20.7622C118.143 20.7622 118.374 20.722 118.564 20.6416C118.754 20.5612 118.907 20.4681 119.021 20.3623C119.139 20.2523 119.22 20.1528 119.262 20.064L119.281 20.0259H121.008L120.995 20.0894C120.94 20.3094 120.841 20.54 120.697 20.7812C120.553 21.0182 120.354 21.2404 120.1 21.4478C119.85 21.6551 119.537 21.8244 119.161 21.9556C118.788 22.0825 118.346 22.146 117.834 22.146Z" fill="white"/>
</g>
<g filter="url(#filter2_d_106_433)">
<path d="M145.485 22V12.8403H151.045V13.8687H146.627V17.0171H150.684V18.0327H146.627V22H145.485ZM152.81 22V15.1572H153.915V22H152.81ZM153.369 13.8369C153.161 13.8369 152.981 13.7629 152.829 13.6147C152.681 13.4624 152.607 13.2826 152.607 13.0752C152.607 12.8636 152.681 12.6838 152.829 12.5356C152.981 12.3875 153.161 12.3135 153.369 12.3135C153.58 12.3135 153.76 12.3875 153.908 12.5356C154.056 12.6838 154.13 12.8636 154.13 13.0752C154.13 13.2826 154.056 13.4624 153.908 13.6147C153.76 13.7629 153.58 13.8369 153.369 13.8369ZM156.06 22V12.4404H157.165V22H156.06ZM162.078 22.1206C161.426 22.1206 160.865 21.9767 160.396 21.689C159.93 21.4012 159.57 20.995 159.316 20.4702C159.067 19.9412 158.942 19.3192 158.942 18.604V18.5977C158.942 17.891 159.067 17.271 159.316 16.7378C159.57 16.2046 159.928 15.7878 160.389 15.4873C160.85 15.1868 161.39 15.0366 162.008 15.0366C162.63 15.0366 163.163 15.1805 163.607 15.4683C164.056 15.756 164.399 16.158 164.636 16.6743C164.877 17.1864 164.998 17.783 164.998 18.4644V18.896H159.513V18.0137H164.433L163.887 18.8198V18.3818C163.887 17.8444 163.806 17.4022 163.646 17.0552C163.485 16.7082 163.263 16.45 162.979 16.2808C162.695 16.1073 162.37 16.0205 162.001 16.0205C161.633 16.0205 161.303 16.1115 161.011 16.2935C160.723 16.4712 160.495 16.7357 160.326 17.0869C160.156 17.4382 160.072 17.8698 160.072 18.3818V18.8198C160.072 19.3065 160.154 19.7233 160.319 20.0703C160.484 20.4131 160.719 20.6776 161.024 20.8638C161.329 21.0457 161.688 21.1367 162.103 21.1367C162.412 21.1367 162.681 21.0944 162.909 21.0098C163.138 20.9251 163.326 20.8172 163.474 20.686C163.622 20.5549 163.726 20.4215 163.785 20.2861L163.811 20.229H164.915L164.902 20.2798C164.843 20.5125 164.737 20.7389 164.585 20.959C164.437 21.1748 164.244 21.3716 164.007 21.5493C163.77 21.7228 163.489 21.8625 163.163 21.9683C162.841 22.0698 162.48 22.1206 162.078 22.1206Z" fill="white"/>
</g>
<g filter="url(#filter3_d_106_433)">
<path d="M189.336 22V12.8403H195.011V13.8687H190.479V16.8076H194.776V17.8232H190.479V20.9717H195.011V22H189.336ZM199.467 22.1206C198.891 22.1206 198.388 21.9746 197.956 21.6826C197.524 21.3906 197.19 20.9801 196.953 20.4512C196.716 19.918 196.598 19.2959 196.598 18.585V18.5723C196.598 17.8571 196.716 17.235 196.953 16.7061C197.19 16.1771 197.522 15.7666 197.95 15.4746C198.381 15.1826 198.887 15.0366 199.467 15.0366C199.78 15.0366 200.074 15.0874 200.349 15.189C200.628 15.2863 200.876 15.4238 201.092 15.6016C201.308 15.7793 201.477 15.9909 201.6 16.2363H201.701V12.4404H202.806V22H201.701V20.9082H201.6C201.46 21.1621 201.284 21.38 201.073 21.562C200.861 21.7397 200.62 21.8773 200.349 21.9746C200.078 22.0719 199.784 22.1206 199.467 22.1206ZM199.721 21.1431C200.135 21.1431 200.493 21.0394 200.793 20.832C201.094 20.6247 201.325 20.3306 201.485 19.9497C201.646 19.5646 201.727 19.1097 201.727 18.585V18.5723C201.727 18.0433 201.646 17.5884 201.485 17.2075C201.325 16.8267 201.094 16.5326 200.793 16.3252C200.493 16.1178 200.135 16.0142 199.721 16.0142C199.306 16.0142 198.948 16.1178 198.648 16.3252C198.352 16.5283 198.123 16.8203 197.962 17.2012C197.806 17.582 197.728 18.0391 197.728 18.5723V18.585C197.728 19.1139 197.806 19.571 197.962 19.9561C198.123 20.3369 198.352 20.631 198.648 20.8384C198.948 21.0415 199.306 21.1431 199.721 21.1431ZM204.951 22V15.1572H206.056V22H204.951ZM205.51 13.8369C205.302 13.8369 205.123 13.7629 204.97 13.6147C204.822 13.4624 204.748 13.2826 204.748 13.0752C204.748 12.8636 204.822 12.6838 204.97 12.5356C205.123 12.3875 205.302 12.3135 205.51 12.3135C205.721 12.3135 205.901 12.3875 206.049 12.5356C206.197 12.6838 206.271 12.8636 206.271 13.0752C206.271 13.2826 206.197 13.4624 206.049 13.6147C205.901 13.7629 205.721 13.8369 205.51 13.8369ZM210.569 22.0508C209.866 22.0508 209.356 21.909 209.039 21.6255C208.726 21.342 208.569 20.8743 208.569 20.2227V16.0713H207.49V15.1572H208.569V13.3862H209.712V15.1572H211.21V16.0713H209.712V19.9434C209.712 20.3454 209.788 20.6353 209.94 20.813C210.093 20.9865 210.347 21.0732 210.702 21.0732C210.799 21.0732 210.882 21.0711 210.95 21.0669C211.022 21.0627 211.108 21.0563 211.21 21.0479V21.9873C211.104 22.0042 210.998 22.019 210.893 22.0317C210.787 22.0444 210.679 22.0508 210.569 22.0508Z" fill="white"/>
</g>
<g filter="url(#filter4_d_106_433)">
<path d="M238.082 22L234.705 12.8403H235.905L238.596 20.521H238.698L241.389 12.8403H242.589L239.212 22H238.082ZM244.081 22V15.1572H245.185V22H244.081ZM244.639 13.8369C244.432 13.8369 244.252 13.7629 244.1 13.6147C243.951 13.4624 243.877 13.2826 243.877 13.0752C243.877 12.8636 243.951 12.6838 244.1 12.5356C244.252 12.3875 244.432 12.3135 244.639 12.3135C244.851 12.3135 245.031 12.3875 245.179 12.5356C245.327 12.6838 245.401 12.8636 245.401 13.0752C245.401 13.2826 245.327 13.4624 245.179 13.6147C245.031 13.7629 244.851 13.8369 244.639 13.8369ZM250.06 22.1206C249.408 22.1206 248.848 21.9767 248.378 21.689C247.912 21.4012 247.553 20.995 247.299 20.4702C247.049 19.9412 246.924 19.3192 246.924 18.604V18.5977C246.924 17.891 247.049 17.271 247.299 16.7378C247.553 16.2046 247.91 15.7878 248.372 15.4873C248.833 15.1868 249.372 15.0366 249.99 15.0366C250.612 15.0366 251.146 15.1805 251.59 15.4683C252.038 15.756 252.381 16.158 252.618 16.6743C252.859 17.1864 252.98 17.783 252.98 18.4644V18.896H247.496V18.0137H252.415L251.869 18.8198V18.3818C251.869 17.8444 251.789 17.4022 251.628 17.0552C251.467 16.7082 251.245 16.45 250.961 16.2808C250.678 16.1073 250.352 16.0205 249.984 16.0205C249.616 16.0205 249.286 16.1115 248.994 16.2935C248.706 16.4712 248.477 16.7357 248.308 17.0869C248.139 17.4382 248.054 17.8698 248.054 18.3818V18.8198C248.054 19.3065 248.137 19.7233 248.302 20.0703C248.467 20.4131 248.702 20.6776 249.006 20.8638C249.311 21.0457 249.671 21.1367 250.085 21.1367C250.394 21.1367 250.663 21.0944 250.892 21.0098C251.12 20.9251 251.308 20.8172 251.457 20.686C251.605 20.5549 251.708 20.4215 251.768 20.2861L251.793 20.229H252.897L252.885 20.2798C252.826 20.5125 252.72 20.7389 252.567 20.959C252.419 21.1748 252.227 21.3716 251.99 21.5493C251.753 21.7228 251.471 21.8625 251.146 21.9683C250.824 22.0698 250.462 22.1206 250.06 22.1206ZM256.014 22L254.097 15.1572H255.202L256.547 20.6289H256.649L258.179 15.1572H259.226L260.756 20.6289H260.857L262.203 15.1572H263.301L261.384 22H260.273L258.744 16.7061H258.642L257.119 22H256.014Z" fill="white"/>
</g>
<g filter="url(#filter5_d_106_433)">
<path d="M291.268 22.2158C290.633 22.2158 290.059 22.1037 289.547 21.8794C289.04 21.6551 288.604 21.3335 288.24 20.9146C287.88 20.4956 287.603 19.992 287.408 19.4038C287.214 18.8156 287.116 18.1554 287.116 17.4233V17.4106C287.116 16.4458 287.288 15.6058 287.63 14.8906C287.973 14.1712 288.456 13.6147 289.078 13.2212C289.704 12.8234 290.434 12.6245 291.268 12.6245C291.945 12.6245 292.548 12.7451 293.077 12.9863C293.61 13.2233 294.048 13.5576 294.391 13.9893C294.738 14.4209 294.97 14.9266 295.089 15.5063L295.102 15.5698H293.946L293.927 15.5063C293.741 14.9139 293.422 14.4611 292.969 14.1479C292.516 13.8348 291.949 13.6782 291.268 13.6782C290.662 13.6782 290.136 13.8327 289.687 14.1416C289.243 14.4463 288.898 14.8779 288.652 15.4365C288.407 15.9951 288.284 16.6532 288.284 17.4106V17.4233C288.284 17.9989 288.352 18.5173 288.487 18.9785C288.627 19.4398 288.826 19.8333 289.084 20.1592C289.346 20.4808 289.662 20.7284 290.03 20.9019C290.398 21.0754 290.813 21.1621 291.274 21.1621C291.82 21.1621 292.298 21.0542 292.708 20.8384C293.123 20.6183 293.445 20.3136 293.673 19.9243C293.902 19.535 294.016 19.0822 294.016 18.5659V18.3438H291.445V17.3408H295.159V18.458C295.159 19.0208 295.066 19.5329 294.879 19.9941C294.697 20.4554 294.435 20.8532 294.092 21.1875C293.75 21.5176 293.339 21.7715 292.861 21.9492C292.383 22.127 291.852 22.2158 291.268 22.2158ZM299.856 22.1206C299.208 22.1206 298.648 21.9788 298.174 21.6953C297.704 21.4076 297.34 20.9992 297.082 20.4702C296.828 19.9412 296.701 19.3128 296.701 18.585V18.5723C296.701 17.8402 296.828 17.2096 297.082 16.6807C297.34 16.1517 297.704 15.7454 298.174 15.4619C298.648 15.1784 299.208 15.0366 299.856 15.0366C300.508 15.0366 301.068 15.1784 301.538 15.4619C302.008 15.7454 302.37 16.1517 302.624 16.6807C302.882 17.2096 303.011 17.8402 303.011 18.5723V18.585C303.011 19.3128 302.882 19.9412 302.624 20.4702C302.37 20.9992 302.008 21.4076 301.538 21.6953C301.068 21.9788 300.508 22.1206 299.856 22.1206ZM299.856 21.1431C300.288 21.1431 300.654 21.0415 300.954 20.8384C301.255 20.6353 301.483 20.3433 301.64 19.9624C301.8 19.5815 301.881 19.1224 301.881 18.585V18.5723C301.881 18.0306 301.8 17.5693 301.64 17.1885C301.483 16.8076 301.255 16.5177 300.954 16.3188C300.654 16.1157 300.288 16.0142 299.856 16.0142C299.424 16.0142 299.058 16.1157 298.758 16.3188C298.457 16.5177 298.227 16.8076 298.066 17.1885C297.909 17.5693 297.831 18.0306 297.831 18.5723V18.585C297.831 19.1224 297.909 19.5815 298.066 19.9624C298.227 20.3433 298.457 20.6353 298.758 20.8384C299.058 21.0415 299.424 21.1431 299.856 21.1431Z" fill="white"/>
</g>
<path d="M1212.69 23.7139C1212.16 23.7139 1211.67 23.5954 1211.23 23.3584C1210.8 23.1257 1210.46 22.8019 1210.2 22.3872C1209.94 21.9725 1209.82 21.4922 1209.82 20.9463C1209.82 20.4004 1209.94 19.9201 1210.2 19.5054C1210.46 19.0907 1210.8 18.7669 1211.23 18.5342C1211.67 18.2972 1212.16 18.1787 1212.69 18.1787H1219.3C1219.84 18.1787 1220.32 18.2972 1220.75 18.5342C1221.19 18.7669 1221.54 19.0907 1221.79 19.5054C1222.05 19.9201 1222.18 20.4004 1222.18 20.9463C1222.18 21.4922 1222.05 21.9725 1221.79 22.3872C1221.54 22.8019 1221.19 23.1257 1220.75 23.3584C1220.32 23.5954 1219.84 23.7139 1219.3 23.7139H1212.69ZM1219.47 22.4634C1219.74 22.4634 1219.99 22.3936 1220.22 22.2539C1220.45 22.1185 1220.63 21.9344 1220.77 21.7017C1220.91 21.4689 1220.98 21.2108 1220.98 20.9272C1220.98 20.6522 1220.92 20.4025 1220.78 20.1782C1220.64 19.9497 1220.46 19.7677 1220.23 19.6323C1220 19.4969 1219.75 19.4292 1219.47 19.4292C1219.19 19.4292 1218.93 19.4969 1218.7 19.6323C1218.48 19.7677 1218.29 19.9497 1218.16 20.1782C1218.02 20.4067 1217.96 20.6606 1217.96 20.9399C1217.96 21.2192 1218.02 21.4731 1218.16 21.7017C1218.29 21.9302 1218.48 22.1121 1218.7 22.2476C1218.93 22.3872 1219.19 22.4591 1219.47 22.4634ZM1212.95 17.2075C1212.36 17.2075 1211.83 17.0806 1211.35 16.8267C1210.88 16.5728 1210.51 16.2173 1210.23 15.7603C1209.95 15.299 1209.82 14.7658 1209.82 14.1606C1209.82 13.5513 1209.95 13.0181 1210.23 12.561C1210.51 12.0998 1210.88 11.7422 1211.35 11.4883C1211.83 11.2344 1212.36 11.1074 1212.95 11.1074H1219.04C1219.63 11.1074 1220.17 11.2344 1220.64 11.4883C1221.11 11.7422 1221.49 12.0998 1221.76 12.561C1222.04 13.0181 1222.18 13.5513 1222.18 14.1606C1222.18 14.7658 1222.04 15.299 1221.76 15.7603C1221.49 16.2173 1221.11 16.5728 1220.64 16.8267C1220.17 17.0806 1219.63 17.2075 1219.04 17.2075H1212.95ZM1212.95 15.9316H1219.04C1219.38 15.9316 1219.69 15.8576 1219.97 15.7095C1220.25 15.5571 1220.48 15.3477 1220.65 15.0811C1220.82 14.8145 1220.9 14.5076 1220.9 14.1606C1220.9 13.8094 1220.82 13.5026 1220.65 13.2402C1220.48 12.9736 1220.25 12.7663 1219.97 12.6182C1219.69 12.4658 1219.38 12.3896 1219.04 12.3896H1212.95C1212.61 12.3896 1212.3 12.4658 1212.02 12.6182C1211.74 12.7663 1211.52 12.9736 1211.35 13.2402C1211.18 13.5026 1211.09 13.8094 1211.09 14.1606C1211.09 14.5076 1211.18 14.8145 1211.35 15.0811C1211.52 15.3477 1211.74 15.5571 1212.02 15.7095C1212.3 15.8576 1212.61 15.9316 1212.95 15.9316ZM1212.95 15.519C1212.7 15.519 1212.47 15.4577 1212.26 15.335C1212.06 15.2122 1211.9 15.0472 1211.77 14.8398C1211.65 14.6325 1211.59 14.404 1211.59 14.1543C1211.59 13.9046 1211.65 13.6761 1211.77 13.4688C1211.9 13.2614 1212.06 13.0964 1212.26 12.9736C1212.47 12.8509 1212.7 12.7896 1212.95 12.7896C1213.21 12.7896 1213.44 12.8509 1213.65 12.9736C1213.85 13.0921 1214.02 13.255 1214.14 13.4624C1214.26 13.6655 1214.32 13.894 1214.32 14.1479C1214.32 14.4019 1214.26 14.6325 1214.13 14.8398C1214.01 15.0472 1213.85 15.2144 1213.64 15.3413C1213.44 15.464 1213.21 15.5233 1212.95 15.519Z" fill="white" fill-opacity="0.85"/>
<g filter="url(#filter6_d_106_433)">
<path d="M1247.6 22V12.8403H1249.48L1252.24 19.8926H1252.34L1255.09 12.8403H1256.97V22H1255.5V15.4873H1254.7L1256.32 13.0942L1252.84 22H1251.73L1248.26 13.0942L1249.88 15.4873H1249.07V22H1247.6ZM1262.06 22.1396C1261.37 22.1396 1260.78 21.9958 1260.28 21.708C1259.78 21.416 1259.39 21.0013 1259.12 20.4639C1258.86 19.9264 1258.72 19.2832 1258.72 18.5342V18.5215C1258.72 17.7809 1258.86 17.1419 1259.13 16.6045C1259.4 16.0628 1259.78 15.6481 1260.28 15.3604C1260.78 15.0726 1261.37 14.9287 1262.06 14.9287C1262.75 14.9287 1263.34 15.0726 1263.84 15.3604C1264.34 15.6481 1264.72 16.0607 1264.99 16.5981C1265.26 17.1356 1265.4 17.7767 1265.4 18.5215V18.5342C1265.4 19.2832 1265.26 19.9264 1264.99 20.4639C1264.73 21.0013 1264.34 21.416 1263.85 21.708C1263.35 21.9958 1262.76 22.1396 1262.06 22.1396ZM1262.06 20.8574C1262.43 20.8574 1262.73 20.7664 1262.99 20.5845C1263.25 20.3983 1263.44 20.1338 1263.58 19.791C1263.71 19.444 1263.78 19.0272 1263.78 18.5405V18.5278C1263.78 18.0369 1263.71 17.6201 1263.58 17.2773C1263.44 16.9303 1263.25 16.6659 1262.99 16.4839C1262.73 16.2977 1262.43 16.2046 1262.06 16.2046C1261.7 16.2046 1261.39 16.2977 1261.13 16.4839C1260.87 16.6659 1260.67 16.9303 1260.54 17.2773C1260.4 17.6201 1260.33 18.0369 1260.33 18.5278V18.5405C1260.33 19.0272 1260.4 19.444 1260.54 19.791C1260.67 20.138 1260.87 20.4025 1261.12 20.5845C1261.38 20.7664 1261.69 20.8574 1262.06 20.8574ZM1266.99 22V15.062H1268.57V16.1284H1268.68C1268.84 15.7518 1269.09 15.4577 1269.42 15.2461C1269.76 15.0345 1270.18 14.9287 1270.68 14.9287C1271.45 14.9287 1272.04 15.153 1272.45 15.6016C1272.86 16.0501 1273.07 16.687 1273.07 17.5122V22H1271.49V17.8804C1271.49 17.3387 1271.37 16.9325 1271.15 16.6616C1270.92 16.3908 1270.57 16.2554 1270.09 16.2554C1269.78 16.2554 1269.51 16.3252 1269.28 16.4648C1269.05 16.6045 1268.87 16.8013 1268.75 17.0552C1268.63 17.3091 1268.57 17.6095 1268.57 17.9565V22H1266.99ZM1280.84 22.2285C1280.4 22.2285 1280 22.165 1279.65 22.0381C1279.3 21.9111 1279 21.7313 1278.75 21.4985C1278.5 21.2658 1278.31 20.9886 1278.17 20.667C1278.04 20.3411 1277.96 19.9814 1277.94 19.5879L1277.94 19.5181H1279.54L1279.54 19.5688C1279.56 19.8016 1279.62 20.0111 1279.71 20.1973C1279.82 20.3792 1279.96 20.5252 1280.15 20.6353C1280.33 20.741 1280.56 20.7939 1280.83 20.7939C1281.27 20.7939 1281.61 20.6649 1281.83 20.4067C1282.07 20.1444 1282.18 19.7656 1282.18 19.2705V12.8403H1283.81V19.2832C1283.81 19.901 1283.7 20.43 1283.47 20.8701C1283.23 21.3102 1282.89 21.6466 1282.45 21.8794C1282.01 22.1121 1281.47 22.2285 1280.84 22.2285ZM1288.21 22.1396C1287.7 22.1396 1287.26 22.0402 1286.91 21.8413C1286.56 21.6382 1286.3 21.3441 1286.12 20.959C1285.94 20.5697 1285.85 20.0999 1285.85 19.5498V15.062H1287.43V19.188C1287.43 19.7254 1287.54 20.1296 1287.75 20.4004C1287.96 20.6712 1288.31 20.8066 1288.79 20.8066C1289.04 20.8066 1289.26 20.7686 1289.46 20.6924C1289.66 20.612 1289.82 20.4977 1289.95 20.3496C1290.08 20.2015 1290.18 20.0238 1290.25 19.8164C1290.32 19.6048 1290.35 19.3678 1290.35 19.1055V15.062H1291.93V22H1290.35V20.9463H1290.25C1290.14 21.1917 1289.99 21.4054 1289.8 21.5874C1289.61 21.7651 1289.38 21.9027 1289.12 22C1288.85 22.0931 1288.55 22.1396 1288.21 22.1396ZM1293.86 22V15.062H1295.44V16.1284H1295.55C1295.72 15.7518 1295.97 15.4577 1296.3 15.2461C1296.64 15.0345 1297.05 14.9287 1297.55 14.9287C1298.33 14.9287 1298.92 15.153 1299.33 15.6016C1299.74 16.0501 1299.94 16.687 1299.94 17.5122V22H1298.36V17.8804C1298.36 17.3387 1298.25 16.9325 1298.02 16.6616C1297.8 16.3908 1297.45 16.2554 1296.97 16.2554C1296.65 16.2554 1296.38 16.3252 1296.15 16.4648C1295.93 16.6045 1295.75 16.8013 1295.63 17.0552C1295.51 17.3091 1295.44 17.6095 1295.44 17.9565V22H1293.86ZM1307.52 22V14.4526H1307.4L1305.12 16.0586V14.5225L1307.52 12.8403H1309.15V22H1307.52ZM1315.05 22.2285C1314.32 22.2285 1313.7 22.0339 1313.18 21.6445C1312.66 21.2552 1312.27 20.7008 1311.99 19.9814C1311.71 19.262 1311.57 18.4093 1311.57 17.4233V17.4106C1311.57 16.4246 1311.71 15.5741 1311.99 14.8589C1312.27 14.1395 1312.66 13.5851 1313.18 13.1958C1313.7 12.8065 1314.32 12.6118 1315.05 12.6118C1315.78 12.6118 1316.4 12.8065 1316.92 13.1958C1317.44 13.5851 1317.84 14.1395 1318.12 14.8589C1318.4 15.5741 1318.54 16.4246 1318.54 17.4106V17.4233C1318.54 18.4093 1318.4 19.262 1318.12 19.9814C1317.84 20.7008 1317.44 21.2552 1316.92 21.6445C1316.4 22.0339 1315.78 22.2285 1315.05 22.2285ZM1315.05 20.9019C1315.44 20.9019 1315.77 20.7622 1316.05 20.4829C1316.32 20.2036 1316.53 19.8058 1316.68 19.2896C1316.82 18.769 1316.9 18.147 1316.9 17.4233V17.4106C1316.9 16.687 1316.82 16.0671 1316.68 15.5508C1316.53 15.0303 1316.32 14.6325 1316.05 14.3574C1315.77 14.0781 1315.44 13.9385 1315.05 13.9385C1314.66 13.9385 1314.33 14.0781 1314.06 14.3574C1313.78 14.6325 1313.57 15.0303 1313.43 15.5508C1313.28 16.0671 1313.21 16.687 1313.21 17.4106V17.4233C1313.21 18.147 1313.28 18.769 1313.43 19.2896C1313.57 19.8058 1313.78 20.2036 1314.06 20.4829C1314.33 20.7622 1314.66 20.9019 1315.05 20.9019ZM1330.51 12.6118C1331.01 12.6118 1331.47 12.7028 1331.91 12.8848C1332.35 13.0625 1332.74 13.3418 1333.08 13.7227C1333.42 14.0993 1333.69 14.5838 1333.89 15.1763C1334.08 15.7645 1334.18 16.4733 1334.18 17.3027V17.3154C1334.18 18.3438 1334.03 19.224 1333.73 19.9561C1333.44 20.6882 1333.01 21.251 1332.46 21.6445C1331.91 22.0339 1331.25 22.2285 1330.48 22.2285C1329.92 22.2285 1329.41 22.127 1328.96 21.9238C1328.51 21.7165 1328.14 21.4329 1327.84 21.0732C1327.55 20.7093 1327.35 20.2946 1327.25 19.8291L1327.24 19.7593H1328.85L1328.87 19.8228C1328.95 20.0343 1329.07 20.2205 1329.21 20.3813C1329.37 20.5422 1329.55 20.667 1329.76 20.7559C1329.98 20.8405 1330.22 20.8828 1330.48 20.8828C1330.97 20.8828 1331.36 20.741 1331.66 20.4575C1331.97 20.1698 1332.2 19.7868 1332.36 19.3086C1332.51 18.8262 1332.6 18.293 1332.62 17.709C1332.63 17.6455 1332.63 17.5841 1332.63 17.5249C1332.63 17.4614 1332.63 17.4001 1332.63 17.3408L1332.34 15.811C1332.34 15.464 1332.26 15.1488 1332.1 14.8652C1331.94 14.5817 1331.72 14.3574 1331.45 14.1924C1331.18 14.0273 1330.87 13.9448 1330.53 13.9448C1330.2 13.9448 1329.89 14.0252 1329.62 14.186C1329.34 14.3468 1329.12 14.5669 1328.96 14.8462C1328.79 15.1213 1328.71 15.4302 1328.71 15.7729V15.7856C1328.71 16.1411 1328.79 16.4564 1328.95 16.7314C1329.1 17.0023 1329.32 17.216 1329.59 17.3726C1329.86 17.5291 1330.17 17.6074 1330.51 17.6074C1330.86 17.6074 1331.17 17.5312 1331.45 17.3789C1331.72 17.2266 1331.94 17.015 1332.1 16.7441C1332.26 16.4733 1332.34 16.1665 1332.34 15.8237V15.811H1332.72V17.4995H1332.5C1332.39 17.7407 1332.23 17.965 1332.01 18.1724C1331.8 18.3797 1331.53 18.5469 1331.21 18.6738C1330.9 18.8008 1330.53 18.8643 1330.11 18.8643C1329.52 18.8643 1329.01 18.7331 1328.56 18.4707C1328.11 18.2083 1327.76 17.8486 1327.5 17.3916C1327.25 16.9346 1327.12 16.4183 1327.12 15.8428V15.8301C1327.12 15.208 1327.26 14.6558 1327.55 14.1733C1327.84 13.6867 1328.24 13.3058 1328.76 13.0308C1329.27 12.7515 1329.86 12.6118 1330.51 12.6118ZM1337.06 20.7686C1336.77 20.7686 1336.53 20.6733 1336.34 20.4829C1336.15 20.2882 1336.05 20.0513 1336.05 19.772C1336.05 19.4884 1336.15 19.2515 1336.34 19.061C1336.53 18.8664 1336.77 18.769 1337.06 18.769C1337.35 18.769 1337.59 18.8664 1337.78 19.061C1337.97 19.2515 1338.07 19.4884 1338.07 19.772C1338.07 20.0513 1337.97 20.2882 1337.78 20.4829C1337.59 20.6733 1337.35 20.7686 1337.06 20.7686ZM1337.06 16.0586C1336.77 16.0586 1336.53 15.9634 1336.34 15.7729C1336.15 15.5783 1336.05 15.3413 1336.05 15.062C1336.05 14.7785 1336.15 14.5415 1336.34 14.3511C1336.53 14.1564 1336.77 14.0591 1337.06 14.0591C1337.35 14.0591 1337.59 14.1564 1337.78 14.3511C1337.97 14.5415 1338.07 14.7785 1338.07 15.062C1338.07 15.3413 1337.97 15.5783 1337.78 15.7729C1337.59 15.9634 1337.35 16.0586 1337.06 16.0586ZM1344.38 22V20.2417H1339.9V18.9023C1340.14 18.4919 1340.39 18.0793 1340.63 17.6646C1340.87 17.2498 1341.12 16.8372 1341.37 16.4268C1341.62 16.012 1341.87 15.6037 1342.12 15.2017C1342.38 14.7954 1342.63 14.3955 1342.88 14.002C1343.13 13.6042 1343.39 13.217 1343.64 12.8403H1345.95V18.8896H1347.18V20.2417H1345.95V22H1344.38ZM1341.43 18.9277H1344.41V14.1479H1344.31C1344.13 14.4357 1343.94 14.7319 1343.74 15.0366C1343.54 15.3413 1343.35 15.6523 1343.15 15.9697C1342.95 16.2871 1342.75 16.6066 1342.56 16.9282C1342.36 17.2456 1342.17 17.5651 1341.98 17.8867C1341.79 18.2041 1341.6 18.5194 1341.43 18.8325V18.9277ZM1350.97 22V14.4526H1350.86L1348.58 16.0586V14.5225L1350.97 12.8403H1352.6V22H1350.97ZM1358.11 22L1361.36 12.8403H1362.72V14.5415H1362.23L1359.82 22H1358.11ZM1359.75 19.6323L1360.17 18.3691H1364.37L1364.8 19.6323H1359.75ZM1364.74 22L1362.34 14.5415V12.8403H1363.2L1366.46 22H1364.74ZM1368.03 22V12.8403H1369.91L1372.66 19.8926H1372.77L1375.52 12.8403H1377.4V22H1375.93V15.4873H1375.13L1376.75 13.0942L1373.27 22H1372.16L1368.68 13.0942L1370.31 15.4873H1369.5V22H1368.03Z" fill="white"/>
</g>
<mask id="mask0_106_433" style="mask-type:alpha" maskUnits="userSpaceOnUse" x="0" y="0" width="1400" height="72">
<rect width="1400" height="72" fill="url(#paint0_linear_106_433)"/>
</mask>
<g mask="url(#mask0_106_433)">
<rect width="1400" height="72" fill="black" fill-opacity="0.12" style="mix-blend-mode:plus-darker"/>
</g>
<defs>
<filter id="filter0_d_106_433" x="14.2205" y="2.44446" width="24.814" height="27.7349" filterUnits="userSpaceOnUse" color-interpolation-filters="sRGB">
<feFlood flood-opacity="0" result="BackgroundImageFix"/>
<feColorMatrix in="SourceAlpha" type="matrix" values="0 0 0 0 0 0 0 0 0 0 0 0 0 0 0 0 0 0 127 0" result="hardAlpha"/>
<feOffset dy="1"/>
<feGaussianBlur stdDeviation="3"/>
<feComposite in2="hardAlpha" operator="out"/>
<feColorMatrix type="matrix" values="0 0 0 0 0.8 0 0 0 0 0.8 0 0 0 0 0.8 0 0 0 1 0"/>
<feBlend mode="plus-darker" in2="BackgroundImageFix" result="effect1_dropShadow_106_433"/>
<feBlend mode="normal" in="SourceGraphic" in2="effect1_dropShadow_106_433" result="shape"/>
</filter>
<filter id="filter1_d_106_433" x="48.8018" y="7.84033" width="78.2632" height="23.4766" filterUnits="userSpaceOnUse" color-interpolation-filters="sRGB">
<feFlood flood-opacity="0" result="BackgroundImageFix"/>
<feColorMatrix in="SourceAlpha" type="matrix" values="0 0 0 0 0 0 0 0 0 0 0 0 0 0 0 0 0 0 127 0" result="hardAlpha"/>
<feOffset dy="1"/>
<feGaussianBlur stdDeviation="3"/>
<feComposite in2="hardAlpha" operator="out"/>
<feColorMatrix type="matrix" values="0 0 0 0 0.8 0 0 0 0 0.8 0 0 0 0 0.8 0 0 0 1 0"/>
<feBlend mode="plus-darker" in2="BackgroundImageFix" result="effect1_dropShadow_106_433"/>
<feBlend mode="normal" in="SourceGraphic" in2="effect1_dropShadow_106_433" result="shape"/>
</filter>
<filter id="filter2_d_106_433" x="139.485" y="7.31348" width="31.5127" height="21.8071" filterUnits="userSpaceOnUse" color-interpolation-filters="sRGB">
<feFlood flood-opacity="0" result="BackgroundImageFix"/>
<feColorMatrix in="SourceAlpha" type="matrix" values="0 0 0 0 0 0 0 0 0 0 0 0 0 0 0 0 0 0 127 0" result="hardAlpha"/>
<feOffset dy="1"/>
<feGaussianBlur stdDeviation="3"/>
<feComposite in2="hardAlpha" operator="out"/>
<feColorMatrix type="matrix" values="0 0 0 0 0.8 0 0 0 0 0.8 0 0 0 0 0.8 0 0 0 1 0"/>
<feBlend mode="plus-darker" in2="BackgroundImageFix" result="effect1_dropShadow_106_433"/>
<feBlend mode="normal" in="SourceGraphic" in2="effect1_dropShadow_106_433" result="shape"/>
</filter>
<filter id="filter3_d_106_433" x="183.336" y="7.31348" width="33.874" height="21.8071" filterUnits="userSpaceOnUse" color-interpolation-filters="sRGB">
<feFlood flood-opacity="0" result="BackgroundImageFix"/>
<feColorMatrix in="SourceAlpha" type="matrix" values="0 0 0 0 0 0 0 0 0 0 0 0 0 0 0 0 0 0 127 0" result="hardAlpha"/>
<feOffset dy="1"/>
<feGaussianBlur stdDeviation="3"/>
<feComposite in2="hardAlpha" operator="out"/>
<feColorMatrix type="matrix" values="0 0 0 0 0.8 0 0 0 0 0.8 0 0 0 0 0.8 0 0 0 1 0"/>
<feBlend mode="plus-darker" in2="BackgroundImageFix" result="effect1_dropShadow_106_433"/>
<feBlend mode="normal" in="SourceGraphic" in2="effect1_dropShadow_106_433" result="shape"/>
</filter>
<filter id="filter4_d_106_433" x="228.705" y="7.31348" width="40.5962" height="21.8071" filterUnits="userSpaceOnUse" color-interpolation-filters="sRGB">
<feFlood flood-opacity="0" result="BackgroundImageFix"/>
<feColorMatrix in="SourceAlpha" type="matrix" values="0 0 0 0 0 0 0 0 0 0 0 0 0 0 0 0 0 0 127 0" result="hardAlpha"/>
<feOffset dy="1"/>
<feGaussianBlur stdDeviation="3"/>
<feComposite in2="hardAlpha" operator="out"/>
<feColorMatrix type="matrix" values="0 0 0 0 0.8 0 0 0 0 0.8 0 0 0 0 0.8 0 0 0 1 0"/>
<feBlend mode="plus-darker" in2="BackgroundImageFix" result="effect1_dropShadow_106_433"/>
<feBlend mode="normal" in="SourceGraphic" in2="effect1_dropShadow_106_433" result="shape"/>
</filter>
<filter id="filter5_d_106_433" x="281.116" y="7.62451" width="27.8945" height="21.5913" filterUnits="userSpaceOnUse" color-interpolation-filters="sRGB">
<feFlood flood-opacity="0" result="BackgroundImageFix"/>
<feColorMatrix in="SourceAlpha" type="matrix" values="0 0 0 0 0 0 0 0 0 0 0 0 0 0 0 0 0 0 127 0" result="hardAlpha"/>
<feOffset dy="1"/>
<feGaussianBlur stdDeviation="3"/>
<feComposite in2="hardAlpha" operator="out"/>
<feColorMatrix type="matrix" values="0 0 0 0 0.8 0 0 0 0 0.8 0 0 0 0 0.8 0 0 0 1 0"/>
<feBlend mode="plus-darker" in2="BackgroundImageFix" result="effect1_dropShadow_106_433"/>
<feBlend mode="normal" in="SourceGraphic" in2="effect1_dropShadow_106_433" result="shape"/>
</filter>
<filter id="filter6_d_106_433" x="1241.6" y="7.61182" width="141.797" height="21.6167" filterUnits="userSpaceOnUse" color-interpolation-filters="sRGB">
<feFlood flood-opacity="0" result="BackgroundImageFix"/>
<feColorMatrix in="SourceAlpha" type="matrix" values="0 0 0 0 0 0 0 0 0 0 0 0 0 0 0 0 0 0 127 0" result="hardAlpha"/>
<feOffset dy="1"/>
<feGaussianBlur stdDeviation="3"/>
<feComposite in2="hardAlpha" operator="out"/>
<feColorMatrix type="matrix" values="0 0 0 0 0.8 0 0 0 0 0.8 0 0 0 0 0.8 0 0 0 1 0"/>
<feBlend mode="plus-darker" in2="BackgroundImageFix" result="effect1_dropShadow_106_433"/>
<feBlend mode="normal" in="SourceGraphic" in2="effect1_dropShadow_106_433" result="shape"/>
</filter>
<linearGradient id="paint0_linear_106_433" x1="700" y1="0" x2="700" y2="72" gradientUnits="userSpaceOnUse">
<stop stop-opacity="0.4"/>
<stop offset="1" stop-opacity="0"/>
</linearGradient>
</defs>
</svg>
