<svg width="63" height="30" viewBox="0 0 63 30" fill="none" xmlns="http://www.w3.org/2000/svg">
<rect width="63" height="24" rx="12" fill="#464646" fill-opacity="0.9"/>
<path d="M13.3647 17V7.84033H18.9253V8.86865H14.5073V12.0171H18.5635V13.0327H14.5073V17H13.3647ZM20.6899 17V10.1572H21.7944V17H20.6899ZM21.2485 8.83691C21.0412 8.83691 20.8613 8.76286 20.709 8.61475C20.5609 8.4624 20.4868 8.28255 20.4868 8.0752C20.4868 7.86361 20.5609 7.68376 20.709 7.53564C20.8613 7.38753 21.0412 7.31348 21.2485 7.31348C21.4601 7.31348 21.64 7.38753 21.7881 7.53564C21.9362 7.68376 22.0103 7.86361 22.0103 8.0752C22.0103 8.28255 21.9362 8.4624 21.7881 8.61475C21.64 8.76286 21.4601 8.83691 21.2485 8.83691ZM23.8765 17V10.1572H24.981V11.1855H25.0825C25.256 10.8216 25.5057 10.5402 25.8315 10.3413C26.1574 10.1382 26.5721 10.0366 27.0757 10.0366C27.8459 10.0366 28.4362 10.2567 28.8467 10.6968C29.2614 11.1326 29.4688 11.7568 29.4688 12.5693V17H28.3643V12.8359C28.3643 12.2181 28.2331 11.7611 27.9707 11.4648C27.7126 11.1644 27.3105 11.0142 26.7646 11.0142C26.4007 11.0142 26.0854 11.0924 25.8188 11.249C25.5522 11.4056 25.3449 11.6278 25.1968 11.9155C25.0529 12.2033 24.981 12.5482 24.981 12.9502V17H23.8765ZM33.9946 17.1206C33.4191 17.1206 32.9155 16.9746 32.4839 16.6826C32.0522 16.3906 31.7179 15.9801 31.481 15.4512C31.244 14.918 31.1255 14.2959 31.1255 13.585V13.5723C31.1255 12.8571 31.244 12.235 31.481 11.7061C31.7179 11.1771 32.0501 10.7666 32.4775 10.4746C32.9092 10.1826 33.4149 10.0366 33.9946 10.0366C34.3078 10.0366 34.6019 10.0874 34.877 10.189C35.1562 10.2863 35.4038 10.4238 35.6196 10.6016C35.8354 10.7793 36.0047 10.9909 36.1274 11.2363H36.229V7.44043H37.3335V17H36.229V15.9082H36.1274C35.9878 16.1621 35.8122 16.38 35.6006 16.562C35.389 16.7397 35.1478 16.8773 34.877 16.9746C34.6061 17.0719 34.312 17.1206 33.9946 17.1206ZM34.2485 16.1431C34.6632 16.1431 35.0208 16.0394 35.3213 15.832C35.6217 15.6247 35.8524 15.3306 36.0132 14.9497C36.174 14.5646 36.2544 14.1097 36.2544 13.585V13.5723C36.2544 13.0433 36.174 12.5884 36.0132 12.2075C35.8524 11.8267 35.6217 11.5326 35.3213 11.3252C35.0208 11.1178 34.6632 11.0142 34.2485 11.0142C33.8338 11.0142 33.4762 11.1178 33.1758 11.3252C32.8796 11.5283 32.651 11.8203 32.4902 12.2012C32.3337 12.582 32.2554 13.0391 32.2554 13.5723V13.585C32.2554 14.1139 32.3337 14.571 32.4902 14.9561C32.651 15.3369 32.8796 15.631 33.1758 15.8384C33.4762 16.0415 33.8338 16.1431 34.2485 16.1431ZM42.2466 17.1206C41.5949 17.1206 41.0342 16.9767 40.5645 16.689C40.099 16.4012 39.7393 15.995 39.4854 15.4702C39.2357 14.9412 39.1108 14.3192 39.1108 13.604V13.5977C39.1108 12.891 39.2357 12.271 39.4854 11.7378C39.7393 11.2046 40.0968 10.7878 40.5581 10.4873C41.0194 10.1868 41.5589 10.0366 42.1768 10.0366C42.7988 10.0366 43.332 10.1805 43.7764 10.4683C44.2249 10.756 44.5677 11.158 44.8047 11.6743C45.0459 12.1864 45.1665 12.783 45.1665 13.4644V13.896H39.6821V13.0137H44.6016L44.0557 13.8198V13.3818C44.0557 12.8444 43.9753 12.4022 43.8145 12.0552C43.6536 11.7082 43.4315 11.45 43.1479 11.2808C42.8644 11.1073 42.5386 11.0205 42.1704 11.0205C41.8022 11.0205 41.4722 11.1115 41.1802 11.2935C40.8924 11.4712 40.6639 11.7357 40.4946 12.0869C40.3254 12.4382 40.2407 12.8698 40.2407 13.3818V13.8198C40.2407 14.3065 40.3232 14.7233 40.4883 15.0703C40.6533 15.4131 40.8882 15.6776 41.1929 15.8638C41.4976 16.0457 41.8573 16.1367 42.272 16.1367C42.5809 16.1367 42.8496 16.0944 43.0781 16.0098C43.3066 15.9251 43.495 15.8172 43.6431 15.686C43.7912 15.5549 43.8949 15.4215 43.9541 15.2861L43.9795 15.229H45.084L45.0713 15.2798C45.012 15.5125 44.9062 15.7389 44.7539 15.959C44.6058 16.1748 44.4132 16.3716 44.1763 16.5493C43.9393 16.7228 43.6579 16.8625 43.332 16.9683C43.0104 17.0698 42.6486 17.1206 42.2466 17.1206ZM46.8804 17V10.1572H47.9849V11.1729H48.0864C48.2176 10.8132 48.4398 10.5339 48.7529 10.335C49.0661 10.1361 49.4533 10.0366 49.9146 10.0366C50.0203 10.0366 50.124 10.043 50.2256 10.0557C50.3314 10.0641 50.4118 10.0726 50.4668 10.0811V11.1538C50.3525 11.1326 50.2404 11.1178 50.1304 11.1094C50.0246 11.0967 49.9103 11.0903 49.7876 11.0903C49.4364 11.0903 49.1253 11.1602 48.8545 11.2998C48.5837 11.4395 48.37 11.6341 48.2134 11.8838C48.061 12.1335 47.9849 12.4255 47.9849 12.7598V17H46.8804Z" fill="white"/>
<path d="M39.518 24.0004C44.3859 24.0001 18.5001 24 23.518 24.0004C25.7799 24.0006 27.8226 26.0972 29.2776 28.1438C30.2788 29.5519 32.7572 29.5519 33.7584 28.1438C35.2135 26.0972 37.2561 24.0005 39.518 24.0004Z" fill="#464646" fill-opacity="0.85"/>
</svg>
