<svg width="16" height="16" viewBox="0 0 16 16" fill="none" xmlns="http://www.w3.org/2000/svg">
<g clip-path="url(#clip0_4145_25726)">
<rect x="9.74609" y="3.20314" width="6.78274" height="6.78274" rx="0.749931" transform="rotate(45 9.74609 3.20314)" stroke="#F9F9F9" stroke-width="1.49986"/>
<path opacity="0.7" d="M5.17677 3.20357C5.72584 2.6545 6.5945 2.61971 7.1836 3.10006L7.29786 3.20357L7.99122 3.89693L6.93067 4.95748L6.23731 4.26412L2.50099 7.99947L6.23634 11.7348L6.93067 11.0405L7.99122 12.101L7.29688 12.7954L7.1836 12.8979C6.63391 13.346 5.84072 13.346 5.29103 12.8979L5.17677 12.7954L1.44142 9.06002L1.33888 8.94576C0.890471 8.39608 0.889796 7.60303 1.3379 7.05318L1.44044 6.93892L5.17677 3.20357Z" fill="#F9F9F9"/>
</g>
<defs>
<clipPath id="clip0_4145_25726">
<rect width="16" height="16" fill="white"/>
</clipPath>
</defs>
</svg>
