<svg width="11" height="14" viewBox="0 0 11 14" fill="none" xmlns="http://www.w3.org/2000/svg">
<path fill-rule="evenodd" clip-rule="evenodd" d="M7.5 0.5C7.5 0.223858 7.27614 0 7 0C6.72386 0 6.5 0.223858 6.5 0.5V5C4.567 5 3 6.567 3 8.5V9V10.5C3 11.8807 1.88071 13 0.5 13C0.223858 13 0 13.2239 0 13.5C0 13.7761 0.223858 14 0.5 14H4H5.5H6H8.5C9.88071 14 11 12.8807 11 11.5V9V8.5C11 6.567 9.433 5 7.5 5V0.5ZM10 9H4V10.5C4 11.4793 3.59777 12.3647 2.94949 13H4C4.82843 13 5.5 12.3284 5.5 11.5V10.5C5.5 10.2239 5.72386 10 6 10C6.27614 10 6.5 10.2239 6.5 10.5V11.5C6.5 12.0628 6.31403 12.5822 6.00018 13C6.82853 12.9999 7.5 12.3284 7.5 11.5V10.5C7.5 10.2239 7.72386 10 8 10C8.27614 10 8.5 10.2239 8.5 10.5V11.5C8.5 12.0628 8.31403 12.5822 8.00018 13H8.5C9.32843 13 10 12.3284 10 11.5V9Z" fill="#E1E1E1"/>
</svg>
