<svg width="16" height="16" viewBox="0 0 16 16" fill="none" xmlns="http://www.w3.org/2000/svg">
<mask id="mask0_553_2572" style="mask-type:alpha" maskUnits="userSpaceOnUse" x="0" y="0" width="16" height="16">
<path d="M10.5 5C11.0523 5 11.5 4.55228 11.5 4C11.5 3.44772 11.0523 3 10.5 3C9.94772 3 9.5 3.44772 9.5 4C9.5 4.55228 9.94772 5 10.5 5ZM10.5 2C11.4319 2 12.215 2.63739 12.437 3.5L14 3.5C14.2761 3.5 14.5 3.72386 14.5 4C14.5 4.27614 14.2761 4.5 14 4.5L12.437 4.5C12.215 5.36261 11.4319 6 10.5 6C9.56808 6 8.78503 5.36261 8.56301 4.5L2 4.5C1.72386 4.5 1.5 4.27614 1.5 4C1.5 3.72386 1.72386 3.5 2 3.5L8.56301 3.5C8.78503 2.63739 9.56808 2 10.5 2ZM5.5 9C6.05228 9 6.5 8.55228 6.5 8C6.5 7.44772 6.05228 7 5.5 7C4.94772 7 4.5 7.44772 4.5 8C4.5 8.55228 4.94772 9 5.5 9ZM5.5 6C6.43192 6 7.21497 6.63739 7.43699 7.5H14C14.2761 7.5 14.5 7.72386 14.5 8C14.5 8.27614 14.2761 8.5 14 8.5H7.43699C7.21497 9.36261 6.43192 10 5.5 10C4.56808 10 3.78503 9.36261 3.56301 8.5H2C1.72386 8.5 1.5 8.27614 1.5 8C1.5 7.72386 1.72386 7.5 2 7.5H3.56301C3.78503 6.63739 4.56808 6 5.5 6ZM11.5 12C11.5 12.5523 11.0523 13 10.5 13C9.94772 13 9.5 12.5523 9.5 12C9.5 11.4477 9.94772 11 10.5 11C11.0523 11 11.5 11.4477 11.5 12ZM8.56301 12.5C8.78503 13.3626 9.56808 14 10.5 14C11.4319 14 12.215 13.3626 12.437 12.5H14C14.2761 12.5 14.5 12.2761 14.5 12C14.5 11.7239 14.2761 11.5 14 11.5H12.437C12.215 10.6374 11.4319 10 10.5 10C9.56808 10 8.78503 10.6374 8.56301 11.5H2C1.72386 11.5 1.5 11.7239 1.5 12C1.5 12.2761 1.72386 12.5 2 12.5H8.56301Z" fill="#F7F7F8"/>
</mask>
<g mask="url(#mask0_553_2572)">
<rect width="16" height="16" fill="#F7F7F8"/>
</g>
</svg>
