<svg width="16" height="16" viewBox="0 0 16 16" fill="none" xmlns="http://www.w3.org/2000/svg">
<path d="M1.9375 4.6875H7.20533C7.51125 4.6875 7.79792 4.53824 7.97336 4.28762L8.65944 3.30751L7.85734 2.36811C7.59016 2.0552 7.19935 1.875 6.78789 1.875H3.8125C2.77697 1.875 1.9375 2.71447 1.9375 3.75V4.6875Z" fill="#FFDA94"/>
<path d="M9.49406 3.75L8.74139 4.82524C8.39052 5.32648 7.81717 5.625 7.20533 5.625H1.9375V11.7188C1.9375 12.4954 2.5671 13.125 3.34375 13.125H13.6562C14.4329 13.125 15.0625 12.4954 15.0625 11.7188V5.15625C15.0625 4.3796 14.4329 3.75 13.6562 3.75H9.49406Z" fill="#FFDA94"/>
</svg>
