<svg width="24" height="24" viewBox="0 0 24 24" fill="none" xmlns="http://www.w3.org/2000/svg">
<g clip-path="url(#clip0_3015_36870)">
<path d="M21 24H24V21L21 24Z" fill="#F7F7F8"/>
<path fill-rule="evenodd" clip-rule="evenodd" d="M5 6.50012C5 5.6717 5.67157 5.00012 6.5 5.00012H9.5C10.3284 5.00012 11 5.67169 11 6.50012V9.50012C11 10.3285 10.3284 11.0001 9.5 11.0001H6.5C5.67157 11.0001 5 10.3285 5 9.50012V6.50012ZM6.5 6.00012H9.5C9.77614 6.00012 10 6.22398 10 6.50012V9.50012C10 9.77626 9.77614 10.0001 9.5 10.0001H6.5C6.22386 10.0001 6 9.77626 6 9.50012V6.50012C6 6.22398 6.22386 6.00012 6.5 6.00012Z" fill="#F9F9F9"/>
<path fill-rule="evenodd" clip-rule="evenodd" d="M13 6.50012C13 5.6717 13.6716 5.00012 14.5 5.00012H17.5C18.3284 5.00012 19 5.67169 19 6.50012V9.50012C19 10.3285 18.3284 11.0001 17.5 11.0001H14.5C13.6716 11.0001 13 10.3285 13 9.50012V6.50012ZM14.5 6.00012H17.5C17.7761 6.00012 18 6.22398 18 6.50012V9.50012C18 9.77626 17.7761 10.0001 17.5 10.0001H14.5C14.2239 10.0001 14 9.77626 14 9.50012V6.50012C14 6.22398 14.2239 6.00012 14.5 6.00012Z" fill="#F9F9F9"/>
<path fill-rule="evenodd" clip-rule="evenodd" d="M14.5 13.0001C13.6716 13.0001 13 13.6717 13 14.5001V17.5001C13 18.3285 13.6716 19.0001 14.5 19.0001H17.5C18.3284 19.0001 19 18.3285 19 17.5001V14.5001C19 13.6717 18.3284 13.0001 17.5 13.0001H14.5ZM17.5 14.0001H14.5C14.2239 14.0001 14 14.224 14 14.5001V17.5001C14 17.7763 14.2239 18.0001 14.5 18.0001H17.5C17.7761 18.0001 18 17.7763 18 17.5001V14.5001C18 14.224 17.7761 14.0001 17.5 14.0001Z" fill="#F9F9F9"/>
<path fill-rule="evenodd" clip-rule="evenodd" d="M5 14.5001C5 13.6717 5.67157 13.0001 6.5 13.0001H9.5C10.3284 13.0001 11 13.6717 11 14.5001V17.5001C11 18.3285 10.3284 19.0001 9.5 19.0001H6.5C5.67157 19.0001 5 18.3285 5 17.5001V14.5001ZM6.5 14.0001H9.5C9.77614 14.0001 10 14.224 10 14.5001V17.5001C10 17.7763 9.77614 18.0001 9.5 18.0001H6.5C6.22386 18.0001 6 17.7763 6 17.5001V14.5001C6 14.224 6.22386 14.0001 6.5 14.0001Z" fill="#F9F9F9"/>
</g>
<defs>
<clipPath id="clip0_3015_36870">
<path d="M0 4C0 1.79086 1.79086 0 4 0H20C22.2091 0 24 1.79086 24 4V24H4C1.79086 24 0 22.2091 0 20V4Z" fill="white"/>
</clipPath>
</defs>
</svg>
