<svg width="16" height="16" viewBox="0 0 16 16" fill="none" xmlns="http://www.w3.org/2000/svg">
<path d="M14.7539 11.9883C15.2161 11.9883 15.6061 12.3332 15.6621 12.792L15.998 15.5439C15.992 15.5491 15.465 15.9883 13.248 15.9883C11.0311 15.9883 10.5041 15.5491 10.498 15.5439L10.834 12.792C10.89 12.3332 11.28 11.9883 11.7422 11.9883H14.7539ZM11.5879 14.8662C11.9319 14.93 12.4629 14.9883 13.248 14.9883C14.0332 14.9883 14.5642 14.93 14.9082 14.8662L14.6787 12.9883H11.8174L11.5879 14.8662ZM13.5928 8.48828C14.2308 8.48828 14.748 9.00556 14.748 9.64355V10.333C14.748 10.971 14.2308 11.4883 13.5928 11.4883H12.9033C12.2653 11.4883 11.748 10.971 11.748 10.333V9.64355C11.748 9.00556 12.2653 8.48828 12.9033 8.48828H13.5928ZM12.9033 9.48828C12.8176 9.48828 12.748 9.55784 12.748 9.64355V10.333C12.748 10.4187 12.8176 10.4883 12.9033 10.4883H13.5928C13.6785 10.4883 13.748 10.4187 13.748 10.333V9.64355C13.748 9.55784 13.6785 9.48828 13.5928 9.48828H12.9033Z" fill="#F87935"/>
<path d="M6.17383 2C6.61269 2.00002 7.02948 2.19262 7.31445 2.52637L8.57324 4H13.5C14.3284 4 15 4.67157 15 5.5V7.39453C14.5919 7.13886 14.1108 6.98932 13.5938 6.98926H12.9043C11.4379 6.98926 10.249 8.17811 10.249 9.64453V10.334C10.2491 10.5466 10.2741 10.754 10.3213 10.9521C9.797 11.3344 9.42956 11.9247 9.3457 12.6113L9.17578 14H2.5C1.67157 14 1 13.3284 1 12.5V4C1 2.89543 1.89543 2 3 2H6.17383Z" fill="#FADC7F"/>
</svg>
