<svg width="150" height="116" viewBox="0 0 150 116" fill="none" xmlns="http://www.w3.org/2000/svg">
<g clip-path="url(#clip0_3056_11450)">
<path d="M0 4C0 1.79086 1.79086 0 4 0H146C148.209 0 150 1.79086 150 4V112C150 114.209 148.209 116 146 116H4C1.79086 116 0 114.209 0 112V4Z" fill="#121215"/>
<mask id="mask0_3056_11450" style="mask-type:alpha" maskUnits="userSpaceOnUse" x="140" y="104" width="8" height="9">
<path d="M143.112 107L144.116 105.689C145.278 104.17 147.704 104.992 147.704 106.904V111C147.704 112.105 146.809 113 145.704 113H142.57C140.913 113 139.974 111.1 140.981 109.784L143.112 107Z" fill="#F9F9F9"/>
</mask>
<g mask="url(#mask0_3056_11450)">
<line y1="-0.5" x2="12.5924" y2="-0.5" transform="matrix(0.607751 -0.794128 0.607751 0.794128 142.347 116)" stroke="white"/>
<line y1="-0.5" x2="8.8147" y2="-0.5" transform="matrix(0.607751 -0.794128 0.607751 0.794128 144.643 116)" stroke="white"/>
<line y1="-0.5" x2="6.29622" y2="-0.5" transform="matrix(0.607751 -0.794128 0.607751 0.794128 146.174 117)" stroke="white"/>
</g>
</g>
<defs>
<clipPath id="clip0_3056_11450">
<path d="M0 4C0 1.79086 1.79086 0 4 0H146C148.209 0 150 1.79086 150 4V112C150 114.209 148.209 116 146 116H4C1.79086 116 0 114.209 0 112V4Z" fill="white"/>
</clipPath>
</defs>
</svg>
