<svg width="18" height="18" viewBox="0 0 18 18" fill="none" xmlns="http://www.w3.org/2000/svg">
<circle cx="9" cy="9" r="8" stroke="#D0D9FB" stroke-opacity="0.08" stroke-width="2"/>
<path d="M16 9.00001C16 9.55229 16.4477 10 17 10C17.5523 10 18 9.55229 18 9.00001L17 9.00001L16 9.00001ZM9 1L9 2C9.91925 2 10.8295 2.18106 11.6788 2.53284L12.0615 1.60896L12.4442 0.685085C11.3522 0.232792 10.1819 -1.78819e-07 9 -3.49691e-07L9 1ZM12.0615 1.60896L11.6788 2.53284C12.5281 2.88463 13.2997 3.40024 13.9497 4.05026L14.6569 3.34315L15.364 2.63604C14.5282 1.80031 13.5361 1.13738 12.4442 0.685085L12.0615 1.60896ZM14.6569 3.34315L13.9497 4.05026C14.5998 4.70027 15.1154 5.47194 15.4672 6.32122L16.391 5.93854L17.3149 5.55586C16.8626 4.46392 16.1997 3.47177 15.364 2.63604L14.6569 3.34315ZM16.391 5.93854L15.4672 6.32122C15.8189 7.1705 16 8.08075 16 9.00001L17 9.00001L18 9.00001C18 7.81811 17.7672 6.64779 17.3149 5.55586L16.391 5.93854Z" fill="#F7F7F8"/>
<path d="M16 9.00001C16 9.55229 16.4477 10 17 10C17.5523 10 18 9.55229 18 9.00001L17 9.00001L16 9.00001ZM9 1L9 2C9.91925 2 10.8295 2.18106 11.6788 2.53284L12.0615 1.60896L12.4442 0.685085C11.3522 0.232792 10.1819 -1.78819e-07 9 -3.49691e-07L9 1ZM12.0615 1.60896L11.6788 2.53284C12.5281 2.88463 13.2997 3.40024 13.9497 4.05026L14.6569 3.34315L15.364 2.63604C14.5282 1.80031 13.5361 1.13738 12.4442 0.685085L12.0615 1.60896ZM14.6569 3.34315L13.9497 4.05026C14.5998 4.70027 15.1154 5.47194 15.4672 6.32122L16.391 5.93854L17.3149 5.55586C16.8626 4.46392 16.1997 3.47177 15.364 2.63604L14.6569 3.34315ZM16.391 5.93854L15.4672 6.32122C15.8189 7.1705 16 8.08075 16 9.00001L17 9.00001L18 9.00001C18 7.81811 17.7672 6.64779 17.3149 5.55586L16.391 5.93854Z" fill="#F7F7F8"/>
<path d="M16 9.00001C16 9.55229 16.4477 10 17 10C17.5523 10 18 9.55229 18 9.00001L17 9.00001L16 9.00001ZM9 1L9 2C9.91925 2 10.8295 2.18106 11.6788 2.53284L12.0615 1.60896L12.4442 0.685085C11.3522 0.232792 10.1819 -1.78819e-07 9 -3.49691e-07L9 1ZM12.0615 1.60896L11.6788 2.53284C12.5281 2.88463 13.2997 3.40024 13.9497 4.05026L14.6569 3.34315L15.364 2.63604C14.5282 1.80031 13.5361 1.13738 12.4442 0.685085L12.0615 1.60896ZM14.6569 3.34315L13.9497 4.05026C14.5998 4.70027 15.1154 5.47194 15.4672 6.32122L16.391 5.93854L17.3149 5.55586C16.8626 4.46392 16.1997 3.47177 15.364 2.63604L14.6569 3.34315ZM16.391 5.93854L15.4672 6.32122C15.8189 7.1705 16 8.08075 16 9.00001L17 9.00001L18 9.00001C18 7.81811 17.7672 6.64779 17.3149 5.55586L16.391 5.93854Z" fill="#F7F7F8"/>
<path d="M16 9.00001C16 9.55229 16.4477 10 17 10C17.5523 10 18 9.55229 18 9.00001L17 9.00001L16 9.00001ZM9 1L9 2C9.91925 2 10.8295 2.18106 11.6788 2.53284L12.0615 1.60896L12.4442 0.685085C11.3522 0.232792 10.1819 -1.78819e-07 9 -3.49691e-07L9 1ZM12.0615 1.60896L11.6788 2.53284C12.5281 2.88463 13.2997 3.40024 13.9497 4.05026L14.6569 3.34315L15.364 2.63604C14.5282 1.80031 13.5361 1.13738 12.4442 0.685085L12.0615 1.60896ZM14.6569 3.34315L13.9497 4.05026C14.5998 4.70027 15.1154 5.47194 15.4672 6.32122L16.391 5.93854L17.3149 5.55586C16.8626 4.46392 16.1997 3.47177 15.364 2.63604L14.6569 3.34315ZM16.391 5.93854L15.4672 6.32122C15.8189 7.1705 16 8.08075 16 9.00001L17 9.00001L18 9.00001C18 7.81811 17.7672 6.64779 17.3149 5.55586L16.391 5.93854Z" fill="#F7F7F8"/>
</svg>
