<svg width="16" height="16" viewBox="0 0 16 16" fill="none" xmlns="http://www.w3.org/2000/svg">
<path d="M14.9912 8.36035C14.8037 12.0589 11.7451 15 8 15L7.63965 14.9912C4.66765 14.8405 2.18678 12.8354 1.32617 10.1104C1.22844 9.80073 1.47025 9.50006 1.79492 9.5C2.02708 9.5 2.22815 9.6584 2.30078 9.87891C3.08931 12.2722 5.3426 14 8 14C11.3137 14 14 11.3137 14 8C14 4.68629 11.3137 2 8 2C5.57846 2 3.4929 3.43532 2.54492 5.50098L4.625 5.50098L4.72559 5.51074C4.95339 5.55728 5.12482 5.75946 5.125 6.00098C5.12453 6.27661 4.9007 6.5008 4.625 6.50098L1.75 6.50098C1.33608 6.50096 1.00045 6.1648 1 5.75098L1 2.50098L1.00977 2.40039C1.05637 2.17253 1.25836 2.00098 1.5 2.00098C1.74164 2.00098 1.94363 2.17253 1.99023 2.40039L2 2.50098L2 4.39551C3.22387 2.36096 5.45248 1 8 1L8.36035 1.00879C12.0589 1.19633 15 4.25486 15 8L14.9912 8.36035Z" fill="#F9F9F9"/>
<path d="M8 5V8.5H10.5" stroke="#F9F9F9" stroke-linecap="round" stroke-linejoin="round"/>
</svg>
