<svg width="24" height="24" viewBox="0 0 24 24" fill="none" xmlns="http://www.w3.org/2000/svg">
<path fill-rule="evenodd" clip-rule="evenodd" d="M7.60499 21.7013C7.86596 22.702 9.22534 22.85 9.69557 21.9289L13.1972 15.0698L20.5288 13.2549C21.5115 13.0117 21.698 11.6955 20.8214 11.1889L4.36222 1.67537C3.49739 1.17549 2.45858 1.96668 2.71065 2.93326L7.60499 21.7013Z" fill="#494D5A"/>
<path fill-rule="evenodd" clip-rule="evenodd" d="M11.8612 14.3878C12.0588 14.0006 12.4147 13.7182 12.8367 13.6137L19.2659 12.0223L4.38857 3.42314L8.80773 20.369L11.8612 14.3878ZM9.69557 21.9289C9.22534 22.85 7.86596 22.702 7.60499 21.7013L2.71065 2.93326C2.45858 1.96668 3.49739 1.17549 4.36222 1.67537L20.8214 11.1889C21.698 11.6955 21.5115 13.0117 20.5288 13.2549L13.1972 15.0698L9.69557 21.9289Z" fill="#F7F7F8"/>
</svg>
