<svg width="16" height="16" viewBox="0 0 16 16" fill="none" xmlns="http://www.w3.org/2000/svg">
<path d="M8 1C11.866 1 15 4.13401 15 8C15 11.866 11.866 15 8 15C4.13401 15 1 11.866 1 8C1 4.13401 4.13401 1 8 1Z" fill="#0FB369"/>
<path fill-rule="evenodd" clip-rule="evenodd" d="M10.8536 6.14645C11.0488 6.34171 11.0488 6.65829 10.8536 6.85355L7.35355 10.3536C7.15829 10.5488 6.84171 10.5488 6.64645 10.3536L5.14645 8.85355C4.95118 8.65829 4.95118 8.34171 5.14645 8.14645C5.34171 7.95118 5.65829 7.95118 5.85355 8.14645L7 9.29289L10.1464 6.14645C10.3417 5.95118 10.6583 5.95118 10.8536 6.14645Z" fill="#F9F9F9"/>
</svg>
