<svg width="24" height="24" viewBox="0 0 24 24" fill="none" xmlns="http://www.w3.org/2000/svg">
<path d="M14.6234 7.5H9.38247C8.84878 7.5 8.38853 7.87497 8.28068 8.39765L6.88787 15.1477C6.74384 15.8457 7.27694 16.5 7.98966 16.5H16.069C16.7851 16.5 17.319 15.8397 17.169 15.1394L15.7235 8.38942C15.6124 7.87065 15.1539 7.5 14.6234 7.5Z" fill="#494D5A"/>
<path fill-rule="evenodd" clip-rule="evenodd" d="M5.625 3C5.00368 3 4.5 3.50368 4.5 4.125V6.375C4.5 6.94836 4.92892 7.42154 5.4834 7.49117L3.48046 16.5H2.625C2.00368 16.5 1.5 17.0037 1.5 17.625V19.875C1.5 20.4963 2.00368 21 2.625 21H4.875C5.49632 21 6 20.4963 6 19.875V19.5H18V19.875C18 20.4963 18.5037 21 19.125 21H21.375C21.9963 21 22.5 20.4963 22.5 19.875V17.625C22.5 17.0037 21.9963 16.5 21.375 16.5H20.517L18.5161 7.49124C19.0708 7.42184 19.5 6.94854 19.5 6.375V4.125C19.5 3.50368 18.9963 3 18.375 3H16.125C15.5037 3 15 3.50368 15 4.125V4.5H9V4.125C9 3.50368 8.49632 3 7.875 3H5.625ZM9 6V6.375C9 6.99632 8.49632 7.5 7.875 7.5H7.01806L5.01516 16.5086C5.57034 16.5776 6 17.0511 6 17.625V18H18V17.625C18 17.052 18.4284 16.579 18.9825 16.5089L16.9815 7.5H16.125C15.5037 7.5 15 6.99632 15 6.375V6H9ZM15 5.25679V5.24321C15 5.24548 15 5.24774 15 5.25C15 5.25226 15 5.25452 15 5.25679ZM18 18.7432C18 18.7455 18 18.7477 18 18.75C18 18.7523 18 18.7545 18 18.7568V18.7432ZM6 4.5V6H7.5V4.5H6ZM3 18V19.5H4.5V18H3ZM18 4.5H16.5V6H18V4.5ZM19.5 18V19.5H21V18H19.5Z" fill="#F7F7F8"/>
</svg>
