<svg width="325" height="36" viewBox="0 0 325 36" fill="none" xmlns="http://www.w3.org/2000/svg">
<rect width="325" height="36" rx="18" fill="#3C3C3C" fill-opacity="0.3"/>
<path d="M9.60547 16.7617C9.60547 16.082 9.73242 15.4453 9.98633 14.8516C10.2441 14.2539 10.5996 13.7285 11.0527 13.2754C11.5059 12.8223 12.0293 12.4688 12.623 12.2148C13.2207 11.957 13.8613 11.8281 14.5449 11.8281C15.2246 11.8281 15.8613 11.957 16.4551 12.2148C17.0527 12.4688 17.5781 12.8223 18.0312 13.2754C18.4844 13.7285 18.8379 14.2539 19.0918 14.8516C19.3496 15.4453 19.4785 16.082 19.4785 16.7617C19.4785 17.2422 19.4121 17.7012 19.2793 18.1387C19.1465 18.5762 18.9609 18.9785 18.7227 19.3457L21.0488 21.6836C21.1621 21.8008 21.2461 21.9297 21.3008 22.0703C21.3594 22.2148 21.3887 22.3652 21.3887 22.5215C21.3887 22.7441 21.3379 22.9453 21.2363 23.125C21.1348 23.3047 20.9941 23.4473 20.8145 23.5527C20.6387 23.6582 20.4375 23.7109 20.2109 23.7109C20.0508 23.7109 19.8965 23.6816 19.748 23.623C19.5996 23.5684 19.4688 23.4844 19.3555 23.3711L17 21.0156C16.6445 21.2305 16.2578 21.3984 15.8398 21.5195C15.4258 21.6406 14.9941 21.7012 14.5449 21.7012C13.8613 21.7012 13.2207 21.5742 12.623 21.3203C12.0293 21.0625 11.5059 20.707 11.0527 20.2539C10.5996 19.8008 10.2441 19.2773 9.98633 18.6836C9.73242 18.0859 9.60547 17.4453 9.60547 16.7617ZM11.2109 16.7617C11.2109 17.2227 11.2969 17.6543 11.4688 18.0566C11.6406 18.459 11.8789 18.8145 12.1836 19.123C12.4922 19.4277 12.8477 19.666 13.25 19.8379C13.6523 20.0098 14.082 20.0957 14.5391 20.0957C15 20.0957 15.4316 20.0098 15.834 19.8379C16.2363 19.666 16.5898 19.4277 16.8945 19.123C17.2031 18.8145 17.4434 18.459 17.6152 18.0566C17.7871 17.6543 17.873 17.2227 17.873 16.7617C17.873 16.3047 17.7871 15.875 17.6152 15.4727C17.4434 15.0703 17.2031 14.7168 16.8945 14.4121C16.5898 14.1035 16.2363 13.8633 15.834 13.6914C15.4316 13.5195 15 13.4336 14.5391 13.4336C14.082 13.4336 13.6523 13.5195 13.25 13.6914C12.8477 13.8633 12.4922 14.1035 12.1836 14.4121C11.8789 14.7168 11.6406 15.0703 11.4688 15.4727C11.2969 15.875 11.2109 16.3047 11.2109 16.7617Z" fill="#949393"/>
<g transform="translate(2, 0)"><path d="M24.0039 20.4258C23.8164 20.4258 23.6445 20.349 23.4883 20.1953L20.5977 17.2383C20.5404 17.1784 20.4961 17.1133 20.4648 17.043C20.4362 16.9701 20.4219 16.8919 20.4219 16.8086C20.4219 16.6914 20.4492 16.5859 20.5039 16.4922C20.5612 16.3958 20.6367 16.3203 20.7305 16.2656C20.8242 16.2083 20.9284 16.1797 21.043 16.1797C21.2174 16.1797 21.3711 16.2461 21.5039 16.3789L24.1641 19.1172H23.8477L26.5 16.3789C26.6328 16.2461 26.7852 16.1797 26.957 16.1797C27.0716 16.1797 27.1758 16.2083 27.2695 16.2656C27.3633 16.3203 27.4375 16.3958 27.4922 16.4922C27.5495 16.5859 27.5781 16.6914 27.5781 16.8086C27.5781 16.9779 27.5195 17.1211 27.4023 17.2383L24.5156 20.1953C24.4375 20.2734 24.3568 20.3307 24.2734 20.3672C24.1901 20.4036 24.1003 20.4232 24.0039 20.4258Z" fill="#949393"/></g>
</svg>
