<svg width="114" height="24" viewBox="0 0 114 24" fill="none" xmlns="http://www.w3.org/2000/svg">
<g clip-path="url(#clip0_854_17536)">
<rect width="114" height="24" fill="#191A1F"/>
<path d="M11.204 7.6H12.956L16.016 16H14.372L12.164 9.352H11.984L9.776 16H8.132L11.204 7.6ZM9.908 12.448H14.252V13.828H9.908V12.448ZM16.057 9.676H17.533L18.301 14.26H18.445L19.657 9.676H21.265L22.489 14.26H22.633L23.389 9.676H24.865L23.497 16H21.853L20.533 11.284H20.389L19.069 16H17.425L16.057 9.676ZM27.4528 16.12C26.8608 16.12 26.3728 15.944 25.9888 15.592C25.6048 15.24 25.4128 14.756 25.4128 14.14C25.4128 13.532 25.6288 13.048 26.0608 12.688C26.4928 12.328 27.1048 12.148 27.8968 12.148H29.6608V13.168H27.8728C27.5128 13.168 27.2368 13.248 27.0448 13.408C26.8528 13.568 26.7568 13.788 26.7568 14.068C26.7568 14.324 26.8528 14.532 27.0448 14.692C27.2448 14.852 27.5128 14.932 27.8488 14.932C28.1848 14.932 28.4928 14.852 28.7728 14.692C29.0608 14.532 29.2928 14.324 29.4688 14.068V11.884C29.4688 11.516 29.3528 11.252 29.1208 11.092C28.8968 10.924 28.6008 10.84 28.2328 10.84C27.8808 10.84 27.5528 10.908 27.2488 11.044C26.9448 11.172 26.6368 11.364 26.3248 11.62L25.6408 10.588C25.9928 10.268 26.3928 10.016 26.8408 9.832C27.2888 9.648 27.7728 9.556 28.2928 9.556C29.0288 9.556 29.6328 9.748 30.1048 10.132C30.5768 10.516 30.8128 11.104 30.8128 11.896V16H29.4688V15.244L29.3008 15.172C29.0928 15.484 28.8368 15.72 28.5328 15.88C28.2288 16.04 27.8688 16.12 27.4528 16.12ZM34.7961 16.12C34.1481 16.12 33.6361 15.96 33.2601 15.64C32.8921 15.312 32.7081 14.8 32.7081 14.104V10.852H31.6521V9.676H32.7081V8.164H34.0521V9.676H35.8401V10.852H34.0521V13.96C34.0521 14.272 34.1401 14.504 34.3161 14.656C34.5001 14.808 34.7561 14.884 35.0841 14.884C35.2281 14.884 35.3681 14.872 35.5041 14.848C35.6481 14.824 35.8041 14.788 35.9721 14.74V15.904C35.8041 15.968 35.6161 16.02 35.4081 16.06C35.2001 16.1 34.9961 16.12 34.7961 16.12ZM37.0348 9.676H38.3788V16H37.0348V9.676ZM36.9988 7.372H38.4148V8.788H36.9988V7.372ZM40.0113 9.676H41.3553V10.612L41.5353 10.684C41.6953 10.34 41.9353 10.068 42.2553 9.868C42.5753 9.66 42.9553 9.556 43.3953 9.556C44.0833 9.556 44.6193 9.768 45.0033 10.192C45.3953 10.616 45.5913 11.2 45.5913 11.944V16H44.2473V12.256C44.2473 11.768 44.1313 11.404 43.8993 11.164C43.6753 10.924 43.3553 10.804 42.9393 10.804C42.5953 10.804 42.2833 10.892 42.0033 11.068C41.7233 11.244 41.5073 11.476 41.3553 11.764V16H40.0113V9.676ZM49.7995 18.412C49.2235 18.412 48.6955 18.324 48.2155 18.148C47.7355 17.98 47.2915 17.724 46.8835 17.38L47.6515 16.372C48.3075 16.9 49.0075 17.164 49.7515 17.164C50.3035 17.164 50.7195 17.036 50.9995 16.78C51.2875 16.532 51.4315 16.136 51.4315 15.592V14.872L51.2635 14.812C51.1035 15.148 50.8755 15.412 50.5795 15.604C50.2915 15.788 49.9395 15.88 49.5235 15.88C48.9875 15.88 48.5155 15.748 48.1075 15.484C47.6995 15.212 47.3835 14.836 47.1595 14.356C46.9355 13.876 46.8235 13.336 46.8235 12.736C46.8235 12.08 46.9515 11.512 47.2075 11.032C47.4715 10.552 47.8155 10.188 48.2395 9.94C48.6635 9.684 49.1275 9.556 49.6315 9.556C49.9835 9.556 50.2915 9.62 50.5555 9.748C50.8275 9.876 51.0595 10.06 51.2515 10.3L51.4315 10.228V9.676H52.7755V15.592C52.7755 16.16 52.6555 16.656 52.4155 17.08C52.1835 17.504 51.8435 17.832 51.3955 18.064C50.9475 18.296 50.4155 18.412 49.7995 18.412ZM49.8115 14.62C50.1715 14.62 50.4915 14.54 50.7715 14.38C51.0595 14.212 51.2795 13.988 51.4315 13.708V11.548C51.2395 11.308 51.0075 11.128 50.7355 11.008C50.4715 10.888 50.1795 10.828 49.8595 10.828C49.5475 10.828 49.2635 10.904 49.0075 11.056C48.7595 11.2 48.5595 11.416 48.4075 11.704C48.2635 11.992 48.1915 12.336 48.1915 12.736C48.1915 13.128 48.2555 13.468 48.3835 13.756C48.5195 14.036 48.7075 14.252 48.9475 14.404C49.1955 14.548 49.4835 14.62 49.8115 14.62ZM59.152 16.12C58.56 16.12 58.072 15.944 57.688 15.592C57.304 15.24 57.112 14.756 57.112 14.14C57.112 13.532 57.328 13.048 57.76 12.688C58.192 12.328 58.804 12.148 59.596 12.148H61.36V13.168H59.572C59.212 13.168 58.936 13.248 58.744 13.408C58.552 13.568 58.456 13.788 58.456 14.068C58.456 14.324 58.552 14.532 58.744 14.692C58.944 14.852 59.212 14.932 59.548 14.932C59.884 14.932 60.192 14.852 60.472 14.692C60.76 14.532 60.992 14.324 61.168 14.068V11.884C61.168 11.516 61.052 11.252 60.82 11.092C60.596 10.924 60.3 10.84 59.932 10.84C59.58 10.84 59.252 10.908 58.948 11.044C58.644 11.172 58.336 11.364 58.024 11.62L57.34 10.588C57.692 10.268 58.092 10.016 58.54 9.832C58.988 9.648 59.472 9.556 59.992 9.556C60.728 9.556 61.332 9.748 61.804 10.132C62.276 10.516 62.512 11.104 62.512 11.896V16H61.168V15.244L61 15.172C60.792 15.484 60.536 15.72 60.232 15.88C59.928 16.04 59.568 16.12 59.152 16.12ZM64.1519 9.676H65.4959V10.552L65.6759 10.624C65.8439 10.288 66.0719 10.028 66.3599 9.844C66.6559 9.652 67.0199 9.556 67.4519 9.556C67.9559 9.556 68.4079 9.68 68.8079 9.928C69.2079 10.176 69.5199 10.54 69.7439 11.02C69.9759 11.5 70.0919 12.076 70.0919 12.748C70.0919 13.444 69.9639 14.048 69.7079 14.56C69.4599 15.064 69.1119 15.452 68.6639 15.724C68.2159 15.988 67.6999 16.12 67.1159 16.12C66.8279 16.12 66.5479 16.084 66.2759 16.012C66.0119 15.94 65.7519 15.844 65.4959 15.724V18.292H64.1519V9.676ZM66.9959 14.86C67.3319 14.86 67.6279 14.78 67.8839 14.62C68.1479 14.46 68.3519 14.22 68.4959 13.9C68.6479 13.58 68.7239 13.2 68.7239 12.76C68.7239 12.328 68.6559 11.968 68.5199 11.68C68.3839 11.392 68.1919 11.176 67.9439 11.032C67.7039 10.888 67.4239 10.816 67.1039 10.816C66.7519 10.816 66.4399 10.896 66.1679 11.056C65.9039 11.216 65.6799 11.44 65.4959 11.728V14.428C65.6959 14.556 65.9239 14.66 66.1799 14.74C66.4439 14.82 66.7159 14.86 66.9959 14.86ZM71.359 9.676H72.703V10.552L72.883 10.624C73.051 10.288 73.279 10.028 73.567 9.844C73.863 9.652 74.227 9.556 74.659 9.556C75.163 9.556 75.615 9.68 76.015 9.928C76.415 10.176 76.727 10.54 76.951 11.02C77.183 11.5 77.299 12.076 77.299 12.748C77.299 13.444 77.171 14.048 76.915 14.56C76.667 15.064 76.319 15.452 75.871 15.724C75.423 15.988 74.907 16.12 74.323 16.12C74.035 16.12 73.755 16.084 73.483 16.012C73.219 15.94 72.959 15.844 72.703 15.724V18.292H71.359V9.676ZM74.203 14.86C74.539 14.86 74.835 14.78 75.091 14.62C75.355 14.46 75.559 14.22 75.703 13.9C75.855 13.58 75.931 13.2 75.931 12.76C75.931 12.328 75.863 11.968 75.727 11.68C75.591 11.392 75.399 11.176 75.151 11.032C74.911 10.888 74.631 10.816 74.311 10.816C73.959 10.816 73.647 10.896 73.375 11.056C73.111 11.216 72.887 11.44 72.703 11.728V14.428C72.903 14.556 73.131 14.66 73.387 14.74C73.651 14.82 73.923 14.86 74.203 14.86ZM78.566 9.676H79.91V10.624L80.09 10.696C80.282 10.328 80.518 10.048 80.798 9.856C81.078 9.656 81.414 9.556 81.806 9.556C81.998 9.556 82.174 9.576 82.334 9.616V11.008C82.086 10.928 81.806 10.888 81.494 10.888C81.134 10.888 80.814 10.988 80.534 11.188C80.262 11.38 80.054 11.636 79.91 11.956V16H78.566V9.676ZM85.9298 16.12C85.3058 16.12 84.7618 15.984 84.2978 15.712C83.8338 15.432 83.4778 15.048 83.2298 14.56C82.9898 14.064 82.8698 13.492 82.8698 12.844C82.8698 12.196 82.9898 11.624 83.2298 11.128C83.4778 10.632 83.8338 10.248 84.2978 9.976C84.7618 9.696 85.3058 9.556 85.9298 9.556C86.5538 9.556 87.0978 9.696 87.5618 9.976C88.0258 10.248 88.3778 10.632 88.6178 11.128C88.8658 11.624 88.9898 12.196 88.9898 12.844C88.9898 13.492 88.8658 14.064 88.6178 14.56C88.3778 15.048 88.0258 15.432 87.5618 15.712C87.0978 15.984 86.5538 16.12 85.9298 16.12ZM85.9418 14.86C86.2778 14.86 86.5738 14.78 86.8298 14.62C87.0858 14.46 87.2818 14.228 87.4178 13.924C87.5538 13.62 87.6218 13.26 87.6218 12.844C87.6218 12.428 87.5538 12.068 87.4178 11.764C87.2818 11.46 87.0858 11.228 86.8298 11.068C86.5738 10.9 86.2778 10.816 85.9418 10.816C85.5978 10.816 85.2978 10.9 85.0418 11.068C84.7858 11.228 84.5858 11.46 84.4418 11.764C84.3058 12.068 84.2378 12.428 84.2378 12.844C84.2378 13.26 84.3058 13.62 84.4418 13.924C84.5858 14.228 84.7858 14.46 85.0418 14.62C85.2978 14.78 85.5978 14.86 85.9418 14.86ZM89.4255 9.676H90.9615L92.5095 14.296H92.6895L94.2375 9.676H95.7615L93.4095 16H91.7775L89.4255 9.676ZM98.2809 16.12C97.6889 16.12 97.2009 15.944 96.8169 15.592C96.4329 15.24 96.2409 14.756 96.2409 14.14C96.2409 13.532 96.4569 13.048 96.8889 12.688C97.3209 12.328 97.9329 12.148 98.7249 12.148H100.489V13.168H98.7009C98.3409 13.168 98.0649 13.248 97.8729 13.408C97.6809 13.568 97.5849 13.788 97.5849 14.068C97.5849 14.324 97.6809 14.532 97.8729 14.692C98.0729 14.852 98.3409 14.932 98.6769 14.932C99.0129 14.932 99.3209 14.852 99.6009 14.692C99.8889 14.532 100.121 14.324 100.297 14.068V11.884C100.297 11.516 100.181 11.252 99.9489 11.092C99.7249 10.924 99.4289 10.84 99.0609 10.84C98.7089 10.84 98.3809 10.908 98.0769 11.044C97.7729 11.172 97.4649 11.364 97.1529 11.62L96.4689 10.588C96.8209 10.268 97.2209 10.016 97.6689 9.832C98.1169 9.648 98.6009 9.556 99.1209 9.556C99.8569 9.556 100.461 9.748 100.933 10.132C101.405 10.516 101.641 11.104 101.641 11.896V16H100.297V15.244L100.129 15.172C99.9209 15.484 99.6649 15.72 99.3609 15.88C99.0569 16.04 98.6969 16.12 98.2809 16.12ZM103.281 7.48H104.625V16H103.281V7.48Z" fill="#F7F7F8"/>
</g>
<path d="M12 0.5H102C108.351 0.500001 113.5 5.64873 113.5 12C113.5 18.3513 108.351 23.5 102 23.5H12C5.64873 23.5 0.5 18.3513 0.5 12C0.5 5.64873 5.64873 0.5 12 0.5Z" stroke="#D0D9FB" stroke-opacity="0.12"/>
<defs>
<clipPath id="clip0_854_17536">
<path d="M0 12C0 5.37258 5.37258 0 12 0H102C108.627 0 114 5.37258 114 12V12C114 18.6274 108.627 24 102 24H12C5.37258 24 0 18.6274 0 12V12Z" fill="white"/>
</clipPath>
</defs>
</svg>
