<svg width="409" height="117" viewBox="0 0 409 117" fill="none" xmlns="http://www.w3.org/2000/svg">
<g filter="url(#filter0_dd_540_2691)">
<path d="M20 36C20 27.1634 27.1634 20 36 20H373C381.837 20 389 27.1634 389 36V81C389 89.8366 381.837 97 373 97H36C27.1634 97 20 89.8366 20 81V36Z" fill="#191A1F"/>
<path d="M36 20.5H373C381.56 20.5 388.5 27.4396 388.5 36V81C388.5 89.5604 381.56 96.5 373 96.5H36C27.4396 96.5 20.5 89.5604 20.5 81V36C20.5 27.4396 27.4396 20.5 36 20.5Z" stroke="#D0D9FB" stroke-opacity="0.16"/>
<path d="M34.984 36.6H38.104C38.872 36.6 39.476 36.788 39.916 37.164C40.364 37.532 40.588 38.08 40.588 38.808C40.588 39.184 40.508 39.516 40.348 39.804C40.188 40.084 39.956 40.308 39.652 40.476V40.62C40.1 40.788 40.436 41.028 40.66 41.34C40.892 41.644 41.008 42.056 41.008 42.576C41.008 43.352 40.76 43.952 40.264 44.376C39.776 44.792 39.12 45 38.296 45H34.984V36.6ZM38.164 44.04C38.764 44.04 39.216 43.924 39.52 43.692C39.824 43.46 39.976 43.088 39.976 42.576C39.976 42.064 39.824 41.688 39.52 41.448C39.224 41.208 38.788 41.088 38.212 41.088H35.824V40.152H38.104C38.416 40.152 38.68 40.112 38.896 40.032C39.112 39.944 39.276 39.804 39.388 39.612C39.508 39.42 39.568 39.168 39.568 38.856C39.568 38.384 39.436 38.052 39.172 37.86C38.916 37.66 38.52 37.56 37.984 37.56H36.016V44.04H38.164ZM44.5592 45.12C43.8472 45.12 43.2992 44.912 42.9152 44.496C42.5392 44.08 42.3512 43.456 42.3512 42.624V38.712H43.3112V42.564C43.3112 43.116 43.4352 43.528 43.6832 43.8C43.9392 44.072 44.3072 44.208 44.7872 44.208C45.1792 44.208 45.5312 44.104 45.8432 43.896C46.1552 43.688 46.4192 43.4 46.6352 43.032V38.712H47.5952V45H46.6352V43.992L46.4912 43.944C46.3152 44.304 46.0592 44.592 45.7232 44.808C45.3872 45.016 44.9992 45.12 44.5592 45.12ZM49.3249 38.712H50.2849V45H49.3249V38.712ZM49.2889 36.48H50.3209V37.512H49.2889V36.48ZM52.0085 36.48H52.9685V45H52.0085V36.48ZM57.0561 45.12C56.5121 45.12 56.0321 45 55.6161 44.76C55.2081 44.512 54.8881 44.152 54.6561 43.68C54.4241 43.208 54.3081 42.64 54.3081 41.976C54.3081 41.24 54.4481 40.62 54.7281 40.116C55.0161 39.604 55.4001 39.224 55.8801 38.976C56.3681 38.72 56.9121 38.592 57.5121 38.592C57.7521 38.592 58.0001 38.62 58.2561 38.676C58.5121 38.724 58.7561 38.792 58.9881 38.88V36.48H59.9481V45H58.9881V44.172L58.8441 44.124C58.6361 44.468 58.3801 44.72 58.0761 44.88C57.7721 45.04 57.4321 45.12 57.0561 45.12ZM57.1281 44.184C57.5841 44.184 57.9481 44.1 58.2201 43.932C58.4921 43.764 58.7481 43.504 58.9881 43.152V39.816C58.7481 39.72 58.5081 39.648 58.2681 39.6C58.0361 39.552 57.7801 39.528 57.5001 39.528C57.0281 39.528 56.6241 39.628 56.2881 39.828C55.9601 40.02 55.7121 40.3 55.5441 40.668C55.3761 41.036 55.2921 41.472 55.2921 41.976C55.2921 42.392 55.3681 42.768 55.5201 43.104C55.6801 43.44 55.9001 43.704 56.1801 43.896C56.4601 44.088 56.7761 44.184 57.1281 44.184ZM64.2389 38.712H65.3189L66.2549 43.764H66.3989L67.7309 38.712H69.0029L70.3709 43.764H70.5149L71.4389 38.712H72.5189L71.1629 45H69.8549L68.4509 39.876H68.3069L66.9029 45H65.5949L64.2389 38.712ZM73.571 38.712H74.531V45H73.571V38.712ZM73.535 36.48H74.567V37.512H73.535V36.48ZM78.5346 45.12C77.9826 45.12 77.5306 44.992 77.1786 44.736C76.8266 44.48 76.6506 43.98 76.6506 43.236V39.6H75.5586V38.712H76.6506V37.248H77.6106V38.712H79.4106V39.6H77.6106V43.188C77.6106 43.588 77.7026 43.86 77.8866 44.004C78.0706 44.14 78.3386 44.208 78.6906 44.208C78.8426 44.208 78.9826 44.196 79.1106 44.172C79.2466 44.148 79.3906 44.112 79.5426 44.064V44.928C79.3906 44.984 79.2226 45.028 79.0386 45.06C78.8546 45.1 78.6866 45.12 78.5346 45.12ZM80.5906 36.48H81.5506V39.72L81.6946 39.768C81.8706 39.408 82.1306 39.124 82.4746 38.916C82.8186 38.7 83.2106 38.592 83.6506 38.592C84.3626 38.592 84.9226 38.796 85.3306 39.204C85.7466 39.612 85.9546 40.2 85.9546 40.968V45H84.9946V41.088C84.9946 40.544 84.8666 40.144 84.6106 39.888C84.3626 39.632 84.0026 39.504 83.5306 39.504C83.1146 39.504 82.7306 39.612 82.3786 39.828C82.0346 40.036 81.7586 40.32 81.5506 40.68V45H80.5906V36.48ZM93.1479 36.6H94.4199L97.4079 45H96.2799L93.8559 37.872H93.7119L91.2759 45H90.1479L93.1479 36.6ZM91.6599 41.736H95.8959V42.696H91.6599V41.736ZM100.359 45.12C99.8948 45.12 99.4508 45.036 99.0268 44.868C98.6108 44.692 98.2548 44.444 97.9588 44.124L98.5828 43.38C98.8228 43.644 99.0948 43.844 99.3988 43.98C99.7028 44.116 100.031 44.184 100.383 44.184C100.783 44.184 101.107 44.108 101.355 43.956C101.611 43.796 101.739 43.564 101.739 43.26C101.739 43.02 101.659 42.836 101.499 42.708C101.339 42.572 101.071 42.456 100.695 42.36L99.7708 42.132C99.2988 42.02 98.9268 41.828 98.6548 41.556C98.3828 41.284 98.2468 40.924 98.2468 40.476C98.2468 39.884 98.4428 39.424 98.8348 39.096C99.2348 38.76 99.7548 38.592 100.395 38.592C100.851 38.592 101.263 38.668 101.631 38.82C102.007 38.972 102.339 39.188 102.627 39.468L102.003 40.212C101.779 39.98 101.531 39.808 101.259 39.696C100.995 39.584 100.707 39.528 100.395 39.528C100.019 39.528 99.7308 39.608 99.5308 39.768C99.3308 39.92 99.2308 40.124 99.2308 40.38C99.2308 40.612 99.3068 40.796 99.4588 40.932C99.6188 41.06 99.8788 41.168 100.239 41.256L100.995 41.448C101.571 41.592 102.003 41.796 102.291 42.06C102.579 42.324 102.723 42.684 102.723 43.14C102.723 43.756 102.511 44.24 102.087 44.592C101.671 44.944 101.095 45.12 100.359 45.12ZM105.937 45.12C105.473 45.12 105.029 45.036 104.605 44.868C104.189 44.692 103.833 44.444 103.537 44.124L104.161 43.38C104.401 43.644 104.673 43.844 104.977 43.98C105.281 44.116 105.609 44.184 105.961 44.184C106.361 44.184 106.685 44.108 106.933 43.956C107.189 43.796 107.317 43.564 107.317 43.26C107.317 43.02 107.237 42.836 107.077 42.708C106.917 42.572 106.649 42.456 106.273 42.36L105.349 42.132C104.877 42.02 104.505 41.828 104.233 41.556C103.961 41.284 103.825 40.924 103.825 40.476C103.825 39.884 104.021 39.424 104.413 39.096C104.813 38.76 105.333 38.592 105.973 38.592C106.429 38.592 106.841 38.668 107.209 38.82C107.585 38.972 107.917 39.188 108.205 39.468L107.581 40.212C107.357 39.98 107.109 39.808 106.837 39.696C106.573 39.584 106.285 39.528 105.973 39.528C105.597 39.528 105.309 39.608 105.109 39.768C104.909 39.92 104.809 40.124 104.809 40.38C104.809 40.612 104.885 40.796 105.037 40.932C105.197 41.06 105.457 41.168 105.817 41.256L106.573 41.448C107.149 41.592 107.581 41.796 107.869 42.06C108.157 42.324 108.301 42.684 108.301 43.14C108.301 43.756 108.089 44.24 107.665 44.592C107.249 44.944 106.673 45.12 105.937 45.12ZM109.583 38.712H110.543V45H109.583V38.712ZM109.547 36.48H110.579V37.512H109.547V36.48ZM114.163 45.12C113.699 45.12 113.255 45.036 112.831 44.868C112.415 44.692 112.059 44.444 111.763 44.124L112.387 43.38C112.627 43.644 112.899 43.844 113.203 43.98C113.507 44.116 113.835 44.184 114.187 44.184C114.587 44.184 114.911 44.108 115.159 43.956C115.415 43.796 115.543 43.564 115.543 43.26C115.543 43.02 115.463 42.836 115.303 42.708C115.143 42.572 114.875 42.456 114.499 42.36L113.575 42.132C113.103 42.02 112.731 41.828 112.459 41.556C112.187 41.284 112.051 40.924 112.051 40.476C112.051 39.884 112.247 39.424 112.639 39.096C113.039 38.76 113.559 38.592 114.199 38.592C114.655 38.592 115.067 38.668 115.435 38.82C115.811 38.972 116.143 39.188 116.431 39.468L115.807 40.212C115.583 39.98 115.335 39.808 115.063 39.696C114.799 39.584 114.511 39.528 114.199 39.528C113.823 39.528 113.535 39.608 113.335 39.768C113.135 39.92 113.035 40.124 113.035 40.38C113.035 40.612 113.111 40.796 113.263 40.932C113.423 41.06 113.683 41.168 114.043 41.256L114.799 41.448C115.375 41.592 115.807 41.796 116.095 42.06C116.383 42.324 116.527 42.684 116.527 43.14C116.527 43.756 116.315 44.24 115.891 44.592C115.475 44.944 114.899 45.12 114.163 45.12ZM120.078 45.12C119.526 45.12 119.074 44.992 118.722 44.736C118.37 44.48 118.194 43.98 118.194 43.236V39.6H117.102V38.712H118.194V37.248H119.154V38.712H120.954V39.6H119.154V43.188C119.154 43.588 119.246 43.86 119.43 44.004C119.614 44.14 119.882 44.208 120.234 44.208C120.386 44.208 120.526 44.196 120.654 44.172C120.79 44.148 120.934 44.112 121.086 44.064V44.928C120.934 44.984 120.766 45.028 120.582 45.06C120.398 45.1 120.23 45.12 120.078 45.12ZM123.862 45.12C123.206 45.12 122.69 44.94 122.314 44.58C121.938 44.22 121.75 43.748 121.75 43.164C121.75 42.564 121.954 42.084 122.362 41.724C122.77 41.356 123.338 41.172 124.066 41.172H126.07V42.036H124.066C123.626 42.036 123.29 42.14 123.058 42.348C122.826 42.556 122.71 42.824 122.71 43.152C122.71 43.456 122.822 43.708 123.046 43.908C123.278 44.108 123.606 44.208 124.03 44.208C124.406 44.208 124.75 44.124 125.062 43.956C125.382 43.788 125.654 43.552 125.878 43.248V40.824C125.878 40.36 125.746 40.028 125.482 39.828C125.218 39.628 124.862 39.528 124.414 39.528C124.03 39.528 123.698 39.596 123.418 39.732C123.146 39.868 122.874 40.072 122.602 40.344L121.966 39.624C122.246 39.32 122.598 39.072 123.022 38.88C123.446 38.688 123.914 38.592 124.426 38.592C125.154 38.592 125.738 38.78 126.178 39.156C126.618 39.532 126.838 40.088 126.838 40.824V45H125.878V44.16L125.734 44.112C125.542 44.424 125.286 44.672 124.966 44.856C124.646 45.032 124.278 45.12 123.862 45.12ZM128.567 38.712H129.527V39.72L129.671 39.768C129.847 39.408 130.107 39.124 130.451 38.916C130.795 38.7 131.187 38.592 131.627 38.592C132.339 38.592 132.899 38.796 133.307 39.204C133.723 39.612 133.931 40.2 133.931 40.968V45H132.971V41.088C132.971 40.544 132.843 40.144 132.587 39.888C132.339 39.632 131.979 39.504 131.507 39.504C131.091 39.504 130.707 39.612 130.355 39.828C130.011 40.036 129.735 40.32 129.527 40.68V45H128.567V38.712ZM137.82 45.12C137.268 45.12 136.816 44.992 136.464 44.736C136.112 44.48 135.936 43.98 135.936 43.236V39.6H134.844V38.712H135.936V37.248H136.896V38.712H138.696V39.6H136.896V43.188C136.896 43.588 136.988 43.86 137.172 44.004C137.356 44.14 137.624 44.208 137.976 44.208C138.128 44.208 138.268 44.196 138.396 44.172C138.532 44.148 138.676 44.112 138.828 44.064V44.928C138.676 44.984 138.508 45.028 138.324 45.06C138.14 45.1 137.972 45.12 137.82 45.12Z" fill="#BCBEC8"/>
<path d="M32 73C32 66.3726 37.3726 61 44 61V61C50.6274 61 56 66.3726 56 73V73C56 79.6274 50.6274 85 44 85V85C37.3726 85 32 79.6274 32 73V73Z" fill="#D0D9FB" fill-opacity="0.12"/>
<mask id="mask0_540_2691" style="mask-type:alpha" maskUnits="userSpaceOnUse" x="36" y="65" width="16" height="16">
<path d="M44 67.5C44.2761 67.5 44.5 67.7239 44.5 68V72.5H49C49.2761 72.5 49.5 72.7239 49.5 73C49.5 73.2761 49.2761 73.5 49 73.5H44.5V78C44.5 78.2761 44.2761 78.5 44 78.5C43.7239 78.5 43.5 78.2761 43.5 78V73.5H39C38.7239 73.5 38.5 73.2761 38.5 73C38.5 72.7239 38.7239 72.5 39 72.5H43.5V68C43.5 67.7239 43.7239 67.5 44 67.5Z" fill="#F7F7F8"/>
</mask>
<g mask="url(#mask0_540_2691)">
<rect x="36" y="65" width="16" height="16" fill="#F7F7F8"/>
</g>
<mask id="mask1_540_2691" style="mask-type:alpha" maskUnits="userSpaceOnUse" x="64" y="65" width="16" height="16">
<path d="M74.5 70C75.0523 70 75.5 69.5523 75.5 69C75.5 68.4477 75.0523 68 74.5 68C73.9477 68 73.5 68.4477 73.5 69C73.5 69.5523 73.9477 70 74.5 70ZM74.5 67C75.4319 67 76.215 67.6374 76.437 68.5L78 68.5C78.2761 68.5 78.5 68.7239 78.5 69C78.5 69.2761 78.2761 69.5 78 69.5L76.437 69.5C76.215 70.3626 75.4319 71 74.5 71C73.5681 71 72.785 70.3626 72.563 69.5L66 69.5C65.7239 69.5 65.5 69.2761 65.5 69C65.5 68.7239 65.7239 68.5 66 68.5L72.563 68.5C72.785 67.6374 73.5681 67 74.5 67ZM69.5 74C70.0523 74 70.5 73.5523 70.5 73C70.5 72.4477 70.0523 72 69.5 72C68.9477 72 68.5 72.4477 68.5 73C68.5 73.5523 68.9477 74 69.5 74ZM69.5 71C70.4319 71 71.215 71.6374 71.437 72.5H78C78.2761 72.5 78.5 72.7239 78.5 73C78.5 73.2761 78.2761 73.5 78 73.5H71.437C71.215 74.3626 70.4319 75 69.5 75C68.5681 75 67.785 74.3626 67.563 73.5H66C65.7239 73.5 65.5 73.2761 65.5 73C65.5 72.7239 65.7239 72.5 66 72.5H67.563C67.785 71.6374 68.5681 71 69.5 71ZM75.5 77C75.5 77.5523 75.0523 78 74.5 78C73.9477 78 73.5 77.5523 73.5 77C73.5 76.4477 73.9477 76 74.5 76C75.0523 76 75.5 76.4477 75.5 77ZM72.563 77.5C72.785 78.3626 73.5681 79 74.5 79C75.4319 79 76.215 78.3626 76.437 77.5H78C78.2761 77.5 78.5 77.2761 78.5 77C78.5 76.7239 78.2761 76.5 78 76.5H76.437C76.215 75.6374 75.4319 75 74.5 75C73.5681 75 72.785 75.6374 72.563 76.5H66C65.7239 76.5 65.5 76.7239 65.5 77C65.5 77.2761 65.7239 77.5 66 77.5H72.563Z" fill="#F7F7F8"/>
</mask>
<g mask="url(#mask1_540_2691)">
<rect x="64" y="65" width="16" height="16" fill="#F7F7F8"/>
</g>
<g opacity="0.5">
<path d="M353 73C353 66.3726 358.373 61 365 61V61C371.627 61 377 66.3726 377 73V73C377 79.6274 371.627 85 365 85V85C358.373 85 353 79.6274 353 73V73Z" fill="#D0D9FB" fill-opacity="0.12"/>
<mask id="mask2_540_2691" style="mask-type:alpha" maskUnits="userSpaceOnUse" x="357" y="65" width="16" height="16">
<path d="M365 74.6666C366.107 74.6666 367 73.7733 367 72.6666V68.6666C367 67.56 366.107 66.6666 365 66.6666C363.893 66.6666 363 67.56 363 68.6666V72.6666C363 73.7733 363.893 74.6666 365 74.6666Z" fill="black"/>
<path d="M368.333 72.6666C368.333 74.5066 366.84 76 365 76C363.16 76 361.667 74.5066 361.667 72.6666H360.333C360.333 75.02 362.073 76.9533 364.333 77.28V79.3333H365.667V77.28C367.927 76.9533 369.667 75.02 369.667 72.6666H368.333Z" fill="black"/>
</mask>
<g mask="url(#mask2_540_2691)">
<rect x="357" y="65" width="16" height="16" fill="#F7F7F8"/>
</g>
</g>
</g>
<path d="M370.48 37.5963C370.48 38.0105 370.816 38.3463 371.23 38.3463C371.644 38.3463 371.98 38.0105 371.98 37.5963V32.9814C371.98 32.4292 371.532 31.9814 370.98 31.9814L366.365 31.9814C365.951 31.9814 365.615 32.3172 365.615 32.7314C365.615 33.1457 365.951 33.4814 366.365 33.4814L369.419 33.4814L365.98 36.9212C365.687 37.2141 365.687 37.6889 365.98 37.9818C366.273 38.2747 366.747 38.2747 367.04 37.9818L370.48 34.5423V37.5963Z" fill="#BCBEC8"/>
<path d="M359.488 43.4203L362.928 39.9808C363.221 39.6879 363.696 39.6879 363.988 39.9808C364.281 40.2737 364.281 40.7485 363.988 41.0414L360.55 44.4803H363.603C364.017 44.4803 364.353 44.8161 364.353 45.2303C364.353 45.6445 364.017 45.9803 363.603 45.9803H358.988C358.436 45.9803 357.988 45.5326 357.988 44.9803L357.988 40.3655C357.988 39.9513 358.324 39.6155 358.738 39.6155C359.152 39.6155 359.488 39.9513 359.488 40.3655L359.488 43.4203Z" fill="#BCBEC8"/>
<defs>
<filter id="filter0_dd_540_2691" x="0" y="0" width="409" height="117" filterUnits="userSpaceOnUse" color-interpolation-filters="sRGB">
<feFlood flood-opacity="0" result="BackgroundImageFix"/>
<feColorMatrix in="SourceAlpha" type="matrix" values="0 0 0 0 0 0 0 0 0 0 0 0 0 0 0 0 0 0 127 0" result="hardAlpha"/>
<feOffset/>
<feGaussianBlur stdDeviation="10"/>
<feColorMatrix type="matrix" values="0 0 0 0 0.0156863 0 0 0 0 0.0156863 0 0 0 0 0.0313726 0 0 0 0.25 0"/>
<feBlend mode="normal" in2="BackgroundImageFix" result="effect1_dropShadow_540_2691"/>
<feColorMatrix in="SourceAlpha" type="matrix" values="0 0 0 0 0 0 0 0 0 0 0 0 0 0 0 0 0 0 127 0" result="hardAlpha"/>
<feOffset/>
<feGaussianBlur stdDeviation="2"/>
<feColorMatrix type="matrix" values="0 0 0 0 0.0156863 0 0 0 0 0.0156863 0 0 0 0 0.0313726 0 0 0 0.25 0"/>
<feBlend mode="normal" in2="effect1_dropShadow_540_2691" result="effect2_dropShadow_540_2691"/>
<feBlend mode="normal" in="SourceGraphic" in2="effect2_dropShadow_540_2691" result="shape"/>
</filter>
</defs>
</svg>
