<svg width="305" height="56" viewBox="0 0 305 56" fill="none" xmlns="http://www.w3.org/2000/svg">
<path d="M0 8C0 3.58172 3.58172 0 8 0H297C301.418 0 305 3.58172 305 8V56H0V8Z" fill="#191A1F" fill-opacity="0.92"/>
<path d="M8 0.5H297C301.142 0.5 304.5 3.85787 304.5 8V55.5H0.5V8L0.509766 7.61426C0.710536 3.65139 3.98724 0.5 8 0.5Z" stroke="#D0D9FB" stroke-opacity="0.08"/>
<g opacity="0.5">
<mask id="mask0_549_28455" style="mask-type:alpha" maskUnits="userSpaceOnUse" x="8" y="8" width="16" height="16">
<path d="M18.3536 16.3536C18.5488 16.1583 18.5488 15.8417 18.3536 15.6464L15.3536 12.6464C15.1583 12.4512 14.8417 12.4512 14.6464 12.6464C14.4512 12.8417 14.4512 13.1583 14.6464 13.3536L17.2929 16L14.6464 18.6464C14.4512 18.8417 14.4512 19.1583 14.6464 19.3536C14.8417 19.5488 15.1583 19.5488 15.3536 19.3536L18.3536 16.3536Z" fill="#F7F7F8"/>
</mask>
<g mask="url(#mask0_549_28455)">
<rect x="8" y="8" width="16" height="16" fill="#F7F7F8"/>
</g>
</g>
<path d="M30.62 13H31.68L34.17 20H33.23L31.21 14.06H31.09L29.06 20H28.12L30.62 13ZM29.38 17.28H32.91V18.08H29.38V17.28ZM36.6291 20.1C36.2424 20.1 35.8724 20.03 35.5191 19.89C35.1724 19.7433 34.8757 19.5367 34.6291 19.27L35.1491 18.65C35.3491 18.87 35.5757 19.0367 35.8291 19.15C36.0824 19.2633 36.3557 19.32 36.6491 19.32C36.9824 19.32 37.2524 19.2567 37.4591 19.13C37.6724 18.9967 37.7791 18.8033 37.7791 18.55C37.7791 18.35 37.7124 18.1967 37.5791 18.09C37.4457 17.9767 37.2224 17.88 36.9091 17.8L36.1391 17.61C35.7457 17.5167 35.4357 17.3567 35.2091 17.13C34.9824 16.9033 34.8691 16.6033 34.8691 16.23C34.8691 15.7367 35.0324 15.3533 35.3591 15.08C35.6924 14.8 36.1257 14.66 36.6591 14.66C37.0391 14.66 37.3824 14.7233 37.6891 14.85C38.0024 14.9767 38.2791 15.1567 38.5191 15.39L37.9991 16.01C37.8124 15.8167 37.6057 15.6733 37.3791 15.58C37.1591 15.4867 36.9191 15.44 36.6591 15.44C36.3457 15.44 36.1057 15.5067 35.9391 15.64C35.7724 15.7667 35.6891 15.9367 35.6891 16.15C35.6891 16.3433 35.7524 16.4967 35.8791 16.61C36.0124 16.7167 36.2291 16.8067 36.5291 16.88L37.1591 17.04C37.6391 17.16 37.9991 17.33 38.2391 17.55C38.4791 17.77 38.5991 18.07 38.5991 18.45C38.5991 18.9633 38.4224 19.3667 38.0691 19.66C37.7224 19.9533 37.2424 20.1 36.6291 20.1ZM41.2775 20.1C40.8908 20.1 40.5208 20.03 40.1675 19.89C39.8208 19.7433 39.5242 19.5367 39.2775 19.27L39.7975 18.65C39.9975 18.87 40.2242 19.0367 40.4775 19.15C40.7308 19.2633 41.0042 19.32 41.2975 19.32C41.6308 19.32 41.9008 19.2567 42.1075 19.13C42.3208 18.9967 42.4275 18.8033 42.4275 18.55C42.4275 18.35 42.3608 18.1967 42.2275 18.09C42.0942 17.9767 41.8708 17.88 41.5575 17.8L40.7875 17.61C40.3942 17.5167 40.0842 17.3567 39.8575 17.13C39.6308 16.9033 39.5175 16.6033 39.5175 16.23C39.5175 15.7367 39.6808 15.3533 40.0075 15.08C40.3408 14.8 40.7742 14.66 41.3075 14.66C41.6875 14.66 42.0308 14.7233 42.3375 14.85C42.6508 14.9767 42.9275 15.1567 43.1675 15.39L42.6475 16.01C42.4608 15.8167 42.2542 15.6733 42.0275 15.58C41.8075 15.4867 41.5675 15.44 41.3075 15.44C40.9942 15.44 40.7542 15.5067 40.5875 15.64C40.4208 15.7667 40.3375 15.9367 40.3375 16.15C40.3375 16.3433 40.4008 16.4967 40.5275 16.61C40.6608 16.7167 40.8775 16.8067 41.1775 16.88L41.8075 17.04C42.2875 17.16 42.6475 17.33 42.8875 17.55C43.1275 17.77 43.2475 18.07 43.2475 18.45C43.2475 18.9633 43.0708 19.3667 42.7175 19.66C42.3708 19.9533 41.8908 20.1 41.2775 20.1ZM44.3157 14.76H45.1157V20H44.3157V14.76ZM44.2857 12.9H45.1457V13.76H44.2857V12.9ZM48.592 22C48.1587 22 47.7554 21.92 47.382 21.76C47.0087 21.6067 46.6887 21.3867 46.422 21.1L46.962 20.52C47.3887 20.9867 47.9354 21.22 48.602 21.22C49.1354 21.22 49.5154 21.1 49.742 20.86C49.9754 20.62 50.092 20.2533 50.092 19.76V19.08L49.972 19.04C49.8387 19.3067 49.6487 19.5167 49.402 19.67C49.1554 19.8233 48.8587 19.9 48.512 19.9C48.0854 19.9 47.6987 19.79 47.352 19.57C47.0054 19.35 46.732 19.0433 46.532 18.65C46.332 18.2567 46.232 17.8167 46.232 17.33C46.232 16.7767 46.3354 16.3 46.542 15.9C46.7554 15.4933 47.042 15.1867 47.402 14.98C47.762 14.7667 48.1654 14.66 48.612 14.66C48.8854 14.66 49.142 14.71 49.382 14.81C49.622 14.9033 49.8154 15.03 49.962 15.19L50.082 15.14V14.76H50.882V19.8C50.882 20.26 50.792 20.6533 50.612 20.98C50.4387 21.3067 50.182 21.5567 49.842 21.73C49.502 21.91 49.0854 22 48.592 22ZM48.572 19.12C48.9054 19.12 49.2054 19.0433 49.472 18.89C49.7387 18.7367 49.942 18.5267 50.082 18.26V16.04C49.9087 15.84 49.7054 15.6933 49.472 15.6C49.2454 15.5067 48.982 15.46 48.682 15.46C48.342 15.46 48.0487 15.53 47.802 15.67C47.562 15.81 47.3754 16.02 47.242 16.3C47.1154 16.5733 47.052 16.9133 47.052 17.32C47.052 17.68 47.1154 17.9967 47.242 18.27C47.3687 18.5367 47.5454 18.7467 47.772 18.9C48.0054 19.0467 48.272 19.12 48.572 19.12ZM52.3235 14.76H53.1235V15.6L53.2435 15.64C53.3902 15.34 53.6068 15.1033 53.8935 14.93C54.1802 14.75 54.5068 14.66 54.8735 14.66C55.4668 14.66 55.9335 14.83 56.2735 15.17C56.6202 15.51 56.7935 16 56.7935 16.64V20H55.9935V16.74C55.9935 16.2867 55.8868 15.9533 55.6735 15.74C55.4668 15.5267 55.1668 15.42 54.7735 15.42C54.4268 15.42 54.1068 15.51 53.8135 15.69C53.5268 15.8633 53.2968 16.1 53.1235 16.4V20H52.3235V14.76ZM60.988 13H62.008L65.328 18.23H65.488V13H66.348V20H65.488L62.008 14.48H61.848V20H60.988V13ZM67.9899 13H70.3999C71.1533 13 71.7333 13.19 72.1399 13.57C72.5533 13.95 72.7599 14.49 72.7599 15.19C72.7599 15.6567 72.6666 16.0533 72.4799 16.38C72.2999 16.7067 72.0333 16.9567 71.6799 17.13C71.3266 17.2967 70.8999 17.38 70.3999 17.38H68.6899V16.58H70.3999C70.9066 16.58 71.2833 16.47 71.5299 16.25C71.7766 16.0233 71.8999 15.67 71.8999 15.19C71.8999 14.71 71.7766 14.36 71.5299 14.14C71.2833 13.9133 70.9066 13.8 70.3999 13.8H68.8499V20H67.9899V13ZM76.7681 20.1C76.1415 20.1 75.5781 19.9533 75.0781 19.66C74.5781 19.36 74.1848 18.94 73.8981 18.4C73.6181 17.8533 73.4781 17.22 73.4781 16.5C73.4781 15.78 73.6181 15.15 73.8981 14.61C74.1848 14.0633 74.5781 13.6433 75.0781 13.35C75.5781 13.05 76.1415 12.9 76.7681 12.9C77.2815 12.9 77.7548 13 78.1881 13.2C78.6281 13.4 79.0148 13.7133 79.3481 14.14L78.7781 14.69C78.4848 14.3167 78.1815 14.06 77.8681 13.92C77.5548 13.7733 77.1915 13.7 76.7781 13.7C76.3181 13.7 75.9048 13.81 75.5381 14.03C75.1715 14.25 74.8815 14.57 74.6681 14.99C74.4615 15.41 74.3581 15.9133 74.3581 16.5C74.3581 17.0867 74.4615 17.59 74.6681 18.01C74.8815 18.43 75.1715 18.75 75.5381 18.97C75.9048 19.19 76.3181 19.3 76.7781 19.3C77.1915 19.3 77.5548 19.23 77.8681 19.09C78.1815 18.9433 78.4848 18.6833 78.7781 18.31L79.3481 18.86C79.0148 19.2867 78.6281 19.6 78.1881 19.8C77.7548 20 77.2815 20.1 76.7681 20.1ZM83.2024 12.9H84.0024V20H83.2024V12.9ZM87.5788 20.1C87.0588 20.1 86.6154 19.9867 86.2488 19.76C85.8821 19.5333 85.6021 19.2167 85.4088 18.81C85.2154 18.3967 85.1188 17.92 85.1188 17.38C85.1188 16.84 85.2154 16.3667 85.4088 15.96C85.6021 15.5467 85.8821 15.2267 86.2488 15C86.6154 14.7733 87.0588 14.66 87.5788 14.66C88.0988 14.66 88.5421 14.7733 88.9088 15C89.2754 15.2267 89.5554 15.5467 89.7488 15.96C89.9421 16.3667 90.0388 16.84 90.0388 17.38C90.0388 17.92 89.9421 18.3967 89.7488 18.81C89.5554 19.2167 89.2754 19.5333 88.9088 19.76C88.5421 19.9867 88.0988 20.1 87.5788 20.1ZM87.5788 19.32C87.9254 19.32 88.2221 19.24 88.4688 19.08C88.7154 18.92 88.9021 18.6933 89.0288 18.4C89.1554 18.1067 89.2188 17.7667 89.2188 17.38C89.2188 16.9933 89.1554 16.6533 89.0288 16.36C88.9021 16.0667 88.7154 15.84 88.4688 15.68C88.2221 15.52 87.9254 15.44 87.5788 15.44C87.2321 15.44 86.9354 15.52 86.6888 15.68C86.4421 15.84 86.2554 16.0667 86.1288 16.36C86.0021 16.6533 85.9388 16.9933 85.9388 17.38C85.9388 17.7667 86.0021 18.1067 86.1288 18.4C86.2554 18.6933 86.4421 18.92 86.6888 19.08C86.9354 19.24 87.2321 19.32 87.5788 19.32ZM93.2014 22C92.7681 22 92.3647 21.92 91.9914 21.76C91.6181 21.6067 91.2981 21.3867 91.0314 21.1L91.5714 20.52C91.9981 20.9867 92.5447 21.22 93.2114 21.22C93.7447 21.22 94.1247 21.1 94.3514 20.86C94.5847 20.62 94.7014 20.2533 94.7014 19.76V19.08L94.5814 19.04C94.4481 19.3067 94.2581 19.5167 94.0114 19.67C93.7647 19.8233 93.4681 19.9 93.1214 19.9C92.6947 19.9 92.3081 19.79 91.9614 19.57C91.6147 19.35 91.3414 19.0433 91.1414 18.65C90.9414 18.2567 90.8414 17.8167 90.8414 17.33C90.8414 16.7767 90.9447 16.3 91.1514 15.9C91.3647 15.4933 91.6514 15.1867 92.0114 14.98C92.3714 14.7667 92.7747 14.66 93.2214 14.66C93.4947 14.66 93.7514 14.71 93.9914 14.81C94.2314 14.9033 94.4247 15.03 94.5714 15.19L94.6914 15.14V14.76H95.4914V19.8C95.4914 20.26 95.4014 20.6533 95.2214 20.98C95.0481 21.3067 94.7914 21.5567 94.4514 21.73C94.1114 21.91 93.6947 22 93.2014 22ZM93.1814 19.12C93.5147 19.12 93.8147 19.0433 94.0814 18.89C94.3481 18.7367 94.5514 18.5267 94.6914 18.26V16.04C94.5181 15.84 94.3147 15.6933 94.0814 15.6C93.8547 15.5067 93.5914 15.46 93.2914 15.46C92.9514 15.46 92.6581 15.53 92.4114 15.67C92.1714 15.81 91.9847 16.02 91.8514 16.3C91.7247 16.5733 91.6614 16.9133 91.6614 17.32C91.6614 17.68 91.7247 17.9967 91.8514 18.27C91.9781 18.5367 92.1547 18.7467 92.3814 18.9C92.6147 19.0467 92.8814 19.12 93.1814 19.12ZM96.9329 14.76H97.7329V20H96.9329V14.76ZM96.9029 12.9H97.7629V13.76H96.9029V12.9ZM101.309 20.1C100.809 20.1 100.373 19.9867 99.9992 19.76C99.6259 19.5333 99.3392 19.2167 99.1392 18.81C98.9459 18.3967 98.8492 17.92 98.8492 17.38C98.8492 16.84 98.9459 16.3667 99.1392 15.96C99.3392 15.5467 99.6259 15.2267 99.9992 15C100.373 14.7733 100.809 14.66 101.309 14.66C101.736 14.66 102.119 14.7433 102.459 14.91C102.799 15.07 103.089 15.2933 103.329 15.58L102.749 16.14C102.563 15.9067 102.343 15.7333 102.089 15.62C101.836 15.5 101.579 15.44 101.319 15.44C100.973 15.44 100.676 15.52 100.429 15.68C100.183 15.84 99.9926 16.0667 99.8592 16.36C99.7326 16.6533 99.6692 16.9933 99.6692 17.38C99.6692 17.7667 99.7326 18.1067 99.8592 18.4C99.9926 18.6933 100.183 18.92 100.429 19.08C100.676 19.24 100.973 19.32 101.319 19.32C101.579 19.32 101.836 19.2633 102.089 19.15C102.343 19.03 102.563 18.8533 102.749 18.62L103.329 19.18C103.089 19.4667 102.799 19.6933 102.459 19.86C102.119 20.02 101.736 20.1 101.309 20.1ZM107.539 15.5H106.529V14.76H107.539V14.61C107.539 14.0167 107.716 13.5667 108.069 13.26C108.429 12.9533 108.889 12.8 109.449 12.8C109.622 12.8 109.802 12.8167 109.989 12.85V13.59C109.789 13.5567 109.609 13.54 109.449 13.54C109.102 13.54 108.829 13.6267 108.629 13.8C108.436 13.9667 108.339 14.21 108.339 14.53V14.76H109.909V15.5H108.339V20H107.539V15.5ZM112.725 20.1C112.205 20.1 111.762 19.9867 111.395 19.76C111.029 19.5333 110.749 19.2167 110.555 18.81C110.362 18.3967 110.265 17.92 110.265 17.38C110.265 16.84 110.362 16.3667 110.555 15.96C110.749 15.5467 111.029 15.2267 111.395 15C111.762 14.7733 112.205 14.66 112.725 14.66C113.245 14.66 113.689 14.7733 114.055 15C114.422 15.2267 114.702 15.5467 114.895 15.96C115.089 16.3667 115.185 16.84 115.185 17.38C115.185 17.92 115.089 18.3967 114.895 18.81C114.702 19.2167 114.422 19.5333 114.055 19.76C113.689 19.9867 113.245 20.1 112.725 20.1ZM112.725 19.32C113.072 19.32 113.369 19.24 113.615 19.08C113.862 18.92 114.049 18.6933 114.175 18.4C114.302 18.1067 114.365 17.7667 114.365 17.38C114.365 16.9933 114.302 16.6533 114.175 16.36C114.049 16.0667 113.862 15.84 113.615 15.68C113.369 15.52 113.072 15.44 112.725 15.44C112.379 15.44 112.082 15.52 111.835 15.68C111.589 15.84 111.402 16.0667 111.275 16.36C111.149 16.6533 111.085 16.9933 111.085 17.38C111.085 17.7667 111.149 18.1067 111.275 18.4C111.402 18.6933 111.589 18.92 111.835 19.08C112.082 19.24 112.379 19.32 112.725 19.32ZM116.308 14.76H117.108V15.63L117.228 15.67C117.435 15.33 117.648 15.0767 117.868 14.91C118.088 14.7433 118.385 14.66 118.758 14.66C118.931 14.66 119.071 14.6767 119.178 14.71V15.59C119.011 15.5433 118.821 15.52 118.608 15.52C118.248 15.52 117.945 15.6133 117.698 15.8C117.458 15.9867 117.261 16.2467 117.108 16.58V20H116.308V14.76ZM123.262 15.5H122.252V14.76H123.262V14.61C123.262 14.0167 123.438 13.5667 123.792 13.26C124.152 12.9533 124.612 12.8 125.172 12.8C125.345 12.8 125.525 12.8167 125.712 12.85V13.59C125.512 13.5567 125.332 13.54 125.172 13.54C124.825 13.54 124.552 13.6267 124.352 13.8C124.158 13.9667 124.062 14.21 124.062 14.53V14.76H127.092V20H126.292V15.5H124.062V20H123.262V15.5ZM126.262 12.9H127.122V13.76H126.262V12.9ZM128.534 14.76H129.334V15.6L129.454 15.64C129.601 15.34 129.818 15.1033 130.104 14.93C130.391 14.75 130.718 14.66 131.084 14.66C131.678 14.66 132.144 14.83 132.484 15.17C132.831 15.51 133.004 16 133.004 16.64V20H132.204V16.74C132.204 16.2867 132.098 15.9533 131.884 15.74C131.678 15.5267 131.378 15.42 130.984 15.42C130.638 15.42 130.318 15.51 130.024 15.69C129.738 15.8633 129.508 16.1 129.334 16.4V20H128.534V14.76ZM135.844 20.1C135.297 20.1 134.867 19.95 134.554 19.65C134.24 19.35 134.084 18.9567 134.084 18.47C134.084 17.97 134.254 17.57 134.594 17.27C134.934 16.9633 135.407 16.81 136.014 16.81H137.684V17.53H136.014C135.647 17.53 135.367 17.6167 135.174 17.79C134.98 17.9633 134.884 18.1867 134.884 18.46C134.884 18.7133 134.977 18.9233 135.164 19.09C135.357 19.2567 135.63 19.34 135.984 19.34C136.297 19.34 136.584 19.27 136.844 19.13C137.11 18.99 137.337 18.7933 137.524 18.54V16.52C137.524 16.1333 137.414 15.8567 137.194 15.69C136.974 15.5233 136.677 15.44 136.304 15.44C135.984 15.44 135.707 15.4967 135.474 15.61C135.247 15.7233 135.02 15.8933 134.794 16.12L134.264 15.52C134.497 15.2667 134.79 15.06 135.144 14.9C135.497 14.74 135.887 14.66 136.314 14.66C136.92 14.66 137.407 14.8167 137.774 15.13C138.14 15.4433 138.324 15.9067 138.324 16.52V20H137.524V19.3L137.404 19.26C137.244 19.52 137.03 19.7267 136.764 19.88C136.497 20.0267 136.19 20.1 135.844 20.1ZM139.765 12.9H140.565V20H139.765V12.9ZM147.017 20.1C146.69 20.1 146.407 20.05 146.167 19.95C145.933 19.8433 145.75 19.7167 145.617 19.57L145.497 19.62V20H144.697V12.9H145.497V15.45L145.617 15.49C145.93 14.9367 146.423 14.66 147.097 14.66C147.537 14.66 147.923 14.7667 148.257 14.98C148.597 15.1867 148.86 15.4967 149.047 15.91C149.24 16.3167 149.337 16.8067 149.337 17.38C149.337 17.9533 149.233 18.4467 149.027 18.86C148.82 19.2667 148.54 19.5767 148.187 19.79C147.833 19.9967 147.443 20.1 147.017 20.1ZM146.827 19.32C147.193 19.32 147.503 19.24 147.757 19.08C148.01 18.9133 148.2 18.6867 148.327 18.4C148.453 18.1067 148.517 17.7633 148.517 17.37C148.517 16.9833 148.453 16.6467 148.327 16.36C148.207 16.0667 148.03 15.84 147.797 15.68C147.57 15.52 147.297 15.44 146.977 15.44C146.623 15.44 146.337 15.5133 146.117 15.66C145.897 15.8067 145.69 16.02 145.497 16.3V18.74C145.65 18.9333 145.84 19.08 146.067 19.18C146.3 19.2733 146.553 19.32 146.827 19.32ZM152.598 20.1C152.078 20.1 151.635 19.9867 151.268 19.76C150.902 19.5333 150.622 19.2167 150.428 18.81C150.235 18.3967 150.138 17.92 150.138 17.38C150.138 16.84 150.235 16.3667 150.428 15.96C150.622 15.5467 150.902 15.2267 151.268 15C151.635 14.7733 152.078 14.66 152.598 14.66C153.118 14.66 153.562 14.7733 153.928 15C154.295 15.2267 154.575 15.5467 154.768 15.96C154.962 16.3667 155.058 16.84 155.058 17.38C155.058 17.92 154.962 18.3967 154.768 18.81C154.575 19.2167 154.295 19.5333 153.928 19.76C153.562 19.9867 153.118 20.1 152.598 20.1ZM152.598 19.32C152.945 19.32 153.242 19.24 153.488 19.08C153.735 18.92 153.922 18.6933 154.048 18.4C154.175 18.1067 154.238 17.7667 154.238 17.38C154.238 16.9933 154.175 16.6533 154.048 16.36C153.922 16.0667 153.735 15.84 153.488 15.68C153.242 15.52 152.945 15.44 152.598 15.44C152.252 15.44 151.955 15.52 151.708 15.68C151.462 15.84 151.275 16.0667 151.148 16.36C151.022 16.6533 150.958 16.9933 150.958 17.38C150.958 17.7667 151.022 18.1067 151.148 18.4C151.275 18.6933 151.462 18.92 151.708 19.08C151.955 19.24 152.252 19.32 152.598 19.32ZM157.733 20.1C157.346 20.1 156.976 20.03 156.623 19.89C156.276 19.7433 155.979 19.5367 155.733 19.27L156.253 18.65C156.453 18.87 156.679 19.0367 156.933 19.15C157.186 19.2633 157.459 19.32 157.753 19.32C158.086 19.32 158.356 19.2567 158.563 19.13C158.776 18.9967 158.883 18.8033 158.883 18.55C158.883 18.35 158.816 18.1967 158.683 18.09C158.549 17.9767 158.326 17.88 158.013 17.8L157.243 17.61C156.849 17.5167 156.539 17.3567 156.313 17.13C156.086 16.9033 155.973 16.6033 155.973 16.23C155.973 15.7367 156.136 15.3533 156.463 15.08C156.796 14.8 157.229 14.66 157.763 14.66C158.143 14.66 158.486 14.7233 158.793 14.85C159.106 14.9767 159.383 15.1567 159.623 15.39L159.103 16.01C158.916 15.8167 158.709 15.6733 158.483 15.58C158.263 15.4867 158.023 15.44 157.763 15.44C157.449 15.44 157.209 15.5067 157.043 15.64C156.876 15.7667 156.793 15.9367 156.793 16.15C156.793 16.3433 156.856 16.4967 156.983 16.61C157.116 16.7167 157.333 16.8067 157.633 16.88L158.263 17.04C158.743 17.16 159.103 17.33 159.343 17.55C159.583 17.77 159.703 18.07 159.703 18.45C159.703 18.9633 159.526 19.3667 159.173 19.66C158.826 19.9533 158.346 20.1 157.733 20.1ZM162.381 20.1C161.994 20.1 161.624 20.03 161.271 19.89C160.924 19.7433 160.628 19.5367 160.381 19.27L160.901 18.65C161.101 18.87 161.328 19.0367 161.581 19.15C161.834 19.2633 162.108 19.32 162.401 19.32C162.734 19.32 163.004 19.2567 163.211 19.13C163.424 18.9967 163.531 18.8033 163.531 18.55C163.531 18.35 163.464 18.1967 163.331 18.09C163.198 17.9767 162.974 17.88 162.661 17.8L161.891 17.61C161.498 17.5167 161.188 17.3567 160.961 17.13C160.734 16.9033 160.621 16.6033 160.621 16.23C160.621 15.7367 160.784 15.3533 161.111 15.08C161.444 14.8 161.878 14.66 162.411 14.66C162.791 14.66 163.134 14.7233 163.441 14.85C163.754 14.9767 164.031 15.1567 164.271 15.39L163.751 16.01C163.564 15.8167 163.358 15.6733 163.131 15.58C162.911 15.4867 162.671 15.44 162.411 15.44C162.098 15.44 161.858 15.5067 161.691 15.64C161.524 15.7667 161.441 15.9367 161.441 16.15C161.441 16.3433 161.504 16.4967 161.631 16.61C161.764 16.7167 161.981 16.8067 162.281 16.88L162.911 17.04C163.391 17.16 163.751 17.33 163.991 17.55C164.231 17.77 164.351 18.07 164.351 18.45C164.351 18.9633 164.174 19.3667 163.821 19.66C163.474 19.9533 162.994 20.1 162.381 20.1ZM170.425 20.1C170.098 20.1 169.815 20.05 169.575 19.95C169.341 19.8433 169.158 19.7167 169.025 19.57L168.905 19.62V20H168.105V12.9H168.905V15.45L169.025 15.49C169.338 14.9367 169.831 14.66 170.505 14.66C170.945 14.66 171.331 14.7667 171.665 14.98C172.005 15.1867 172.268 15.4967 172.455 15.91C172.648 16.3167 172.745 16.8067 172.745 17.38C172.745 17.9533 172.641 18.4467 172.435 18.86C172.228 19.2667 171.948 19.5767 171.595 19.79C171.241 19.9967 170.851 20.1 170.425 20.1ZM170.235 19.32C170.601 19.32 170.911 19.24 171.165 19.08C171.418 18.9133 171.608 18.6867 171.735 18.4C171.861 18.1067 171.925 17.7633 171.925 17.37C171.925 16.9833 171.861 16.6467 171.735 16.36C171.615 16.0667 171.438 15.84 171.205 15.68C170.978 15.52 170.705 15.44 170.385 15.44C170.031 15.44 169.745 15.5133 169.525 15.66C169.305 15.8067 169.098 16.02 168.905 16.3V18.74C169.058 18.9333 169.248 19.08 169.475 19.18C169.708 19.2733 169.961 19.32 170.235 19.32ZM175.306 20.1C174.76 20.1 174.33 19.95 174.016 19.65C173.703 19.35 173.546 18.9567 173.546 18.47C173.546 17.97 173.716 17.57 174.056 17.27C174.396 16.9633 174.87 16.81 175.476 16.81H177.146V17.53H175.476C175.11 17.53 174.83 17.6167 174.636 17.79C174.443 17.9633 174.346 18.1867 174.346 18.46C174.346 18.7133 174.44 18.9233 174.626 19.09C174.82 19.2567 175.093 19.34 175.446 19.34C175.76 19.34 176.046 19.27 176.306 19.13C176.573 18.99 176.8 18.7933 176.986 18.54V16.52C176.986 16.1333 176.876 15.8567 176.656 15.69C176.436 15.5233 176.14 15.44 175.766 15.44C175.446 15.44 175.17 15.4967 174.936 15.61C174.71 15.7233 174.483 15.8933 174.256 16.12L173.726 15.52C173.96 15.2667 174.253 15.06 174.606 14.9C174.96 14.74 175.35 14.66 175.776 14.66C176.383 14.66 176.87 14.8167 177.236 15.13C177.603 15.4433 177.786 15.9067 177.786 16.52V20H176.986V19.3L176.866 19.26C176.706 19.52 176.493 19.7267 176.226 19.88C175.96 20.0267 175.653 20.1 175.306 20.1ZM180.981 20.1C180.521 20.1 180.145 19.9933 179.851 19.78C179.558 19.5667 179.411 19.15 179.411 18.53V15.5H178.501V14.76H179.411V13.54H180.211V14.76H181.711V15.5H180.211V18.49C180.211 18.8233 180.288 19.05 180.441 19.17C180.595 19.2833 180.818 19.34 181.111 19.34C181.238 19.34 181.355 19.33 181.461 19.31C181.575 19.29 181.695 19.26 181.821 19.22V19.94C181.695 19.9867 181.555 20.0233 181.401 20.05C181.248 20.0833 181.108 20.1 180.981 20.1ZM184.595 20.1C184.135 20.1 183.758 19.9933 183.465 19.78C183.171 19.5667 183.025 19.15 183.025 18.53V15.5H182.115V14.76H183.025V13.54H183.825V14.76H185.325V15.5H183.825V18.49C183.825 18.8233 183.901 19.05 184.055 19.17C184.208 19.2833 184.431 19.34 184.725 19.34C184.851 19.34 184.968 19.33 185.075 19.31C185.188 19.29 185.308 19.26 185.435 19.22V19.94C185.308 19.9867 185.168 20.0233 185.015 20.05C184.861 20.0833 184.721 20.1 184.595 20.1ZM186.308 12.9H187.108V20H186.308V12.9ZM190.744 20.1C190.211 20.1 189.754 19.9867 189.374 19.76C188.994 19.5333 188.708 19.2167 188.514 18.81C188.321 18.4033 188.224 17.9267 188.224 17.38C188.224 16.84 188.321 16.3667 188.514 15.96C188.708 15.5467 188.988 15.2267 189.354 15C189.721 14.7733 190.164 14.66 190.684 14.66C191.451 14.66 192.034 14.9067 192.434 15.4C192.841 15.8867 193.044 16.5467 193.044 17.38V17.58H188.674L189.024 17.3C189.024 17.94 189.171 18.4367 189.464 18.79C189.758 19.1433 190.188 19.32 190.754 19.32C191.041 19.32 191.311 19.27 191.564 19.17C191.818 19.0633 192.064 18.9033 192.304 18.69L192.834 19.3C192.554 19.5667 192.234 19.7667 191.874 19.9C191.514 20.0333 191.138 20.1 190.744 20.1ZM190.694 15.42C190.261 15.42 189.904 15.5467 189.624 15.8C189.344 16.0533 189.161 16.4 189.074 16.84H192.204C192.131 16.3933 191.968 16.0467 191.714 15.8C191.461 15.5467 191.121 15.42 190.694 15.42ZM196.835 14.76H197.635V20H196.835V14.76ZM196.805 12.9H197.665V13.76H196.805V12.9ZM199.072 14.76H199.872V15.6L199.992 15.64C200.138 15.34 200.355 15.1033 200.642 14.93C200.928 14.75 201.255 14.66 201.622 14.66C202.215 14.66 202.682 14.83 203.022 15.17C203.368 15.51 203.542 16 203.542 16.64V20H202.742V16.74C202.742 16.2867 202.635 15.9533 202.422 15.74C202.215 15.5267 201.915 15.42 201.522 15.42C201.175 15.42 200.855 15.51 200.562 15.69C200.275 15.8633 200.045 16.1 199.872 16.4V20H199.072V14.76ZM209.536 20.1C209.076 20.1 208.699 19.9933 208.406 19.78C208.113 19.5667 207.966 19.15 207.966 18.53V15.5H207.056V14.76H207.966V13.54H208.766V14.76H210.266V15.5H208.766V18.49C208.766 18.8233 208.843 19.05 208.996 19.17C209.149 19.2833 209.373 19.34 209.666 19.34C209.793 19.34 209.909 19.33 210.016 19.31C210.129 19.29 210.249 19.26 210.376 19.22V19.94C210.249 19.9867 210.109 20.0233 209.956 20.05C209.803 20.0833 209.663 20.1 209.536 20.1ZM211.249 12.9H212.049V15.6L212.169 15.64C212.316 15.34 212.533 15.1033 212.819 14.93C213.106 14.75 213.433 14.66 213.799 14.66C214.393 14.66 214.859 14.83 215.199 15.17C215.546 15.51 215.719 16 215.719 16.64V20H214.919V16.74C214.919 16.2867 214.813 15.9533 214.599 15.74C214.393 15.5267 214.093 15.42 213.699 15.42C213.353 15.42 213.033 15.51 212.739 15.69C212.453 15.8633 212.223 16.1 212.049 16.4V20H211.249V12.9ZM219.318 20.1C218.785 20.1 218.328 19.9867 217.948 19.76C217.568 19.5333 217.282 19.2167 217.088 18.81C216.895 18.4033 216.798 17.9267 216.798 17.38C216.798 16.84 216.895 16.3667 217.088 15.96C217.282 15.5467 217.562 15.2267 217.928 15C218.295 14.7733 218.738 14.66 219.258 14.66C220.025 14.66 220.608 14.9067 221.008 15.4C221.415 15.8867 221.618 16.5467 221.618 17.38V17.58H217.248L217.598 17.3C217.598 17.94 217.745 18.4367 218.038 18.79C218.332 19.1433 218.762 19.32 219.328 19.32C219.615 19.32 219.885 19.27 220.138 19.17C220.392 19.0633 220.638 18.9033 220.878 18.69L221.408 19.3C221.128 19.5667 220.808 19.7667 220.448 19.9C220.088 20.0333 219.712 20.1 219.318 20.1ZM219.268 15.42C218.835 15.42 218.478 15.5467 218.198 15.8C217.918 16.0533 217.735 16.4 217.648 16.84H220.778C220.705 16.3933 220.542 16.0467 220.288 15.8C220.035 15.5467 219.695 15.42 219.268 15.42ZM224.934 18.98H225.954V20H224.934V18.98ZM227.254 18.98H228.274V20H227.254V18.98ZM222.614 18.98H223.634V20H222.614V18.98Z" fill="#BCBEC8"/>
<g clip-path="url(#clip0_549_28455)">
<mask id="mask1_549_28455" style="mask-type:alpha" maskUnits="userSpaceOnUse" x="234" y="11" width="10" height="10">
<rect x="234" y="11" width="10" height="10" fill="url(#paint0_linear_549_28455)"/>
</mask>
<g mask="url(#mask1_549_28455)">
<path d="M234.417 16.0003C234.417 13.4691 236.469 11.4165 239 11.4163C241.531 11.4163 243.584 13.469 243.584 16.0003C243.584 18.5315 241.531 20.5833 239 20.5833C236.469 20.5831 234.417 18.5314 234.417 16.0003ZM236.5 16.0003C236.5 17.3808 237.619 18.5002 239 18.5003C240.38 18.5003 241.5 17.3809 241.5 16.0003C241.5 14.6196 240.38 13.5003 239 13.5003C237.619 13.5005 236.5 14.6197 236.5 16.0003Z" fill="#F7F7F8"/>
</g>
</g>
<path d="M248.304 13.72H248.112L246.348 14.764V13.252L248.304 12.1H249.732V20.5H248.304V13.72Z" fill="white"/>
<mask id="path-10-inside-1_549_28455" fill="white">
<path d="M255 16C255 12.6863 257.686 10 261 10C264.314 10 267 12.6863 267 16C267 19.3137 264.314 22 261 22C257.686 22 255 19.3137 255 16Z"/>
</mask>
<path d="M255 16C255 12.6863 257.686 10 261 10C264.314 10 267 12.6863 267 16C267 19.3137 264.314 22 261 22C257.686 22 255 19.3137 255 16Z" fill="#F2BA2A"/>
<path d="M255 16M267 16M267 16M255 16M261 10M267 16M261 22M255 16M261 22V20C258.791 20 257 18.2091 257 16H255H253C253 20.4183 256.582 24 261 24V22ZM267 16H265C265 18.2091 263.209 20 261 20V22V24C265.418 24 269 20.4183 269 16H267ZM261 10V12C263.209 12 265 13.7909 265 16H267H269C269 11.5817 265.418 8 261 8V10ZM261 10V8C256.582 8 253 11.5817 253 16H255H257C257 13.7909 258.791 12 261 12V10Z" fill="#191A1F" mask="url(#path-10-inside-1_549_28455)"/>
<path d="M271.304 13.72H271.112L269.348 14.764V13.252L271.304 12.1H272.732V20.5H271.304V13.72Z" fill="white"/>
<mask id="path-13-inside-2_549_28455" fill="white">
<path d="M278 16C278 12.6863 280.686 10 284 10C287.314 10 290 12.6863 290 16C290 19.3137 287.314 22 284 22C280.686 22 278 19.3137 278 16Z"/>
</mask>
<path d="M278 16C278 12.6863 280.686 10 284 10C287.314 10 290 12.6863 290 16C290 19.3137 287.314 22 284 22C280.686 22 278 19.3137 278 16Z" fill="#335FFF"/>
<path d="M278 16M290 16M290 16M278 16M284 10M290 16M284 22M278 16M284 22V20C281.791 20 280 18.2091 280 16H278H276C276 20.4183 279.582 24 284 24V22ZM290 16H288C288 18.2091 286.209 20 284 20V22V24C288.418 24 292 20.4183 292 16H290ZM284 10V12C286.209 12 288 13.7909 288 16H290H292C292 11.5817 288.418 8 284 8V10ZM284 10V8C279.582 8 276 11.5817 276 16H278H280C280 13.7909 281.791 12 284 12V10Z" fill="#191A1F" mask="url(#path-13-inside-2_549_28455)"/>
<path d="M294.304 13.72H294.112L292.348 14.764V13.252L294.304 12.1H295.732V20.5H294.304V13.72Z" fill="white"/>
<g opacity="0.5">
<mask id="mask2_549_28455" style="mask-type:alpha" maskUnits="userSpaceOnUse" x="8" y="32" width="16" height="16">
<path d="M18.3536 40.3536C18.5488 40.1583 18.5488 39.8417 18.3536 39.6464L15.3536 36.6464C15.1583 36.4512 14.8417 36.4512 14.6464 36.6464C14.4512 36.8417 14.4512 37.1583 14.6464 37.3536L17.2929 40L14.6464 42.6464C14.4512 42.8417 14.4512 43.1583 14.6464 43.3536C14.8417 43.5488 15.1583 43.5488 15.3536 43.3536L18.3536 40.3536Z" fill="#F7F7F8"/>
</mask>
<g mask="url(#mask2_549_28455)">
<rect x="8" y="32" width="16" height="16" fill="#F7F7F8"/>
</g>
</g>
<path d="M30.79 44.1C30.23 44.1 29.75 43.99 29.35 43.77C28.9567 43.5433 28.6533 43.2467 28.44 42.88L29.08 42.37C29.2867 42.6767 29.53 42.9067 29.81 43.06C30.09 43.2067 30.42 43.28 30.8 43.28C31.08 43.28 31.3267 43.2267 31.54 43.12C31.76 43.0133 31.93 42.8633 32.05 42.67C32.17 42.4767 32.23 42.25 32.23 41.99C32.23 41.5767 32.0967 41.27 31.83 41.07C31.57 40.8633 31.2 40.76 30.72 40.76H29.89V39.96H30.72C30.98 39.96 31.2033 39.9133 31.39 39.82C31.5767 39.72 31.7167 39.58 31.81 39.4C31.91 39.22 31.96 39.0067 31.96 38.76C31.96 38.42 31.8533 38.1633 31.64 37.99C31.4267 37.81 31.1467 37.72 30.8 37.72C30.4867 37.72 30.2033 37.7933 29.95 37.94C29.6967 38.08 29.4567 38.3167 29.23 38.65L28.6 38.14C28.8667 37.76 29.1767 37.46 29.53 37.24C29.8833 37.0133 30.3133 36.9 30.82 36.9C31.2067 36.9 31.55 36.9733 31.85 37.12C32.1567 37.2667 32.3933 37.4733 32.56 37.74C32.7333 38.0067 32.82 38.3167 32.82 38.67C32.82 39.0367 32.7233 39.35 32.53 39.61C32.3433 39.8633 32.09 40.0667 31.77 40.22V40.34C32.15 40.4467 32.4667 40.6433 32.72 40.93C32.9733 41.21 33.1 41.5633 33.1 41.99C33.1 42.39 33 42.75 32.8 43.07C32.6067 43.39 32.3333 43.6433 31.98 43.83C31.6267 44.01 31.23 44.1 30.79 44.1ZM37.5098 39.5H36.4998V38.76H37.5098V38.61C37.5098 38.0167 37.6865 37.5667 38.0398 37.26C38.3998 36.9533 38.8598 36.8 39.4198 36.8C39.5932 36.8 39.7732 36.8167 39.9598 36.85V37.59C39.7598 37.5567 39.5798 37.54 39.4198 37.54C39.0732 37.54 38.7998 37.6267 38.5998 37.8C38.4065 37.9667 38.3098 38.21 38.3098 38.53V38.76H41.3398V44H40.5398V39.5H38.3098V44H37.5098V39.5ZM40.5098 36.9H41.3698V37.76H40.5098V36.9ZM42.7825 36.9H43.5825V44H42.7825V36.9ZM47.2188 44.1C46.6855 44.1 46.2288 43.9867 45.8488 43.76C45.4688 43.5333 45.1822 43.2167 44.9888 42.81C44.7955 42.4033 44.6988 41.9267 44.6988 41.38C44.6988 40.84 44.7955 40.3667 44.9888 39.96C45.1822 39.5467 45.4622 39.2267 45.8288 39C46.1955 38.7733 46.6388 38.66 47.1588 38.66C47.9255 38.66 48.5088 38.9067 48.9088 39.4C49.3155 39.8867 49.5188 40.5467 49.5188 41.38V41.58H45.1488L45.4988 41.3C45.4988 41.94 45.6455 42.4367 45.9388 42.79C46.2322 43.1433 46.6622 43.32 47.2288 43.32C47.5155 43.32 47.7855 43.27 48.0388 43.17C48.2922 43.0633 48.5388 42.9033 48.7788 42.69L49.3088 43.3C49.0288 43.5667 48.7088 43.7667 48.3488 43.9C47.9888 44.0333 47.6122 44.1 47.2188 44.1ZM47.1688 39.42C46.7355 39.42 46.3788 39.5467 46.0988 39.8C45.8188 40.0533 45.6355 40.4 45.5488 40.84H48.6788C48.6055 40.3933 48.4422 40.0467 48.1888 39.8C47.9355 39.5467 47.5955 39.42 47.1688 39.42ZM52.2052 44.1C51.8186 44.1 51.4486 44.03 51.0952 43.89C50.7486 43.7433 50.4519 43.5367 50.2052 43.27L50.7252 42.65C50.9252 42.87 51.1519 43.0367 51.4052 43.15C51.6586 43.2633 51.9319 43.32 52.2252 43.32C52.5586 43.32 52.8286 43.2567 53.0352 43.13C53.2486 42.9967 53.3552 42.8033 53.3552 42.55C53.3552 42.35 53.2886 42.1967 53.1552 42.09C53.0219 41.9767 52.7986 41.88 52.4852 41.8L51.7152 41.61C51.3219 41.5167 51.0119 41.3567 50.7852 41.13C50.5586 40.9033 50.4452 40.6033 50.4452 40.23C50.4452 39.7367 50.6086 39.3533 50.9352 39.08C51.2686 38.8 51.7019 38.66 52.2352 38.66C52.6152 38.66 52.9586 38.7233 53.2652 38.85C53.5786 38.9767 53.8552 39.1567 54.0952 39.39L53.5752 40.01C53.3886 39.8167 53.1819 39.6733 52.9552 39.58C52.7352 39.4867 52.4952 39.44 52.2352 39.44C51.9219 39.44 51.6819 39.5067 51.5152 39.64C51.3486 39.7667 51.2652 39.9367 51.2652 40.15C51.2652 40.3433 51.3286 40.4967 51.4552 40.61C51.5886 40.7167 51.8052 40.8067 52.1052 40.88L52.7352 41.04C53.2152 41.16 53.5752 41.33 53.8152 41.55C54.0552 41.77 54.1752 42.07 54.1752 42.45C54.1752 42.9633 53.9986 43.3667 53.6452 43.66C53.2986 43.9533 52.8186 44.1 52.2052 44.1Z" fill="#BCBEC8"/>
<defs>
<linearGradient id="paint0_linear_549_28455" x1="234" y1="16" x2="244" y2="16" gradientUnits="userSpaceOnUse">
<stop stop-color="white"/>
<stop offset="1" stop-color="white" stop-opacity="0.1"/>
</linearGradient>
<clipPath id="clip0_549_28455">
<rect width="10" height="10" fill="white" transform="translate(234 11)"/>
</clipPath>
</defs>
</svg>
