<svg width="409" height="88" viewBox="0 0 409 88" fill="none" xmlns="http://www.w3.org/2000/svg">
<g filter="url(#filter0_dd_509_48685)">
<path d="M20 36C20 27.1634 27.1634 20 36 20H373C381.837 20 389 27.1634 389 36V52C389 60.8366 381.837 68 373 68H36C27.1634 68 20 60.8366 20 52V36Z" fill="#191A1F"/>
<path d="M36 20.5H373C381.56 20.5 388.5 27.4396 388.5 36V52C388.5 60.5604 381.56 67.5 373 67.5H36C27.4396 67.5 20.5 60.5604 20.5 52V36C20.5 27.4396 27.4396 20.5 36 20.5Z" stroke="#D0D9FB" stroke-opacity="0.16"/>
<path d="M34.984 40.1H38.104C38.872 40.1 39.476 40.288 39.916 40.664C40.364 41.032 40.588 41.58 40.588 42.308C40.588 42.684 40.508 43.016 40.348 43.304C40.188 43.584 39.956 43.808 39.652 43.976V44.12C40.1 44.288 40.436 44.528 40.66 44.84C40.892 45.144 41.008 45.556 41.008 46.076C41.008 46.852 40.76 47.452 40.264 47.876C39.776 48.292 39.12 48.5 38.296 48.5H34.984V40.1ZM38.164 47.54C38.764 47.54 39.216 47.424 39.52 47.192C39.824 46.96 39.976 46.588 39.976 46.076C39.976 45.564 39.824 45.188 39.52 44.948C39.224 44.708 38.788 44.588 38.212 44.588H35.824V43.652H38.104C38.416 43.652 38.68 43.612 38.896 43.532C39.112 43.444 39.276 43.304 39.388 43.112C39.508 42.92 39.568 42.668 39.568 42.356C39.568 41.884 39.436 41.552 39.172 41.36C38.916 41.16 38.52 41.06 37.984 41.06H36.016V47.54H38.164ZM44.5592 48.62C43.8472 48.62 43.2992 48.412 42.9152 47.996C42.5392 47.58 42.3512 46.956 42.3512 46.124V42.212H43.3112V46.064C43.3112 46.616 43.4352 47.028 43.6832 47.3C43.9392 47.572 44.3072 47.708 44.7872 47.708C45.1792 47.708 45.5312 47.604 45.8432 47.396C46.1552 47.188 46.4192 46.9 46.6352 46.532V42.212H47.5952V48.5H46.6352V47.492L46.4912 47.444C46.3152 47.804 46.0592 48.092 45.7232 48.308C45.3872 48.516 44.9992 48.62 44.5592 48.62ZM49.3249 42.212H50.2849V48.5H49.3249V42.212ZM49.2889 39.98H50.3209V41.012H49.2889V39.98ZM52.0085 39.98H52.9685V48.5H52.0085V39.98ZM57.0561 48.62C56.5121 48.62 56.0321 48.5 55.6161 48.26C55.2081 48.012 54.8881 47.652 54.6561 47.18C54.4241 46.708 54.3081 46.14 54.3081 45.476C54.3081 44.74 54.4481 44.12 54.7281 43.616C55.0161 43.104 55.4001 42.724 55.8801 42.476C56.3681 42.22 56.9121 42.092 57.5121 42.092C57.7521 42.092 58.0001 42.12 58.2561 42.176C58.5121 42.224 58.7561 42.292 58.9881 42.38V39.98H59.9481V48.5H58.9881V47.672L58.8441 47.624C58.6361 47.968 58.3801 48.22 58.0761 48.38C57.7721 48.54 57.4321 48.62 57.0561 48.62ZM57.1281 47.684C57.5841 47.684 57.9481 47.6 58.2201 47.432C58.4921 47.264 58.7481 47.004 58.9881 46.652V43.316C58.7481 43.22 58.5081 43.148 58.2681 43.1C58.0361 43.052 57.7801 43.028 57.5001 43.028C57.0281 43.028 56.6241 43.128 56.2881 43.328C55.9601 43.52 55.7121 43.8 55.5441 44.168C55.3761 44.536 55.2921 44.972 55.2921 45.476C55.2921 45.892 55.3681 46.268 55.5201 46.604C55.6801 46.94 55.9001 47.204 56.1801 47.396C56.4601 47.588 56.7761 47.684 57.1281 47.684ZM64.2389 42.212H65.3189L66.2549 47.264H66.3989L67.7309 42.212H69.0029L70.3709 47.264H70.5149L71.4389 42.212H72.5189L71.1629 48.5H69.8549L68.4509 43.376H68.3069L66.9029 48.5H65.5949L64.2389 42.212ZM73.571 42.212H74.531V48.5H73.571V42.212ZM73.535 39.98H74.567V41.012H73.535V39.98ZM78.5346 48.62C77.9826 48.62 77.5306 48.492 77.1786 48.236C76.8266 47.98 76.6506 47.48 76.6506 46.736V43.1H75.5586V42.212H76.6506V40.748H77.6106V42.212H79.4106V43.1H77.6106V46.688C77.6106 47.088 77.7026 47.36 77.8866 47.504C78.0706 47.64 78.3386 47.708 78.6906 47.708C78.8426 47.708 78.9826 47.696 79.1106 47.672C79.2466 47.648 79.3906 47.612 79.5426 47.564V48.428C79.3906 48.484 79.2226 48.528 79.0386 48.56C78.8546 48.6 78.6866 48.62 78.5346 48.62ZM80.5906 39.98H81.5506V43.22L81.6946 43.268C81.8706 42.908 82.1306 42.624 82.4746 42.416C82.8186 42.2 83.2106 42.092 83.6506 42.092C84.3626 42.092 84.9226 42.296 85.3306 42.704C85.7466 43.112 85.9546 43.7 85.9546 44.468V48.5H84.9946V44.588C84.9946 44.044 84.8666 43.644 84.6106 43.388C84.3626 43.132 84.0026 43.004 83.5306 43.004C83.1146 43.004 82.7306 43.112 82.3786 43.328C82.0346 43.536 81.7586 43.82 81.5506 44.18V48.5H80.5906V39.98ZM93.1479 40.1H94.4199L97.4079 48.5H96.2799L93.8559 41.372H93.7119L91.2759 48.5H90.1479L93.1479 40.1ZM91.6599 45.236H95.8959V46.196H91.6599V45.236ZM100.359 48.62C99.8948 48.62 99.4508 48.536 99.0268 48.368C98.6108 48.192 98.2548 47.944 97.9588 47.624L98.5828 46.88C98.8228 47.144 99.0948 47.344 99.3988 47.48C99.7028 47.616 100.031 47.684 100.383 47.684C100.783 47.684 101.107 47.608 101.355 47.456C101.611 47.296 101.739 47.064 101.739 46.76C101.739 46.52 101.659 46.336 101.499 46.208C101.339 46.072 101.071 45.956 100.695 45.86L99.7708 45.632C99.2988 45.52 98.9268 45.328 98.6548 45.056C98.3828 44.784 98.2468 44.424 98.2468 43.976C98.2468 43.384 98.4428 42.924 98.8348 42.596C99.2348 42.26 99.7548 42.092 100.395 42.092C100.851 42.092 101.263 42.168 101.631 42.32C102.007 42.472 102.339 42.688 102.627 42.968L102.003 43.712C101.779 43.48 101.531 43.308 101.259 43.196C100.995 43.084 100.707 43.028 100.395 43.028C100.019 43.028 99.7308 43.108 99.5308 43.268C99.3308 43.42 99.2308 43.624 99.2308 43.88C99.2308 44.112 99.3068 44.296 99.4588 44.432C99.6188 44.56 99.8788 44.668 100.239 44.756L100.995 44.948C101.571 45.092 102.003 45.296 102.291 45.56C102.579 45.824 102.723 46.184 102.723 46.64C102.723 47.256 102.511 47.74 102.087 48.092C101.671 48.444 101.095 48.62 100.359 48.62ZM105.937 48.62C105.473 48.62 105.029 48.536 104.605 48.368C104.189 48.192 103.833 47.944 103.537 47.624L104.161 46.88C104.401 47.144 104.673 47.344 104.977 47.48C105.281 47.616 105.609 47.684 105.961 47.684C106.361 47.684 106.685 47.608 106.933 47.456C107.189 47.296 107.317 47.064 107.317 46.76C107.317 46.52 107.237 46.336 107.077 46.208C106.917 46.072 106.649 45.956 106.273 45.86L105.349 45.632C104.877 45.52 104.505 45.328 104.233 45.056C103.961 44.784 103.825 44.424 103.825 43.976C103.825 43.384 104.021 42.924 104.413 42.596C104.813 42.26 105.333 42.092 105.973 42.092C106.429 42.092 106.841 42.168 107.209 42.32C107.585 42.472 107.917 42.688 108.205 42.968L107.581 43.712C107.357 43.48 107.109 43.308 106.837 43.196C106.573 43.084 106.285 43.028 105.973 43.028C105.597 43.028 105.309 43.108 105.109 43.268C104.909 43.42 104.809 43.624 104.809 43.88C104.809 44.112 104.885 44.296 105.037 44.432C105.197 44.56 105.457 44.668 105.817 44.756L106.573 44.948C107.149 45.092 107.581 45.296 107.869 45.56C108.157 45.824 108.301 46.184 108.301 46.64C108.301 47.256 108.089 47.74 107.665 48.092C107.249 48.444 106.673 48.62 105.937 48.62ZM109.583 42.212H110.543V48.5H109.583V42.212ZM109.547 39.98H110.579V41.012H109.547V39.98ZM114.163 48.62C113.699 48.62 113.255 48.536 112.831 48.368C112.415 48.192 112.059 47.944 111.763 47.624L112.387 46.88C112.627 47.144 112.899 47.344 113.203 47.48C113.507 47.616 113.835 47.684 114.187 47.684C114.587 47.684 114.911 47.608 115.159 47.456C115.415 47.296 115.543 47.064 115.543 46.76C115.543 46.52 115.463 46.336 115.303 46.208C115.143 46.072 114.875 45.956 114.499 45.86L113.575 45.632C113.103 45.52 112.731 45.328 112.459 45.056C112.187 44.784 112.051 44.424 112.051 43.976C112.051 43.384 112.247 42.924 112.639 42.596C113.039 42.26 113.559 42.092 114.199 42.092C114.655 42.092 115.067 42.168 115.435 42.32C115.811 42.472 116.143 42.688 116.431 42.968L115.807 43.712C115.583 43.48 115.335 43.308 115.063 43.196C114.799 43.084 114.511 43.028 114.199 43.028C113.823 43.028 113.535 43.108 113.335 43.268C113.135 43.42 113.035 43.624 113.035 43.88C113.035 44.112 113.111 44.296 113.263 44.432C113.423 44.56 113.683 44.668 114.043 44.756L114.799 44.948C115.375 45.092 115.807 45.296 116.095 45.56C116.383 45.824 116.527 46.184 116.527 46.64C116.527 47.256 116.315 47.74 115.891 48.092C115.475 48.444 114.899 48.62 114.163 48.62ZM120.078 48.62C119.526 48.62 119.074 48.492 118.722 48.236C118.37 47.98 118.194 47.48 118.194 46.736V43.1H117.102V42.212H118.194V40.748H119.154V42.212H120.954V43.1H119.154V46.688C119.154 47.088 119.246 47.36 119.43 47.504C119.614 47.64 119.882 47.708 120.234 47.708C120.386 47.708 120.526 47.696 120.654 47.672C120.79 47.648 120.934 47.612 121.086 47.564V48.428C120.934 48.484 120.766 48.528 120.582 48.56C120.398 48.6 120.23 48.62 120.078 48.62ZM123.862 48.62C123.206 48.62 122.69 48.44 122.314 48.08C121.938 47.72 121.75 47.248 121.75 46.664C121.75 46.064 121.954 45.584 122.362 45.224C122.77 44.856 123.338 44.672 124.066 44.672H126.07V45.536H124.066C123.626 45.536 123.29 45.64 123.058 45.848C122.826 46.056 122.71 46.324 122.71 46.652C122.71 46.956 122.822 47.208 123.046 47.408C123.278 47.608 123.606 47.708 124.03 47.708C124.406 47.708 124.75 47.624 125.062 47.456C125.382 47.288 125.654 47.052 125.878 46.748V44.324C125.878 43.86 125.746 43.528 125.482 43.328C125.218 43.128 124.862 43.028 124.414 43.028C124.03 43.028 123.698 43.096 123.418 43.232C123.146 43.368 122.874 43.572 122.602 43.844L121.966 43.124C122.246 42.82 122.598 42.572 123.022 42.38C123.446 42.188 123.914 42.092 124.426 42.092C125.154 42.092 125.738 42.28 126.178 42.656C126.618 43.032 126.838 43.588 126.838 44.324V48.5H125.878V47.66L125.734 47.612C125.542 47.924 125.286 48.172 124.966 48.356C124.646 48.532 124.278 48.62 123.862 48.62ZM128.567 42.212H129.527V43.22L129.671 43.268C129.847 42.908 130.107 42.624 130.451 42.416C130.795 42.2 131.187 42.092 131.627 42.092C132.339 42.092 132.899 42.296 133.307 42.704C133.723 43.112 133.931 43.7 133.931 44.468V48.5H132.971V44.588C132.971 44.044 132.843 43.644 132.587 43.388C132.339 43.132 131.979 43.004 131.507 43.004C131.091 43.004 130.707 43.112 130.355 43.328C130.011 43.536 129.735 43.82 129.527 44.18V48.5H128.567V42.212ZM137.82 48.62C137.268 48.62 136.816 48.492 136.464 48.236C136.112 47.98 135.936 47.48 135.936 46.736V43.1H134.844V42.212H135.936V40.748H136.896V42.212H138.696V43.1H136.896V46.688C136.896 47.088 136.988 47.36 137.172 47.504C137.356 47.64 137.624 47.708 137.976 47.708C138.128 47.708 138.268 47.696 138.396 47.672C138.532 47.648 138.676 47.612 138.828 47.564V48.428C138.676 48.484 138.508 48.528 138.324 48.56C138.14 48.6 137.972 48.62 137.82 48.62Z" fill="#BCBEC8"/>
<g opacity="0.5">
<path d="M353 44C353 37.3726 358.373 32 365 32C371.627 32 377 37.3726 377 44C377 50.6274 371.627 56 365 56C358.373 56 353 50.6274 353 44Z" fill="#D0D9FB" fill-opacity="0.12"/>
<mask id="mask0_509_48685" style="mask-type:alpha" maskUnits="userSpaceOnUse" x="357" y="36" width="16" height="16">
<path d="M365 45.6666C366.107 45.6666 367 44.7733 367 43.6666V39.6666C367 38.56 366.107 37.6666 365 37.6666C363.893 37.6666 363 38.56 363 39.6666V43.6666C363 44.7733 363.893 45.6666 365 45.6666Z" fill="black"/>
<path d="M368.333 43.6666C368.333 45.5066 366.84 47 365 47C363.16 47 361.667 45.5066 361.667 43.6666H360.333C360.333 46.02 362.073 47.9533 364.333 48.28V50.3333H365.667V48.28C367.927 47.9533 369.667 46.02 369.667 43.6666H368.333Z" fill="black"/>
</mask>
<g mask="url(#mask0_509_48685)">
<rect x="357" y="36" width="16" height="16" fill="#F7F7F8"/>
</g>
</g>
</g>
<defs>
<filter id="filter0_dd_509_48685" x="0" y="0" width="409" height="88" filterUnits="userSpaceOnUse" color-interpolation-filters="sRGB">
<feFlood flood-opacity="0" result="BackgroundImageFix"/>
<feColorMatrix in="SourceAlpha" type="matrix" values="0 0 0 0 0 0 0 0 0 0 0 0 0 0 0 0 0 0 127 0" result="hardAlpha"/>
<feOffset/>
<feGaussianBlur stdDeviation="10"/>
<feColorMatrix type="matrix" values="0 0 0 0 0.0156863 0 0 0 0 0.0156863 0 0 0 0 0.0313726 0 0 0 0.25 0"/>
<feBlend mode="normal" in2="BackgroundImageFix" result="effect1_dropShadow_509_48685"/>
<feColorMatrix in="SourceAlpha" type="matrix" values="0 0 0 0 0 0 0 0 0 0 0 0 0 0 0 0 0 0 127 0" result="hardAlpha"/>
<feOffset/>
<feGaussianBlur stdDeviation="2"/>
<feColorMatrix type="matrix" values="0 0 0 0 0.0156863 0 0 0 0 0.0156863 0 0 0 0 0.0313726 0 0 0 0.25 0"/>
<feBlend mode="normal" in2="effect1_dropShadow_509_48685" result="effect2_dropShadow_509_48685"/>
<feBlend mode="normal" in="SourceGraphic" in2="effect2_dropShadow_509_48685" result="shape"/>
</filter>
</defs>
</svg>
