<svg width="409" height="152" viewBox="0 0 409 152" fill="none" xmlns="http://www.w3.org/2000/svg">
<path d="M35 8C35 3.58172 38.5817 0 43 0H365C369.418 0 373 3.58172 373 8V56H35V8Z" fill="#191A1F" fill-opacity="0.92"/>
<path d="M43 0.5H365C369.142 0.500001 372.5 3.85787 372.5 8V55.5H35.5V8L35.5098 7.61426C35.7105 3.65139 38.9872 0.5 43 0.5Z" stroke="#D0D9FB" stroke-opacity="0.08"/>
<g opacity="0.5">
<mask id="mask0_549_28652" style="mask-type:alpha" maskUnits="userSpaceOnUse" x="43" y="8" width="16" height="16">
<path d="M53.3536 16.3536C53.5488 16.1583 53.5488 15.8417 53.3536 15.6464L50.3536 12.6464C50.1583 12.4512 49.8417 12.4512 49.6464 12.6464C49.4512 12.8417 49.4512 13.1583 49.6464 13.3536L52.2929 16L49.6464 18.6464C49.4512 18.8417 49.4512 19.1583 49.6464 19.3536C49.8417 19.5488 50.1583 19.5488 50.3536 19.3536L53.3536 16.3536Z" fill="#F7F7F8"/>
</mask>
<g mask="url(#mask0_549_28652)">
<rect x="43" y="8" width="16" height="16" fill="#F7F7F8"/>
</g>
</g>
<path d="M65.62 13H66.68L69.17 20H68.23L66.21 14.06H66.09L64.06 20H63.12L65.62 13ZM64.38 17.28H67.91V18.08H64.38V17.28ZM71.6291 20.1C71.2424 20.1 70.8724 20.03 70.5191 19.89C70.1724 19.7433 69.8757 19.5367 69.6291 19.27L70.1491 18.65C70.3491 18.87 70.5757 19.0367 70.8291 19.15C71.0824 19.2633 71.3557 19.32 71.6491 19.32C71.9824 19.32 72.2524 19.2567 72.4591 19.13C72.6724 18.9967 72.7791 18.8033 72.7791 18.55C72.7791 18.35 72.7124 18.1967 72.5791 18.09C72.4457 17.9767 72.2224 17.88 71.9091 17.8L71.1391 17.61C70.7457 17.5167 70.4357 17.3567 70.2091 17.13C69.9824 16.9033 69.8691 16.6033 69.8691 16.23C69.8691 15.7367 70.0324 15.3533 70.3591 15.08C70.6924 14.8 71.1257 14.66 71.6591 14.66C72.0391 14.66 72.3824 14.7233 72.6891 14.85C73.0024 14.9767 73.2791 15.1567 73.5191 15.39L72.9991 16.01C72.8124 15.8167 72.6057 15.6733 72.3791 15.58C72.1591 15.4867 71.9191 15.44 71.6591 15.44C71.3457 15.44 71.1057 15.5067 70.9391 15.64C70.7724 15.7667 70.6891 15.9367 70.6891 16.15C70.6891 16.3433 70.7524 16.4967 70.8791 16.61C71.0124 16.7167 71.2291 16.8067 71.5291 16.88L72.1591 17.04C72.6391 17.16 72.9991 17.33 73.2391 17.55C73.4791 17.77 73.5991 18.07 73.5991 18.45C73.5991 18.9633 73.4224 19.3667 73.0691 19.66C72.7224 19.9533 72.2424 20.1 71.6291 20.1ZM76.2775 20.1C75.8908 20.1 75.5208 20.03 75.1675 19.89C74.8208 19.7433 74.5242 19.5367 74.2775 19.27L74.7975 18.65C74.9975 18.87 75.2242 19.0367 75.4775 19.15C75.7308 19.2633 76.0042 19.32 76.2975 19.32C76.6308 19.32 76.9008 19.2567 77.1075 19.13C77.3208 18.9967 77.4275 18.8033 77.4275 18.55C77.4275 18.35 77.3608 18.1967 77.2275 18.09C77.0942 17.9767 76.8708 17.88 76.5575 17.8L75.7875 17.61C75.3942 17.5167 75.0842 17.3567 74.8575 17.13C74.6308 16.9033 74.5175 16.6033 74.5175 16.23C74.5175 15.7367 74.6808 15.3533 75.0075 15.08C75.3408 14.8 75.7742 14.66 76.3075 14.66C76.6875 14.66 77.0308 14.7233 77.3375 14.85C77.6508 14.9767 77.9275 15.1567 78.1675 15.39L77.6475 16.01C77.4608 15.8167 77.2542 15.6733 77.0275 15.58C76.8075 15.4867 76.5675 15.44 76.3075 15.44C75.9942 15.44 75.7542 15.5067 75.5875 15.64C75.4208 15.7667 75.3375 15.9367 75.3375 16.15C75.3375 16.3433 75.4008 16.4967 75.5275 16.61C75.6608 16.7167 75.8775 16.8067 76.1775 16.88L76.8075 17.04C77.2875 17.16 77.6475 17.33 77.8875 17.55C78.1275 17.77 78.2475 18.07 78.2475 18.45C78.2475 18.9633 78.0708 19.3667 77.7175 19.66C77.3708 19.9533 76.8908 20.1 76.2775 20.1ZM79.3157 14.76H80.1157V20H79.3157V14.76ZM79.2857 12.9H80.1457V13.76H79.2857V12.9ZM83.592 22C83.1587 22 82.7554 21.92 82.382 21.76C82.0087 21.6067 81.6887 21.3867 81.422 21.1L81.962 20.52C82.3887 20.9867 82.9354 21.22 83.602 21.22C84.1354 21.22 84.5154 21.1 84.742 20.86C84.9754 20.62 85.092 20.2533 85.092 19.76V19.08L84.972 19.04C84.8387 19.3067 84.6487 19.5167 84.402 19.67C84.1554 19.8233 83.8587 19.9 83.512 19.9C83.0854 19.9 82.6987 19.79 82.352 19.57C82.0054 19.35 81.732 19.0433 81.532 18.65C81.332 18.2567 81.232 17.8167 81.232 17.33C81.232 16.7767 81.3354 16.3 81.542 15.9C81.7554 15.4933 82.042 15.1867 82.402 14.98C82.762 14.7667 83.1654 14.66 83.612 14.66C83.8854 14.66 84.142 14.71 84.382 14.81C84.622 14.9033 84.8154 15.03 84.962 15.19L85.082 15.14V14.76H85.882V19.8C85.882 20.26 85.792 20.6533 85.612 20.98C85.4387 21.3067 85.182 21.5567 84.842 21.73C84.502 21.91 84.0854 22 83.592 22ZM83.572 19.12C83.9054 19.12 84.2054 19.0433 84.472 18.89C84.7387 18.7367 84.942 18.5267 85.082 18.26V16.04C84.9087 15.84 84.7054 15.6933 84.472 15.6C84.2454 15.5067 83.982 15.46 83.682 15.46C83.342 15.46 83.0487 15.53 82.802 15.67C82.562 15.81 82.3754 16.02 82.242 16.3C82.1154 16.5733 82.052 16.9133 82.052 17.32C82.052 17.68 82.1154 17.9967 82.242 18.27C82.3687 18.5367 82.5454 18.7467 82.772 18.9C83.0054 19.0467 83.272 19.12 83.572 19.12ZM87.3235 14.76H88.1235V15.6L88.2435 15.64C88.3902 15.34 88.6068 15.1033 88.8935 14.93C89.1802 14.75 89.5068 14.66 89.8735 14.66C90.4668 14.66 90.9335 14.83 91.2735 15.17C91.6202 15.51 91.7935 16 91.7935 16.64V20H90.9935V16.74C90.9935 16.2867 90.8868 15.9533 90.6735 15.74C90.4668 15.5267 90.1668 15.42 89.7735 15.42C89.4268 15.42 89.1068 15.51 88.8135 15.69C88.5268 15.8633 88.2968 16.1 88.1235 16.4V20H87.3235V14.76ZM95.988 13H97.008L100.328 18.23H100.488V13H101.348V20H100.488L97.008 14.48H96.848V20H95.988V13ZM102.99 13H105.4C106.153 13 106.733 13.19 107.14 13.57C107.553 13.95 107.76 14.49 107.76 15.19C107.76 15.6567 107.667 16.0533 107.48 16.38C107.3 16.7067 107.033 16.9567 106.68 17.13C106.327 17.2967 105.9 17.38 105.4 17.38H103.69V16.58H105.4C105.907 16.58 106.283 16.47 106.53 16.25C106.777 16.0233 106.9 15.67 106.9 15.19C106.9 14.71 106.777 14.36 106.53 14.14C106.283 13.9133 105.907 13.8 105.4 13.8H103.85V20H102.99V13ZM111.768 20.1C111.141 20.1 110.578 19.9533 110.078 19.66C109.578 19.36 109.185 18.94 108.898 18.4C108.618 17.8533 108.478 17.22 108.478 16.5C108.478 15.78 108.618 15.15 108.898 14.61C109.185 14.0633 109.578 13.6433 110.078 13.35C110.578 13.05 111.141 12.9 111.768 12.9C112.281 12.9 112.755 13 113.188 13.2C113.628 13.4 114.015 13.7133 114.348 14.14L113.778 14.69C113.485 14.3167 113.181 14.06 112.868 13.92C112.555 13.7733 112.191 13.7 111.778 13.7C111.318 13.7 110.905 13.81 110.538 14.03C110.171 14.25 109.881 14.57 109.668 14.99C109.461 15.41 109.358 15.9133 109.358 16.5C109.358 17.0867 109.461 17.59 109.668 18.01C109.881 18.43 110.171 18.75 110.538 18.97C110.905 19.19 111.318 19.3 111.778 19.3C112.191 19.3 112.555 19.23 112.868 19.09C113.181 18.9433 113.485 18.6833 113.778 18.31L114.348 18.86C114.015 19.2867 113.628 19.6 113.188 19.8C112.755 20 112.281 20.1 111.768 20.1ZM118.202 12.9H119.002V20H118.202V12.9ZM122.579 20.1C122.059 20.1 121.615 19.9867 121.249 19.76C120.882 19.5333 120.602 19.2167 120.409 18.81C120.215 18.3967 120.119 17.92 120.119 17.38C120.119 16.84 120.215 16.3667 120.409 15.96C120.602 15.5467 120.882 15.2267 121.249 15C121.615 14.7733 122.059 14.66 122.579 14.66C123.099 14.66 123.542 14.7733 123.909 15C124.275 15.2267 124.555 15.5467 124.749 15.96C124.942 16.3667 125.039 16.84 125.039 17.38C125.039 17.92 124.942 18.3967 124.749 18.81C124.555 19.2167 124.275 19.5333 123.909 19.76C123.542 19.9867 123.099 20.1 122.579 20.1ZM122.579 19.32C122.925 19.32 123.222 19.24 123.469 19.08C123.715 18.92 123.902 18.6933 124.029 18.4C124.155 18.1067 124.219 17.7667 124.219 17.38C124.219 16.9933 124.155 16.6533 124.029 16.36C123.902 16.0667 123.715 15.84 123.469 15.68C123.222 15.52 122.925 15.44 122.579 15.44C122.232 15.44 121.935 15.52 121.689 15.68C121.442 15.84 121.255 16.0667 121.129 16.36C121.002 16.6533 120.939 16.9933 120.939 17.38C120.939 17.7667 121.002 18.1067 121.129 18.4C121.255 18.6933 121.442 18.92 121.689 19.08C121.935 19.24 122.232 19.32 122.579 19.32ZM128.201 22C127.768 22 127.365 21.92 126.991 21.76C126.618 21.6067 126.298 21.3867 126.031 21.1L126.571 20.52C126.998 20.9867 127.545 21.22 128.211 21.22C128.745 21.22 129.125 21.1 129.351 20.86C129.585 20.62 129.701 20.2533 129.701 19.76V19.08L129.581 19.04C129.448 19.3067 129.258 19.5167 129.011 19.67C128.765 19.8233 128.468 19.9 128.121 19.9C127.695 19.9 127.308 19.79 126.961 19.57C126.615 19.35 126.341 19.0433 126.141 18.65C125.941 18.2567 125.841 17.8167 125.841 17.33C125.841 16.7767 125.945 16.3 126.151 15.9C126.365 15.4933 126.651 15.1867 127.011 14.98C127.371 14.7667 127.775 14.66 128.221 14.66C128.495 14.66 128.751 14.71 128.991 14.81C129.231 14.9033 129.425 15.03 129.571 15.19L129.691 15.14V14.76H130.491V19.8C130.491 20.26 130.401 20.6533 130.221 20.98C130.048 21.3067 129.791 21.5567 129.451 21.73C129.111 21.91 128.695 22 128.201 22ZM128.181 19.12C128.515 19.12 128.815 19.0433 129.081 18.89C129.348 18.7367 129.551 18.5267 129.691 18.26V16.04C129.518 15.84 129.315 15.6933 129.081 15.6C128.855 15.5067 128.591 15.46 128.291 15.46C127.951 15.46 127.658 15.53 127.411 15.67C127.171 15.81 126.985 16.02 126.851 16.3C126.725 16.5733 126.661 16.9133 126.661 17.32C126.661 17.68 126.725 17.9967 126.851 18.27C126.978 18.5367 127.155 18.7467 127.381 18.9C127.615 19.0467 127.881 19.12 128.181 19.12ZM131.933 14.76H132.733V20H131.933V14.76ZM131.903 12.9H132.763V13.76H131.903V12.9ZM136.309 20.1C135.809 20.1 135.373 19.9867 134.999 19.76C134.626 19.5333 134.339 19.2167 134.139 18.81C133.946 18.3967 133.849 17.92 133.849 17.38C133.849 16.84 133.946 16.3667 134.139 15.96C134.339 15.5467 134.626 15.2267 134.999 15C135.373 14.7733 135.809 14.66 136.309 14.66C136.736 14.66 137.119 14.7433 137.459 14.91C137.799 15.07 138.089 15.2933 138.329 15.58L137.749 16.14C137.563 15.9067 137.343 15.7333 137.089 15.62C136.836 15.5 136.579 15.44 136.319 15.44C135.973 15.44 135.676 15.52 135.429 15.68C135.183 15.84 134.993 16.0667 134.859 16.36C134.733 16.6533 134.669 16.9933 134.669 17.38C134.669 17.7667 134.733 18.1067 134.859 18.4C134.993 18.6933 135.183 18.92 135.429 19.08C135.676 19.24 135.973 19.32 136.319 19.32C136.579 19.32 136.836 19.2633 137.089 19.15C137.343 19.03 137.563 18.8533 137.749 18.62L138.329 19.18C138.089 19.4667 137.799 19.6933 137.459 19.86C137.119 20.02 136.736 20.1 136.309 20.1ZM142.539 15.5H141.529V14.76H142.539V14.61C142.539 14.0167 142.716 13.5667 143.069 13.26C143.429 12.9533 143.889 12.8 144.449 12.8C144.622 12.8 144.802 12.8167 144.989 12.85V13.59C144.789 13.5567 144.609 13.54 144.449 13.54C144.102 13.54 143.829 13.6267 143.629 13.8C143.436 13.9667 143.339 14.21 143.339 14.53V14.76H144.909V15.5H143.339V20H142.539V15.5ZM147.725 20.1C147.205 20.1 146.762 19.9867 146.395 19.76C146.029 19.5333 145.749 19.2167 145.555 18.81C145.362 18.3967 145.265 17.92 145.265 17.38C145.265 16.84 145.362 16.3667 145.555 15.96C145.749 15.5467 146.029 15.2267 146.395 15C146.762 14.7733 147.205 14.66 147.725 14.66C148.245 14.66 148.689 14.7733 149.055 15C149.422 15.2267 149.702 15.5467 149.895 15.96C150.089 16.3667 150.185 16.84 150.185 17.38C150.185 17.92 150.089 18.3967 149.895 18.81C149.702 19.2167 149.422 19.5333 149.055 19.76C148.689 19.9867 148.245 20.1 147.725 20.1ZM147.725 19.32C148.072 19.32 148.369 19.24 148.615 19.08C148.862 18.92 149.049 18.6933 149.175 18.4C149.302 18.1067 149.365 17.7667 149.365 17.38C149.365 16.9933 149.302 16.6533 149.175 16.36C149.049 16.0667 148.862 15.84 148.615 15.68C148.369 15.52 148.072 15.44 147.725 15.44C147.379 15.44 147.082 15.52 146.835 15.68C146.589 15.84 146.402 16.0667 146.275 16.36C146.149 16.6533 146.085 16.9933 146.085 17.38C146.085 17.7667 146.149 18.1067 146.275 18.4C146.402 18.6933 146.589 18.92 146.835 19.08C147.082 19.24 147.379 19.32 147.725 19.32ZM151.308 14.76H152.108V15.63L152.228 15.67C152.435 15.33 152.648 15.0767 152.868 14.91C153.088 14.7433 153.385 14.66 153.758 14.66C153.931 14.66 154.071 14.6767 154.178 14.71V15.59C154.011 15.5433 153.821 15.52 153.608 15.52C153.248 15.52 152.945 15.6133 152.698 15.8C152.458 15.9867 152.261 16.2467 152.108 16.58V20H151.308V14.76ZM158.262 15.5H157.252V14.76H158.262V14.61C158.262 14.0167 158.438 13.5667 158.792 13.26C159.152 12.9533 159.612 12.8 160.172 12.8C160.345 12.8 160.525 12.8167 160.712 12.85V13.59C160.512 13.5567 160.332 13.54 160.172 13.54C159.825 13.54 159.552 13.6267 159.352 13.8C159.158 13.9667 159.062 14.21 159.062 14.53V14.76H162.092V20H161.292V15.5H159.062V20H158.262V15.5ZM161.262 12.9H162.122V13.76H161.262V12.9ZM163.534 14.76H164.334V15.6L164.454 15.64C164.601 15.34 164.818 15.1033 165.104 14.93C165.391 14.75 165.718 14.66 166.084 14.66C166.678 14.66 167.144 14.83 167.484 15.17C167.831 15.51 168.004 16 168.004 16.64V20H167.204V16.74C167.204 16.2867 167.098 15.9533 166.884 15.74C166.678 15.5267 166.378 15.42 165.984 15.42C165.638 15.42 165.318 15.51 165.024 15.69C164.738 15.8633 164.508 16.1 164.334 16.4V20H163.534V14.76ZM170.844 20.1C170.297 20.1 169.867 19.95 169.554 19.65C169.24 19.35 169.084 18.9567 169.084 18.47C169.084 17.97 169.254 17.57 169.594 17.27C169.934 16.9633 170.407 16.81 171.014 16.81H172.684V17.53H171.014C170.647 17.53 170.367 17.6167 170.174 17.79C169.98 17.9633 169.884 18.1867 169.884 18.46C169.884 18.7133 169.977 18.9233 170.164 19.09C170.357 19.2567 170.63 19.34 170.984 19.34C171.297 19.34 171.584 19.27 171.844 19.13C172.11 18.99 172.337 18.7933 172.524 18.54V16.52C172.524 16.1333 172.414 15.8567 172.194 15.69C171.974 15.5233 171.677 15.44 171.304 15.44C170.984 15.44 170.707 15.4967 170.474 15.61C170.247 15.7233 170.02 15.8933 169.794 16.12L169.264 15.52C169.497 15.2667 169.79 15.06 170.144 14.9C170.497 14.74 170.887 14.66 171.314 14.66C171.92 14.66 172.407 14.8167 172.774 15.13C173.14 15.4433 173.324 15.9067 173.324 16.52V20H172.524V19.3L172.404 19.26C172.244 19.52 172.03 19.7267 171.764 19.88C171.497 20.0267 171.19 20.1 170.844 20.1ZM174.765 12.9H175.565V20H174.765V12.9ZM182.017 20.1C181.69 20.1 181.407 20.05 181.167 19.95C180.933 19.8433 180.75 19.7167 180.617 19.57L180.497 19.62V20H179.697V12.9H180.497V15.45L180.617 15.49C180.93 14.9367 181.423 14.66 182.097 14.66C182.537 14.66 182.923 14.7667 183.257 14.98C183.597 15.1867 183.86 15.4967 184.047 15.91C184.24 16.3167 184.337 16.8067 184.337 17.38C184.337 17.9533 184.233 18.4467 184.027 18.86C183.82 19.2667 183.54 19.5767 183.187 19.79C182.833 19.9967 182.443 20.1 182.017 20.1ZM181.827 19.32C182.193 19.32 182.503 19.24 182.757 19.08C183.01 18.9133 183.2 18.6867 183.327 18.4C183.453 18.1067 183.517 17.7633 183.517 17.37C183.517 16.9833 183.453 16.6467 183.327 16.36C183.207 16.0667 183.03 15.84 182.797 15.68C182.57 15.52 182.297 15.44 181.977 15.44C181.623 15.44 181.337 15.5133 181.117 15.66C180.897 15.8067 180.69 16.02 180.497 16.3V18.74C180.65 18.9333 180.84 19.08 181.067 19.18C181.3 19.2733 181.553 19.32 181.827 19.32ZM187.598 20.1C187.078 20.1 186.635 19.9867 186.268 19.76C185.902 19.5333 185.622 19.2167 185.428 18.81C185.235 18.3967 185.138 17.92 185.138 17.38C185.138 16.84 185.235 16.3667 185.428 15.96C185.622 15.5467 185.902 15.2267 186.268 15C186.635 14.7733 187.078 14.66 187.598 14.66C188.118 14.66 188.562 14.7733 188.928 15C189.295 15.2267 189.575 15.5467 189.768 15.96C189.962 16.3667 190.058 16.84 190.058 17.38C190.058 17.92 189.962 18.3967 189.768 18.81C189.575 19.2167 189.295 19.5333 188.928 19.76C188.562 19.9867 188.118 20.1 187.598 20.1ZM187.598 19.32C187.945 19.32 188.242 19.24 188.488 19.08C188.735 18.92 188.922 18.6933 189.048 18.4C189.175 18.1067 189.238 17.7667 189.238 17.38C189.238 16.9933 189.175 16.6533 189.048 16.36C188.922 16.0667 188.735 15.84 188.488 15.68C188.242 15.52 187.945 15.44 187.598 15.44C187.252 15.44 186.955 15.52 186.708 15.68C186.462 15.84 186.275 16.0667 186.148 16.36C186.022 16.6533 185.958 16.9933 185.958 17.38C185.958 17.7667 186.022 18.1067 186.148 18.4C186.275 18.6933 186.462 18.92 186.708 19.08C186.955 19.24 187.252 19.32 187.598 19.32ZM192.733 20.1C192.346 20.1 191.976 20.03 191.623 19.89C191.276 19.7433 190.979 19.5367 190.733 19.27L191.253 18.65C191.453 18.87 191.679 19.0367 191.933 19.15C192.186 19.2633 192.459 19.32 192.753 19.32C193.086 19.32 193.356 19.2567 193.563 19.13C193.776 18.9967 193.883 18.8033 193.883 18.55C193.883 18.35 193.816 18.1967 193.683 18.09C193.549 17.9767 193.326 17.88 193.013 17.8L192.243 17.61C191.849 17.5167 191.539 17.3567 191.313 17.13C191.086 16.9033 190.973 16.6033 190.973 16.23C190.973 15.7367 191.136 15.3533 191.463 15.08C191.796 14.8 192.229 14.66 192.763 14.66C193.143 14.66 193.486 14.7233 193.793 14.85C194.106 14.9767 194.383 15.1567 194.623 15.39L194.103 16.01C193.916 15.8167 193.709 15.6733 193.483 15.58C193.263 15.4867 193.023 15.44 192.763 15.44C192.449 15.44 192.209 15.5067 192.043 15.64C191.876 15.7667 191.793 15.9367 191.793 16.15C191.793 16.3433 191.856 16.4967 191.983 16.61C192.116 16.7167 192.333 16.8067 192.633 16.88L193.263 17.04C193.743 17.16 194.103 17.33 194.343 17.55C194.583 17.77 194.703 18.07 194.703 18.45C194.703 18.9633 194.526 19.3667 194.173 19.66C193.826 19.9533 193.346 20.1 192.733 20.1ZM197.381 20.1C196.994 20.1 196.624 20.03 196.271 19.89C195.924 19.7433 195.628 19.5367 195.381 19.27L195.901 18.65C196.101 18.87 196.328 19.0367 196.581 19.15C196.834 19.2633 197.108 19.32 197.401 19.32C197.734 19.32 198.004 19.2567 198.211 19.13C198.424 18.9967 198.531 18.8033 198.531 18.55C198.531 18.35 198.464 18.1967 198.331 18.09C198.198 17.9767 197.974 17.88 197.661 17.8L196.891 17.61C196.498 17.5167 196.188 17.3567 195.961 17.13C195.734 16.9033 195.621 16.6033 195.621 16.23C195.621 15.7367 195.784 15.3533 196.111 15.08C196.444 14.8 196.878 14.66 197.411 14.66C197.791 14.66 198.134 14.7233 198.441 14.85C198.754 14.9767 199.031 15.1567 199.271 15.39L198.751 16.01C198.564 15.8167 198.358 15.6733 198.131 15.58C197.911 15.4867 197.671 15.44 197.411 15.44C197.098 15.44 196.858 15.5067 196.691 15.64C196.524 15.7667 196.441 15.9367 196.441 16.15C196.441 16.3433 196.504 16.4967 196.631 16.61C196.764 16.7167 196.981 16.8067 197.281 16.88L197.911 17.04C198.391 17.16 198.751 17.33 198.991 17.55C199.231 17.77 199.351 18.07 199.351 18.45C199.351 18.9633 199.174 19.3667 198.821 19.66C198.474 19.9533 197.994 20.1 197.381 20.1ZM205.425 20.1C205.098 20.1 204.815 20.05 204.575 19.95C204.341 19.8433 204.158 19.7167 204.025 19.57L203.905 19.62V20H203.105V12.9H203.905V15.45L204.025 15.49C204.338 14.9367 204.831 14.66 205.505 14.66C205.945 14.66 206.331 14.7667 206.665 14.98C207.005 15.1867 207.268 15.4967 207.455 15.91C207.648 16.3167 207.745 16.8067 207.745 17.38C207.745 17.9533 207.641 18.4467 207.435 18.86C207.228 19.2667 206.948 19.5767 206.595 19.79C206.241 19.9967 205.851 20.1 205.425 20.1ZM205.235 19.32C205.601 19.32 205.911 19.24 206.165 19.08C206.418 18.9133 206.608 18.6867 206.735 18.4C206.861 18.1067 206.925 17.7633 206.925 17.37C206.925 16.9833 206.861 16.6467 206.735 16.36C206.615 16.0667 206.438 15.84 206.205 15.68C205.978 15.52 205.705 15.44 205.385 15.44C205.031 15.44 204.745 15.5133 204.525 15.66C204.305 15.8067 204.098 16.02 203.905 16.3V18.74C204.058 18.9333 204.248 19.08 204.475 19.18C204.708 19.2733 204.961 19.32 205.235 19.32ZM210.306 20.1C209.76 20.1 209.33 19.95 209.016 19.65C208.703 19.35 208.546 18.9567 208.546 18.47C208.546 17.97 208.716 17.57 209.056 17.27C209.396 16.9633 209.87 16.81 210.476 16.81H212.146V17.53H210.476C210.11 17.53 209.83 17.6167 209.636 17.79C209.443 17.9633 209.346 18.1867 209.346 18.46C209.346 18.7133 209.44 18.9233 209.626 19.09C209.82 19.2567 210.093 19.34 210.446 19.34C210.76 19.34 211.046 19.27 211.306 19.13C211.573 18.99 211.8 18.7933 211.986 18.54V16.52C211.986 16.1333 211.876 15.8567 211.656 15.69C211.436 15.5233 211.14 15.44 210.766 15.44C210.446 15.44 210.17 15.4967 209.936 15.61C209.71 15.7233 209.483 15.8933 209.256 16.12L208.726 15.52C208.96 15.2667 209.253 15.06 209.606 14.9C209.96 14.74 210.35 14.66 210.776 14.66C211.383 14.66 211.87 14.8167 212.236 15.13C212.603 15.4433 212.786 15.9067 212.786 16.52V20H211.986V19.3L211.866 19.26C211.706 19.52 211.493 19.7267 211.226 19.88C210.96 20.0267 210.653 20.1 210.306 20.1ZM215.981 20.1C215.521 20.1 215.145 19.9933 214.851 19.78C214.558 19.5667 214.411 19.15 214.411 18.53V15.5H213.501V14.76H214.411V13.54H215.211V14.76H216.711V15.5H215.211V18.49C215.211 18.8233 215.288 19.05 215.441 19.17C215.595 19.2833 215.818 19.34 216.111 19.34C216.238 19.34 216.355 19.33 216.461 19.31C216.575 19.29 216.695 19.26 216.821 19.22V19.94C216.695 19.9867 216.555 20.0233 216.401 20.05C216.248 20.0833 216.108 20.1 215.981 20.1ZM219.595 20.1C219.135 20.1 218.758 19.9933 218.465 19.78C218.171 19.5667 218.025 19.15 218.025 18.53V15.5H217.115V14.76H218.025V13.54H218.825V14.76H220.325V15.5H218.825V18.49C218.825 18.8233 218.901 19.05 219.055 19.17C219.208 19.2833 219.431 19.34 219.725 19.34C219.851 19.34 219.968 19.33 220.075 19.31C220.188 19.29 220.308 19.26 220.435 19.22V19.94C220.308 19.9867 220.168 20.0233 220.015 20.05C219.861 20.0833 219.721 20.1 219.595 20.1ZM221.308 12.9H222.108V20H221.308V12.9ZM225.744 20.1C225.211 20.1 224.754 19.9867 224.374 19.76C223.994 19.5333 223.708 19.2167 223.514 18.81C223.321 18.4033 223.224 17.9267 223.224 17.38C223.224 16.84 223.321 16.3667 223.514 15.96C223.708 15.5467 223.988 15.2267 224.354 15C224.721 14.7733 225.164 14.66 225.684 14.66C226.451 14.66 227.034 14.9067 227.434 15.4C227.841 15.8867 228.044 16.5467 228.044 17.38V17.58H223.674L224.024 17.3C224.024 17.94 224.171 18.4367 224.464 18.79C224.758 19.1433 225.188 19.32 225.754 19.32C226.041 19.32 226.311 19.27 226.564 19.17C226.818 19.0633 227.064 18.9033 227.304 18.69L227.834 19.3C227.554 19.5667 227.234 19.7667 226.874 19.9C226.514 20.0333 226.138 20.1 225.744 20.1ZM225.694 15.42C225.261 15.42 224.904 15.5467 224.624 15.8C224.344 16.0533 224.161 16.4 224.074 16.84H227.204C227.131 16.3933 226.968 16.0467 226.714 15.8C226.461 15.5467 226.121 15.42 225.694 15.42ZM231.835 14.76H232.635V20H231.835V14.76ZM231.805 12.9H232.665V13.76H231.805V12.9ZM234.072 14.76H234.872V15.6L234.992 15.64C235.138 15.34 235.355 15.1033 235.642 14.93C235.928 14.75 236.255 14.66 236.622 14.66C237.215 14.66 237.682 14.83 238.022 15.17C238.368 15.51 238.542 16 238.542 16.64V20H237.742V16.74C237.742 16.2867 237.635 15.9533 237.422 15.74C237.215 15.5267 236.915 15.42 236.522 15.42C236.175 15.42 235.855 15.51 235.562 15.69C235.275 15.8633 235.045 16.1 234.872 16.4V20H234.072V14.76ZM244.536 20.1C244.076 20.1 243.699 19.9933 243.406 19.78C243.113 19.5667 242.966 19.15 242.966 18.53V15.5H242.056V14.76H242.966V13.54H243.766V14.76H245.266V15.5H243.766V18.49C243.766 18.8233 243.843 19.05 243.996 19.17C244.149 19.2833 244.373 19.34 244.666 19.34C244.793 19.34 244.909 19.33 245.016 19.31C245.129 19.29 245.249 19.26 245.376 19.22V19.94C245.249 19.9867 245.109 20.0233 244.956 20.05C244.803 20.0833 244.663 20.1 244.536 20.1ZM246.249 12.9H247.049V15.6L247.169 15.64C247.316 15.34 247.533 15.1033 247.819 14.93C248.106 14.75 248.433 14.66 248.799 14.66C249.393 14.66 249.859 14.83 250.199 15.17C250.546 15.51 250.719 16 250.719 16.64V20H249.919V16.74C249.919 16.2867 249.813 15.9533 249.599 15.74C249.393 15.5267 249.093 15.42 248.699 15.42C248.353 15.42 248.033 15.51 247.739 15.69C247.453 15.8633 247.223 16.1 247.049 16.4V20H246.249V12.9ZM254.318 20.1C253.785 20.1 253.328 19.9867 252.948 19.76C252.568 19.5333 252.282 19.2167 252.088 18.81C251.895 18.4033 251.798 17.9267 251.798 17.38C251.798 16.84 251.895 16.3667 252.088 15.96C252.282 15.5467 252.562 15.2267 252.928 15C253.295 14.7733 253.738 14.66 254.258 14.66C255.025 14.66 255.608 14.9067 256.008 15.4C256.415 15.8867 256.618 16.5467 256.618 17.38V17.58H252.248L252.598 17.3C252.598 17.94 252.745 18.4367 253.038 18.79C253.332 19.1433 253.762 19.32 254.328 19.32C254.615 19.32 254.885 19.27 255.138 19.17C255.392 19.0633 255.638 18.9033 255.878 18.69L256.408 19.3C256.128 19.5667 255.808 19.7667 255.448 19.9C255.088 20.0333 254.712 20.1 254.318 20.1ZM254.268 15.42C253.835 15.42 253.478 15.5467 253.198 15.8C252.918 16.0533 252.735 16.4 252.648 16.84H255.778C255.705 16.3933 255.542 16.0467 255.288 15.8C255.035 15.5467 254.695 15.42 254.268 15.42ZM262.029 20.1C261.643 20.1 261.273 20.03 260.919 19.89C260.573 19.7433 260.276 19.5367 260.029 19.27L260.549 18.65C260.749 18.87 260.976 19.0367 261.229 19.15C261.483 19.2633 261.756 19.32 262.049 19.32C262.383 19.32 262.653 19.2567 262.859 19.13C263.073 18.9967 263.179 18.8033 263.179 18.55C263.179 18.35 263.113 18.1967 262.979 18.09C262.846 17.9767 262.623 17.88 262.309 17.8L261.539 17.61C261.146 17.5167 260.836 17.3567 260.609 17.13C260.383 16.9033 260.269 16.6033 260.269 16.23C260.269 15.7367 260.433 15.3533 260.759 15.08C261.093 14.8 261.526 14.66 262.059 14.66C262.439 14.66 262.783 14.7233 263.089 14.85C263.403 14.9767 263.679 15.1567 263.919 15.39L263.399 16.01C263.213 15.8167 263.006 15.6733 262.779 15.58C262.559 15.4867 262.319 15.44 262.059 15.44C261.746 15.44 261.506 15.5067 261.339 15.64C261.173 15.7667 261.089 15.9367 261.089 16.15C261.089 16.3433 261.153 16.4967 261.279 16.61C261.413 16.7167 261.629 16.8067 261.929 16.88L262.559 17.04C263.039 17.16 263.399 17.33 263.639 17.55C263.879 17.77 263.999 18.07 263.999 18.45C263.999 18.9633 263.823 19.3667 263.469 19.66C263.123 19.9533 262.643 20.1 262.029 20.1ZM266.829 20.1C266.235 20.1 265.779 19.9267 265.459 19.58C265.145 19.2333 264.989 18.7133 264.989 18.02V14.76H265.789V17.97C265.789 18.43 265.892 18.7733 266.099 19C266.312 19.2267 266.619 19.34 267.019 19.34C267.345 19.34 267.639 19.2533 267.899 19.08C268.159 18.9067 268.379 18.6667 268.559 18.36V14.76H269.359V20H268.559V19.16L268.439 19.12C268.292 19.42 268.079 19.66 267.799 19.84C267.519 20.0133 267.195 20.1 266.829 20.1ZM270.8 14.76H271.6V15.53L271.72 15.57C271.867 15.29 272.063 15.07 272.31 14.91C272.557 14.7433 272.857 14.66 273.21 14.66C273.543 14.66 273.833 14.7467 274.08 14.92C274.327 15.0933 274.493 15.3167 274.58 15.59H274.7C274.913 15.2833 275.147 15.0533 275.4 14.9C275.653 14.74 275.967 14.66 276.34 14.66C276.88 14.66 277.3 14.8167 277.6 15.13C277.907 15.4367 278.06 15.8833 278.06 16.47V20H277.26V16.52C277.26 16.1667 277.17 15.8933 276.99 15.7C276.81 15.5067 276.553 15.41 276.22 15.41C275.92 15.41 275.643 15.4967 275.39 15.67C275.137 15.8367 274.95 16.07 274.83 16.37V20H274.03V16.52C274.03 16.1667 273.94 15.8933 273.76 15.7C273.58 15.5067 273.323 15.41 272.99 15.41C272.69 15.41 272.427 15.49 272.2 15.65C271.973 15.81 271.773 16.05 271.6 16.37V20H270.8V14.76ZM279.462 14.76H280.262V15.53L280.382 15.57C280.529 15.29 280.726 15.07 280.972 14.91C281.219 14.7433 281.519 14.66 281.872 14.66C282.206 14.66 282.496 14.7467 282.742 14.92C282.989 15.0933 283.156 15.3167 283.242 15.59H283.362C283.576 15.2833 283.809 15.0533 284.062 14.9C284.316 14.74 284.629 14.66 285.002 14.66C285.542 14.66 285.962 14.8167 286.262 15.13C286.569 15.4367 286.722 15.8833 286.722 16.47V20H285.922V16.52C285.922 16.1667 285.832 15.8933 285.652 15.7C285.472 15.5067 285.216 15.41 284.882 15.41C284.582 15.41 284.306 15.4967 284.052 15.67C283.799 15.8367 283.612 16.07 283.492 16.37V20H282.692V16.52C282.692 16.1667 282.602 15.8933 282.422 15.7C282.242 15.5067 281.986 15.41 281.652 15.41C281.352 15.41 281.089 15.49 280.862 15.65C280.636 15.81 280.436 16.05 280.262 16.37V20H279.462V14.76ZM288.124 14.76H288.924V20H288.124V14.76ZM288.094 12.9H288.954V13.76H288.094V12.9ZM292.261 20.1C291.801 20.1 291.424 19.9933 291.131 19.78C290.837 19.5667 290.691 19.15 290.691 18.53V15.5H289.781V14.76H290.691V13.54H291.491V14.76H292.991V15.5H291.491V18.49C291.491 18.8233 291.567 19.05 291.721 19.17C291.874 19.2833 292.097 19.34 292.391 19.34C292.517 19.34 292.634 19.33 292.741 19.31C292.854 19.29 292.974 19.26 293.101 19.22V19.94C292.974 19.9867 292.834 20.0233 292.681 20.05C292.527 20.0833 292.387 20.1 292.261 20.1Z" fill="#BCBEC8"/>
<g clip-path="url(#clip0_549_28652)">
<mask id="mask1_549_28652" style="mask-type:alpha" maskUnits="userSpaceOnUse" x="302" y="11" width="10" height="10">
<rect x="302" y="11" width="10" height="10" fill="url(#paint0_linear_549_28652)"/>
</mask>
<g mask="url(#mask1_549_28652)">
<path d="M302.417 16.0004C302.417 13.4692 304.469 11.4166 307 11.4164C309.531 11.4164 311.584 13.4691 311.584 16.0004C311.584 18.5315 309.531 20.5834 307 20.5834C304.469 20.5832 302.417 18.5314 302.417 16.0004ZM304.5 16.0004C304.5 17.3808 305.619 18.5002 307 18.5004C308.38 18.5004 309.5 17.3809 309.5 16.0004C309.5 14.6197 308.38 13.5004 307 13.5004C305.619 13.5005 304.5 14.6197 304.5 16.0004Z" fill="#F7F7F8"/>
</g>
</g>
<path d="M316.304 13.72H316.112L314.348 14.764V13.252L316.304 12.1H317.732V20.5H316.304V13.72Z" fill="white"/>
<mask id="path-10-inside-1_549_28652" fill="white">
<path d="M323 16C323 12.6863 325.686 10 329 10V10C332.314 10 335 12.6863 335 16V16C335 19.3137 332.314 22 329 22V22C325.686 22 323 19.3137 323 16V16Z"/>
</mask>
<path d="M323 16C323 12.6863 325.686 10 329 10V10C332.314 10 335 12.6863 335 16V16C335 19.3137 332.314 22 329 22V22C325.686 22 323 19.3137 323 16V16Z" fill="#F2BA2A"/>
<path d="M323 16M335 16M335 16M323 16M329 10M335 16M329 22M323 16M329 22V20C326.791 20 325 18.2091 325 16H323H321C321 20.4183 324.582 24 329 24V22ZM335 16H333C333 18.2091 331.209 20 329 20V22V24C333.418 24 337 20.4183 337 16H335ZM329 10V12C331.209 12 333 13.7909 333 16H335H337C337 11.5817 333.418 8 329 8V10ZM329 10V8C324.582 8 321 11.5817 321 16H323H325C325 13.7909 326.791 12 329 12V10Z" fill="#191A1F" mask="url(#path-10-inside-1_549_28652)"/>
<path d="M339.304 13.72H339.112L337.348 14.764V13.252L339.304 12.1H340.732V20.5H339.304V13.72Z" fill="white"/>
<mask id="path-13-inside-2_549_28652" fill="white">
<path d="M346 16C346 12.6863 348.686 10 352 10V10C355.314 10 358 12.6863 358 16V16C358 19.3137 355.314 22 352 22V22C348.686 22 346 19.3137 346 16V16Z"/>
</mask>
<path d="M346 16C346 12.6863 348.686 10 352 10V10C355.314 10 358 12.6863 358 16V16C358 19.3137 355.314 22 352 22V22C348.686 22 346 19.3137 346 16V16Z" fill="#335FFF"/>
<path d="M346 16M358 16M358 16M346 16M352 10M358 16M352 22M346 16M352 22V20C349.791 20 348 18.2091 348 16H346H344C344 20.4183 347.582 24 352 24V22ZM358 16H356C356 18.2091 354.209 20 352 20V22V24C356.418 24 360 20.4183 360 16H358ZM352 10V12C354.209 12 356 13.7909 356 16H358H360C360 11.5817 356.418 8 352 8V10ZM352 10V8C347.582 8 344 11.5817 344 16H346H348C348 13.7909 349.791 12 352 12V10Z" fill="#191A1F" mask="url(#path-13-inside-2_549_28652)"/>
<path d="M362.304 13.72H362.112L360.348 14.764V13.252L362.304 12.1H363.732V20.5H362.304V13.72Z" fill="white"/>
<g opacity="0.5">
<mask id="mask2_549_28652" style="mask-type:alpha" maskUnits="userSpaceOnUse" x="43" y="32" width="16" height="16">
<path d="M53.3536 40.3536C53.5488 40.1583 53.5488 39.8417 53.3536 39.6464L50.3536 36.6464C50.1583 36.4512 49.8417 36.4512 49.6464 36.6464C49.4512 36.8417 49.4512 37.1583 49.6464 37.3536L52.2929 40L49.6464 42.6464C49.4512 42.8417 49.4512 43.1583 49.6464 43.3536C49.8417 43.5488 50.1583 43.5488 50.3536 43.3536L53.3536 40.3536Z" fill="#F7F7F8"/>
</mask>
<g mask="url(#mask2_549_28652)">
<rect x="43" y="32" width="16" height="16" fill="#F7F7F8"/>
</g>
</g>
<path d="M65.79 44.1C65.23 44.1 64.75 43.99 64.35 43.77C63.9567 43.5433 63.6533 43.2467 63.44 42.88L64.08 42.37C64.2867 42.6767 64.53 42.9067 64.81 43.06C65.09 43.2067 65.42 43.28 65.8 43.28C66.08 43.28 66.3267 43.2267 66.54 43.12C66.76 43.0133 66.93 42.8633 67.05 42.67C67.17 42.4767 67.23 42.25 67.23 41.99C67.23 41.5767 67.0967 41.27 66.83 41.07C66.57 40.8633 66.2 40.76 65.72 40.76H64.89V39.96H65.72C65.98 39.96 66.2033 39.9133 66.39 39.82C66.5767 39.72 66.7167 39.58 66.81 39.4C66.91 39.22 66.96 39.0067 66.96 38.76C66.96 38.42 66.8533 38.1633 66.64 37.99C66.4267 37.81 66.1467 37.72 65.8 37.72C65.4867 37.72 65.2033 37.7933 64.95 37.94C64.6967 38.08 64.4567 38.3167 64.23 38.65L63.6 38.14C63.8667 37.76 64.1767 37.46 64.53 37.24C64.8833 37.0133 65.3133 36.9 65.82 36.9C66.2067 36.9 66.55 36.9733 66.85 37.12C67.1567 37.2667 67.3933 37.4733 67.56 37.74C67.7333 38.0067 67.82 38.3167 67.82 38.67C67.82 39.0367 67.7233 39.35 67.53 39.61C67.3433 39.8633 67.09 40.0667 66.77 40.22V40.34C67.15 40.4467 67.4667 40.6433 67.72 40.93C67.9733 41.21 68.1 41.5633 68.1 41.99C68.1 42.39 68 42.75 67.8 43.07C67.6067 43.39 67.3333 43.6433 66.98 43.83C66.6267 44.01 66.23 44.1 65.79 44.1ZM72.5098 39.5H71.4998V38.76H72.5098V38.61C72.5098 38.0167 72.6865 37.5667 73.0398 37.26C73.3998 36.9533 73.8598 36.8 74.4198 36.8C74.5932 36.8 74.7732 36.8167 74.9598 36.85V37.59C74.7598 37.5567 74.5798 37.54 74.4198 37.54C74.0732 37.54 73.7998 37.6267 73.5998 37.8C73.4065 37.9667 73.3098 38.21 73.3098 38.53V38.76H76.3398V44H75.5398V39.5H73.3098V44H72.5098V39.5ZM75.5098 36.9H76.3698V37.76H75.5098V36.9ZM77.7825 36.9H78.5825V44H77.7825V36.9ZM82.2188 44.1C81.6855 44.1 81.2288 43.9867 80.8488 43.76C80.4688 43.5333 80.1822 43.2167 79.9888 42.81C79.7955 42.4033 79.6988 41.9267 79.6988 41.38C79.6988 40.84 79.7955 40.3667 79.9888 39.96C80.1822 39.5467 80.4622 39.2267 80.8288 39C81.1955 38.7733 81.6388 38.66 82.1588 38.66C82.9255 38.66 83.5088 38.9067 83.9088 39.4C84.3155 39.8867 84.5188 40.5467 84.5188 41.38V41.58H80.1488L80.4988 41.3C80.4988 41.94 80.6455 42.4367 80.9388 42.79C81.2322 43.1433 81.6622 43.32 82.2288 43.32C82.5155 43.32 82.7855 43.27 83.0388 43.17C83.2922 43.0633 83.5388 42.9033 83.7788 42.69L84.3088 43.3C84.0288 43.5667 83.7088 43.7667 83.3488 43.9C82.9888 44.0333 82.6122 44.1 82.2188 44.1ZM82.1688 39.42C81.7355 39.42 81.3788 39.5467 81.0988 39.8C80.8188 40.0533 80.6355 40.4 80.5488 40.84H83.6788C83.6055 40.3933 83.4422 40.0467 83.1888 39.8C82.9355 39.5467 82.5955 39.42 82.1688 39.42ZM87.2052 44.1C86.8186 44.1 86.4486 44.03 86.0952 43.89C85.7486 43.7433 85.4519 43.5367 85.2052 43.27L85.7252 42.65C85.9252 42.87 86.1519 43.0367 86.4052 43.15C86.6586 43.2633 86.9319 43.32 87.2252 43.32C87.5586 43.32 87.8286 43.2567 88.0352 43.13C88.2486 42.9967 88.3552 42.8033 88.3552 42.55C88.3552 42.35 88.2886 42.1967 88.1552 42.09C88.0219 41.9767 87.7986 41.88 87.4852 41.8L86.7152 41.61C86.3219 41.5167 86.0119 41.3567 85.7852 41.13C85.5586 40.9033 85.4452 40.6033 85.4452 40.23C85.4452 39.7367 85.6086 39.3533 85.9352 39.08C86.2686 38.8 86.7019 38.66 87.2352 38.66C87.6152 38.66 87.9586 38.7233 88.2652 38.85C88.5786 38.9767 88.8552 39.1567 89.0952 39.39L88.5752 40.01C88.3886 39.8167 88.1819 39.6733 87.9552 39.58C87.7352 39.4867 87.4952 39.44 87.2352 39.44C86.9219 39.44 86.6819 39.5067 86.5152 39.64C86.3486 39.7667 86.2652 39.9367 86.2652 40.15C86.2652 40.3433 86.3286 40.4967 86.4552 40.61C86.5886 40.7167 86.8052 40.8067 87.1052 40.88L87.7352 41.04C88.2152 41.16 88.5752 41.33 88.8152 41.55C89.0552 41.77 89.1752 42.07 89.1752 42.45C89.1752 42.9633 88.9986 43.3667 88.6452 43.66C88.2986 43.9533 87.8186 44.1 87.2052 44.1Z" fill="#BCBEC8"/>
<g filter="url(#filter0_dd_549_28652)">
<path d="M20 71C20 62.1634 27.1634 55 36 55H373C381.837 55 389 62.1634 389 71V116C389 124.837 381.837 132 373 132H36C27.1634 132 20 124.837 20 116V71Z" fill="#191A1F"/>
<path d="M36 55.5H373C381.56 55.5 388.5 62.4396 388.5 71V116C388.5 124.56 381.56 131.5 373 131.5H36C27.4396 131.5 20.5 124.56 20.5 116V71C20.5 62.4396 27.4396 55.5 36 55.5Z" stroke="#D0D9FB" stroke-opacity="0.16"/>
<path d="M34.984 71.6H38.104C38.872 71.6 39.476 71.788 39.916 72.164C40.364 72.532 40.588 73.08 40.588 73.808C40.588 74.184 40.508 74.516 40.348 74.804C40.188 75.084 39.956 75.308 39.652 75.476V75.62C40.1 75.788 40.436 76.028 40.66 76.34C40.892 76.644 41.008 77.056 41.008 77.576C41.008 78.352 40.76 78.952 40.264 79.376C39.776 79.792 39.12 80 38.296 80H34.984V71.6ZM38.164 79.04C38.764 79.04 39.216 78.924 39.52 78.692C39.824 78.46 39.976 78.088 39.976 77.576C39.976 77.064 39.824 76.688 39.52 76.448C39.224 76.208 38.788 76.088 38.212 76.088H35.824V75.152H38.104C38.416 75.152 38.68 75.112 38.896 75.032C39.112 74.944 39.276 74.804 39.388 74.612C39.508 74.42 39.568 74.168 39.568 73.856C39.568 73.384 39.436 73.052 39.172 72.86C38.916 72.66 38.52 72.56 37.984 72.56H36.016V79.04H38.164ZM44.5592 80.12C43.8472 80.12 43.2992 79.912 42.9152 79.496C42.5392 79.08 42.3512 78.456 42.3512 77.624V73.712H43.3112V77.564C43.3112 78.116 43.4352 78.528 43.6832 78.8C43.9392 79.072 44.3072 79.208 44.7872 79.208C45.1792 79.208 45.5312 79.104 45.8432 78.896C46.1552 78.688 46.4192 78.4 46.6352 78.032V73.712H47.5952V80H46.6352V78.992L46.4912 78.944C46.3152 79.304 46.0592 79.592 45.7232 79.808C45.3872 80.016 44.9992 80.12 44.5592 80.12ZM49.3249 73.712H50.2849V80H49.3249V73.712ZM49.2889 71.48H50.3209V72.512H49.2889V71.48ZM52.0085 71.48H52.9685V80H52.0085V71.48ZM57.0561 80.12C56.5121 80.12 56.0321 80 55.6161 79.76C55.2081 79.512 54.8881 79.152 54.6561 78.68C54.4241 78.208 54.3081 77.64 54.3081 76.976C54.3081 76.24 54.4481 75.62 54.7281 75.116C55.0161 74.604 55.4001 74.224 55.8801 73.976C56.3681 73.72 56.9121 73.592 57.5121 73.592C57.7521 73.592 58.0001 73.62 58.2561 73.676C58.5121 73.724 58.7561 73.792 58.9881 73.88V71.48H59.9481V80H58.9881V79.172L58.8441 79.124C58.6361 79.468 58.3801 79.72 58.0761 79.88C57.7721 80.04 57.4321 80.12 57.0561 80.12ZM57.1281 79.184C57.5841 79.184 57.9481 79.1 58.2201 78.932C58.4921 78.764 58.7481 78.504 58.9881 78.152V74.816C58.7481 74.72 58.5081 74.648 58.2681 74.6C58.0361 74.552 57.7801 74.528 57.5001 74.528C57.0281 74.528 56.6241 74.628 56.2881 74.828C55.9601 75.02 55.7121 75.3 55.5441 75.668C55.3761 76.036 55.2921 76.472 55.2921 76.976C55.2921 77.392 55.3681 77.768 55.5201 78.104C55.6801 78.44 55.9001 78.704 56.1801 78.896C56.4601 79.088 56.7761 79.184 57.1281 79.184ZM64.2389 73.712H65.3189L66.2549 78.764H66.3989L67.7309 73.712H69.0029L70.3709 78.764H70.5149L71.4389 73.712H72.5189L71.1629 80H69.8549L68.4509 74.876H68.3069L66.9029 80H65.5949L64.2389 73.712ZM73.571 73.712H74.531V80H73.571V73.712ZM73.535 71.48H74.567V72.512H73.535V71.48ZM78.5346 80.12C77.9826 80.12 77.5306 79.992 77.1786 79.736C76.8266 79.48 76.6506 78.98 76.6506 78.236V74.6H75.5586V73.712H76.6506V72.248H77.6106V73.712H79.4106V74.6H77.6106V78.188C77.6106 78.588 77.7026 78.86 77.8866 79.004C78.0706 79.14 78.3386 79.208 78.6906 79.208C78.8426 79.208 78.9826 79.196 79.1106 79.172C79.2466 79.148 79.3906 79.112 79.5426 79.064V79.928C79.3906 79.984 79.2226 80.028 79.0386 80.06C78.8546 80.1 78.6866 80.12 78.5346 80.12ZM80.5906 71.48H81.5506V74.72L81.6946 74.768C81.8706 74.408 82.1306 74.124 82.4746 73.916C82.8186 73.7 83.2106 73.592 83.6506 73.592C84.3626 73.592 84.9226 73.796 85.3306 74.204C85.7466 74.612 85.9546 75.2 85.9546 75.968V80H84.9946V76.088C84.9946 75.544 84.8666 75.144 84.6106 74.888C84.3626 74.632 84.0026 74.504 83.5306 74.504C83.1146 74.504 82.7306 74.612 82.3786 74.828C82.0346 75.036 81.7586 75.32 81.5506 75.68V80H80.5906V71.48ZM93.1479 71.6H94.4199L97.4079 80H96.2799L93.8559 72.872H93.7119L91.2759 80H90.1479L93.1479 71.6ZM91.6599 76.736H95.8959V77.696H91.6599V76.736ZM100.359 80.12C99.8948 80.12 99.4508 80.036 99.0268 79.868C98.6108 79.692 98.2548 79.444 97.9588 79.124L98.5828 78.38C98.8228 78.644 99.0948 78.844 99.3988 78.98C99.7028 79.116 100.031 79.184 100.383 79.184C100.783 79.184 101.107 79.108 101.355 78.956C101.611 78.796 101.739 78.564 101.739 78.26C101.739 78.02 101.659 77.836 101.499 77.708C101.339 77.572 101.071 77.456 100.695 77.36L99.7708 77.132C99.2988 77.02 98.9268 76.828 98.6548 76.556C98.3828 76.284 98.2468 75.924 98.2468 75.476C98.2468 74.884 98.4428 74.424 98.8348 74.096C99.2348 73.76 99.7548 73.592 100.395 73.592C100.851 73.592 101.263 73.668 101.631 73.82C102.007 73.972 102.339 74.188 102.627 74.468L102.003 75.212C101.779 74.98 101.531 74.808 101.259 74.696C100.995 74.584 100.707 74.528 100.395 74.528C100.019 74.528 99.7308 74.608 99.5308 74.768C99.3308 74.92 99.2308 75.124 99.2308 75.38C99.2308 75.612 99.3068 75.796 99.4588 75.932C99.6188 76.06 99.8788 76.168 100.239 76.256L100.995 76.448C101.571 76.592 102.003 76.796 102.291 77.06C102.579 77.324 102.723 77.684 102.723 78.14C102.723 78.756 102.511 79.24 102.087 79.592C101.671 79.944 101.095 80.12 100.359 80.12ZM105.937 80.12C105.473 80.12 105.029 80.036 104.605 79.868C104.189 79.692 103.833 79.444 103.537 79.124L104.161 78.38C104.401 78.644 104.673 78.844 104.977 78.98C105.281 79.116 105.609 79.184 105.961 79.184C106.361 79.184 106.685 79.108 106.933 78.956C107.189 78.796 107.317 78.564 107.317 78.26C107.317 78.02 107.237 77.836 107.077 77.708C106.917 77.572 106.649 77.456 106.273 77.36L105.349 77.132C104.877 77.02 104.505 76.828 104.233 76.556C103.961 76.284 103.825 75.924 103.825 75.476C103.825 74.884 104.021 74.424 104.413 74.096C104.813 73.76 105.333 73.592 105.973 73.592C106.429 73.592 106.841 73.668 107.209 73.82C107.585 73.972 107.917 74.188 108.205 74.468L107.581 75.212C107.357 74.98 107.109 74.808 106.837 74.696C106.573 74.584 106.285 74.528 105.973 74.528C105.597 74.528 105.309 74.608 105.109 74.768C104.909 74.92 104.809 75.124 104.809 75.38C104.809 75.612 104.885 75.796 105.037 75.932C105.197 76.06 105.457 76.168 105.817 76.256L106.573 76.448C107.149 76.592 107.581 76.796 107.869 77.06C108.157 77.324 108.301 77.684 108.301 78.14C108.301 78.756 108.089 79.24 107.665 79.592C107.249 79.944 106.673 80.12 105.937 80.12ZM109.583 73.712H110.543V80H109.583V73.712ZM109.547 71.48H110.579V72.512H109.547V71.48ZM114.163 80.12C113.699 80.12 113.255 80.036 112.831 79.868C112.415 79.692 112.059 79.444 111.763 79.124L112.387 78.38C112.627 78.644 112.899 78.844 113.203 78.98C113.507 79.116 113.835 79.184 114.187 79.184C114.587 79.184 114.911 79.108 115.159 78.956C115.415 78.796 115.543 78.564 115.543 78.26C115.543 78.02 115.463 77.836 115.303 77.708C115.143 77.572 114.875 77.456 114.499 77.36L113.575 77.132C113.103 77.02 112.731 76.828 112.459 76.556C112.187 76.284 112.051 75.924 112.051 75.476C112.051 74.884 112.247 74.424 112.639 74.096C113.039 73.76 113.559 73.592 114.199 73.592C114.655 73.592 115.067 73.668 115.435 73.82C115.811 73.972 116.143 74.188 116.431 74.468L115.807 75.212C115.583 74.98 115.335 74.808 115.063 74.696C114.799 74.584 114.511 74.528 114.199 74.528C113.823 74.528 113.535 74.608 113.335 74.768C113.135 74.92 113.035 75.124 113.035 75.38C113.035 75.612 113.111 75.796 113.263 75.932C113.423 76.06 113.683 76.168 114.043 76.256L114.799 76.448C115.375 76.592 115.807 76.796 116.095 77.06C116.383 77.324 116.527 77.684 116.527 78.14C116.527 78.756 116.315 79.24 115.891 79.592C115.475 79.944 114.899 80.12 114.163 80.12ZM120.078 80.12C119.526 80.12 119.074 79.992 118.722 79.736C118.37 79.48 118.194 78.98 118.194 78.236V74.6H117.102V73.712H118.194V72.248H119.154V73.712H120.954V74.6H119.154V78.188C119.154 78.588 119.246 78.86 119.43 79.004C119.614 79.14 119.882 79.208 120.234 79.208C120.386 79.208 120.526 79.196 120.654 79.172C120.79 79.148 120.934 79.112 121.086 79.064V79.928C120.934 79.984 120.766 80.028 120.582 80.06C120.398 80.1 120.23 80.12 120.078 80.12ZM123.862 80.12C123.206 80.12 122.69 79.94 122.314 79.58C121.938 79.22 121.75 78.748 121.75 78.164C121.75 77.564 121.954 77.084 122.362 76.724C122.77 76.356 123.338 76.172 124.066 76.172H126.07V77.036H124.066C123.626 77.036 123.29 77.14 123.058 77.348C122.826 77.556 122.71 77.824 122.71 78.152C122.71 78.456 122.822 78.708 123.046 78.908C123.278 79.108 123.606 79.208 124.03 79.208C124.406 79.208 124.75 79.124 125.062 78.956C125.382 78.788 125.654 78.552 125.878 78.248V75.824C125.878 75.36 125.746 75.028 125.482 74.828C125.218 74.628 124.862 74.528 124.414 74.528C124.03 74.528 123.698 74.596 123.418 74.732C123.146 74.868 122.874 75.072 122.602 75.344L121.966 74.624C122.246 74.32 122.598 74.072 123.022 73.88C123.446 73.688 123.914 73.592 124.426 73.592C125.154 73.592 125.738 73.78 126.178 74.156C126.618 74.532 126.838 75.088 126.838 75.824V80H125.878V79.16L125.734 79.112C125.542 79.424 125.286 79.672 124.966 79.856C124.646 80.032 124.278 80.12 123.862 80.12ZM128.567 73.712H129.527V74.72L129.671 74.768C129.847 74.408 130.107 74.124 130.451 73.916C130.795 73.7 131.187 73.592 131.627 73.592C132.339 73.592 132.899 73.796 133.307 74.204C133.723 74.612 133.931 75.2 133.931 75.968V80H132.971V76.088C132.971 75.544 132.843 75.144 132.587 74.888C132.339 74.632 131.979 74.504 131.507 74.504C131.091 74.504 130.707 74.612 130.355 74.828C130.011 75.036 129.735 75.32 129.527 75.68V80H128.567V73.712ZM137.82 80.12C137.268 80.12 136.816 79.992 136.464 79.736C136.112 79.48 135.936 78.98 135.936 78.236V74.6H134.844V73.712H135.936V72.248H136.896V73.712H138.696V74.6H136.896V78.188C136.896 78.588 136.988 78.86 137.172 79.004C137.356 79.14 137.624 79.208 137.976 79.208C138.128 79.208 138.268 79.196 138.396 79.172C138.532 79.148 138.676 79.112 138.828 79.064V79.928C138.676 79.984 138.508 80.028 138.324 80.06C138.14 80.1 137.972 80.12 137.82 80.12Z" fill="#BCBEC8"/>
<path d="M32 108C32 101.373 37.3726 96 44 96V96C50.6274 96 56 101.373 56 108V108C56 114.627 50.6274 120 44 120V120C37.3726 120 32 114.627 32 108V108Z" fill="#D0D9FB" fill-opacity="0.12"/>
<mask id="mask3_549_28652" style="mask-type:alpha" maskUnits="userSpaceOnUse" x="36" y="100" width="16" height="16">
<path d="M44 102.5C44.2761 102.5 44.5 102.724 44.5 103V107.5H49C49.2761 107.5 49.5 107.724 49.5 108C49.5 108.276 49.2761 108.5 49 108.5H44.5V113C44.5 113.276 44.2761 113.5 44 113.5C43.7239 113.5 43.5 113.276 43.5 113V108.5H39C38.7239 108.5 38.5 108.276 38.5 108C38.5 107.724 38.7239 107.5 39 107.5H43.5V103C43.5 102.724 43.7239 102.5 44 102.5Z" fill="#F7F7F8"/>
</mask>
<g mask="url(#mask3_549_28652)">
<rect x="36" y="100" width="16" height="16" fill="#F7F7F8"/>
</g>
<mask id="mask4_549_28652" style="mask-type:alpha" maskUnits="userSpaceOnUse" x="64" y="100" width="16" height="16">
<path d="M74.5 105C75.0523 105 75.5 104.552 75.5 104C75.5 103.448 75.0523 103 74.5 103C73.9477 103 73.5 103.448 73.5 104C73.5 104.552 73.9477 105 74.5 105ZM74.5 102C75.4319 102 76.215 102.637 76.437 103.5L78 103.5C78.2761 103.5 78.5 103.724 78.5 104C78.5 104.276 78.2761 104.5 78 104.5L76.437 104.5C76.215 105.363 75.4319 106 74.5 106C73.5681 106 72.785 105.363 72.563 104.5L66 104.5C65.7239 104.5 65.5 104.276 65.5 104C65.5 103.724 65.7239 103.5 66 103.5L72.563 103.5C72.785 102.637 73.5681 102 74.5 102ZM69.5 109C70.0523 109 70.5 108.552 70.5 108C70.5 107.448 70.0523 107 69.5 107C68.9477 107 68.5 107.448 68.5 108C68.5 108.552 68.9477 109 69.5 109ZM69.5 106C70.4319 106 71.215 106.637 71.437 107.5H78C78.2761 107.5 78.5 107.724 78.5 108C78.5 108.276 78.2761 108.5 78 108.5H71.437C71.215 109.363 70.4319 110 69.5 110C68.5681 110 67.785 109.363 67.563 108.5H66C65.7239 108.5 65.5 108.276 65.5 108C65.5 107.724 65.7239 107.5 66 107.5H67.563C67.785 106.637 68.5681 106 69.5 106ZM75.5 112C75.5 112.552 75.0523 113 74.5 113C73.9477 113 73.5 112.552 73.5 112C73.5 111.448 73.9477 111 74.5 111C75.0523 111 75.5 111.448 75.5 112ZM72.563 112.5C72.785 113.363 73.5681 114 74.5 114C75.4319 114 76.215 113.363 76.437 112.5H78C78.2761 112.5 78.5 112.276 78.5 112C78.5 111.724 78.2761 111.5 78 111.5H76.437C76.215 110.637 75.4319 110 74.5 110C73.5681 110 72.785 110.637 72.563 111.5H66C65.7239 111.5 65.5 111.724 65.5 112C65.5 112.276 65.7239 112.5 66 112.5H72.563Z" fill="#F7F7F8"/>
</mask>
<g mask="url(#mask4_549_28652)">
<rect x="64" y="100" width="16" height="16" fill="#F7F7F8"/>
</g>
<g opacity="0.5">
<path d="M353 108C353 101.373 358.373 96 365 96V96C371.627 96 377 101.373 377 108V108C377 114.627 371.627 120 365 120V120C358.373 120 353 114.627 353 108V108Z" fill="#D0D9FB" fill-opacity="0.12"/>
<mask id="mask5_549_28652" style="mask-type:alpha" maskUnits="userSpaceOnUse" x="357" y="100" width="16" height="16">
<path d="M365 109.667C366.107 109.667 367 108.773 367 107.667V103.667C367 102.56 366.107 101.667 365 101.667C363.893 101.667 363 102.56 363 103.667V107.667C363 108.773 363.893 109.667 365 109.667Z" fill="black"/>
<path d="M368.333 107.667C368.333 109.507 366.84 111 365 111C363.16 111 361.667 109.507 361.667 107.667H360.333C360.333 110.02 362.073 111.953 364.333 112.28V114.333H365.667V112.28C367.927 111.953 369.667 110.02 369.667 107.667H368.333Z" fill="black"/>
</mask>
<g mask="url(#mask5_549_28652)">
<rect x="357" y="100" width="16" height="16" fill="#F7F7F8"/>
</g>
</g>
</g>
<path d="M370.48 72.5963C370.48 73.0105 370.816 73.3463 371.23 73.3463C371.644 73.3463 371.98 73.0105 371.98 72.5963V67.9814C371.98 67.4292 371.532 66.9814 370.98 66.9814L366.365 66.9814C365.951 66.9814 365.615 67.3172 365.615 67.7314C365.615 68.1457 365.951 68.4814 366.365 68.4814L369.419 68.4814L365.98 71.9212C365.687 72.2141 365.687 72.6889 365.98 72.9818C366.273 73.2747 366.747 73.2747 367.04 72.9818L370.48 69.5423V72.5963Z" fill="#BCBEC8"/>
<path d="M359.488 78.4203L362.928 74.9808C363.221 74.6879 363.696 74.6879 363.988 74.9808C364.281 75.2737 364.281 75.7485 363.988 76.0414L360.55 79.4803H363.603C364.017 79.4803 364.353 79.8161 364.353 80.2303C364.353 80.6445 364.017 80.9803 363.603 80.9803H358.988C358.436 80.9803 357.988 80.5326 357.988 79.9803L357.988 75.3655C357.988 74.9513 358.324 74.6155 358.738 74.6155C359.152 74.6155 359.488 74.9513 359.488 75.3655L359.488 78.4203Z" fill="#BCBEC8"/>
<defs>
<filter id="filter0_dd_549_28652" x="0" y="35" width="409" height="117" filterUnits="userSpaceOnUse" color-interpolation-filters="sRGB">
<feFlood flood-opacity="0" result="BackgroundImageFix"/>
<feColorMatrix in="SourceAlpha" type="matrix" values="0 0 0 0 0 0 0 0 0 0 0 0 0 0 0 0 0 0 127 0" result="hardAlpha"/>
<feOffset/>
<feGaussianBlur stdDeviation="10"/>
<feColorMatrix type="matrix" values="0 0 0 0 0.0156863 0 0 0 0 0.0156863 0 0 0 0 0.0313726 0 0 0 0.25 0"/>
<feBlend mode="normal" in2="BackgroundImageFix" result="effect1_dropShadow_549_28652"/>
<feColorMatrix in="SourceAlpha" type="matrix" values="0 0 0 0 0 0 0 0 0 0 0 0 0 0 0 0 0 0 127 0" result="hardAlpha"/>
<feOffset/>
<feGaussianBlur stdDeviation="2"/>
<feColorMatrix type="matrix" values="0 0 0 0 0.0156863 0 0 0 0 0.0156863 0 0 0 0 0.0313726 0 0 0 0.25 0"/>
<feBlend mode="normal" in2="effect1_dropShadow_549_28652" result="effect2_dropShadow_549_28652"/>
<feBlend mode="normal" in="SourceGraphic" in2="effect2_dropShadow_549_28652" result="shape"/>
</filter>
<linearGradient id="paint0_linear_549_28652" x1="302" y1="16" x2="312" y2="16" gradientUnits="userSpaceOnUse">
<stop stop-color="white"/>
<stop offset="1" stop-color="white" stop-opacity="0.1"/>
</linearGradient>
<clipPath id="clip0_549_28652">
<rect width="10" height="10" fill="white" transform="translate(302 11)"/>
</clipPath>
</defs>
</svg>
