<svg width="16" height="16" viewBox="0 0 16 16" fill="none" xmlns="http://www.w3.org/2000/svg">
<path d="M3.22581 2.70913C3.10079 2.81767 2.9787 2.93138 2.85982 3.05025C2.74095 3.16913 2.62724 3.29122 2.5187 3.41624C0.131322 6.16618 0.245029 10.335 2.85982 12.9497C5.47462 15.5645 9.64338 15.6782 12.3933 13.2909C12.5184 13.1823 12.6404 13.0686 12.7593 12.9497C12.8782 12.8309 12.9919 12.7088 13.1004 12.5838C15.4878 9.83381 15.3741 5.66505 12.7593 3.05025C10.1445 0.435459 5.97575 0.321752 3.22581 2.70913ZM12.3912 11.8746L3.935 3.41833C6.29239 1.42026 9.82812 1.53327 12.0522 3.75736C14.2763 5.98144 14.3893 9.51718 12.3912 11.8746ZM3.2279 4.12543L11.6841 12.5817C9.32675 14.5797 5.79101 14.4667 3.56693 12.2426C1.34284 10.0186 1.22983 6.48282 3.2279 4.12543Z" fill="#F7F7F8"/>
</svg>
