<svg width="109" height="157" viewBox="0 0 109 157" fill="none" xmlns="http://www.w3.org/2000/svg">
<rect width="108.375" height="108.375" rx="8" fill="#D0D9FB" fill-opacity="0.08"/>
<path d="M39.0312 45.9062H52.2008C52.9656 45.9062 53.6823 45.5331 54.1209 44.9066L55.8361 42.4563L53.8308 40.1078C53.1629 39.3255 52.1859 38.875 51.1572 38.875H43.7188C41.1299 38.875 39.0312 40.9737 39.0312 43.5625V45.9062Z" fill="#FADC7F"/>
<path d="M57.9226 43.5625L56.041 46.2506C55.1638 47.5037 53.7304 48.25 52.2008 48.25H39.0312V63.4844C39.0312 65.426 40.6052 67 42.5469 67H68.3281C70.2698 67 71.8438 65.426 71.8438 63.4844V47.0781C71.8438 45.1365 70.2698 43.5625 68.3281 43.5625H57.9226Z" fill="#FADC7F"/>
<path d="M0.984 116.975H2.016V125.375H0.984V116.975ZM3.864 119.087H4.824V120.095L4.968 120.143C5.144 119.783 5.404 119.499 5.748 119.291C6.092 119.075 6.484 118.967 6.924 118.967C7.636 118.967 8.196 119.171 8.604 119.579C9.02 119.987 9.228 120.575 9.228 121.343V125.375H8.268V121.463C8.268 120.919 8.14 120.519 7.884 120.263C7.636 120.007 7.276 119.879 6.804 119.879C6.388 119.879 6.004 119.987 5.652 120.203C5.308 120.411 5.032 120.695 4.824 121.055V125.375H3.864V119.087ZM13.1167 125.495C12.5647 125.495 12.1127 125.367 11.7607 125.111C11.4087 124.855 11.2327 124.355 11.2327 123.611V119.975H10.1407V119.087H11.2327V117.623H12.1927V119.087H13.9927V119.975H12.1927V123.563C12.1927 123.963 12.2847 124.235 12.4687 124.379C12.6527 124.515 12.9207 124.583 13.2727 124.583C13.4247 124.583 13.5647 124.571 13.6927 124.547C13.8287 124.523 13.9727 124.487 14.1247 124.439V125.303C13.9727 125.359 13.8047 125.403 13.6207 125.435C13.4367 125.475 13.2687 125.495 13.1167 125.495ZM17.6134 125.495C16.9734 125.495 16.4254 125.359 15.9694 125.087C15.5134 124.815 15.1694 124.435 14.9374 123.947C14.7054 123.459 14.5894 122.887 14.5894 122.231C14.5894 121.583 14.7054 121.015 14.9374 120.527C15.1694 120.031 15.5054 119.647 15.9454 119.375C16.3854 119.103 16.9174 118.967 17.5414 118.967C18.4614 118.967 19.1614 119.263 19.6414 119.855C20.1294 120.439 20.3734 121.231 20.3734 122.231V122.471H15.1294L15.5494 122.135C15.5494 122.903 15.7254 123.499 16.0774 123.923C16.4294 124.347 16.9454 124.559 17.6254 124.559C17.9694 124.559 18.2934 124.499 18.5974 124.379C18.9014 124.251 19.1974 124.059 19.4854 123.803L20.1214 124.535C19.7854 124.855 19.4014 125.095 18.9694 125.255C18.5374 125.415 18.0854 125.495 17.6134 125.495ZM17.5534 119.879C17.0334 119.879 16.6054 120.031 16.2694 120.335C15.9334 120.639 15.7134 121.055 15.6094 121.583H19.3654C19.2774 121.047 19.0814 120.631 18.7774 120.335C18.4734 120.031 18.0654 119.879 17.5534 119.879ZM21.6882 119.087H22.6482V120.131L22.7922 120.179C23.0402 119.771 23.2962 119.467 23.5602 119.267C23.8242 119.067 24.1802 118.967 24.6282 118.967C24.8362 118.967 25.0042 118.987 25.1322 119.027V120.083C24.9322 120.027 24.7042 119.999 24.4482 119.999C24.0162 119.999 23.6522 120.111 23.3562 120.335C23.0682 120.559 22.8322 120.871 22.6482 121.271V125.375H21.6882V119.087ZM26.1531 119.087H27.1131V125.375H26.1531V119.087ZM26.1171 116.855H27.1491V117.887H26.1171V116.855ZM31.4047 125.495C30.7807 125.495 30.2487 125.359 29.8087 125.087C29.3687 124.815 29.0327 124.435 28.8007 123.947C28.5687 123.451 28.4527 122.879 28.4527 122.231C28.4527 121.583 28.5687 121.015 28.8007 120.527C29.0327 120.031 29.3687 119.647 29.8087 119.375C30.2487 119.103 30.7807 118.967 31.4047 118.967C32.0287 118.967 32.5607 119.103 33.0007 119.375C33.4407 119.647 33.7767 120.031 34.0087 120.527C34.2407 121.015 34.3567 121.583 34.3567 122.231C34.3567 122.879 34.2407 123.451 34.0087 123.947C33.7767 124.435 33.4407 124.815 33.0007 125.087C32.5607 125.359 32.0287 125.495 31.4047 125.495ZM31.4047 124.559C31.8207 124.559 32.1767 124.463 32.4727 124.271C32.7687 124.079 32.9927 123.807 33.1447 123.455C33.2967 123.103 33.3727 122.695 33.3727 122.231C33.3727 121.767 33.2967 121.359 33.1447 121.007C32.9927 120.655 32.7687 120.383 32.4727 120.191C32.1767 119.999 31.8207 119.903 31.4047 119.903C30.9887 119.903 30.6327 119.999 30.3367 120.191C30.0407 120.383 29.8167 120.655 29.6647 121.007C29.5127 121.359 29.4367 121.767 29.4367 122.231C29.4367 122.695 29.5127 123.103 29.6647 123.455C29.8167 123.807 30.0407 124.079 30.3367 124.271C30.6327 124.463 30.9887 124.559 31.4047 124.559ZM35.7038 119.087H36.6638V120.131L36.8078 120.179C37.0558 119.771 37.3118 119.467 37.5758 119.267C37.8398 119.067 38.1958 118.967 38.6438 118.967C38.8518 118.967 39.0198 118.987 39.1478 119.027V120.083C38.9478 120.027 38.7198 119.999 38.4638 119.999C38.0318 119.999 37.6678 120.111 37.3718 120.335C37.0838 120.559 36.8478 120.871 36.6638 121.271V125.375H35.7038V119.087ZM43.6285 116.975H46.5205C47.4245 116.975 48.1205 117.203 48.6085 117.659C49.1045 118.115 49.3525 118.763 49.3525 119.603C49.3525 120.163 49.2405 120.639 49.0165 121.031C48.8005 121.423 48.4805 121.723 48.0565 121.931C47.6325 122.131 47.1205 122.231 46.5205 122.231H44.4685V121.271H46.5205C47.1285 121.271 47.5805 121.139 47.8765 120.875C48.1725 120.603 48.3205 120.179 48.3205 119.603C48.3205 119.027 48.1725 118.607 47.8765 118.343C47.5805 118.071 47.1285 117.935 46.5205 117.935H44.6605V125.375H43.6285V116.975ZM50.5281 119.087H51.4881V120.131L51.6321 120.179C51.8801 119.771 52.1361 119.467 52.4001 119.267C52.6641 119.067 53.0201 118.967 53.4681 118.967C53.6761 118.967 53.8441 118.987 53.9721 119.027V120.083C53.7721 120.027 53.5441 119.999 53.2881 119.999C52.8561 119.999 52.4921 120.111 52.1961 120.335C51.9081 120.559 51.6721 120.871 51.4881 121.271V125.375H50.5281V119.087ZM57.3968 125.495C56.7728 125.495 56.2408 125.359 55.8008 125.087C55.3608 124.815 55.0248 124.435 54.7928 123.947C54.5608 123.451 54.4448 122.879 54.4448 122.231C54.4448 121.583 54.5608 121.015 54.7928 120.527C55.0248 120.031 55.3608 119.647 55.8008 119.375C56.2408 119.103 56.7728 118.967 57.3968 118.967C58.0208 118.967 58.5528 119.103 58.9928 119.375C59.4328 119.647 59.7688 120.031 60.0008 120.527C60.2328 121.015 60.3488 121.583 60.3488 122.231C60.3488 122.879 60.2328 123.451 60.0008 123.947C59.7688 124.435 59.4328 124.815 58.9928 125.087C58.5528 125.359 58.0208 125.495 57.3968 125.495ZM57.3968 124.559C57.8128 124.559 58.1688 124.463 58.4648 124.271C58.7608 124.079 58.9848 123.807 59.1368 123.455C59.2888 123.103 59.3648 122.695 59.3648 122.231C59.3648 121.767 59.2888 121.359 59.1368 121.007C58.9848 120.655 58.7608 120.383 58.4648 120.191C58.1688 119.999 57.8128 119.903 57.3968 119.903C56.9808 119.903 56.6248 119.999 56.3288 120.191C56.0328 120.383 55.8088 120.655 55.6568 121.007C55.5048 121.359 55.4288 121.767 55.4288 122.231C55.4288 122.695 55.5048 123.103 55.6568 123.455C55.8088 123.807 56.0328 124.079 56.3288 124.271C56.6248 124.463 56.9808 124.559 57.3968 124.559ZM61.696 119.087H62.656V119.915L62.8 119.963C63.016 119.611 63.268 119.359 63.556 119.207C63.844 119.047 64.196 118.967 64.612 118.967C65.116 118.967 65.568 119.095 65.968 119.351C66.368 119.607 66.684 119.983 66.916 120.479C67.148 120.967 67.264 121.551 67.264 122.231C67.264 122.943 67.128 123.543 66.856 124.031C66.592 124.519 66.236 124.887 65.788 125.135C65.34 125.375 64.848 125.495 64.312 125.495C64.048 125.495 63.772 125.455 63.484 125.375C63.196 125.303 62.92 125.199 62.656 125.063V127.655H61.696V119.087ZM64.204 124.559C64.596 124.559 64.948 124.475 65.26 124.307C65.572 124.139 65.82 123.879 66.004 123.527C66.188 123.175 66.28 122.743 66.28 122.231C66.28 121.719 66.2 121.291 66.04 120.947C65.88 120.595 65.656 120.335 65.368 120.167C65.088 119.991 64.768 119.903 64.408 119.903C64.008 119.903 63.676 119.991 63.412 120.167C63.148 120.335 62.896 120.591 62.656 120.935V124.127C62.92 124.263 63.18 124.371 63.436 124.451C63.692 124.523 63.948 124.559 64.204 124.559ZM70.4838 125.495C70.0198 125.495 69.5758 125.411 69.1518 125.243C68.7358 125.067 68.3798 124.819 68.0838 124.499L68.7078 123.755C68.9478 124.019 69.2198 124.219 69.5238 124.355C69.8278 124.491 70.1558 124.559 70.5078 124.559C70.9078 124.559 71.2318 124.483 71.4798 124.331C71.7358 124.171 71.8638 123.939 71.8638 123.635C71.8638 123.395 71.7838 123.211 71.6238 123.083C71.4638 122.947 71.1958 122.831 70.8198 122.735L69.8958 122.507C69.4238 122.395 69.0518 122.203 68.7798 121.931C68.5078 121.659 68.3718 121.299 68.3718 120.851C68.3718 120.259 68.5678 119.799 68.9598 119.471C69.3598 119.135 69.8798 118.967 70.5198 118.967C70.9758 118.967 71.3878 119.043 71.7558 119.195C72.1318 119.347 72.4638 119.563 72.7518 119.843L72.1278 120.587C71.9038 120.355 71.6558 120.183 71.3838 120.071C71.1198 119.959 70.8318 119.903 70.5198 119.903C70.1438 119.903 69.8558 119.983 69.6558 120.143C69.4558 120.295 69.3558 120.499 69.3558 120.755C69.3558 120.987 69.4318 121.171 69.5838 121.307C69.7438 121.435 70.0038 121.543 70.3638 121.631L71.1198 121.823C71.6958 121.967 72.1278 122.171 72.4158 122.435C72.7038 122.699 72.8478 123.059 72.8478 123.515C72.8478 124.131 72.6358 124.615 72.2118 124.967C71.7958 125.319 71.2198 125.495 70.4838 125.495Z" fill="#F7F7F8"/>
<g opacity="0.8">
<path d="M0.82 133.375H5.06V134.175H1.68V136.535H4.56V137.315H1.68V140.375H0.82V133.375ZM7.8893 140.475C7.3693 140.475 6.92596 140.362 6.5593 140.135C6.19263 139.908 5.91263 139.592 5.7193 139.185C5.52596 138.772 5.4293 138.295 5.4293 137.755C5.4293 137.215 5.52596 136.742 5.7193 136.335C5.91263 135.922 6.19263 135.602 6.5593 135.375C6.92596 135.148 7.3693 135.035 7.8893 135.035C8.4093 135.035 8.85263 135.148 9.2193 135.375C9.58596 135.602 9.86596 135.922 10.0593 136.335C10.2526 136.742 10.3493 137.215 10.3493 137.755C10.3493 138.295 10.2526 138.772 10.0593 139.185C9.86596 139.592 9.58596 139.908 9.2193 140.135C8.85263 140.362 8.4093 140.475 7.8893 140.475ZM7.8893 139.695C8.23596 139.695 8.53263 139.615 8.7793 139.455C9.02596 139.295 9.21263 139.068 9.3393 138.775C9.46596 138.482 9.5293 138.142 9.5293 137.755C9.5293 137.368 9.46596 137.028 9.3393 136.735C9.21263 136.442 9.02596 136.215 8.7793 136.055C8.53263 135.895 8.23596 135.815 7.8893 135.815C7.54263 135.815 7.24596 135.895 6.9993 136.055C6.75263 136.215 6.56596 136.442 6.4393 136.735C6.31263 137.028 6.2493 137.368 6.2493 137.755C6.2493 138.142 6.31263 138.482 6.4393 138.775C6.56596 139.068 6.75263 139.295 6.9993 139.455C7.24596 139.615 7.54263 139.695 7.8893 139.695ZM11.472 133.275H12.272V140.375H11.472V133.275ZM15.6783 140.475C15.2249 140.475 14.8249 140.375 14.4783 140.175C14.1383 139.968 13.8716 139.668 13.6783 139.275C13.4849 138.882 13.3883 138.408 13.3883 137.855C13.3883 137.242 13.5049 136.725 13.7383 136.305C13.9783 135.878 14.2983 135.562 14.6983 135.355C15.1049 135.142 15.5583 135.035 16.0583 135.035C16.2583 135.035 16.4649 135.058 16.6783 135.105C16.8916 135.145 17.0949 135.202 17.2883 135.275V133.275H18.0883V140.375H17.2883V139.685L17.1683 139.645C16.9949 139.932 16.7816 140.142 16.5283 140.275C16.2749 140.408 15.9916 140.475 15.6783 140.475ZM15.7383 139.695C16.1183 139.695 16.4216 139.625 16.6483 139.485C16.8749 139.345 17.0883 139.128 17.2883 138.835V136.055C17.0883 135.975 16.8883 135.915 16.6883 135.875C16.4949 135.835 16.2816 135.815 16.0483 135.815C15.6549 135.815 15.3183 135.898 15.0383 136.065C14.7649 136.225 14.5583 136.458 14.4183 136.765C14.2783 137.072 14.2083 137.435 14.2083 137.855C14.2083 138.202 14.2716 138.515 14.3983 138.795C14.5316 139.075 14.7149 139.295 14.9483 139.455C15.1816 139.615 15.4449 139.695 15.7383 139.695ZM21.7286 140.475C21.1953 140.475 20.7386 140.362 20.3586 140.135C19.9786 139.908 19.6919 139.592 19.4986 139.185C19.3053 138.778 19.2086 138.302 19.2086 137.755C19.2086 137.215 19.3053 136.742 19.4986 136.335C19.6919 135.922 19.9719 135.602 20.3386 135.375C20.7053 135.148 21.1486 135.035 21.6686 135.035C22.4353 135.035 23.0186 135.282 23.4186 135.775C23.8253 136.262 24.0286 136.922 24.0286 137.755V137.955H19.6586L20.0086 137.675C20.0086 138.315 20.1553 138.812 20.4486 139.165C20.7419 139.518 21.1719 139.695 21.7386 139.695C22.0253 139.695 22.2953 139.645 22.5486 139.545C22.8019 139.438 23.0486 139.278 23.2886 139.065L23.8186 139.675C23.5386 139.942 23.2186 140.142 22.8586 140.275C22.4986 140.408 22.1219 140.475 21.7286 140.475ZM21.6786 135.795C21.2453 135.795 20.8886 135.922 20.6086 136.175C20.3286 136.428 20.1453 136.775 20.0586 137.215H23.1886C23.1153 136.768 22.9519 136.422 22.6986 136.175C22.4453 135.922 22.1053 135.795 21.6786 135.795ZM25.1243 135.135H25.9243V136.005L26.0443 136.045C26.251 135.705 26.4643 135.452 26.6843 135.285C26.9043 135.118 27.201 135.035 27.5743 135.035C27.7476 135.035 27.8876 135.052 27.9943 135.085V135.965C27.8276 135.918 27.6376 135.895 27.4243 135.895C27.0643 135.895 26.761 135.988 26.5143 136.175C26.2743 136.362 26.0776 136.622 25.9243 136.955V140.375H25.1243V135.135Z" fill="#BCBEC8"/>
</g>
</svg>
