<svg width="24" height="24" viewBox="0 0 24 24" fill="none" xmlns="http://www.w3.org/2000/svg">
<g clip-path="url(#clip0_3015_35819)">
<path d="M21 24H24V21L21 24Z" fill="#BCBEC8"/>
<path d="M7.3607 5.99875C6.60942 5.99875 6.00038 6.60779 6.00038 7.35908V8.63899C6.00038 9.39027 6.60942 9.99931 7.3607 9.99931H8.64061C8.77875 9.99931 8.91208 9.97872 9.03769 9.94044C9.14913 9.31831 9.50433 8.7807 10.0009 8.42999V7.35908C10.0009 6.60779 9.3919 5.99875 8.64061 5.99875H7.3607Z" fill="#F9F9F9"/>
<path d="M6.43116 10.4985H9.00063V11.6387C9.00063 12.07 9.11632 12.4743 9.31837 12.8223C8.80692 13.1472 8.44465 13.691 8.36878 14.3317L8.29004 14.9966C8.19672 14.9982 8.10037 14.9991 8.00091 14.9991C5.56785 14.9991 5.00049 14.499 5.00049 14.499L5.36171 11.4487C5.42589 10.9067 5.88538 10.4985 6.43116 10.4985Z" fill="#F9F9F9"/>
<path d="M16.6365 5.99875C17.3877 5.99875 17.9968 6.60779 17.9968 7.35908V8.63899C17.9968 9.39027 17.3877 9.99931 16.6365 9.99931H15.3565C15.2196 9.99931 15.0874 9.97907 14.9627 9.94142C14.8512 9.3176 14.4947 8.77869 13.9962 8.42785V7.35908C13.9962 6.60779 14.6053 5.99875 15.3565 5.99875H16.6365Z" fill="#F9F9F9"/>
<path d="M17.566 10.4985H14.9996V11.6387C14.9996 12.07 14.8839 12.4743 14.6818 12.8223C15.1933 13.1472 15.5555 13.691 15.6314 14.3317L15.7102 14.9967C15.8025 14.9983 15.8979 14.9991 15.9963 14.9991C18.4293 14.9991 18.9967 14.499 18.9967 14.499L18.6355 11.4487C18.5713 10.9067 18.1118 10.4985 17.566 10.4985Z" fill="#F9F9F9"/>
<path fill-rule="evenodd" clip-rule="evenodd" d="M9.00242 17.4992L9.36363 14.449C9.42782 13.907 9.88731 13.4987 10.4331 13.4987H13.5726C14.1184 13.4987 14.5779 13.907 14.642 14.449L15.0033 17.4992C15.0033 17.4992 14.4359 17.9993 12.0028 17.9993C9.56978 17.9993 9.00242 17.4992 9.00242 17.4992ZM13.9184 16.8417C13.543 16.9213 12.936 16.9993 12.0028 16.9993C11.0697 16.9993 10.4626 16.9213 10.0873 16.8417L10.3567 14.5666C10.3613 14.5278 10.3941 14.4987 10.4331 14.4987H13.5726C13.6116 14.4987 13.6444 14.5278 13.649 14.5666L13.9184 16.8417Z" fill="#F9F9F9"/>
<path fill-rule="evenodd" clip-rule="evenodd" d="M10.0023 10.3593C10.0023 9.60802 10.6113 8.99898 11.3626 8.99898H12.6425C13.3938 8.99898 14.0029 9.60802 14.0029 10.3593V11.6392C14.0029 12.3905 13.3938 12.9995 12.6425 12.9995H11.3626C10.6113 12.9995 10.0023 12.3905 10.0023 11.6392V10.3593ZM11.0023 11.6392V10.3593C11.0023 10.1603 11.1636 9.99898 11.3626 9.99898H12.6425C12.8415 9.99898 13.0029 10.1603 13.0029 10.3593V11.6392C13.0029 11.8382 12.8415 11.9995 12.6425 11.9995H11.3626C11.1636 11.9995 11.0023 11.8382 11.0023 11.6392Z" fill="#F9F9F9"/>
</g>
<defs>
<clipPath id="clip0_3015_35819">
<path d="M0 4C0 1.79086 1.79086 0 4 0H20C22.2091 0 24 1.79086 24 4V24H4C1.79086 24 0 22.2091 0 20V4Z" fill="white"/>
</clipPath>
</defs>
</svg>
