<svg width="16" height="16" viewBox="0 0 16 16" fill="none" xmlns="http://www.w3.org/2000/svg">
<path d="M12.6667 2H3.33333C2.6 2 2 2.6 2 3.33333V12.6667C2 13.4 2.59333 14 3.33333 14H12.6667C13.4 14 14 13.4 14 12.6667V3.33333C14 2.6 13.4 2 12.6667 2ZM12.6667 12.6667H3.33333V10.6667H5.70667C6.16667 11.46 7.02 12 8.00667 12C8.99333 12 9.84 11.46 10.3067 10.6667H12.6667V12.6667ZM12.6667 9.33333H9.34C9.34 10.0667 8.74 10.6667 8.00667 10.6667C7.27333 10.6667 6.67333 10.0667 6.67333 9.33333H3.33333V3.33333H12.6667V9.33333Z" fill="#F7F7F8"/>
</svg>
