<svg width="14" height="14" viewBox="0 0 14 14" fill="none" xmlns="http://www.w3.org/2000/svg">
<path d="M12.4916 5.61484C12.4916 6.02905 12.8274 6.36484 13.2416 6.36484C13.6558 6.36484 13.9916 6.02905 13.9916 5.61484V1C13.9916 0.447716 13.5439 6.04152e-07 12.9916 4.94372e-07L8.37677 0C7.96255 3.02258e-07 7.62677 0.335787 7.62677 0.75C7.62677 1.16421 7.96255 1.5 8.37677 1.5L11.4311 1.5L7.99141 4.93973C7.69852 5.23262 7.69852 5.70749 7.99141 6.00039C8.2843 6.29328 8.75918 6.29328 9.05207 6.00039L12.4916 2.56085V5.61484Z" fill="#BCBEC8"/>
<path d="M1.5 11.4389L4.93954 7.99931C5.23243 7.70642 5.7073 7.70642 6.0002 7.99931C6.29309 8.29221 6.29309 8.76708 6.0002 9.05997L2.5613 12.4989H5.61484C6.02905 12.4989 6.36484 12.8347 6.36484 13.2489C6.36484 13.6631 6.02905 13.9989 5.61484 13.9989H1C0.447715 13.9989 -2.10712e-08 13.5512 0 12.9989L1.47498e-07 8.38403C1.05356e-07 7.96982 0.335787 7.63403 0.75 7.63403C1.16421 7.63403 1.5 7.96982 1.5 8.38403L1.5 11.4389Z" fill="#BCBEC8"/>
</svg>
