<svg width="16" height="16" viewBox="0 0 16 16" fill="none" xmlns="http://www.w3.org/2000/svg">
<path d="M13.6564 3.75049C14.433 3.75056 15.0626 4.38013 15.0626 5.15674V7.21436L10.6134 6.04834C9.84002 5.84572 9.04441 6.29482 8.83704 7.05127L7.46106 12.0737C7.3601 12.4425 7.41899 12.8156 7.59387 13.1255H3.34387C2.56731 13.1255 1.93777 12.4958 1.93762 11.7192V5.62549H7.2052C7.81697 5.62549 8.39046 5.32682 8.74133 4.82568L9.49426 3.75049H13.6564Z" fill="#FFDA94"/>
<path d="M10.7023 13.1255H10.6993L8.81067 12.6304L8.80969 12.6294L10.7023 13.1255Z" fill="#FFDA94"/>
<path d="M6.78821 1.87549C7.19954 1.87559 7.59044 2.05583 7.85754 2.36865L8.6593 3.30811L7.97375 4.2876C7.79832 4.53822 7.51112 4.68799 7.2052 4.68799H1.93762V3.75049C1.93762 2.71495 2.77709 1.87549 3.81262 1.87549H6.78821Z" fill="#FFDA94"/>
<path d="M15.7319 8.64554L14.2128 14.3148L8.54355 12.7957L10.0626 7.12646L15.7319 8.64554ZM10.6869 11.5583L12.9753 12.1715L13.5885 9.883L11.3001 9.26981L10.6869 11.5583Z" fill="white"/>
</svg>
