<svg width="16" height="16" viewBox="0 0 16 16" fill="none" xmlns="http://www.w3.org/2000/svg">
<path fill-rule="evenodd" clip-rule="evenodd" d="M7.30166 1.21023C7.76574 0.942292 8.33752 0.942292 8.80161 1.21023L13.5579 3.95627C14.022 4.22421 14.3079 4.71938 14.3079 5.25527V10.7473C14.3079 11.2832 14.022 11.7784 13.5579 12.0463L8.80161 14.7924C8.33752 15.0603 7.76574 15.0603 7.30166 14.7924L2.54539 12.0463C2.0813 11.7784 1.79541 11.2832 1.79541 10.7473V5.25527C1.79541 4.71938 2.0813 4.22421 2.54539 3.95627L7.30166 1.21023ZM11.9945 6.56299C12.3056 6.28952 12.3361 5.81564 12.0626 5.50455C11.7891 5.19347 11.3153 5.16299 11.0042 5.43647L6.94949 9.00102L5.49472 7.72211C5.18364 7.44863 4.70976 7.47912 4.43628 7.7902C4.16281 8.10128 4.19329 8.57516 4.50437 8.84864L6.21851 10.3556C6.63655 10.7231 7.26243 10.7231 7.68046 10.3556L11.9945 6.56299Z" fill="#F9F9F9"/>
</svg>
