<svg width="16" height="16" viewBox="0 0 16 16" fill="none" xmlns="http://www.w3.org/2000/svg">
<path d="M2.5 1.5C1.94772 1.5 1.5 1.94772 1.5 2.5V13.5C1.5 14.0523 1.94772 14.5 2.5 14.5H13.5C14.0523 14.5 14.5 14.0523 14.5 13.5V2.5C14.5 1.94772 14.0523 1.5 13.5 1.5H2.5ZM5.5 2.5V5.5H2.5V2.5H5.5ZM6.5 2.5H9.5V5.5H6.5V2.5ZM10.5 2.5H13.5V5.5H10.5V2.5ZM10.5 6.5H13.5V9.5H10.5V6.5ZM13.5 10.5V13.5H10.5V10.5H13.5ZM9.5 13.5H6.5V10.5L9.5 10.5V13.5ZM5.5 13.5H2.5V10.5H5.5V13.5ZM2.5 9.5V6.5H5.5V9.5H2.5ZM9.5 6.5V9.5L6.5 9.5V6.5H9.5Z" fill="#F7F7F8"/>
</svg>
