<svg width="16" height="16" viewBox="0 0 16 16" fill="none" xmlns="http://www.w3.org/2000/svg">
<path d="M15 8C15 11.866 11.866 15 8 15C4.86963 15 2.22116 12.9448 1.32617 10.1104C1.22854 9.80111 1.47072 9.5003 1.79492 9.5C2.02671 9.5 2.22714 9.65785 2.2998 9.87793C3.08811 12.2717 5.34232 14 8 14C11.3137 14 14 11.3137 14 8C14 4.68629 11.3137 2 8 2C5.57846 2 3.4929 3.43532 2.54492 5.50098L4.625 5.50098C4.90085 5.50117 5.1248 5.72512 5.125 6.00098C5.12453 6.27661 4.9007 6.5008 4.625 6.50098L1.75 6.50098C1.33608 6.50096 1.00045 6.1648 1 5.75098L1 2.50098C1 2.22483 1.22386 2.00098 1.5 2.00098C1.77614 2.00098 2 2.22483 2 2.50098L2 4.39551C3.22387 2.36096 5.45248 1 8 1C11.866 1 15 4.13401 15 8Z" fill="#F9F9F9"/>
<path d="M8 5V8.5H10.5" stroke="#F9F9F9" stroke-linecap="round" stroke-linejoin="round"/>
</svg>
