<svg width="24" height="24" viewBox="0 0 24 24" fill="none" xmlns="http://www.w3.org/2000/svg">
<g clip-path="url(#clip0_3015_35845)">
<g clip-path="url(#clip1_3015_35845)">
<path fill-rule="evenodd" clip-rule="evenodd" d="M15.7744 19.148C15.9696 19.3433 15.9696 19.6599 15.7744 19.8551C15.5791 20.0504 15.2625 20.0504 15.0673 19.8551L13.2431 18.031C12.9502 17.7381 12.9502 17.2632 13.2431 16.9703L15.0673 15.1462C15.2625 14.9509 15.5791 14.9509 15.7744 15.1462C15.9696 15.3414 15.9696 15.658 15.7744 15.8532L14.6309 16.9967L19.4928 16.9967C19.7689 16.9967 19.9928 17.2206 19.9928 17.4967C19.9928 17.7729 19.7689 17.9967 19.4928 17.9967L14.6231 17.9967L15.7744 19.148Z" fill="#F9F9F9"/>
<path fill-rule="evenodd" clip-rule="evenodd" d="M18.9997 11.9997C18.9997 8.13382 15.8658 4.99988 11.9999 4.99988C8.13394 4.99988 5 8.13382 5 11.9997C5 15.7399 8.04884 18.7971 11.748 18.992C11.9941 19.005 12.1331 19.0262 12.0529 18.7932C11.9005 18.3504 11.5326 17.8253 11.1797 17.5176C10.9018 17.2754 10.6111 16.9416 10.3967 16.5069C10.1509 16.0089 9.94364 15.4095 9.79046 14.7335C12.6795 15.2981 15.3334 14.8349 17.8474 13.3489C17.7733 13.6715 18.0122 13.9997 18.3431 13.9997C18.5585 13.9997 18.7537 13.8585 18.8043 13.6492C18.932 13.1203 18.9997 12.5679 18.9997 11.9997ZM9.49991 11.9997C9.49991 12.5831 9.53645 13.143 9.60397 13.6708C11.1786 14.0393 12.8201 14.0395 14.3958 13.6704C14.4633 13.1427 14.4998 12.5829 14.4998 11.9997C14.4998 11.4473 14.467 10.9159 14.4062 10.4129C12.8225 10.7739 11.1764 10.7738 9.59345 10.4132C9.53266 10.9161 9.49991 11.4474 9.49991 11.9997ZM17.9714 12.0843C17.9806 12.0782 17.9899 12.0724 17.9994 12.0669C17.9996 12.0446 17.9997 12.0222 17.9997 11.9997C17.9997 11.0174 17.7636 10.0901 17.3451 9.27169C16.7136 9.63034 16.0551 9.92062 15.3799 10.1426C15.4583 10.734 15.4998 11.3568 15.4998 11.9997C15.4998 12.4685 15.4777 12.9265 15.4354 13.3695C16.2732 13.0793 17.0827 12.6797 17.8426 12.1706L17.9714 12.0843ZM6.03404 12.0883C6.82883 12.6369 7.68067 13.0643 8.56437 13.3702C8.52201 12.927 8.49993 12.4687 8.49993 11.9997C8.49993 11.3569 8.54141 10.7343 8.61976 10.1429C7.9443 9.92097 7.28572 9.6307 6.65436 9.27219C6.23598 10.0905 5.99998 11.0176 5.99998 11.9997C5.99998 12.0222 6.0001 12.0445 6.00035 12.0669C6.01176 12.0735 6.023 12.0806 6.03404 12.0883ZM8.71608 14.4692C7.82984 14.2054 6.96852 13.8324 6.1526 13.3503C6.60485 15.3163 8.02308 16.9132 9.88081 17.6147C9.35192 16.8211 8.94682 15.7321 8.71608 14.4692ZM14.2438 9.42413C12.768 9.77025 11.2309 9.77012 9.75587 9.42436C9.91177 8.68342 10.1319 8.02916 10.3967 7.49254C10.963 6.34478 11.5776 5.99986 11.9999 5.99986C12.4221 5.99986 13.0367 6.34478 13.603 7.49254C13.8678 8.0291 14.0879 8.68328 14.2438 9.42413ZM16.8166 8.42175C16.2976 8.71375 15.7587 8.95504 15.2068 9.14566C14.9681 8.04613 14.5933 7.09662 14.1189 6.38478C15.2025 6.79393 16.1365 7.50775 16.8166 8.42175ZM8.79279 9.14602C9.0315 8.04634 9.40634 7.0967 9.88081 6.38478C8.79705 6.794 7.86286 7.50798 7.18278 8.4222C7.70173 8.71411 8.24071 8.9554 8.79279 9.14602Z" fill="#F9F9F9"/>
</g>
</g>
<defs>
<clipPath id="clip0_3015_35845">
<path d="M0 4C0 1.79086 1.79086 0 4 0H20C22.2091 0 24 1.79086 24 4V20C24 22.2091 22.2091 24 20 24H4C1.79086 24 0 22.2091 0 20V4Z" fill="white"/>
</clipPath>
<clipPath id="clip1_3015_35845">
<rect width="16" height="16" fill="white" transform="translate(4 4)"/>
</clipPath>
</defs>
</svg>
