<svg width="24" height="12" viewBox="0 0 24 12" fill="none" xmlns="http://www.w3.org/2000/svg">
<circle cx="7" cy="6" r="5" stroke="#D0D9FB" stroke-opacity="0.08"/>
<path d="M11.5 6C11.5 6.27614 11.7239 6.5 12 6.5C12.2761 6.5 12.5 6.27614 12.5 6L12 6L11.5 6ZM7 1V1.5C7.59095 1.5 8.17611 1.6164 8.72208 1.84254L8.91342 1.3806L9.10476 0.918663C8.43747 0.642262 7.72227 0.5 7 0.5V1ZM8.91342 1.3806L8.72208 1.84254C9.26804 2.06869 9.76412 2.40016 10.182 2.81802L10.5355 2.46447L10.8891 2.11091C10.3784 1.60019 9.77205 1.19506 9.10476 0.918663L8.91342 1.3806ZM10.5355 2.46447L10.182 2.81802C10.5998 3.23588 10.9313 3.73196 11.1575 4.27792L11.6194 4.08658L12.0813 3.89524C11.8049 3.22795 11.3998 2.62164 10.8891 2.11091L10.5355 2.46447ZM11.6194 4.08658L11.1575 4.27792C11.3836 4.82389 11.5 5.40905 11.5 6L12 6L12.5 6C12.5 5.27773 12.3577 4.56253 12.0813 3.89524L11.6194 4.08658Z" fill="#F7F7F8"/>
<path d="M15.6611 9.096L18.1811 6.732C18.5651 6.364 18.8531 6.076 19.0451 5.868C19.2371 5.66 19.3851 5.452 19.4891 5.244C19.6011 5.028 19.6571 4.796 19.6571 4.548C19.6571 4.156 19.5291 3.86 19.2731 3.66C19.0251 3.46 18.7051 3.36 18.3131 3.36C17.9291 3.36 17.5971 3.44 17.3171 3.6C17.0451 3.76 16.7571 4.036 16.4531 4.428L15.4331 3.624C15.7531 3.128 16.1571 2.732 16.6451 2.436C17.1411 2.132 17.7211 1.98 18.3851 1.98C18.9451 1.98 19.4291 2.084 19.8371 2.292C20.2531 2.5 20.5731 2.788 20.7971 3.156C21.0211 3.524 21.1331 3.94 21.1331 4.404C21.1331 4.764 21.0611 5.104 20.9171 5.424C20.7811 5.744 20.5891 6.056 20.3411 6.36C20.0931 6.656 19.7611 7.004 19.3451 7.404L18.9971 7.74L17.7491 8.94V9.12H21.3731V10.5H15.6611V9.096Z" fill="#F7F7F8"/>
</svg>
