<svg width="32" height="32" viewBox="0 0 32 32" fill="none" xmlns="http://www.w3.org/2000/svg">
<path d="M22 6L22.2061 6.00488C24.3194 6.11211 26 7.85996 26 10L25.9951 10.2061C25.8879 12.3194 24.14 14 22 14H20V18H22C24.14 18 25.8879 19.6806 25.9951 21.7939L26 22C26 24.14 24.3194 25.8879 22.2061 25.9951L22 26C19.86 26 18.1121 24.3194 18.0049 22.2061L18 22V20H14V22L13.9951 22.2061C13.8879 24.3194 12.14 26 10 26L9.79395 25.9951C7.68056 25.8879 6 24.14 6 22L6.00488 21.7939C6.11211 19.6806 7.85996 18 10 18H12V14H10C7.85996 14 6.11211 12.3194 6.00488 10.2061L6 10C6 7.85996 7.68056 6.11211 9.79395 6.00488L10 6C12.14 6 13.8879 7.68056 13.9951 9.79395L14 10V12H18V10L18.0049 9.79395C18.1121 7.68056 19.86 6 22 6ZM10 20C8.89543 20 8 20.8954 8 22C8 23.1046 8.89543 24 10 24C11.1046 24 12 23.1046 12 22V20H10ZM20 22C20 23.1046 20.8954 24 22 24C23.1046 24 24 23.1046 24 22C24 20.8954 23.1046 20 22 20H20V22ZM14 18H18V14H14V18ZM10 8C8.89543 8 8 8.89543 8 10C8 11.1046 8.89543 12 10 12H12V10C12 8.89543 11.1046 8 10 8ZM22 8C20.8954 8 20 8.89543 20 10V12H22C23.1046 12 24 11.1046 24 10C24 8.89543 23.1046 8 22 8Z" fill="#F7F7F8"/>
</svg>
