<svg width="16" height="16" viewBox="0 0 16 16" fill="none" xmlns="http://www.w3.org/2000/svg">
<path fill-rule="evenodd" clip-rule="evenodd" d="M2.54698 2.69515C5.95325 0.894627 10.0344 0.9176 13.4202 2.75635C13.7679 2.94517 13.9844 3.30908 13.9844 3.70472V5.39914C13.9844 6.028 13.6352 6.60485 13.078 6.89643C11.7583 7.58708 10.865 8.88526 10.6917 10.3647L10.5234 11.8002C10.5101 11.9143 10.4135 12.0002 10.2986 12.0002H5.76428C5.64813 12.0002 5.54928 11.9156 5.53135 11.8009L5.30654 10.3621C5.07471 8.87839 4.14616 7.59555 2.80916 6.91182C2.22139 6.61124 1.85156 6.00672 1.85156 5.34657V3.72597C1.85156 3.31798 2.07722 2.94345 2.43792 2.75279L2.54698 2.69515ZM12.4844 3.95855V5.06274H3.35156V3.96728C6.21912 2.49394 9.61881 2.49303 12.4844 3.95855Z" fill="#F3BA2B"/>
<path d="M8.9375 13.0002L8.9375 13.4807H7.03125V13.0002H5.53125V13.4807C5.53125 14.3092 6.20282 14.9807 7.03125 14.9807H8.9375C9.76593 14.9807 10.4375 14.3092 10.4375 13.4807L10.4375 13.0002L8.9375 13.0002Z" fill="#F3BA2B"/>
</svg>
