<svg width="16" height="16" viewBox="0 0 16 16" fill="none" xmlns="http://www.w3.org/2000/svg">
<path d="M2.90479 10.5161C3.40529 10.5161 3.7168 10.7822 3.7168 11.1602C3.71678 11.3876 3.58718 11.5834 3.3877 11.6919V11.7446C3.58718 11.8041 3.79732 11.9826 3.79736 12.2905C3.79736 12.7175 3.45762 13.0361 2.91162 13.0361C2.47075 13.0361 2.15568 12.8366 2.01221 12.5986L2.33789 12.2837C2.48138 12.4761 2.6389 12.5742 2.90137 12.5742C3.16736 12.5742 3.30713 12.4409 3.30713 12.2554C3.307 12.0316 3.12521 11.9546 2.90479 11.9546H2.62158V11.5137H2.88721C3.09366 11.5137 3.21284 11.4157 3.21289 11.2407C3.21289 11.0622 3.07263 10.978 2.89063 10.978C2.72271 10.9781 2.55847 11.0624 2.39404 11.2583L2.07178 10.9429C2.22231 10.7224 2.57237 10.5161 2.90479 10.5161Z" fill="#D5D7DD"/>
<path d="M13.5 11.501C13.7761 11.501 14 11.7248 14 12.001C14 12.2771 13.7761 12.501 13.5 12.501H6.5C6.22386 12.501 6 12.2771 6 12.001C6 11.7248 6.22386 11.501 6.5 11.501H13.5Z" fill="#D5D7DD"/>
<path d="M2.89453 6.51611C3.41243 6.51618 3.7168 6.83827 3.7168 7.21973C3.71674 7.59417 3.44388 7.86382 3.08691 8.19629L2.77881 8.48291V8.53906H3.78662V9.00098H2.0791V8.53223L2.84863 7.82861C3.08309 7.61515 3.22309 7.46117 3.22314 7.28272C3.22314 7.07272 3.05179 6.97803 2.86279 6.97803C2.64234 6.97805 2.51621 7.06216 2.34473 7.26514L2.00195 6.99561C2.17346 6.72963 2.47456 6.51611 2.89453 6.51611Z" fill="#D5D7DD"/>
<path d="M13.5 7.50098C13.7761 7.50098 14 7.72483 14 8.00098C14 8.27712 13.7761 8.50098 13.5 8.50098H6.5C6.22386 8.50098 6 8.27712 6 8.00098C6 7.72483 6.22386 7.50098 6.5 7.50098H13.5Z" fill="#D5D7DD"/>
<path d="M3.04492 5.00098H2.56543V3.07227H2.50928L2.00879 3.35205V2.85889L2.56543 2.55078H3.04492V5.00098Z" fill="#D5D7DD"/>
<path d="M13.5 3.50098C13.7761 3.50098 14 3.72483 14 4.00098C14 4.27712 13.7761 4.50098 13.5 4.50098H6.5C6.22386 4.50098 6 4.27712 6 4.00098C6 3.72483 6.22386 3.50098 6.5 3.50098H13.5Z" fill="#D5D7DD"/>
</svg>
