<svg width="16" height="16" viewBox="0 0 16 16" fill="none" xmlns="http://www.w3.org/2000/svg">
<path fill-rule="evenodd" clip-rule="evenodd" d="M2.25949 3.99313C3.52495 2.18352 5.62426 1 8 1C11.866 1 15 4.13401 15 8C15 11.866 11.866 15 8 15C4.13401 15 1 11.866 1 8C1 6.58826 1.41792 5.27412 2.13678 4.17456C2.16846 4.10877 2.20971 4.04753 2.25949 3.99313ZM4.74929 10.4549C4.96359 11.4601 5.30761 12.3395 5.74825 13.0194C4.2504 12.3464 3.1083 11.0227 2.68192 9.40818C3.33549 9.84629 4.03018 10.1952 4.74929 10.4549ZM6.41244 10.8901C6.53095 11.2657 6.67041 11.6021 6.82462 11.8924C7.3348 12.8525 7.80811 13 8 13C8.19189 13 8.6652 12.8525 9.17538 11.8924C9.33029 11.6008 9.47032 11.2626 9.58918 10.885C8.53799 11.0642 7.46351 11.0658 6.41244 10.8901ZM9.92525 9.28322C8.66174 9.59749 7.33906 9.59964 6.07563 9.29054C6.02662 8.88214 6 8.45033 6 8C6 7.69101 6.01253 7.39074 6.03623 7.10077C7.32972 7.37993 8.66972 7.37862 9.96341 7.09636C9.98734 7.3877 10 7.68944 10 8C10 8.44764 9.97369 8.87698 9.92525 9.28322ZM4.52124 8.73519C4.09746 8.53235 3.68744 8.29025 3.29651 8.00895L3.16442 7.9139C2.88086 7.70986 2.67436 7.41788 2.57575 7.08512C2.64939 6.64524 2.77525 6.22306 2.94673 5.82515C2.99409 5.85721 3.0428 5.88752 3.09279 5.916L3.40861 6.09589C3.78605 6.31089 4.17489 6.49733 4.57211 6.65521C4.52474 7.08911 4.5 7.53895 4.5 8C4.5 8.24857 4.50719 8.49388 4.52124 8.73519ZM9.72751 5.61203C8.59046 5.87337 7.40833 5.87471 6.2714 5.61651C6.41351 5.03284 6.60396 4.52294 6.82462 4.10763C7.3348 3.14746 7.80811 3 8 3C8.19189 3 8.6652 3.14746 9.17538 4.10763C9.39548 4.52187 9.58552 5.03023 9.72751 5.61203ZM4.84376 5.14251C4.60858 5.0381 4.37736 4.92143 4.15104 4.79251L3.83522 4.61262C3.79664 4.59064 3.7604 4.56531 3.72684 4.53705C4.26626 3.87223 4.95771 3.33577 5.74825 2.98058C5.36749 3.56807 5.05887 4.3046 4.84376 5.14251Z" fill="#F9F9F9"/>
</svg>
