<svg width="16" height="16" viewBox="0 0 16 16" fill="none" xmlns="http://www.w3.org/2000/svg">
<path d="M8.36532 1.08427C8.13936 0.959018 7.86484 0.958881 7.63876 1.08391L4.89095 2.60348C4.65214 2.73555 4.50391 2.98691 4.50391 3.25981V6.24438C4.50391 6.30913 4.51225 6.37267 4.52817 6.4337L7.5 8.14948V5.43494C7.5 4.98851 7.73809 4.57596 8.12465 4.35262L11.129 2.61675C11.1214 2.61215 11.1136 2.60768 11.1058 2.60334L8.36532 1.08427Z" fill="#5581FC"/>
<path d="M11.4922 3.56181L8.62493 5.21848C8.54762 5.26315 8.5 5.34566 8.5 5.43494V8.15171L11.4667 6.4389C11.4834 6.37644 11.4922 6.3113 11.4922 6.24488V3.56181Z" fill="#5581FC"/>
<path d="M4.14462 7.49395C4.18497 7.47163 4.22687 7.45331 4.26976 7.43896L7.32752 9.20436L4.63051 10.7627C4.24395 10.986 4.00586 11.3986 4.00586 11.845V14.7536L1.39681 13.3107C1.158 13.1787 1.00977 12.9273 1.00977 12.6544V9.66985C1.00977 9.39695 1.158 9.14559 1.39681 9.01353L4.14462 7.49395Z" fill="#E8457E"/>
<path d="M7.5 10.2596L5.13079 11.6285C5.05348 11.6732 5.00586 11.7557 5.00586 11.845V14.7553L7.5 13.3728V10.2596Z" fill="#E8457E"/>
<path d="M8.5 9.30601V13.373L10.9961 14.7534V11.8448C10.9961 11.3984 11.2342 10.9858 11.6207 10.7625L14.6251 9.02662C14.6175 9.02203 14.6097 9.01756 14.6019 9.01322L11.8614 7.49415C11.8206 7.4715 11.7781 7.45294 11.7347 7.43848L8.5 9.30601Z" fill="#F3BA2B"/>
<path d="M14.9883 9.97169L12.121 11.6284C12.0437 11.673 11.9961 11.7555 11.9961 11.8448V14.7551L14.6019 13.3107C14.8403 13.1785 14.9883 12.9274 14.9883 12.6548V9.97169Z" fill="#F3BA2B"/>
</svg>
