<svg width="16" height="16" viewBox="0 0 16 16" fill="none" xmlns="http://www.w3.org/2000/svg">
<path d="M1.76638 4.98643C1.7505 5.07395 1.74219 5.16349 1.74219 5.25426V10.7513C1.74219 11.2872 2.02809 11.7824 2.49219 12.0503L7.25275 14.7988C7.33333 14.8454 7.41716 14.8838 7.50311 14.9142L7.5031 8.2955L1.76638 4.98643Z" fill="#5581FC"/>
<path d="M8.75275 14.7988C8.67239 14.8452 8.58881 14.8836 8.50311 14.9139V13.2109L12.7633 10.7513L12.7633 5.83082L14.2375 4.97705C14.2545 5.06753 14.2633 5.16027 14.2633 5.25426V10.7513C14.2633 11.2872 13.9774 11.7824 13.5133 12.0503L8.75275 14.7988Z" fill="#5581FC"/>
<path d="M13.5144 3.95533C13.5939 4.00124 13.6682 4.05383 13.7367 4.11214L8.0063 7.43087L2.26367 4.11838C2.33418 4.05759 2.41083 4.00287 2.49316 3.95533L7.25372 1.20682C7.48579 1.07284 7.74479 1.00585 8.00378 1.00586C8.26278 1.00585 8.52177 1.07284 8.75384 1.20682L13.5144 3.95533Z" fill="#5581FC"/>
</svg>
