<svg width="16" height="16" viewBox="0 0 16 16" fill="none" xmlns="http://www.w3.org/2000/svg">
<path d="M2.85888 7.07683C2.92186 6.84178 3.16346 6.70229 3.39851 6.76528L4.67528 7.10738C4.91032 7.17037 5.04981 7.41196 4.98683 7.64701L4.64472 8.92378C4.58174 9.15883 4.34014 9.29832 4.10509 9.23534L2.82832 8.89323C2.59328 8.83024 2.45379 8.58865 2.51677 8.3536L2.85888 7.07683Z" fill="#F9F9F9"/>
<path d="M7.23388 7.07683C7.29686 6.84178 7.53846 6.70229 7.77351 6.76528L9.05028 7.10738C9.28532 7.17037 9.42481 7.41196 9.36183 7.64701L9.01972 8.92378C8.95674 9.15883 8.71514 9.29832 8.48009 9.23534L7.20332 8.89323C6.96828 8.83024 6.82879 8.58865 6.89177 8.3536L7.23388 7.07683Z" fill="#F9F9F9"/>
<path d="M12.1485 6.76528C11.9135 6.70229 11.6719 6.84178 11.6089 7.07683L11.2668 8.3536C11.2038 8.58865 11.3433 8.83024 11.5783 8.89323L12.8551 9.23534C13.0901 9.29832 13.3317 9.15883 13.3947 8.92378L13.7368 7.64701C13.7998 7.41196 13.6603 7.17037 13.4253 7.10738L12.1485 6.76528Z" fill="#F9F9F9"/>
</svg>
