<svg width="16" height="16" viewBox="0 0 16 16" fill="none" xmlns="http://www.w3.org/2000/svg">
<mask id="mask0_1007_32861" style="mask-type:alpha" maskUnits="userSpaceOnUse" x="0" y="0" width="16" height="16">
<path d="M9.35251 2.63145C11.3722 1.43512 13.1398 1.0822 13.9565 1.88682C15.2647 3.17694 13.6362 6.95054 10.3188 10.3146L10.0063 10.6251C9.60666 11.0147 9.20115 11.3786 8.79636 11.7164C9.57412 12.262 10.3229 12.6885 11.0005 12.9811C11.6959 13.2813 12.2667 13.4194 12.687 13.4342C13.1056 13.4488 13.2682 13.3419 13.3281 13.2814C13.3878 13.2206 13.4926 13.0562 13.4721 12.6378C13.4515 12.2178 13.3054 11.6487 12.9956 10.9576C12.8456 10.6232 12.6622 10.2715 12.4477 9.90782C12.3367 9.7194 12.352 9.48051 12.4922 9.3126C12.7093 9.05264 13.1165 9.07616 13.2895 9.36729C14.4915 11.3921 14.847 13.1653 14.0405 13.9835C12.7503 15.2916 8.97724 13.6627 5.61325 10.3453L5.30222 10.0328C5.01029 9.73334 4.73264 9.43076 4.4697 9.12754L4.2114 8.82383C3.66517 9.60227 3.23806 10.3518 2.94528 11.0299C2.64505 11.7254 2.5069 12.2966 2.49216 12.7169C2.47757 13.1348 2.58392 13.2975 2.6445 13.3575C2.705 13.4172 2.86969 13.522 3.28855 13.5016C3.70859 13.4809 4.27765 13.3353 4.96872 13.0255C5.30165 12.8762 5.65139 12.6935 6.01316 12.4801C6.20127 12.3692 6.43968 12.3846 6.60739 12.5245C6.86742 12.7415 6.84395 13.1486 6.55271 13.3214C4.53007 14.521 2.75973 14.876 1.94236 14.0699L1.88376 14.0074C0.686284 12.6616 2.31602 8.95403 5.58152 5.64268C6.08249 5.13469 6.59309 4.6646 7.10398 4.2379C6.32536 3.6916 5.5756 3.26456 4.89743 2.97178C4.28881 2.70905 3.77538 2.57077 3.37497 2.53038L3.21042 2.51866C2.79222 2.50409 2.62969 2.61095 2.5698 2.67149C2.51014 2.73204 2.40583 2.89611 2.42624 3.31456C2.4468 3.73457 2.59248 4.30357 2.90232 4.99473C3.06848 5.36533 3.27594 5.75711 3.52146 6.1627C3.66089 6.39314 3.60389 6.69402 3.38376 6.84922C3.15254 7.01216 2.83149 6.95176 2.68454 6.71006C1.4223 4.63328 1.03454 2.80425 1.85788 1.96934L1.91989 1.91075C3.26551 0.712913 6.97409 2.34186 10.2856 5.60752C10.7936 6.10852 11.2628 6.62 11.6894 7.13096C12.235 6.35316 12.662 5.60442 12.9546 4.92686C13.2547 4.23153 13.3925 3.66059 13.4072 3.24034C13.4218 2.82146 13.3149 2.6589 13.2544 2.59922C13.1936 2.53951 13.0299 2.43524 12.6118 2.45567C12.1917 2.47623 11.6229 2.62233 10.9316 2.93223C10.6004 3.08073 10.252 3.26148 9.89206 3.47325C9.70367 3.5841 9.46517 3.56885 9.29734 3.42881C9.03721 3.21155 9.06095 2.80428 9.35251 2.63145ZM7.92819 4.85411C7.38425 5.29729 6.83424 5.79595 6.29294 6.34483C5.75213 6.89325 5.26235 7.45002 4.82712 7.99961C5.26954 8.54314 5.76718 9.09276 6.3154 9.6334C6.86457 10.175 7.42231 10.665 7.97263 11.1007C8.516 10.658 9.06573 10.1607 9.60642 9.61241C10.1477 9.0635 10.6377 8.50573 11.0732 7.95567C10.6301 7.41163 10.1319 6.8613 9.58298 6.31993C9.03457 5.77911 8.47782 5.28933 7.92819 4.85411Z" fill="#F7F7F8"/>
</mask>
<g mask="url(#mask0_1007_32861)">
<rect width="16" height="16" fill="#F7F7F8"/>
</g>
</svg>
