<svg width="16" height="16" viewBox="0 0 16 16" fill="none" xmlns="http://www.w3.org/2000/svg">
<path d="M2.25 2.40234C2.25 1.57392 2.92157 0.902344 3.75 0.902344H4.75C5.50411 0.902344 6.12824 1.45883 6.23416 2.18354C5.49565 2.61802 5 3.42105 5 4.33984V4.8816C4.9187 4.89524 4.83518 4.90234 4.75 4.90234H3.75C2.92157 4.90234 2.25 4.23077 2.25 3.40234V2.40234Z" fill="#F87935"/>
<path d="M5.07876 5.96484H3.24219C1.99955 5.96484 0.992188 6.9722 0.992188 8.21484V12.4648H3.74219V10.9648H2.49219V8.21484C2.49219 7.80063 2.82797 7.46484 3.24219 7.46484H5.1641C5.35179 7.33693 5.55357 7.22816 5.76663 7.14135C5.43816 6.82523 5.19595 6.42014 5.07876 5.96484Z" fill="#F87935"/>
<path d="M12.2266 0.902344C13.055 0.902344 13.7266 1.57392 13.7266 2.40234V3.40234C13.7266 4.23077 13.055 4.90234 12.2266 4.90234H11.2266C11.1298 4.90234 11.0352 4.89318 10.9435 4.87567V4.38666C10.9435 3.48224 10.4579 2.69123 9.73322 2.26013C9.80485 1.4984 10.4461 0.902344 11.2266 0.902344H12.2266Z" fill="#F87935"/>
<path d="M10.8729 5.96484H12.7344C13.977 5.96484 14.9844 6.9722 14.9844 8.21484V12.4648H12.1875V10.9648H13.4844V8.21484C13.4844 7.80063 13.1486 7.46484 12.7344 7.46484H10.7626C10.5823 7.34376 10.389 7.24046 10.1853 7.15746C10.5171 6.83811 10.7599 6.42694 10.8729 5.96484Z" fill="#F87935"/>
<path d="M4.74609 10.3125C4.74609 9.06986 5.75345 8.0625 6.99609 8.0625H9.00391C10.2465 8.0625 11.2539 9.06986 11.2539 10.3125V15.0938H4.74609V10.3125Z" fill="#FC9855"/>
<path d="M7.50391 3C6.67548 3 6.00391 3.67157 6.00391 4.5V5.5C6.00391 6.32843 6.67548 7 7.50391 7H8.50391C9.33233 7 10.0039 6.32843 10.0039 5.5V4.5C10.0039 3.67157 9.33233 3 8.50391 3H7.50391Z" fill="#FC9855"/>
</svg>
