<svg width="16" height="16" viewBox="0 0 16 16" fill="none" xmlns="http://www.w3.org/2000/svg">
<path d="M1.75 5H2.95312V6.5H2.5V12.5312H10.5V12.1719H12V13.2812C12 13.6955 11.6642 14.0312 11.25 14.0312H1.75C1.33579 14.0312 1 13.6955 1 13.2812V5.75C1 5.33579 1.33579 5 1.75 5Z" fill="#284DE2"/>
<path fill-rule="evenodd" clip-rule="evenodd" d="M3.95312 2.89063C3.95312 2.47641 4.28891 2.14062 4.70312 2.14062H14.2031C14.6173 2.14062 14.9531 2.47641 14.9531 2.89062V10.4219C14.9531 10.8361 14.6173 11.1719 14.2031 11.1719H4.70312C4.28891 11.1719 3.95312 10.8361 3.95312 10.4219V2.89063ZM6.20312 3.14062C6.06505 3.14062 5.95312 3.25255 5.95312 3.39062V3.89062C5.95312 4.0287 6.06505 4.14062 6.20312 4.14062H9.20312C9.3412 4.14062 9.45312 4.0287 9.45312 3.89062V3.39062C9.45312 3.25255 9.3412 3.14062 9.20312 3.14062H6.20312ZM6.20312 5.23438C6.06505 5.23438 5.95312 5.3463 5.95312 5.48438V8.85938C5.95312 8.99745 6.06505 9.10938 6.20312 9.10938H12.7031C12.8412 9.10938 12.9531 8.99745 12.9531 8.85938V5.48438C12.9531 5.3463 12.8412 5.23438 12.7031 5.23438H6.20312Z" fill="#5581FC"/>
</svg>
