<svg width="24" height="24" viewBox="0 0 24 24" fill="none" xmlns="http://www.w3.org/2000/svg">
<path d="M1.5 12.7499C1.5 11.5072 2.50736 10.4999 3.75 10.4999H11.25C12.4926 10.4999 13.5 11.5072 13.5 12.7499V20.2499C13.5 21.4925 12.4926 22.4999 11.25 22.4999H3.75C2.50736 22.4999 1.5 21.4925 1.5 20.2499V12.7499Z" fill="#494D5A"/>
<path fill-rule="evenodd" clip-rule="evenodd" d="M12.75 2.99988C13.1642 2.99988 13.5 2.66409 13.5 2.24988C13.5 1.83566 13.1642 1.49988 12.75 1.49988H3.75C2.50736 1.49988 1.5 2.50724 1.5 3.74988V20.2499C1.5 21.4925 2.50736 22.4999 3.75 22.4999H20.25C21.4926 22.4999 22.5 21.4925 22.5 20.2499V11.2499C22.5 10.8357 22.1642 10.4999 21.75 10.4999C21.3358 10.4999 21 10.8357 21 11.2499V20.2499C21 20.6641 20.6642 20.9999 20.25 20.9999H13.372C13.4549 20.7653 13.5 20.5129 13.5 20.2499V12.7499C13.5 11.5072 12.4926 10.4999 11.25 10.4999H3.75C3.48702 10.4999 3.23458 10.545 3 10.6279V3.74988C3 3.33566 3.33579 2.99988 3.75 2.99988H12.75ZM3 12.7499V20.2499C3 20.6382 3.29512 20.9576 3.67332 20.996C3.69853 20.9986 3.72411 20.9999 3.75 20.9999H11.25C11.6642 20.9999 12 20.6641 12 20.2499V12.7499C12 12.3357 11.6642 11.9999 11.25 11.9999H3.75C3.33579 11.9999 3 12.3357 3 12.7499Z" fill="#F7F7F8"/>
<path d="M21.0132 6.38623C21.0132 6.80044 21.349 7.13623 21.7632 7.13623C22.1774 7.13623 22.5132 6.80044 22.5132 6.38623V2.63635C22.5132 2.01503 22.0095 1.51135 21.3882 1.51135L17.6383 1.51135C17.2241 1.51135 16.8883 1.84714 16.8883 2.26135C16.8883 2.67557 17.2241 3.01135 17.6383 3.01135H19.9466L14.4697 8.48829C14.1768 8.78118 14.1768 9.25606 14.4697 9.54895C14.7626 9.84184 15.2374 9.84184 15.5303 9.54895L21.0132 4.06606V6.38623Z" fill="#F7F7F8"/>
</svg>
