<svg width="16" height="16" viewBox="0 0 16 16" fill="none" xmlns="http://www.w3.org/2000/svg">
<path d="M3 4.5C3 4.22386 3.22386 4 3.5 4H4.5C4.77614 4 5 4.22386 5 4.5C5 4.77614 4.77614 5 4.5 5H3.5C3.22386 5 3 4.77614 3 4.5Z" fill="#F7F7F8"/>
<path d="M3 6.5C3 6.22386 3.22386 6 3.5 6H4.5C4.77614 6 5 6.22386 5 6.5C5 6.77614 4.77614 7 4.5 7H3.5C3.22386 7 3 6.77614 3 6.5Z" fill="#F7F7F8"/>
<path d="M3.5 8C3.22386 8 3 8.22386 3 8.5C3 8.77614 3.22386 9 3.5 9H4.5C4.77614 9 5 8.77614 5 8.5C5 8.22386 4.77614 8 4.5 8H3.5Z" fill="#F7F7F8"/>
<path d="M3 2C1.89543 2 1 2.89543 1 4V12C1 13.1046 1.89543 14 3 14H13C14.1046 14 15 13.1046 15 12V4C15 2.89543 14.1046 2 13 2H3ZM13 3C13.5523 3 14 3.44772 14 4V12C14 12.5523 13.5523 13 13 13H7V3H13ZM2 12V4C2 3.44772 2.44772 3 3 3H6V13H3C2.44772 13 2 12.5523 2 12Z" fill="#F7F7F8"/>
</svg>
