<svg width="16" height="16" viewBox="0 0 16 16" fill="none" xmlns="http://www.w3.org/2000/svg">
<path fill-rule="evenodd" clip-rule="evenodd" d="M15 12.5006V13.4999C15 14.3283 14.3284 14.9999 13.5 14.9999H2.5C1.67157 14.9999 1 14.3283 1 13.4999V7.7451C1 7.02883 1.25627 6.33621 1.72248 5.79244L3.07918 4.21003C3.8598 3.29955 5.26068 3.27606 6.07138 4.15987L6.45348 4.57643C6.59637 4.73221 6.79806 4.82089 7.00945 4.82089C7.29413 4.82089 7.55456 4.66066 7.68289 4.40655L8.68394 2.42441C9.67236 0.467277 12.5218 0.639892 13.2668 2.70203L14.3728 5.76369L14.6468 6.27713C14.8787 6.71176 15 7.19681 15 7.68944V12.5006C15 12.5009 15 12.5004 15 12.5006ZM13.5 8.79013L13.5 13.4999H2.5V9.5515L3.0976 9.00223C3.53214 8.60285 4.26605 8.59222 4.71604 8.9788L5.19755 9.39246C5.5807 9.72162 6.10066 9.90658 6.64286 9.90658C7.35487 9.90658 8.0155 9.58847 8.38644 9.06703L9.71911 7.19361C10.4167 6.21291 12.1039 6.2866 12.6819 7.32302L13.5 8.79013Z" fill="#0FB369"/>
</svg>
