<svg width="12" height="12" viewBox="0 0 12 12" fill="none" xmlns="http://www.w3.org/2000/svg">
<g clip-path="url(#clip0_1578_46565)">
<mask id="mask0_1578_46565" style="mask-type:alpha" maskUnits="userSpaceOnUse" x="0" y="0" width="12" height="12">
<mask id="mask1_1578_46565" style="mask-type:alpha" maskUnits="userSpaceOnUse" x="0" y="1" width="11" height="10">
<path fill-rule="evenodd" clip-rule="evenodd" d="M6.26786 10.875C5.70571 10.875 5.25 10.4193 5.25 9.85714V8.68577L4.01075 7.19867C3.99088 7.17482 3.97206 7.15024 3.95434 7.125H1.5C1.08579 7.125 0.75 6.78921 0.75 6.375V1.97348C0.75 1.48984 1.201 1.13264 1.67178 1.24341L4.39839 1.88497L4.39556 1.89698C4.74702 1.67073 5.1849 1.50259 5.58413 1.38414C6.14098 1.21892 6.71192 1.125 7.0446 1.125H9.15812C9.45649 1.125 9.74264 1.24353 9.95361 1.4545L10.0126 1.51351C10.2786 1.77949 10.394 2.16079 10.3203 2.52964L10.284 2.7109C10.2612 2.82521 10.2928 2.94365 10.3695 3.03138L10.5239 3.20784C10.7666 3.48523 10.8581 3.86393 10.7687 4.22151L10.6631 4.64408C10.6374 4.74658 10.6562 4.85513 10.7148 4.94304L10.7798 5.04054C10.903 5.22534 10.9688 5.44248 10.9688 5.66458V6C10.9688 6.62132 10.4651 7.125 9.84378 7.125H8.04562C8.1783 7.4411 8.25 7.7854 8.25 8.14058V8.89286C8.25 9.98756 7.36257 10.875 6.26786 10.875ZM3.82016 2.5194L1.5 1.97348V6.375H3.75V4.87502L3.75003 4.87022V2.89017C3.75003 2.76204 3.77425 2.63641 3.82016 2.5194ZM6 9.85714C6 10.0051 6.11992 10.125 6.26786 10.125C6.94835 10.125 7.5 9.57335 7.5 8.89286V8.14058C7.5 7.7173 7.35752 7.3157 7.10772 6.99287C7.00988 6.86643 7.00043 6.69177 7.08583 6.55514C7.15587 6.44308 7.2787 6.375 7.41085 6.375H9.84378C10.0509 6.375 10.2188 6.20711 10.2188 6V5.66458C10.2188 5.59055 10.1969 5.51817 10.1558 5.45657L10.0908 5.35907C9.91498 5.09534 9.85857 4.76968 9.93544 4.46218L10.0411 4.03961C10.0709 3.92042 10.0404 3.79419 9.9595 3.70172L9.80509 3.52526C9.5748 3.26207 9.48 2.90674 9.54859 2.56381L9.58484 2.38255C9.60943 2.2596 9.57095 2.1325 9.48229 2.04384L9.42328 1.98484C9.35296 1.91451 9.25758 1.875 9.15812 1.875H7.0446C6.80962 1.875 6.31467 1.9497 5.79746 2.10316C5.27031 2.25957 4.80755 2.47281 4.57769 2.70267C4.52797 2.75239 4.50003 2.81984 4.50003 2.89017V4.875L4.5 4.87979V6.47846C4.5 6.56619 4.53076 6.65114 4.58692 6.71853L5.82617 8.20563C5.93849 8.34042 6 8.51032 6 8.68577V9.85714Z" fill="white"/>
</mask>
<g mask="url(#mask1_1578_46565)">
<rect width="12" height="12" fill="#F7F7F8"/>
</g>
</mask>
<g mask="url(#mask0_1578_46565)">
<rect width="12" height="12" fill="#F7F7F8"/>
</g>
</g>
<defs>
<clipPath id="clip0_1578_46565">
<rect width="12" height="12" fill="white"/>
</clipPath>
</defs>
</svg>
