<svg width="12" height="12" viewBox="0 0 12 12" fill="none" xmlns="http://www.w3.org/2000/svg">
<path d="M6.74487 0.752563C7.79209 0.80576 8.625 1.67186 8.625 2.7323V3.4845L8.6228 3.59546C8.60937 3.91181 8.53813 4.21719 8.41882 4.5H10.2188L10.2766 4.50146C10.871 4.53158 11.3438 5.02309 11.3438 5.625V5.96045L11.3408 6.04358C11.3265 6.23622 11.2623 6.42221 11.1548 6.58374L11.1552 6.58411L11.0903 6.68152L11.09 6.68188C11.0313 6.76985 11.0124 6.87864 11.038 6.98108L11.1438 7.40369C11.2331 7.76097 11.1418 8.13953 10.8992 8.41699L10.8988 8.41736L10.7446 8.59351C10.6679 8.68119 10.6361 8.79968 10.6589 8.91394L10.6952 9.09521C10.7689 9.464 10.6536 9.84544 10.3876 10.1115L10.3286 10.1704C10.1441 10.3549 9.90202 10.4689 9.64453 10.4945L9.5332 10.5H7.41943C7.08672 10.5 6.5158 10.4059 5.95898 10.2407C5.5651 10.1238 5.1339 9.95814 4.78491 9.73645C4.78109 9.73748 4.77744 9.7392 4.77356 9.74011L2.04675 10.3817C1.57599 10.4924 1.125 10.1351 1.125 9.65149V5.25C1.125 4.83579 1.46079 4.5 1.875 4.5H4.32898C4.34678 4.47462 4.36578 4.44999 4.38574 4.42603L5.625 2.93884V1.7677L5.63013 1.6637C5.68228 1.15055 6.11582 0.750126 6.6427 0.75L6.74487 0.752563ZM6.6427 1.5C6.49489 1.50008 6.37508 1.61989 6.375 1.7677V2.93884C6.375 3.11427 6.31334 3.28417 6.20105 3.41895L4.96216 4.90613C4.90599 4.97354 4.87504 5.05881 4.875 5.14636V8.73486L4.88013 8.78687C4.89032 8.83781 4.91535 8.88508 4.95264 8.92236C5.18247 9.1522 5.64538 9.36544 6.17249 9.52185C6.68955 9.67526 7.18438 9.74997 7.41943 9.75H9.5332L9.57019 9.74817C9.656 9.73963 9.73679 9.70169 9.79834 9.64014L9.8573 9.58118C9.9459 9.49257 9.98441 9.3654 9.95984 9.24243L9.92358 9.06116C9.85505 8.71827 9.95004 8.36264 10.1803 8.09949L10.3348 7.92297C10.4154 7.83067 10.4459 7.70452 10.4161 7.58533L10.3103 7.16272C10.2336 6.85531 10.2903 6.52939 10.4659 6.26587L10.5304 6.16882L10.5308 6.16846C10.5616 6.12222 10.5816 6.0699 10.5897 6.01538L10.5938 5.96045V5.625C10.5938 5.41789 10.4259 5.25 10.2188 5.25H7.78638C7.6556 5.24994 7.53378 5.18346 7.46301 5.07349C7.37459 4.93594 7.38298 4.75825 7.48206 4.63C7.7163 4.32686 7.85655 3.95608 7.87317 3.56323L7.875 3.4845V2.7323C7.875 2.07307 7.35711 1.53446 6.70605 1.50146L6.6427 1.5ZM1.875 9.65149L4.19568 9.1051C4.16192 9.01892 4.13937 8.92829 4.13013 8.83521L4.125 8.73486V5.25H1.875V9.65149Z" fill="#F7F7F8"/>
</svg>
