<svg width="12" height="12" viewBox="0 0 12 12" fill="none" xmlns="http://www.w3.org/2000/svg">
<path d="M6.91071 1.125C6.61485 1.125 6.375 1.36485 6.375 1.66071V2.84467C6.375 2.94413 6.33549 3.03951 6.26516 3.10984L4.71967 4.65533C4.57902 4.79598 4.5 4.98675 4.5 5.18566L4.50003 8.73483C4.50003 8.90462 4.56748 9.06745 4.68753 9.1875C5.2878 9.78777 6.85194 10.125 7.4196 10.125H9.53312C9.73203 10.125 9.9228 10.046 10.0634 9.90533L10.1225 9.84632C10.2998 9.66901 10.3767 9.4148 10.3276 9.16891L10.2913 8.98764C10.2456 8.75902 10.3088 8.52214 10.4623 8.34668L10.6167 8.17022C10.7785 7.98529 10.8395 7.73283 10.7799 7.49444L10.6742 7.07187C10.623 6.86687 10.6606 6.64976 10.7778 6.47394L10.8428 6.37644C10.925 6.25324 10.9688 6.10849 10.9688 5.96042V5.625C10.9688 5.21079 10.633 4.875 10.2188 4.875H7.78585C7.78299 4.875 7.78034 4.87353 7.77882 4.8711C7.77698 4.86815 7.77717 4.86437 7.7793 4.86162C8.07893 4.4744 8.25 3.9924 8.25 3.48442V2.46429C8.25 1.72462 7.65038 1.125 6.91071 1.125Z" fill="#F7F7F8"/>
<path d="M2.04122 10.3866L4.32413 9.86772C4.26533 9.82 4.20948 9.77007 4.15724 9.71783C3.89654 9.45712 3.75008 9.10353 3.75008 8.73483V6.75679L3.75005 6.74998V5.18566C3.75005 4.94494 3.80791 4.71019 3.91593 4.5H1.875C1.46079 4.5 1.125 4.83579 1.125 5.25V9.65521C1.125 10.1365 1.57189 10.4932 2.04122 10.3866Z" fill="#F7F7F8"/>
</svg>
