<svg width="16" height="16" viewBox="0 0 16 16" fill="none" xmlns="http://www.w3.org/2000/svg">
<path d="M13.473 12.7548C13.4987 12.7322 13.5226 12.7079 13.5447 12.6822C13.7588 12.5193 13.9204 12.2875 13.9944 12.0138L14.9909 8.32944C15.1922 7.58521 14.7965 6.80959 14.0759 6.53567L3.05916 2.34827C2.15815 2.00581 1.19844 2.58856 1.04688 3.49866C1.11632 3.66484 1.23031 3.81151 1.37971 3.92065L13.473 12.7548Z" fill="#5581FC"/>
<path d="M1.02539 4.90088V8.47041H1.03125V11.4365C1.03125 12.2649 1.70282 12.9365 2.53125 12.9365L12.0269 12.9375L9.97223 11.4365H2.53125L2.53125 6.0009L1.02539 4.90088Z" fill="#5581FC"/>
</svg>
