<svg width="16" height="16" viewBox="0 0 16 16" fill="none" xmlns="http://www.w3.org/2000/svg">
<path fill-rule="evenodd" clip-rule="evenodd" d="M8 15C11.866 15 15 11.866 15 8C15 4.13401 11.866 1 8 1C4.13401 1 1 4.13401 1 8C1 11.866 4.13401 15 8 15ZM13.3054 6.54459C12.8703 6.54726 12.4369 6.8166 12.3305 7.34847L11.9822 9.08982C11.8939 9.53167 11.3214 9.65605 11.0577 9.2907C10.8405 8.98984 10.3863 9.00962 10.1961 9.32822L8.8915 11.5133C8.79897 11.6683 8.75012 11.8454 8.75012 12.0259V13.4493C8.50486 13.4827 8.25445 13.5 8 13.5C4.96243 13.5 2.5 11.0376 2.5 8C2.5 7.01639 2.7582 6.09309 3.21052 5.29418C3.37311 5.48626 3.6261 5.64741 4.01366 5.72992C5.03918 5.94827 4.22628 7.13939 3.65588 7.82471C3.40166 8.13015 3.31444 8.54969 3.46107 8.91904L3.69596 9.51073C3.90536 10.0382 4.2246 10.5151 4.63248 10.9097L5.07268 11.3355C5.3366 11.5909 5.71922 11.681 6.06935 11.5703L7.21399 11.2086C7.49536 11.1197 7.72309 10.911 7.83622 10.6385L8.91347 8.0433C8.96391 7.92178 8.98988 7.79149 8.98988 7.65992V6.42978C8.98988 6.31355 8.94938 6.20094 8.87535 6.11133L7.80721 4.81841C7.53785 4.49237 7.76976 3.99996 8.19268 3.99996H8.61385C9.12006 3.99996 9.54643 3.62169 9.60673 3.11908L9.64433 2.80566C9.6465 2.78758 9.64816 2.76955 9.64935 2.75159C11.4246 3.3089 12.812 4.74202 13.3054 6.54459Z" fill="#5581FC"/>
</svg>
